<svg xmlns="http://www.w3.org/2000/svg" width="31.731" height="22.76" viewBox="0 0 31.731 22.76">
  <g id="construction-barrier" transform="translate(0 -70.684)">
    <path id="Path_41509" data-name="Path 41509" d="M30.934,70.684H.8a.8.8,0,0,0-.8.8V82.457a.8.8,0,0,0,.8.8H6.152V90.76H2.2a.8.8,0,0,0-.8.8v1.088a.8.8,0,0,0,.8.8h9.5a.8.8,0,0,0,.8-.8V91.558a.8.8,0,0,0-.8-.8H7.748V83.254H24.319V90.76H20.367a.8.8,0,0,0-.8.8v1.088a.8.8,0,0,0,.8.8h9.5a.8.8,0,0,0,.8-.8V91.558a.8.8,0,0,0-.8-.8H25.915V83.254h5.019a.8.8,0,0,0,.8-.8V71.482A.8.8,0,0,0,30.934,70.684ZM2.689,81.659H1.6V78.293l6.837-6.014h4.41Zm5.9,0L18.782,72.28H23.14L12.95,81.659Zm21.545-6.014L23.3,81.659h-4.41L29.042,72.28h1.093v3.366Z" fill="#19345e"/>
  </g>
</svg>
