<svg xmlns="http://www.w3.org/2000/svg" width="25.454" height="23.124" viewBox="0 0 25.454 23.124">
  <g id="programming-code" transform="translate(0 -17.951)">
    <g id="Group_21616" data-name="Group 21616" transform="translate(0 17.951)">
      <g id="Group_21615" data-name="Group 21615" transform="translate(0 0)">
        <path id="Path_41492" data-name="Path 41492" d="M23.924,17.951H1.53A1.531,1.531,0,0,0,0,19.481V39.545a1.531,1.531,0,0,0,1.53,1.53H23.924a1.531,1.531,0,0,0,1.529-1.53V19.481A1.531,1.531,0,0,0,23.924,17.951ZM19.312,20.52a.565.565,0,0,1,.565-.565h.565a.565.565,0,0,1,.565.565v.64a.565.565,0,0,1-.565.565h-.565a.565.565,0,0,1-.565-.565Zm-2.626,0a.565.565,0,0,1,.565-.565h.565a.565.565,0,0,1,.565.565v.64a.565.565,0,0,1-.565.565h-.565a.565.565,0,0,1-.565-.565Zm6.932,18.719H1.836V23.421H23.618V39.239Zm.015-18.079a.565.565,0,0,1-.565.565H22.5a.565.565,0,0,1-.565-.565v-.64a.565.565,0,0,1,.565-.565h.565a.565.565,0,0,1,.565.565Z" transform="translate(0 -17.951)" fill="#19345e"/>
        <path id="Path_41493" data-name="Path 41493" d="M77.554,183.185l4.094,1.9a.8.8,0,0,0,1.131-.722v-.021a.8.8,0,0,0-.461-.722l-2.561-1.19,2.561-1.19a.8.8,0,0,0,.461-.722V180.5a.794.794,0,0,0-.8-.8.8.8,0,0,0-.335.074l-4.094,1.9a.8.8,0,0,0-.46.722v.057A.8.8,0,0,0,77.554,183.185Z" transform="translate(-72.09 -169.21)" fill="#19345e"/>
        <path id="Path_41494" data-name="Path 41494" d="M163.053,154.407a.8.8,0,0,0,.643.326h.021a.793.793,0,0,0,.758-.553l2.7-8.357a.8.8,0,0,0-.758-1.039h-.02a.793.793,0,0,0-.758.553l-2.7,8.358A.8.8,0,0,0,163.053,154.407Z" transform="translate(-152.327 -136.553)" fill="#19345e"/>
        <path id="Path_41495" data-name="Path 41495" d="M227.49,180.524a.8.8,0,0,0,.46.722l2.561,1.19-2.561,1.19a.8.8,0,0,0-.46.722v.021a.8.8,0,0,0,1.131.722l4.094-1.9a.8.8,0,0,0,.46-.721v-.057a.8.8,0,0,0-.46-.721l-4.094-1.9a.8.8,0,0,0-1.131.722v.021h0Z" transform="translate(-212.725 -169.21)" fill="#19345e"/>
      </g>
    </g>
  </g>
</svg>
