<svg xmlns="http://www.w3.org/2000/svg" width="26.307" height="19.018" viewBox="0 0 26.307 19.018">
  <g id="icon" transform="translate(0 -68.657)">
    <path id="Path_41510" data-name="Path 41510" d="M26.307,71.015v7.963s-1.7.336-2.055.38A2.436,2.436,0,0,1,22,78.992c-1.229-1.178-5.6-5.522-5.6-5.522a1.66,1.66,0,0,0-1.962-.1c-1.11.585-2.755,1.442-3.443,1.776A1.582,1.582,0,0,1,8.626,73.9a1.617,1.617,0,0,1,.983-1.412c1.567-.95,4.87-2.8,6.246-3.535.836-.445,1.439-.483,2.587.484,1.414,1.189,2.672,2.273,2.672,2.273a1.307,1.307,0,0,0,1.065.2C23.786,71.58,26.307,71.015,26.307,71.015ZM8.922,84.508a1.391,1.391,0,0,0-1.668-1.923,1.435,1.435,0,0,0-.3-1.417,1.468,1.468,0,0,0-1.4-.355,1.434,1.434,0,0,0-.3-1.415,1.585,1.585,0,0,0-2.219.058c-.649.623-1.064,1.75-.485,2.414s1.242.259,1.749.143c-.141.5-.563.97-.043,1.627s1.242.259,1.749.144c-.141.5-.545,1.015-.045,1.624s1.33.286,1.876.116c-.211.541-.661,1.125-.082,1.779s1.914.354,2.567-.269a1.556,1.556,0,0,0,.141-2.2A1.482,1.482,0,0,0,8.922,84.508ZM20.83,80.365c-4.718-4.718-2.5-2.5-5.037-5.042a1.654,1.654,0,0,0-1.769-.318c-.706.309-1.615.731-2.3,1.053a3.793,3.793,0,0,1-1.546.514,2.623,2.623,0,0,1-1.386-4.855c1.048-.725,3.461-2.009,3.461-2.009a3.029,3.029,0,0,0-2.345-.931c-1.61,0-4.973,2.2-4.973,2.2a2.629,2.629,0,0,1-2.314.061L0,70.128V79.24s.749.217,1.421.491a3,3,0,0,1,.737-1.164,2.9,2.9,0,0,1,3.981-.029,2.512,2.512,0,0,1,.628,1.116,2.542,2.542,0,0,1,1.077.657,2.507,2.507,0,0,1,.629,1.114A2.563,2.563,0,0,1,10.216,83.3a2.579,2.579,0,0,1,1.124.674,2.651,2.651,0,0,1,.7,2.3,0,0,0,0,1,0,0c.01.013.378.423.608.655A1.156,1.156,0,0,0,14.283,85.3c-.016-.016-1.623-1.7-1.493-1.827s2.175,2,2.213,2.039a1.156,1.156,0,0,0,1.634-1.634c-.022-.021-.114-.109-.148-.144,0,0-2.029-1.808-1.875-1.962s2.677,2.2,2.681,2.2a1.141,1.141,0,0,0,1.644-1.578c-.008-.024-1.921-2.023-1.772-2.174s2.045,1.8,2.048,1.8a1.156,1.156,0,0,0,1.634-1.636Z" fill="#19345e"/>
  </g>
</svg>
