<svg id="Group_21630" data-name="Group 21630" xmlns="http://www.w3.org/2000/svg" width="22.024" height="26.552" viewBox="0 0 22.024 26.552">
  <g id="Group_21623" data-name="Group 21623" transform="translate(11.566 17.063)">
    <path id="Path_41502" data-name="Path 41502" d="M222.612,273.683a1.261,1.261,0,0,0-.354-.257,4.274,4.274,0,0,0-.9-.317v2.375a1.687,1.687,0,0,0,1.33-.7h0a1.085,1.085,0,0,0,.1-.741A.746.746,0,0,0,222.612,273.683Z" transform="translate(-221.36 -273.108)" fill="#19345e"/>
  </g>
  <g id="Group_21624" data-name="Group 21624" transform="translate(12.893 18.737)">
    <path id="Path_41503" data-name="Path 41503" d="M242.6,299.9l0,0h0Z" transform="translate(-242.604 -299.9)" fill="#19345e"/>
  </g>
  <g id="Group_21625" data-name="Group 21625" transform="translate(9.072 13.252)">
    <path id="Path_41504" data-name="Path 41504" d="M181.6,212.695a.891.891,0,0,0-.154.418,1,1,0,0,0,.051.462.741.741,0,0,0,.287.316,2.246,2.246,0,0,0,.427.22c.125.05.265.1.416.145v-2.149A1.64,1.64,0,0,0,181.6,212.695Z" transform="translate(-181.441 -212.106)" fill="#19345e"/>
  </g>
  <g id="Group_21626" data-name="Group 21626" transform="translate(12.896 18.72)">
    <path id="Path_41505" data-name="Path 41505" d="M242.657,299.619l-.01.017h0Z" transform="translate(-242.647 -299.619)" fill="#19345e"/>
  </g>
  <g id="Group_21627" data-name="Group 21627" transform="translate(12.918 18.696)">
    <path id="Path_41506" data-name="Path 41506" d="M243,299.245Z" transform="translate(-243.004 -299.244)" fill="#19345e"/>
  </g>
  <g id="Group_21628" data-name="Group 21628" transform="translate(0 0)">
    <path id="Path_41507" data-name="Path 41507" d="M48.641,5.777c2.02-1.7,3.37-5.519,2.539-5.687-1.1-.222-3.5.752-4.659.924-1.643.2-3.432-1.782-4.437-.678-.817.9.585,4.161,2.779,5.582-6.545,3.217-15.744,19.364.3,20.536C67.374,28.076,56.255,8.912,48.641,5.777Zm1.907,12.735a2.335,2.335,0,0,1-.9,1.585,3.442,3.442,0,0,1-1.843.651v.7a.653.653,0,1,1-1.306,0v-.76c-.113-.021-.224-.047-.335-.077a3.206,3.206,0,0,1-1.6-.983,2.88,2.88,0,0,1-.492-.814c-.03-.078-.058-.157-.081-.236a1.212,1.212,0,0,1-.051-.221.653.653,0,0,1,1.27-.271c.025.075.042.152.07.227a1.456,1.456,0,0,0,.1.214,1.665,1.665,0,0,0,.287.367,1.944,1.944,0,0,0,.831.453V16.759a4.648,4.648,0,0,1-1.713-.74,1.993,1.993,0,0,1-.578-.695,2.174,2.174,0,0,1-.2-.935,2.228,2.228,0,0,1,.2-.947,2.308,2.308,0,0,1,.536-.735,3.271,3.271,0,0,1,1.761-.78V11.2a.653.653,0,1,1,1.306,0v.718q.128.016.255.039a3.226,3.226,0,0,1,1.705.828,2.492,2.492,0,0,1,.522.75,2.392,2.392,0,0,1,.092.239,1.451,1.451,0,0,1,.061.233.653.653,0,0,1-1.256.33c-.027-.071-.041-.147-.069-.218a1.151,1.151,0,0,0-.107-.206,1.246,1.246,0,0,0-.309-.324,2.117,2.117,0,0,0-.9-.35v2.473a8.292,8.292,0,0,1,1.116.331,2.608,2.608,0,0,1,1.361,1.066c-.046-.081-.091-.16,0,0s.048.084,0,0A2.33,2.33,0,0,1,50.548,18.512Z" transform="translate(-36.238 0)" fill="#19345e"/>
  </g>
  <g id="Group_21629" data-name="Group 21629" transform="translate(12.877 18.754)">
    <path id="Path_41508" data-name="Path 41508" d="M242.347,300.169l-.01.017Z" transform="translate(-242.337 -300.169)" fill="#19345e"/>
  </g>
</svg>
