<svg xmlns="http://www.w3.org/2000/svg" width="26.77" height="28.396" viewBox="0 0 26.77 28.396">
  <g id="Group_21632" data-name="Group 21632" transform="translate(-347 -2403)">
    <g id="Group_21617" data-name="Group 21617" transform="translate(347 2403)">
      <path id="Path_41496" data-name="Path 41496" d="M16.361,27.231a1.606,1.606,0,0,1-.883.62l-1.773.484a1.591,1.591,0,0,1-2.011-1.393l-.156-1.831a1.568,1.568,0,0,1,.278-1.054l.065-.094H5.558a.931.931,0,0,1,0-1.861h7.655l1.711-2.443H5.558a.931.931,0,0,1,0-1.862l10.683-.027,4.006-5.744V7.772a1.241,1.241,0,0,0-1.238-1.263H15.942V8.936a2.062,2.062,0,0,1-2.08,2.052H7.694A2.035,2.035,0,0,1,5.643,8.936V6.509h-3.1A1.262,1.262,0,0,0,1.28,7.772v21.7a1.289,1.289,0,0,0,1.263,1.294H19.007a1.268,1.268,0,0,0,1.238-1.294v-7.76Zm-10.8-13.74H15.995a.931.931,0,0,1,0,1.861H5.558a.931.931,0,0,1,0-1.861Z" transform="translate(-1.28 -2.373)" fill="#19345e"/>
      <path id="Path_41497" data-name="Path 41497" d="M10.915,7.394h6.162a.846.846,0,0,0,.846-.846V3a.846.846,0,0,0-.846-.846h-.928a2.169,2.169,0,0,0-4.338,0h-.9A.846.846,0,0,0,10.069,3V6.547A.846.846,0,0,0,10.915,7.394ZM13.98,1.2a.966.966,0,0,1,.967.956H13.012A.968.968,0,0,1,13.98,1.2Z" transform="translate(-4.484)" fill="#19345e"/>
      <path id="Path_41498" data-name="Path 41498" d="M35.618,8.077a.6.6,0,0,0-.249-.387L33.826,6.615a.6.6,0,0,0-.833.148L22.064,22.435,24.589,24.2,35.519,8.525A.6.6,0,0,0,35.618,8.077Z" transform="translate(-8.857 -2.372)" fill="#19345e"/>
      <path id="Path_41499" data-name="Path 41499" d="M19.354,34.915l.158,1.84a.353.353,0,0,0,.15.262.364.364,0,0,0,.2.066.335.335,0,0,0,.093-.013l1.782-.488a.362.362,0,0,0,.2-.14l.669-.96-2.527-1.761-.669.96A.348.348,0,0,0,19.354,34.915Z" transform="translate(-7.868 -12.293)" fill="#19345e"/>
    </g>
  </g>
</svg>
