<svg xmlns="http://www.w3.org/2000/svg" width="18.631" height="35.903" viewBox="0 0 18.631 35.903">
  <g id="Group_21631" data-name="Group 21631" transform="translate(-1175 -1743)">
    <path id="Path_41488" data-name="Path 41488" d="M67.734,62.532a3.12,3.12,0,1,0-3.12-3.12A3.119,3.119,0,0,0,67.734,62.532Z" transform="translate(1113.449 1690.928)" fill="#19345e"/>
    <path id="Path_41489" data-name="Path 41489" d="M198.6,45.555c-.043.03-.084.063-.124.1a1.8,1.8,0,0,1,1.809,2.3l-.718,2.453.492.7-.207.146a1.256,1.256,0,0,0-.493,1.336l.754,2.949a1.255,1.255,0,1,0,2.432-.621l-.54-2.111a11.3,11.3,0,0,1,1.153-.787h0a2.007,2.007,0,0,0,.483-2.8L201.4,46.038a2.008,2.008,0,0,0-2.8-.483Z" transform="translate(989.62 1701.2)" fill="#19345e"/>
    <path id="Path_41490" data-name="Path 41490" d="M160.486,3.345a1.841,1.841,0,1,0-2.565-.443A1.843,1.843,0,0,0,160.486,3.345Z" transform="translate(1027.448 1743)" fill="#19345e"/>
    <path id="Path_41491" data-name="Path 41491" d="M37.216,66.04l-.016.017-.117.4a1.8,1.8,0,0,1-1.19,1.211s-4.994.933-4.915.909L35.715,67.1a1.2,1.2,0,0,0,.793-.808l1.585-5.411a1.2,1.2,0,0,0-2.3-.674l-1.4,4.8-.817.255-2.232.7h-3.78a1.4,1.4,0,0,0-1.4,1.4v10.07a1.574,1.574,0,0,0-.012.183l-.014,5.129-2.27,5.928a1.574,1.574,0,1,0,2.94,1.126l2.373-6.2a1.575,1.575,0,0,0,.1-.559l.01-3.723h1.211l2.175,3.251-.859,6.458a1.574,1.574,0,1,0,3.121.415l.937-7.047a1.574,1.574,0,0,0-.252-1.083l-1.9-2.843V69.5l2.755.179.078,0a1.2,1.2,0,0,0,.871-.375l.49-.518,0-.014Z" transform="translate(1151.239 1688.109)" fill="#19345e"/>
  </g>
</svg>
