<svg xmlns="http://www.w3.org/2000/svg" width="21.766" height="29.021" viewBox="0 0 21.766 29.021">
  <g id="Group_21609" data-name="Group 21609" transform="translate(-436 -4760)">
    <path id="sprout" d="M84,14.511H74.2A19,19,0,0,0,73.732,8.5a29.128,29.128,0,0,1,1.879,4.647,4.69,4.69,0,0,0,2.95-4.773C78.561,4.186,73.119,0,73.119,0s-5.442,4.186-5.442,8.372a4.781,4.781,0,0,0,4.747,5.181c-.009.332-.021.657-.04.958H62.236v3.628h2.1l1.727,10.883H80.173L81.9,18.138H84Z" transform="translate(373.764 4760)" fill="#19345e"/>
  </g>
</svg>
