<svg xmlns="http://www.w3.org/2000/svg" width="26.591" height="26.592" viewBox="0 0 26.591 26.592">
  <g id="start-up" transform="translate(-0.001 -0.001)">
    <path id="Path_38456" data-name="Path 38456" d="M73.232,284.178a.78.78,0,0,0,.145.9l.19.19c.55-.652,1.192-1.36,1.97-2.138.055-.055.112-.082.167-.132l-1.226-1.226C73.766,283.062,73.351,283.943,73.232,284.178Zm0,0" transform="translate(-69.349 -267.138)" fill="#19345e"/>
    <path id="Path_38457" data-name="Path 38457" d="M165.025,389.729c-.78.78-1.486,1.423-2.134,1.973l.258.258a.779.779,0,0,0,.907.142c.4-.208,1.038-.507,2.385-1.257l-1.283-1.283C165.107,389.618,165.08,389.674,165.025,389.729Zm0,0" transform="translate(-154.43 -369.329)" fill="#19345e"/>
    <path id="Path_38458" data-name="Path 38458" d="M66.672,311.542c-.563-.563-2.146-.058-2.89.685a20.718,20.718,0,0,0-4.116,5.294.779.779,0,0,0,1.042,1.04,20.869,20.869,0,0,0,5.278-4.13c.818-.818,1.221-2.354.687-2.888Zm0,0" transform="translate(-56.493 -295.133)" fill="#19345e"/>
    <path id="Path_38459" data-name="Path 38459" d="M2.432,165.649l-2.2,2.2a.779.779,0,0,0,.752,1.3,6.4,6.4,0,0,1,2.944-.273,41.8,41.8,0,0,1,3.225-4.92C6.49,163.54,4.306,163.775,2.432,165.649Zm0,0" transform="translate(0 -155.276)" fill="#19345e"/>
    <path id="Path_38460" data-name="Path 38460" d="M246.069,383.446a.777.777,0,0,0,.9-.145l2.2-2.2c1.706-1.706,2.006-3.908,1.619-4.606a44.462,44.462,0,0,1-4.924,3.2,9.547,9.547,0,0,1-.22,2.944A.777.777,0,0,0,246.069,383.446Zm0,0" transform="translate(-232.882 -356.938)" fill="#19345e"/>
    <path id="Path_38461" data-name="Path 38461" d="M285.327,137.992a2.337,2.337,0,1,0,3.305,0A2.34,2.34,0,0,0,285.327,137.992Zm0,0" transform="translate(-269.86 -130.176)" fill="#19345e"/>
    <path id="Path_38462" data-name="Path 38462" d="M394.179.761a.778.778,0,0,0-.719-.719,15.4,15.4,0,0,0-5.687.663,6.54,6.54,0,0,0,1.938,3.806,6.52,6.52,0,0,0,3.88,1.934A16.11,16.11,0,0,0,394.179.761Zm0,0" transform="translate(-367.633 0)" fill="#19345e"/>
    <path id="Path_38463" data-name="Path 38463" d="M129.377,28.361A8.184,8.184,0,0,1,127.035,24c-4.678,1.919-9.156,6.108-12.7,11.994l1.758,1.758a3.281,3.281,0,0,1,3.584.308,3.278,3.278,0,0,1,.307,3.584l1.816,1.816c4.529-2.729,9.8-7.029,12.043-12.75A8.145,8.145,0,0,1,129.377,28.361Zm-1.1,6.61a3.9,3.9,0,1,1,0-5.509A3.9,3.9,0,0,1,128.275,34.971Zm0,0" transform="translate(-108.401 -22.749)" fill="#19345e"/>
  </g>
</svg>
