<svg id="Group_21620" data-name="Group 21620" xmlns="http://www.w3.org/2000/svg" width="25.922" height="25.02" viewBox="0 0 25.922 25.02">
  <g id="Group_21619" data-name="Group 21619" transform="translate(0 0)">
    <path id="Path_41500" data-name="Path 41500" d="M26.48,89.522l-.063-.063a1.534,1.534,0,0,0-2.167,0l-2.333,2.357a.322.322,0,0,1-.448.01L18.2,88.809a1.71,1.71,0,0,0-1.164-.455H12.17a.447.447,0,0,0-.308.122L7.739,92.392a1.579,1.579,0,0,0-.092,2.172,1.524,1.524,0,0,0,1.125.492h.008A1.533,1.533,0,0,0,9.9,94.564l2.912-3.082h1.042l-6.8,7.6H2.863A1.827,1.827,0,0,0,1,100.769a1.771,1.771,0,0,0,.488,1.326,1.794,1.794,0,0,0,1.3.557H9.043a.446.446,0,0,0,.326-.142l3.2-3.421,2.7,2.818-.814,5.2a1.784,1.784,0,0,0,1.726,2.246,1.783,1.783,0,0,0,1.74-1.4l1.39-7.456a.447.447,0,0,0-.124-.4l-3.71-3.7,2.947-2.943,2.054,2.054a1.554,1.554,0,0,0,2.147,0l3.855-3.854a1.507,1.507,0,0,0,0-2.131Z" transform="translate(-1 -84.333)" fill="#19345e"/>
    <path id="Path_41501" data-name="Path 41501" d="M356.78,14.267a2.681,2.681,0,1,0-2.681-2.681A2.683,2.683,0,0,0,356.78,14.267Z" transform="translate(-336.227 -8.905)" fill="#19345e"/>
  </g>
</svg>
