<svg xmlns="http://www.w3.org/2000/svg" width="22.953" height="18.793" viewBox="0 0 22.953 18.793">
  <g id="Group_20329" data-name="Group 20329" transform="translate(0)">
    <path id="Path_38171" data-name="Path 38171" d="M74.6,85.47a3.247,3.247,0,1,1-3.25-3.25A3.251,3.251,0,0,1,74.6,85.47Z" transform="translate(-59.883 -69.934)" fill="#19345e"/>
    <g id="Group_20327" data-name="Group 20327" transform="translate(3.556 6.204)">
      <path id="Path_38172" data-name="Path 38172" d="M80.708,87.142a7.515,7.515,0,0,0-5.371-2.216,7.421,7.421,0,0,0-5.358,2.237L67.423,84.6a11.2,11.2,0,0,1,15.822,0l-2.536,2.543Z" transform="translate(-67.423 -81.325)" fill="#19345e"/>
    </g>
    <g id="Group_20328" data-name="Group 20328">
      <path id="Path_38173" data-name="Path 38173" d="M87.291,87.729a12.619,12.619,0,0,0-17.848,0L66.9,85.166a16.234,16.234,0,0,1,22.954,0l-2.563,2.563Z" transform="translate(-66.9 -80.413)" fill="#19345e"/>
    </g>
  </g>
</svg>
