<svg xmlns="http://www.w3.org/2000/svg" width="24.381" height="27.797" viewBox="0 0 24.381 27.797">
  <g id="tree-silhouette" transform="translate(-36.252)">
    <path id="Path_41476" data-name="Path 41476" d="M59.879,8.229a4.079,4.079,0,0,0-3.653-4.057,4.067,4.067,0,0,0-5.919-2.078A4.075,4.075,0,0,0,42.722,3.43a4.146,4.146,0,0,0-.5-.034,4.079,4.079,0,0,0-4.079,4.079c0,.11.008.218.017.327a4.073,4.073,0,0,0-.382,6.62c0,.073-.011.146-.011.221a4.076,4.076,0,0,0,5.951,3.623c.777.558,1.89,1.256,2.428,1.117,0,0,.2,3.1.157,3.893a27.423,27.423,0,0,1-.849,4.521h4.9a34.876,34.876,0,0,1-.755-4.019,18.215,18.215,0,0,1,.314-2.858l1.7-1.76a4.088,4.088,0,0,0,6.356-2.955,4.074,4.074,0,0,0,1.638-6.524A4.066,4.066,0,0,0,59.879,8.229ZM44.654,17.592a4.1,4.1,0,0,0,.811-1.082l.8,1.678S45.83,18.38,44.654,17.592Zm2.995,1.036c-.414.075-1.12-1.2-1.621-2.238a3.974,3.974,0,0,0,2.354.412C48.253,17.632,48.026,18.559,47.649,18.628Zm1.761.817c-.959.266-.385-1.719-.11-2.869a4,4,0,0,0,.574-.264A4.057,4.057,0,0,0,50.887,18.5,4.252,4.252,0,0,1,49.41,19.445Z" fill="#19345e"/>
  </g>
</svg>
