<svg id="Layer_1" data-name="Layer 1" xmlns="http://www.w3.org/2000/svg" viewBox="0 0 300 300"><defs><style>.cls-1{fill:#f47522;}.cls-2{fill:#1a345f;}</style></defs><title>03172020_alterra bills_icon</title><path class="cls-1" d="M75.8,147.24a6.08,6.08,0,0,1-3.58,2.38A6.06,6.06,0,0,1,75.8,152a7.74,7.74,0,0,1,1.49,4.85v9.5a6.1,6.1,0,0,0,1.26,4.12,4,4,0,0,0,3.17,1.46h2.66v6H80.45q-5.33,0-8.14-2.59c-1.88-1.73-2.82-4.25-2.82-7.54v-9.18a8.39,8.39,0,0,0-.89-4.47,5.2,5.2,0,0,0-3.16-2l-2.35-.69v-3.68l2.35-.7a5.19,5.19,0,0,0,3.16-2,8.4,8.4,0,0,0,.89-4.46v-9.19c0-3.29,1-5.8,2.89-7.54s4.61-2.59,8.07-2.59h3.93v6H81.72a4,4,0,0,0-3.17,1.46,6.11,6.11,0,0,0-1.26,4.12v9.5A7.69,7.69,0,0,1,75.8,147.24Z"/><path class="cls-1" d="M137.4,134.42v32h-7.8v-5.13a10.31,10.31,0,0,1-4.18,4.15,12.74,12.74,0,0,1-6.2,1.48,13.62,13.62,0,0,1-7.42-2,13.38,13.38,0,0,1-5-5.76,20.08,20.08,0,0,1-1.77-8.68,20.39,20.39,0,0,1,1.8-8.77,14.15,14.15,0,0,1,5-6,13.1,13.1,0,0,1,7.35-2.12,12.75,12.75,0,0,1,6.2,1.49,10.25,10.25,0,0,1,4.18,4.15v-4.81Zm-10,23.56c1.44-1.81,2.15-4.37,2.15-7.66s-.71-6-2.15-7.8a7.39,7.39,0,0,0-6.14-2.72,7.31,7.31,0,0,0-6.12,2.82q-2.18,2.82-2.18,7.82c0,3.29.73,5.83,2.18,7.6a7.54,7.54,0,0,0,6.18,2.66A7.29,7.29,0,0,0,127.45,158Z"/><path class="cls-1" d="M171.57,135.71a14.28,14.28,0,0,1,5,6,20.39,20.39,0,0,1,1.81,8.77,20.08,20.08,0,0,1-1.78,8.68,13.11,13.11,0,0,1-12.35,7.79,12.78,12.78,0,0,1-6.21-1.48,10.44,10.44,0,0,1-4.18-4.15v18.81H146V143.48a72,72,0,0,0-.51-9.06h7.41l.64,5.51a9.66,9.66,0,0,1,4.12-4.66,12.68,12.68,0,0,1,6.58-1.68A13,13,0,0,1,171.57,135.71ZM168.24,158c1.44-1.77,2.15-4.31,2.15-7.6s-.71-5.94-2.15-7.82a7.21,7.21,0,0,0-6.08-2.82,7.47,7.47,0,0,0-6.21,2.72q-2.14,2.73-2.15,7.8c0,3.33.72,5.9,2.15,7.69a8.4,8.4,0,0,0,12.29,0Z"/><path class="cls-1" d="M184.77,119.91h8.81v7.79h-8.81Zm.52,46.5v-32h7.85v32Z"/><path class="cls-1" d="M236.91,147.78v3.68l-2.34.69a5.23,5.23,0,0,0-3.17,2,8.39,8.39,0,0,0-.89,4.47v9.18c0,3.29-.94,5.81-2.82,7.54s-4.59,2.59-8.14,2.59h-3.93v-6h2.73a4,4,0,0,0,3.1-1.46,6,6,0,0,0,1.27-4.12v-9.5A7.74,7.74,0,0,1,224.2,152a6.08,6.08,0,0,1,3.59-2.37,6.1,6.1,0,0,1-3.59-2.38,7.69,7.69,0,0,1-1.48-4.84v-9.5a6.06,6.06,0,0,0-1.27-4.12,4,4,0,0,0-3.1-1.46h-2.73v-6h3.93q5.19,0,8.08,2.59t2.88,7.54v9.19a8.4,8.4,0,0,0,.89,4.46,5.22,5.22,0,0,0,3.17,2Z"/><path class="cls-2" d="M79,239.54h0a5.33,5.33,0,0,0-.93-7.2c-45.59-38-53.67-102.48-16.6-150.58C96.68,36,161.9,24.66,210.49,55.89a112.09,112.09,0,0,1,30.42,159.75c-33.2,46.06-89.56,58.92-138.26,32.68a5.32,5.32,0,0,0-6.84,1.56h0a5.33,5.33,0,0,0,1.76,7.79c55.07,29.7,120.06,13.62,155.42-40.9,34.38-53,22.42-124.25-27.36-163.14a122.71,122.71,0,0,0-175,24.85C12.81,131,22.29,199.76,71.24,240.55A5.33,5.33,0,0,0,79,239.54Z"/></svg>