<svg id="Layer_1" data-name="Layer 1" xmlns="http://www.w3.org/2000/svg" viewBox="0 0 300 300"><defs><style>.cls-1{fill:#f47522;}.cls-2{fill:#1a345f;}</style></defs><title>03182020_alterra bills_icon</title><circle class="cls-1" cx="176.42" cy="115.32" r="83.79"/><path class="cls-2" d="M162.62,207.83a3.89,3.89,0,0,0-3.89,3.89v9.33H56.89a3.89,3.89,0,0,0,0,7.78H158.73v22.54a9.34,9.34,0,0,1-9.33,9.32H56.89a9.33,9.33,0,0,1-9.32-9.32V86.17a9.33,9.33,0,0,1,9.32-9.32H149.4a9.34,9.34,0,0,1,9.33,9.32V106a3.89,3.89,0,1,0,7.78,0V86.17A17.13,17.13,0,0,0,149.4,69.06H56.89a17.13,17.13,0,0,0-17.1,17.11v165.2a17.13,17.13,0,0,0,17.1,17.11H149.4a17.13,17.13,0,0,0,17.11-17.11V211.72A3.9,3.9,0,0,0,162.62,207.83Z"/><path class="cls-2" d="M116.36,242a3.89,3.89,0,0,0,0-7.78H89.93a7.2,7.2,0,0,0-7.19,7.2v6.6a7.2,7.2,0,0,0,7.19,7.2h26.43a3.89,3.89,0,0,0,0-7.78H90.52V242Z"/><path class="cls-2" d="M162.62,174.79a6,6,0,0,1-6-6,3.89,3.89,0,1,0-7.78,0,13.82,13.82,0,0,0,9.91,13.2v3.32a3.89,3.89,0,1,0,7.78,0V182a13.8,13.8,0,0,0-3.89-27,6,6,0,1,1,6-6,3.89,3.89,0,1,0,7.78,0,13.79,13.79,0,0,0-9.91-13.19v-3.32a3.89,3.89,0,1,0-7.78,0v3.32a13.8,13.8,0,0,0,3.89,27,6,6,0,0,1,0,12Z"/><path class="cls-2" d="M204.69,147.58a43.61,43.61,0,0,0-42.06-32.26h0a43.53,43.53,0,0,0-41,58.07,3.9,3.9,0,1,0,7.35-2.61,35.12,35.12,0,0,1-2-11.92,35.76,35.76,0,1,1,10.44,25.26,3.89,3.89,0,0,0-5.46,5.52,43.54,43.54,0,0,0,72.85-42.06Z"/><path class="cls-2" d="M86.62,133h23.14a3.89,3.89,0,1,0,0-7.78H90.52v-2.72a3.89,3.89,0,0,0-6.31-3L67.69,132.7a3.89,3.89,0,0,0,0,6.06L84.21,152a3.92,3.92,0,0,0,2.41.86h.06a3.58,3.58,0,0,0,1.62-.39,3.9,3.9,0,0,0,2.22-3.5v-2.72h19.24a3.89,3.89,0,0,0,0-7.78H86.62A3.9,3.9,0,0,0,83,141l-6.62-5.29,6.62-5.3A3.9,3.9,0,0,0,86.62,133Z"/><path class="cls-2" d="M91.55,192.09a3.59,3.59,0,0,0,1.63.39h.06a3.89,3.89,0,0,0,2.41-.85l16.52-13.22a3.88,3.88,0,0,0,0-6.07L95.65,159.12a3.9,3.9,0,0,0-6.31,3v2.72H70.11a3.89,3.89,0,1,0,0,7.78H93.24a3.92,3.92,0,0,0,3.67-2.58l6.62,5.3-6.62,5.29a4,4,0,0,0-3.67-2.58H70.11a3.9,3.9,0,0,0,0,7.79H89.34v2.71A3.93,3.93,0,0,0,91.55,192.09Z"/><circle class="cls-2" cx="63.5" cy="89.47" r="3.89"/><circle class="cls-2" cx="76.72" cy="89.47" r="3.89"/><path class="cls-2" d="M133.47,112.6a3.89,3.89,0,0,0-3.89-3.89H109.76a3.89,3.89,0,1,0,0,7.78h19.82A3.89,3.89,0,0,0,133.47,112.6Z"/><path class="cls-2" d="M99.84,209H123a3.89,3.89,0,0,0,0-7.78H99.84a3.89,3.89,0,0,0,0,7.78Z"/></svg>