<svg id="Layer_1" data-name="Layer 1" xmlns="http://www.w3.org/2000/svg" viewBox="0 0 300 300"><defs><style>.cls-1{fill:#f47522;}.cls-2{fill:#1a345f;}</style></defs><title>03172020_alterra bills_icon</title><circle class="cls-1" cx="189.9" cy="115.34" r="83.79"/><path class="cls-2" d="M107.12,177a3.36,3.36,0,0,0,2.35,5.81h17.76a3.36,3.36,0,0,0,0-6.72H118.1l8.32-7.53a12.6,12.6,0,0,0,4.15-9.34,12.35,12.35,0,0,0-3.25-8.45,12.64,12.64,0,0,0-9.34-4.14,12.29,12.29,0,0,0-8.45,3.25l-.4.35c-1.26,1.1-2.81,2.47-2.06,4.63a3.38,3.38,0,0,0,3.72,2.22,5.39,5.39,0,0,0,2.69-1.71,9.64,9.64,0,0,1,1-.88,5.89,5.89,0,0,1,7.46,9.09Z"/><path class="cls-2" d="M152.09,182.85a3.3,3.3,0,0,0,3.34-3.34V176.3a3.32,3.32,0,0,0,3.3-3.34,3.37,3.37,0,0,0-3.3-3.34V150a3.26,3.26,0,0,0-1.73-2.89,3.4,3.4,0,0,0-3.48.13,4.7,4.7,0,0,0-.69.59c-.26.25-18.37,22.84-18.56,23.07a3.29,3.29,0,0,0-.35,3.56,3.33,3.33,0,0,0,3.06,1.84h15.07v3.21A3.3,3.3,0,0,0,152.09,182.85Zm-3.34-23.33v10.1h-8.14Z"/><path class="cls-2" d="M222.34,128.48C214.76,87,176.26,55.83,132.62,55.83S50.48,87,42.89,128.48A20.2,20.2,0,0,0,26.3,148.17v10.25c0,4.71,7.37,4.71,7.37,0V148.17a12.71,12.71,0,0,1,12.78-12.63h5.87v63.1H46.44a12.74,12.74,0,0,1-9-3.71A12.44,12.44,0,0,1,33.67,186V174.12c0-4.71-7.37-4.71-7.37,0V186a20.1,20.1,0,0,0,20.15,20H52.8c1.72,5.58,6.86,7.51,11.28,6.93s9.06-3.93,9.06-10V131.27c0-6.11-4.55-9.44-9.07-10s-9.55,1.35-11.27,6.93H50.47c7.63-37.09,42.81-65,82.15-65s74.52,27.88,82.15,65h-2.33c-1.72-5.58-6.85-7.52-11.28-6.93s-9.07,3.92-9.07,10v71.64c0,6.1,4.56,9.44,9.08,10s9.55-1.35,11.27-6.93h2.29c-5.53,27.43-30.3,47.22-60.58,48.36a10.41,10.41,0,0,0-9.71-6.62H120.8a10.35,10.35,0,1,0,0,20.7h23.64a10.4,10.4,0,0,0,9.75-6.71c34.06-1.18,62.59-24.66,68.1-56A20.18,20.18,0,0,0,238.93,186V148.17A20.19,20.19,0,0,0,222.34,128.48Zm9.22,19.69V186a12.72,12.72,0,0,1-12.77,12.63h-5.88v-63.1h5.88A12.71,12.71,0,0,1,231.56,148.17ZM65.77,202.91a3,3,0,0,1-6.08,0V131.27a3,3,0,0,1,6.08,0Zm133.69-71.64a3,3,0,0,1,6.08,0v71.64a3,3,0,0,1-6.08,0ZM147.36,258.1a3.13,3.13,0,0,1-.73,2.07,2.81,2.81,0,0,1-2.19.91H120.8a3,3,0,0,1,0-6h23.64A2.84,2.84,0,0,1,147.36,258.1Z"/><path class="cls-2" d="M148.6,213.49,167,221.6a3.5,3.5,0,0,0,1.45.31,3.76,3.76,0,0,0,2-.61,3.67,3.67,0,0,0,1.69-3.07V197.72a51,51,0,0,0,2.58-62.81,3.37,3.37,0,0,0-3.17-1.49,4.08,4.08,0,0,0-3.22,2.31,3.39,3.39,0,0,0,.41,3.49,43.64,43.64,0,0,1-3,54.65,3.7,3.7,0,0,0-1,2.47v16.24l-14.56-6.41a3.68,3.68,0,0,0-2.71-.11,44.5,44.5,0,0,1-14.93,2.56c-24.46,0-44.37-19.72-44.37-44s19.91-43.95,44.37-43.95A44.39,44.39,0,0,1,158,128.59a3.52,3.52,0,0,0,5-1,3.8,3.8,0,0,0,.69-2.57,3.41,3.41,0,0,0-1.55-2.5,51.67,51.67,0,0,0-29.52-9.17c-28.53,0-51.74,23-51.74,51.32S104.09,216,132.62,216A52.32,52.32,0,0,0,148.6,213.49Z"/></svg>