<svg xmlns="http://www.w3.org/2000/svg" xmlns:xlink="http://www.w3.org/1999/xlink" width="40" height="40" viewBox="0 0 40 40">
  <defs>
    <clipPath id="clip-path">
      <rect id="Rectangle_7643" data-name="Rectangle 7643" width="20" height="20" fill="none"/>
    </clipPath>
  </defs>
  <g id="Group_21570" data-name="Group 21570" transform="translate(-77 -29)">
    <g id="Ellipse_1656" data-name="Ellipse 1656" transform="translate(77 29)" fill="#fff" stroke="#d0d0d0" stroke-width="1">
      <circle cx="20" cy="20" r="20" stroke="none"/>
      <circle cx="20" cy="20" r="19.5" fill="none"/>
    </g>
    <g id="Group_15974" data-name="Group 15974" transform="translate(-277 -326)">
      <g id="Group_16111" data-name="Group 16111" transform="translate(364 365)">
        <g id="Group_16110" data-name="Group 16110" transform="translate(0 0)" clip-path="url(#clip-path)">
          <path id="Path_32531" data-name="Path 32531" d="M376.341,374.964l7.11-7.1a1.675,1.675,0,1,0-2.37-2.368l-7.11,7.105-7.11-7.105a1.675,1.675,0,0,0-2.37,2.368l7.11,7.1-7.11,7.105a1.675,1.675,0,1,0,2.37,2.368l7.11-7.105,7.11,7.105a1.675,1.675,0,1,0,2.37-2.368Zm0,0" transform="translate(-364 -365)" fill="#f47522" fill-rule="evenodd"/>
        </g>
      </g>
    </g>
  </g>
</svg>
