<svg xmlns="http://www.w3.org/2000/svg" xmlns:xlink="http://www.w3.org/1999/xlink" width="491" height="306" viewBox="0 0 491 306">
  <defs>
    <clipPath id="clip-path">
      <rect id="Rectangle_9221" data-name="Rectangle 9221" width="491" height="306" transform="translate(666 5229)" fill="none" stroke="#707070" stroke-width="1"/>
    </clipPath>
  </defs>
  <g id="Mask_Group_1" data-name="Mask Group 1" transform="translate(-666 -5229)" clip-path="url(#clip-path)">
    <g id="ic_ornament9" transform="translate(-3 2801)">
      <path id="Path_34405" data-name="Path 34405" d="M6048.8-443.7c68.51-49.135,116.808-113.238,141.711-167.565,24.95-55.045,26.482-100.311,2.841-128.309-23.855-28.269-69.279-36.768-124.041-37.193-54.769.267-118.877,8.593-180.175,29.928-121,38.8-194.915,145.956-162.94,262.165C5757.627-368.921,5910.459-340.259,6048.8-443.7Z" transform="translate(-5050.187 3208.235)" fill="#fff"/>
      <g id="Group_16285" data-name="Group 16285" transform="translate(932.461 2565.511)">
        <path id="Path_34477" data-name="Path 34477" d="M195.541,505.423H158.163a7.5,7.5,0,0,1-7.5-7.5V407.563a7.5,7.5,0,0,1,7.5-7.5h37.378a7.5,7.5,0,0,1,7.5,7.5v90.364A7.5,7.5,0,0,1,195.541,505.423ZM158.163,403.148a4.421,4.421,0,0,0-4.415,4.416v90.364a4.42,4.42,0,0,0,4.415,4.415h37.378a4.42,4.42,0,0,0,4.415-4.415V407.563a4.421,4.421,0,0,0-4.415-4.416Z" transform="translate(-150.667 -400.067)" fill="#eddfd3"/>
      </g>
      <path id="Path_34481" data-name="Path 34481" d="M332.246,746.9a3.322,3.322,0,0,1-4.591-2.72,16.445,16.445,0,0,0-2.5,1.015,3.321,3.321,0,0,1-5.2,4.122,16.367,16.367,0,0,0-1.253,1.71,3.321,3.321,0,0,1-2.354,6.172,16.4,16.4,0,0,0-.217,2.349,3.321,3.321,0,0,1,1.213,6.5,16.5,16.5,0,0,0,1.158,2.307,3.319,3.319,0,0,1,4.463,4.834,16.288,16.288,0,0,0,2.177,1.319,3.322,3.322,0,0,1,6.449,1.6c-.011.046-.027.09-.04.135a16.308,16.308,0,0,0,3.321-.133,3.388,3.388,0,0,1-.111-.4,3.321,3.321,0,0,1,6.358-1.849,16.483,16.483,0,0,0,2.494-1.872,3.321,3.321,0,1,1,3.9-5.373,16.386,16.386,0,0,0,.809-2.195,3.32,3.32,0,0,1,.523-6.612,16.34,16.34,0,0,0-.562-2.653,3.321,3.321,0,0,1-3.136-5.837,16.4,16.4,0,0,0-2.305-2.263,3.323,3.323,0,1,1-5.8-2.992c-.224-.064-.449-.126-.677-.18a16.6,16.6,0,0,0-2.1-.357A3.325,3.325,0,0,1,332.246,746.9Z" transform="translate(667.302 1927.79)" fill="#eddfd3"/>
      <path id="Path_34482" data-name="Path 34482" d="M347.3,784.792a9.973,9.973,0,1,1,9.973-9.973A9.985,9.985,0,0,1,347.3,784.792Zm0-19.023a9.049,9.049,0,1,0,9.049,9.049A9.059,9.059,0,0,0,347.3,765.769Z" transform="translate(652.633 1913.039)" fill="#dec3ac"/>
      <ellipse id="Ellipse_1625" data-name="Ellipse 1625" cx="2.619" cy="2.619" rx="2.619" ry="2.619" transform="translate(997.178 2685.188)" fill="#efb88a"/>
      <path id="Path_34500" data-name="Path 34500" d="M365.028,357.767,249.759,346.085c-7.012,0-12.7-6.545-12.7-14.619V266.95c0-8.074,5.684-14.618,12.7-14.618l115.268,11.682c7.012,0,12.7,6.545,12.7,14.619v64.516C377.724,351.222,372.04,357.767,365.028,357.767Z" transform="translate(722.013 2267.668)" fill="#eddfd3"/>
      <path id="Path_34501" data-name="Path 34501" d="M282.544,288.9l.218,74.8a15.066,15.066,0,0,0,2.079.175c.1,0-.043-74.974-.043-74.974a.175.175,0,0,0-.175-.175h-1.9A.175.175,0,0,0,282.544,288.9Z" transform="translate(690.543 2242.486)" fill="#dec3ac"/>
      <rect id="Rectangle_7899" data-name="Rectangle 7899" width="14.521" height="2.254" rx="0.646" transform="matrix(0.996, 0.086, -0.086, 0.996, 1051.811, 2553.362)" fill="#dec3ac"/>
      <rect id="Rectangle_7900" data-name="Rectangle 7900" width="14.521" height="2.254" rx="0.646" transform="matrix(0.995, 0.104, -0.104, 0.995, 1073.129, 2562.519)" fill="#dec3ac"/>
      <rect id="Rectangle_7901" data-name="Rectangle 7901" width="11.642" height="2.254" rx="0.646" transform="translate(1073.642 2557.282) rotate(5.969)" fill="#fffdfc"/>
      <rect id="Rectangle_7902" data-name="Rectangle 7902" width="11.642" height="2.254" rx="0.646" transform="translate(1052.155 2548.426) rotate(5.969)" fill="#fffdfc"/>
      <rect id="Rectangle_7903" data-name="Rectangle 7903" width="14.521" height="2.254" rx="0.646" transform="matrix(0.996, 0.084, -0.084, 0.996, 1005.713, 2539.219)" fill="#fffdfc"/>
      <path id="Path_34502" data-name="Path 34502" d="M340.514,386.1H328.5V322.367a1.958,1.958,0,0,1,2.174-1.947l8.147.9a1.959,1.959,0,0,1,1.743,1.948Z" transform="translate(658.744 2220.563)" fill="#dec3ac"/>
      <path id="Path_34503" data-name="Path 34503" d="M510.681,432.83H498.667v-50.1a1.916,1.916,0,0,1,2.1-1.907l8.083.8a1.916,1.916,0,0,1,1.727,1.9Z" transform="translate(540.998 2178.767)" fill="#dec3ac"/>
      <path id="Path_34504" data-name="Path 34504" d="M594.681,463.812H582.667V424.4a1.857,1.857,0,0,1,2.017-1.85l8.1.7a1.857,1.857,0,0,1,1.7,1.84Z" transform="translate(482.875 2149.89)" fill="#dec3ac"/>
      <path id="Path_34505" data-name="Path 34505" d="M393.562,534.378l-110.077-10a8.8,8.8,0,0,0-.207,2.244l110.077,10a.175.175,0,0,0,.19-.158l.175-1.9A.175.175,0,0,0,393.562,534.378Z" transform="translate(690.052 2079.426)" fill="#dec3ac"/>
      <rect id="Rectangle_7905" data-name="Rectangle 7905" width="78.267" height="64.331" rx="20" transform="translate(920 2621.14)" fill="#eddfd3"/>
      <rect id="Rectangle_7906" data-name="Rectangle 7906" width="10.521" height="5.475" rx="1.75" transform="translate(971.726 2631.867)" fill="#efb88a"/>
      <rect id="Rectangle_7907" data-name="Rectangle 7907" width="7.379" height="5.475" rx="1.75" transform="translate(974.904 2643.65)" fill="#efb88a"/>
      <rect id="Rectangle_7908" data-name="Rectangle 7908" width="12.378" height="5.475" rx="1.75" transform="translate(969.964 2655.124)" fill="#efb88a"/>
      <path id="Path_34516" data-name="Path 34516" d="M171.184,731.954c.386,0,.671-.234.67-.41-.008-1.093-.086-1.989-.094-3.082,0-.238-.4-.452-.9-.453-10.19-.023-40.665-.207-40.665-.207s-.946-.1-.979.53a17.309,17.309,0,0,0,.083,2.972c.031.236.378.445.9.453C139.479,731.9,159.91,732,171.184,731.954Z" transform="translate(796.653 1938.675)" fill="#dec3ac"/>
      <path id="Path_34517" data-name="Path 34517" d="M170.874,756.063c.386,0,.672-.234.67-.41-.008-1.093-.086-1.99-.094-3.082,0-.238-.4-.452-.9-.453-10.19-.023-40.665-.207-40.665-.207s-.946-.1-.979.53a17.307,17.307,0,0,0,.083,2.972c.031.236.378.445.9.453C139.17,756.009,159.6,756.109,170.874,756.063Z" transform="translate(796.866 1921.993)" fill="#dec3ac"/>
      <path id="Path_34518" data-name="Path 34518" d="M147.1,673.171l-2.76-.267c.037-.382.056-.77.056-1.155a11.815,11.815,0,0,0-11.8-11.8c-.3,0-.606.011-.907.034l-.209-2.765c.37-.028.745-.042,1.116-.042a14.59,14.59,0,0,1,14.574,14.574C147.166,672.222,147.143,672.7,147.1,673.171Z" transform="translate(795.073 1987.541)" fill="#1e2144"/>
      <path id="Path_34519" data-name="Path 34519" d="M189.286,647.78l-2.76-.267c.073-.753.11-1.521.11-2.282a23.444,23.444,0,0,0-15.192-21.877l.968-2.6a26.228,26.228,0,0,1,17,24.475C189.409,646.082,189.367,646.939,189.286,647.78Z" transform="translate(767.417 2012.74)" fill="#efb88a"/>
      <path id="Path_34520" data-name="Path 34520" d="M190.657,673.473l-2.76-.266c.057-.586.085-1.181.085-1.769a18.119,18.119,0,0,0-4.038-11.39L186.1,658.3a20.9,20.9,0,0,1,4.658,13.138C190.755,672.114,190.722,672.8,190.657,673.473Z" transform="translate(758.767 1986.762)" fill="#efb88a"/>
      <path id="Path_34521" data-name="Path 34521" d="M163.467,608.364c0-.139-.006-.32-.006-.359,0-.015,0-.026,0-.039l0-.073a.34.34,0,0,0-.033-.152c-.075-.224-.255-.264-.488-.27-3.163-.083-24.553-.037-26.443-.074-1.519-.03-3.071-.044-6.234-.009a.363.363,0,0,0-.287.153.34.34,0,0,0-.067.11c-.005.012-.008.025-.012.037s-.01.031-.013.048a.593.593,0,0,0-.02.076c-.014.109-.01.4-.012.623-.065,2.811-.026,4.157-.061,5.943-.03,1.519-.044,20.781-.009,23.944a.444.444,0,0,0,.424.4c.015,0,.043,0,.066,0a.751.751,0,0,0,.074.013c2.094.039,4.18.059,6.048.083,2.51.033,24.7,0,25.816-.018.017,0,.033.011.05.014.118.015.455.009.679.012a.4.4,0,0,0,.251-.093.365.365,0,0,0,.07-.059.512.512,0,0,0,.047-.066.457.457,0,0,0,.037-.068.679.679,0,0,0,.07-.274c.039-2.094.059-21.89.083-23.759C163.528,611.724,163.488,609.338,163.467,608.364Zm-27.041,28.8c-1.317-.026-2.66-.04-5.054-.02.028-1.745.046-21.172.067-22.735.029-2.247.009-4.235-.012-5.431,1.747.028,3.466.046,5.03.067,2.252.03,24.239.009,25.435-.012-.05,2.472-.018,3.761-.051,5.436-.026,1.313-.04,20.364-.021,22.746C159.371,637.169,138.092,637.2,136.425,637.168Z" transform="translate(796.262 2022.005)" fill="#dec3ac"/>
      <path id="Path_34522" data-name="Path 34522" d="M328.149,608.211l-2.838,2.825v-3.991a4,4,0,1,0,2.838,1.166Z" transform="translate(663.71 2022.228)" fill="#dec3ac"/>
      <path id="Path_34523" data-name="Path 34523" d="M325.917,683.208a4,4,0,0,0-2.96,6.691l3.232-2.943-1.233,4.137a4,4,0,1,0,.961-7.885Z" transform="translate(663.301 1969.527)" fill="#dec3ac"/>
      <path id="Path_34524" data-name="Path 34524" d="M325.3,650.19l3.569-1.8a4.011,4.011,0,1,0-2.51,5.711Z" transform="translate(663.71 1995.108)" fill="#dec3ac"/>
      <g id="Group_16279" data-name="Group 16279" transform="translate(582.688 2399.756)">
        <rect id="Rectangle_7895" data-name="Rectangle 7895" width="165.407" height="299.841" rx="23.841" transform="translate(171.905 80.244)" fill="#272637"/>
        <path id="Path_34451" data-name="Path 34451" d="M308.247,87.224h-14.49v4.861a9.666,9.666,0,0,1-9.522,9.8H224.983a9.666,9.666,0,0,1-9.522-9.8V87.224h-14.49c-12.1,0-21.91,10.1-21.91,22.56V328.551c0,12.459,9.809,22.559,21.91,22.559H308.247c12.1,0,21.91-10.1,21.91-22.559V109.784C330.157,97.325,320.348,87.224,308.247,87.224Z" fill="#f5f5f5"/>
        <g id="Group_16261" data-name="Group 16261">
          <path id="Path_34452" data-name="Path 34452" d="M196.139,320.056H299.2v18.8H196.139a7,7,0,0,1-7-7v-4.8A7,7,0,0,1,196.139,320.056Z" fill="#fff"/>
          <path id="Path_34453" data-name="Path 34453" d="M315.806,320.056a7,7,0,0,1,7,7v4.8a7,7,0,0,1-7,7H299.2v-18.8Z" fill="#99b5e8"/>
          <g id="Group_16259" data-name="Group 16259">
            <path id="Path_34454" data-name="Path 34454" d="M310.815,334.083a.209.209,0,0,1-.209-.209v-8.486a.209.209,0,1,1,.418,0v8.486A.21.21,0,0,1,310.815,334.083Z" fill="#f2f2f2"/>
          </g>
          <g id="Group_16260" data-name="Group 16260">
            <path id="Path_34455" data-name="Path 34455" d="M314.344,329.385a.209.209,0,0,1-.161-.075l-3.368-4.021-3.369,4.021a.209.209,0,1,1-.32-.268l3.529-4.213a.217.217,0,0,1,.32,0l3.528,4.213a.209.209,0,0,1-.025.3A.212.212,0,0,1,314.344,329.385Z" fill="#f2f2f2"/>
          </g>
        </g>
        <path id="Path_34456" data-name="Path 34456" d="M275.914,93.369H237.965a2.129,2.129,0,0,1-2.122-2.123h0a2.129,2.129,0,0,1,2.122-2.123h37.949a2.129,2.129,0,0,1,2.123,2.123h0A2.129,2.129,0,0,1,275.914,93.369Z" fill="#4c4b59"/>
        <g id="Group_16266" data-name="Group 16266">
          <g id="Group_16262" data-name="Group 16262">
            <path id="Path_34457" data-name="Path 34457" d="M238.413,185.453h70.373a5.351,5.351,0,0,1,5.181,5.506v49.22l-4.563-6.9a8.459,8.459,0,0,0-7.036-3.885H238.413a5.352,5.352,0,0,1-5.181-5.507V190.959A5.351,5.351,0,0,1,238.413,185.453Z" fill="#e6e4e0"/>
          </g>
          <g id="Group_16263" data-name="Group 16263">
            <path id="Path_34458" data-name="Path 34458" d="M303.627,196.991H243.914a.249.249,0,1,1,0-.5h59.713a.249.249,0,0,1,0,.5Z" fill="#a89d8c"/>
          </g>
          <g id="Group_16264" data-name="Group 16264">
            <path id="Path_34459" data-name="Path 34459" d="M303.285,205.981H243.571a.249.249,0,0,1,0-.5h59.714a.249.249,0,0,1,0,.5Z" fill="#a89d8c"/>
          </g>
          <g id="Group_16265" data-name="Group 16265">
            <path id="Path_34460" data-name="Path 34460" d="M303.285,214.972H243.571a.249.249,0,0,1,0-.5h59.714a.249.249,0,0,1,0,.5Z" fill="#a89d8c"/>
          </g>
        </g>
        <g id="Group_16271" data-name="Group 16271">
          <g id="Group_16267" data-name="Group 16267">
            <path id="Path_34461" data-name="Path 34461" d="M297.912,120.5l-81.7-.653c-3.322-.027-6.035,2.178-6.06,4.924l-.257,28.611-.143,15.828,5.354-6.19a10.748,10.748,0,0,1,8.2-3.442l74.252.593c3.322.027,6.035-2.178,6.06-4.924l.267-29.727C303.907,122.772,301.234,120.525,297.912,120.5Z" fill="#99b5e8"/>
          </g>
          <g id="Group_16268" data-name="Group 16268">
            <path id="Path_34462" data-name="Path 34462" d="M288.242,131.046H227.627a.242.242,0,1,1,0-.483h60.615a.242.242,0,1,1,0,.483Z" fill="#f2f2f2"/>
          </g>
          <g id="Group_16269" data-name="Group 16269">
            <path id="Path_34463" data-name="Path 34463" d="M287.894,139.648H227.279a.242.242,0,1,1,0-.483h60.615a.242.242,0,1,1,0,.483Z" fill="#f2f2f2"/>
          </g>
          <g id="Group_16270" data-name="Group 16270">
            <path id="Path_34464" data-name="Path 34464" d="M269.309,148.25H227.053a.242.242,0,1,1,0-.483h42.256a.242.242,0,1,1,0,.483Z" fill="#f2f2f2"/>
          </g>
        </g>
        <g id="Group_16278" data-name="Group 16278">
          <g id="Group_16272" data-name="Group 16272">
            <path id="Path_34465" data-name="Path 34465" d="M263.507,259.609l-60.132-.51a4.466,4.466,0,0,0-4.465,4.466l-.22,25.917-.122,14.338,3.947-5.613a7.311,7.311,0,0,1,6.039-3.126l54.649.463a4.466,4.466,0,0,0,4.465-4.466l.228-26.928A4.466,4.466,0,0,0,263.507,259.609Z" fill="#99b5e8"/>
          </g>
          <path id="Path_34466" data-name="Path 34466" d="M212.571,274.678l.414-1.789a.168.168,0,0,1,.324-.012l.54,1.756a1.394,1.394,0,0,0,1.017.947l1.79.414a.169.169,0,0,1,.011.325l-1.755.54a1.392,1.392,0,0,0-.948,1.017l-.414,1.789a.168.168,0,0,1-.324.012l-.54-1.756a1.394,1.394,0,0,0-1.017-.947l-1.79-.414a.169.169,0,0,1-.011-.325l1.755-.54A1.392,1.392,0,0,0,212.571,274.678Z" fill="#fff"/>
          <path id="Path_34467" data-name="Path 34467" d="M252.719,281.6l.594-2.564a.147.147,0,0,1,.283-.01l.774,2.515a1.709,1.709,0,0,0,1.247,1.162l2.564.593a.147.147,0,0,1,.01.283l-2.516.774a1.708,1.708,0,0,0-1.161,1.247l-.594,2.564a.147.147,0,0,1-.283.01l-.774-2.515a1.708,1.708,0,0,0-1.246-1.162l-2.564-.594a.147.147,0,0,1-.01-.283l2.515-.773A1.706,1.706,0,0,0,252.719,281.6Z" fill="#fff"/>
          <path id="Path_34468" data-name="Path 34468" d="M218.721,266.986l.556-2.4a.161.161,0,0,1,.31-.011l.724,2.355a1.67,1.67,0,0,0,1.22,1.136l2.4.555a.161.161,0,0,1,.011.311l-2.355.724a1.672,1.672,0,0,0-1.136,1.22l-.555,2.4a.161.161,0,0,1-.311.011l-.724-2.355a1.67,1.67,0,0,0-1.22-1.136l-2.4-.556a.16.16,0,0,1-.011-.31l2.354-.724A1.67,1.67,0,0,0,218.721,266.986Z" fill="#fff"/>
          <g id="Group_16277" data-name="Group 16277">
            <path id="Path_34469" data-name="Path 34469" d="M228.231,277.9l-8.179-1.256s-3.957,5.273-.256,10.13c.292.383,9.51,1.082,9.51,1.082Z" fill="#183367"/>
            <g id="Group_16276" data-name="Group 16276">
              <path id="Path_34470" data-name="Path 34470" d="M229.306,287.853c-1.887-1.57-2.062-8.488-1.075-9.956,0,0,5.329.627,7.7-1.874s3.19-7.488,4.539-8.919-.48,7.559-.03,8.5,3.566-2.032,5.319-1.352,2.232,7.241.637,8.952c-1.461,1.566-5.7,3.487-8.462,4.165A23.811,23.811,0,0,1,229.306,287.853Z" fill="#fcb8b8"/>
              <g id="Group_16273" data-name="Group 16273">
                <path id="Path_34471" data-name="Path 34471" d="M243.268,277.79a.209.209,0,0,1-.033-.394,12.931,12.931,0,0,0,3.374-2.044.208.208,0,1,1,.285.3,13,13,0,0,1-3.492,2.123A.208.208,0,0,1,243.268,277.79Z" fill="#d6807a"/>
              </g>
              <g id="Group_16274" data-name="Group 16274">
                <path id="Path_34472" data-name="Path 34472" d="M244.139,280.267a.209.209,0,0,1-.008-.4,8.606,8.606,0,0,0,3.056-1.56.209.209,0,0,1,.31.28,8.8,8.8,0,0,1-3.249,1.681A.212.212,0,0,1,244.139,280.267Z" fill="#d6807a"/>
              </g>
              <g id="Group_16275" data-name="Group 16275">
                <path id="Path_34473" data-name="Path 34473" d="M244.906,282.452a.209.209,0,0,1,.014-.408,4.4,4.4,0,0,0,2.169-1.154.209.209,0,1,1,.306.285,4.758,4.758,0,0,1-2.4,1.28A.216.216,0,0,1,244.906,282.452Z" fill="#d6807a"/>
              </g>
            </g>
          </g>
        </g>
        <rect id="Rectangle_7896" data-name="Rectangle 7896" width="31.334" height="13.923" rx="2.581" transform="translate(242.627 356.412)" fill="#f5f5f5" opacity="0.39"/>
      </g>
      <path id="Path_34406" data-name="Path 34406" d="M502.453,835.142a11.549,11.549,0,0,1,3.52-.455,1.337,1.337,0,0,1,.983.729,1.053,1.053,0,0,1,1.615,1,80.051,80.051,0,0,1,.473,8.727,2.937,2.937,0,0,1-3.189,2.941c-4.419.021-4.4-7.772-4.424-11.57A1.479,1.479,0,0,1,502.453,835.142Z" transform="translate(443.658 1942.423)" fill="#f5e4d5"/>
      <path id="Path_34407" data-name="Path 34407" d="M383.108,870.332c1.49,1.137,4.411.694,6.143.546,3.286-.28,9.078-1.546,12.411-1.433,2.159.074,5.938.046,6.565-1.834a11.364,11.364,0,0,0,.228-3.426,20.065,20.065,0,0,0-.711-4.834.621.621,0,0,0-.386-.435.611.611,0,0,0-.375-.154l-3.991-.3a9.434,9.434,0,0,0-2.84-.152c-1.1.3-1.444,1.573-2.136,2.4-2.752,3.28-9.98,4.405-13.879,5.706C380.933,867.66,381.768,869.309,383.108,870.332Z" transform="translate(512.108 1928.913)" fill="#1e2144"/>
      <path id="Path_34408" data-name="Path 34408" d="M429.529,839.272a11.534,11.534,0,0,0-3.549,0,1.336,1.336,0,0,0-.882.849,1.053,1.053,0,0,0-1.474,1.2,80.131,80.131,0,0,0,.646,8.716,2.937,2.937,0,0,0,3.539,2.509c4.385-.543,3.374-8.27,2.91-12.04A1.479,1.479,0,0,0,429.529,839.272Z" transform="translate(488.224 1939.86)" fill="#f5e4d5"/>
      <path id="Path_34409" data-name="Path 34409" d="M382.1,865.774c1.283,1.367,6.867,1.283,8.6,1.135,3.286-.28,7.705-1.539,11.037-1.425,2.159.073,5.938.046,6.565-1.835a11.365,11.365,0,0,0,.228-3.426,20.055,20.055,0,0,0-.712-4.833.806.806,0,0,0-.333-.5,1.01,1.01,0,0,0-.427-.089c-1.112-.084-3.521,1.632-4.634,1.548-.218-.016.258-1.661-.653-1.988a2.586,2.586,0,0,0-1.913-.216c-.412.113-.35.441-.607.877a12.972,12.972,0,0,1-1.16,1.724c-2.752,3.281-8.607,4.4-12.505,5.7C382.381,863.691,381.351,864.975,382.1,865.774Z" transform="translate(512.137 1931.311)" fill="#b84646"/>
      <path id="Path_34410" data-name="Path 34410" d="M416.647,857.526c.5.426.991.864,1.467,1.322.4.382.952-.269.557-.649-.5-.484-1.024-.948-1.555-1.4C416.95,857.03,416.8,857.277,416.647,857.526Zm-3.322,3.122c.374.328.744.663,1.1,1.009.4.382.952-.269.557-.649q-.449-.432-.914-.844Q413.708,860.418,413.325,860.648Zm1.833-1.347c.47.4.932.816,1.38,1.247.4.382.951-.269.557-.649-.432-.415-.876-.812-1.328-1.2Q415.474,859.014,415.158,859.3Z" transform="translate(494.12 1929.731)" fill="#1e2144"/>
      <path id="Path_34411" data-name="Path 34411" d="M408.554,864.412a21.581,21.581,0,0,1,3.715-2.639,14.974,14.974,0,0,0,3.494-2.786c.006.1.022.165.064.168a2.821,2.821,0,0,0,1.108-.247c-1.439,1.926-3.232,2.921-5.423,4.332a13.222,13.222,0,0,0-5.283,6.2c-.325.052-.644.1-.957.141A13.2,13.2,0,0,1,408.554,864.412Z" transform="translate(498.732 1928.524)" fill="#1e2144"/>
      <path id="Path_34412" data-name="Path 34412" d="M433.786,530.448c-.813-13.366-1.727-26.731-3.107-40.052q-1.015-9.8-2.405-19.547a68.982,68.982,0,0,0-1.381-8.8c-.685-2.423-2.906-3.115-5.166-2.393-5.066,1.616-9.851,5.736-13.16,9.772q-.772.941-1.474,1.928c0-.032,0-.064,0-.1.016-2.71-.711-3.86-3.362-4.65-7.077-2.109-14.2-4.074-21.3-6.111a1.549,1.549,0,0,0-1.89.818,1.528,1.528,0,0,0-.752,1.025c-4.7,19.218-5.342,38.62-3.56,58.258q2.7,29.717,6.273,59.368c1.348,11.127,3.621,32.983,5.36,44.055a1.719,1.719,0,0,0,1.648,1.254c3,.063,5.989.027,8.98-.144,2-.114,5.519.258,6.881-1.634,1.237-1.72.608-4.9.635-6.855l.135-9.768c.176-12.742-.42-36.231-.244-48.973.156-11.3-1.25-33.693-1.095-44.992,4.217,24.876,9.412,61.031,14.226,85.62.5,2.561,1.786,14.866,2.332,17.418.444,2.074.556,5.011,1.9,6.737,1.38,1.77,3.911,1.2,5.85,1.088l8.516-.489a1.732,1.732,0,0,0,1.709-1.709C437.747,594.452,435.438,557.573,433.786,530.448Z" transform="translate(515.887 2157.346)" fill="#1e2144"/>
      <path id="Path_34413" data-name="Path 34413" d="M406.82,501.765a.684.684,0,0,0,.465-.027.787.787,0,0,0,.581-.45.991.991,0,0,0-.357-1.227.866.866,0,0,0-1.154.344A.941.941,0,0,0,406.82,501.765Zm25.015,10.242c-4.418.542-8.793-3.916-9.3-8.134,2.25-.133,4.5-.306,6.746-.533.542-.055.548-.91,0-.855a189.276,189.276,0,0,1-19.094.875q-.241-3.6-.268-7.206a.4.4,0,1,0-.8,0q.023,3.607.267,7.2-2.578-.009-5.156-.066c-.053-1.6-.038-3.193.054-4.789.032-.549-.771-.547-.8,0q-.137,2.385-.054,4.77c-7.541-.186-15.082-.633-22.609-1.094-.549-.033-.547.821,0,.854q3.626.222,7.256.43c-.656,3.765-2.8,7.91-6.8,8.736-.538.112-.31.935.227.824,4.331-.9,6.729-5.35,7.412-9.441a.445.445,0,0,0,0-.072c4.82.268,9.643.5,14.466.614.752,4.1-.171,8.2.162,12.316.175,2.164.537,5.6,3.214,5.944,3.439.446,3.269-2.185,3.546-4.823a58.739,58.739,0,0,0-.161-13.294.1.1,0,0,0-.009-.026c.007-.008.011-.019.018-.028,3.847,0,7.694-.085,11.537-.294.582,4.63,5.23,9.544,10.149,8.94C432.374,512.8,432.381,511.941,431.835,512.007Zm-22.1,1.4q-.072,2.289-.33,4.567a8.3,8.3,0,0,1-.383,2.774c-.917,1.662-3.251.329-3.92-.849-1.322-2.33-.774-6.085-.643-8.646a32.214,32.214,0,0,0-.209-7.108q2.523.056,5.045.066a.391.391,0,0,0,0,.056A59.631,59.631,0,0,1,409.731,513.409Zm6.882,8.7c-1.492,1.026-2.946,2.1-4.351,3.245a9.463,9.463,0,0,0-3.08,3.316c-.215.5.521.936.738.431a9.083,9.083,0,0,1,2.946-3.142c1.348-1.1,2.747-2.127,4.179-3.112C417.494,522.539,417.068,521.8,416.613,522.111Z" transform="translate(512.975 2136.524)" fill="#434c8f"/>
      <path id="Path_34414" data-name="Path 34414" d="M407.495,465.581c-.16-1.084-.132-.518.027.56a1.716,1.716,0,0,1-.026.562,2.816,2.816,0,0,0-4.642.1c.409-.546.321-.187-.215-.379a5.062,5.062,0,0,0-1.854,0,8.532,8.532,0,0,0-1.918.428,3.078,3.078,0,0,0-2.674-.9,34.479,34.479,0,0,0-5.834,1.412,2.367,2.367,0,0,0-1.178-.676,3.868,3.868,0,0,0-2.9.493,3.744,3.744,0,0,0-1.691-.794,10.767,10.767,0,0,0-.656-.915c-1.027-1.281-3.149-.945-4.117.215q-.018-6.017-.481-12.03c-.085-1.09-2.206-1.1-2.12-.005.673,8.672-4.808,17.949-3.076,25.773a.953.953,0,0,0,1.082.824c7.036-1.75,20.9,5.359,26.935,4.344,2.813-.473,3.307-13.581,4.949-15.88C408.447,466.834,407.85,467.99,407.495,465.581Z" transform="translate(516.759 2161.099)" fill="#f5e4d5"/>
      <path id="Path_34415" data-name="Path 34415" d="M470.832,489.688c-.2-2.082-.124-5.855-2.327-6.8-3.4-1.455-7.533-2-11.14-2.726-3.533-.707-7.049-1.387-10.651-.828a.735.735,0,0,0-.445.222.907.907,0,0,0-.655,1.025q1.04,6.232,2.079,12.463a40.539,40.539,0,0,0,.93,5.495,2.58,2.58,0,0,0,1.464,1.809c1.087.449,2.361.019,3.435-.226,1.874-.428,3.75-.829,5.642-1.166q3.129-.557,6.288-.919c1.277-.146,2.895-.021,4.076-.622C471.79,496.264,471.025,491.66,470.832,489.688Z" transform="translate(475.634 2146.039)" fill="#f5e4d5"/>
      <path id="Path_34416" data-name="Path 34416" d="M433.566,301.726a23.778,23.778,0,0,0-7.2-10.667c-7.3-6.43-17.8-9.172-28.159-9.318a1.672,1.672,0,0,0-1.282-.061c-8.914,2.8-17.57,5.914-23.53,12.432a26.646,26.646,0,0,0-7.1,21.441c1.035,8.549,4.328,16.189,4.209,24.849-.064,4.651-.571,9.706-.96,14.335-.361,4.3,1.85,5.141,1.707,11.835-.032,1.5.156,4.726,2.043,5.35a9.667,9.667,0,0,0,2.975.178l4.669,0,17.4-.017c4.781,0,23.769,1.847,24.992.781a4.053,4.053,0,0,0,1.107-3.747c-.079-.615-.173-1.215-.268-1.809a5.709,5.709,0,0,1,.478-2.5c.793-1.913,2.1-3.646,2.9-5.562,1.812-4.325,2.068-9.134,2.554-13.665,1.026-9.574,4.681-19.4,4.714-29.015C434.849,311.633,435.047,306.54,433.566,301.726Z" transform="translate(521.162 2259.184)" fill="#f0aa59"/>
      <path id="Path_34417" data-name="Path 34417" d="M445.654,165.435c-2.006-2.269-2.277-5.79-5.134-7.3a6.078,6.078,0,0,0-3.457-.637c-1.978.209-4.62,2.31-6.264.288a.6.6,0,0,0-.221-.175,6.31,6.31,0,0,0-1.843-1.406,5.464,5.464,0,0,0-4.235.075,8.449,8.449,0,0,0-3.27,2.649c-.856,1.082-2.076,4.446-3.5,5.361-2.448.317-4.972-.245-6.688,2.409a6.618,6.618,0,0,0-.943,4.241c.195,2.059,1.747,4.045,1.768,6.1-.041.248-.075.5-.093.751-.005.065,0,.132-.008.2a.643.643,0,0,0-.006.14c-.138,3.407,1.308,6.917,2.208,10.134a87.259,87.259,0,0,0,3.774,10.078c.3.758,1.54.428,1.236-.341-.169-.428-.328-.86-.487-1.292a.681.681,0,0,0,.422-.743c-.031-.2-.063,1.739-.094,1.54a.631.631,0,0,1,.364-.717,5.2,5.2,0,0,0-.042-2.58q-.088-3.325-.352-6.642a.645.645,0,0,0-.756-.61q-.01-1.352-.047-2.7l.287-2.841.705-6.97a.522.522,0,0,0-.056-.3,16.469,16.469,0,0,1,10.91-3.64,28.693,28.693,0,0,1,7.671,1.743c1.267.415,2.419.965,3.643,1.469a.579.579,0,0,0,.438.456c2.463.681,5.321.018,6.375-2.553S447.236,167.224,445.654,165.435Z" transform="translate(495.985 2331.214)" fill="#1e2144"/>
      <path id="Path_34418" data-name="Path 34418" d="M449.09,182.535c-3.314-3.832-10.728-2.637-15.03-1.245a15.814,15.814,0,0,0-10.469,9.749,1.034,1.034,0,0,0,.225,1.134c-.043,5.448.882,12.044,4.147,16.46s9.267,6.422,14.4,7.691c2.145.531,4.807,1.887,6.886-7.9a71.16,71.16,0,0,0,.914-9.276C450.557,194.06,451.369,185.17,449.09,182.535Z" transform="translate(488.283 2317.391)" fill="#ff697b"/>
      <path id="Path_34419" data-name="Path 34419" d="M444.895,235.176a1.278,1.278,0,0,0-2.543-.127,1.388,1.388,0,0,0-.806.015q-.047-.627-.093-1.254a1.292,1.292,0,0,0-1.89-1.093,1.277,1.277,0,0,0-1.268-1.169c-.008-.139-.015-.277-.023-.416a1.428,1.428,0,0,0-1.962-1.147c-.009-.129-.017-.258-.026-.388a1.349,1.349,0,0,0-1.777-1.183c-.087-1.1-.216-1.8-1.348-2.274a1.065,1.065,0,0,0-.982.133,1.23,1.23,0,0,0-.611.027q.01-.354.021-.707c.05-1.65-2.514-1.649-2.564,0q-.254,8.36-.509,16.721c-.05,1.634-.617,3.979.513,5.377,1.151,1.424,3.516,2.155,5.163,2.8,2.208.867,8.153,3.9,9.644.663C444.276,250.2,445.112,237.906,444.895,235.176Z" transform="translate(485.527 2292.959)" fill="#ea5163"/>
      <path id="Path_34420" data-name="Path 34420" d="M449.936,183.237a10.771,10.771,0,0,0-5.3-4.989,1,1,0,0,0-.194-.148c-4.176-2.4-8.857-1.448-12.975.826l-.827.183a.833.833,0,0,0-.636.694,29.717,29.717,0,0,0-4.594,3.7.6.6,0,0,0-.565.156,2.78,2.78,0,0,0-.544.723,7.352,7.352,0,0,0-1.308,1.068,2.135,2.135,0,0,0-.611,1.112,3.768,3.768,0,0,0-.2,1.255l-.235.272a.926.926,0,0,0-.211.89,4.457,4.457,0,0,0-.8,3.064.882.882,0,0,0,.519.607,43.709,43.709,0,0,0,.88,7.143.234.234,0,0,0,.229.2c.07.612.147,1.225.238,1.836a.258.258,0,0,0,.241.228c.029.846.382,6.026.376,6.157a3.879,3.879,0,0,0,.789,2.373c.1.12.234.09.267-.062a29.7,29.7,0,0,0,.479-10.245,39.488,39.488,0,0,1-.161-5.93c.1-1.5,1.769,1.228,1.994-.254a25.172,25.172,0,0,0,2.147-6.153c.427-3.2,2.587-5.068,5.3-6.125,5.621-2.191,10.833-.156,14.765,4.335a.978.978,0,0,0,1.4,0,3.466,3.466,0,0,0,1.16-2.563C451.642,182.624,450.289,182.456,449.936,183.237Z" transform="translate(489.797 2319.255)" fill="#1e2144"/>
      <ellipse id="Ellipse_1622" data-name="Ellipse 1622" cx="0.801" cy="1.282" rx="0.801" ry="1.282" transform="translate(924.128 2510.108)" fill="#1e2144"/>
      <ellipse id="Ellipse_1623" data-name="Ellipse 1623" cx="0.801" cy="1.282" rx="0.801" ry="1.282" transform="translate(934.524 2509.753)" fill="#1e2144"/>
      <path id="Path_34421" data-name="Path 34421" d="M451.332,200.212a4.431,4.431,0,0,0-3.559-1.7c-.839,0-2.828.288-3.043,1.327-.259,1.251,1.609,1.163,2.308,1.143,1.1-.032,2.2-.048,3.293-.112a1.665,1.665,0,0,0,.819-.212A.489.489,0,0,0,451.332,200.212Z" transform="translate(476.147 2306.758)" fill="#1e2144"/>
      <path id="Path_34422" data-name="Path 34422" d="M471.23,200.12a1.668,1.668,0,0,0,.819.213c1.094.064,2.2.08,3.294.112.7.021,2.567.107,2.307-1.143-.215-1.039-2.2-1.33-3.043-1.327a4.43,4.43,0,0,0-3.559,1.7A.489.489,0,0,0,471.23,200.12Z" transform="translate(461.065 2307.069)" fill="#1e2144"/>
      <path id="Path_34423" data-name="Path 34423" d="M452.611,285.829a1.12,1.12,0,0,0,1.6.012c1.885-1.68,4.814-4.964,4.854-4.995a.6.6,0,0,0,.235-.584c-.1-1.115-.031-2.858-.741-3.48-.757-.664-2.584.5-3.327.834-.863.385-3.139.914-3.351,2.379C451.843,280.24,451.26,284.4,452.611,285.829Z" transform="translate(472.127 2262.048)" fill="#f5e4d5"/>
      <path id="Path_34424" data-name="Path 34424" d="M429.055,218.118a.44.44,0,0,0,.034-.094,4.427,4.427,0,0,0-1.573-3.823c-1.019-.953-2.8-1.512-3.815-.241-1.729,2.169.732,6.572,3.291,6.929a1.611,1.611,0,0,0,.83-.076,2.061,2.061,0,0,0,.49-.026,1.361,1.361,0,0,0,1-1.317A10.26,10.26,0,0,0,429.055,218.118Z" transform="translate(488.508 2298.337)" fill="#ff697b"/>
      <path id="Path_34425" data-name="Path 34425" d="M454.473,204.889c-.063.239-.925,6.548-4.864,7.615a9.641,9.641,0,0,1-6.4-.45c-.974-.423-6.16-2.415-7.674-11.555-.672-4.057-.486-9.525,1.4-13.127a.1.1,0,0,0-.139-.132,3.949,3.949,0,0,0-.526.4c.013-.106.029-.21.036-.321.033-.529-.781-.719-1.039-.268l-.713,1.247a.719.719,0,0,0-1.158.141.734.734,0,0,0-1.021.559c-.009.209-.011.419-.018.628a.3.3,0,0,0-.2.284c-.128,3.81-.112,7.624-.129,11.436-.013,2.923-.5,6.259.352,9.105.656,2.183,2.722,5.5,4.589,6.769,1.521,1.4,6.86,3.639,10.281,3.773a5.8,5.8,0,0,0,4.407-1.5,15.289,15.289,0,0,0,2.59-6.185c.6-2.66.625-5.517,1.007-8.213C455.318,204.62,454.6,204.394,454.473,204.889Z" transform="translate(483.497 2313.472)" fill="#1e2144"/>
      <path id="Path_34426" data-name="Path 34426" d="M465.094,237.494l-3.894.168c-1.094.047-2.08.153-3.327.286-.243.026-.206.327-.043.4a.2.2,0,0,0,.031.042c2.367,2.108,5.876,2.362,7.445-.576A.218.218,0,0,0,465.094,237.494Z" transform="translate(468.705 2284.435)" fill="#fff"/>
      <path id="Path_34427" data-name="Path 34427" d="M435.6,278.949c-.6-1.474-3.729-2.389-5.053-2.913-1.139-.451-3.908-1.909-5.167-1.372-1.181.5-1.524,3.766-1.784,4.86a.5.5,0,0,0,.313.62.68.68,0,0,0,.156.12c3.1,1.706,6.17,3.147,9.27,4.853.285.156.722.183,1.181-.714C435.235,282.994,436.239,280.528,435.6,278.949Z" transform="translate(488.25 2263.212)" fill="#f5e4d5"/>
      <path id="Path_34428" data-name="Path 34428" d="M468.594,216.006c-.2-.514-.971-.154-.775.359a13.508,13.508,0,0,1,.867,3.163c.206,1.722-.958,2.389-2.564,2.237a.428.428,0,0,0-.089.85c1.387.132,2.959-.153,3.425-1.668C469.936,219.392,469.142,217.444,468.594,216.006Z" transform="translate(464.143 2296.885)" fill="#1e2144"/>
      <path id="Path_34429" data-name="Path 34429" d="M429.022,218.282c-.63-.631-1.937-.965-2.32.132a2.429,2.429,0,0,0,1.193,2.67.428.428,0,0,0,.432-.738,1.718,1.718,0,0,1-.835-1.2c-.114-.768.511-.676.926-.259A.428.428,0,0,0,429.022,218.282Z" transform="translate(486.512 2295.772)" fill="#1e2144"/>
      <path id="Path_34430" data-name="Path 34430" d="M448.071,179.931a4.284,4.284,0,0,0-3.977.071c-.485.26-.053,1,.432.737a3.378,3.378,0,0,1,3.114-.071C448.133,180.908,448.567,180.171,448.071,179.931Z" transform="translate(476.618 2317.664)" fill="#434c8f"/>
      <path id="Path_34431" data-name="Path 34431" d="M463.446,168.512a.428.428,0,0,0-.227.824c.94.277,1.216,1.283,1.3,2.152.053.542.908.548.854,0C465.251,170.221,464.783,168.906,463.446,168.512Z" transform="translate(465.715 2323.955)" fill="#434c8f"/>
      <path id="Path_34432" data-name="Path 34432" d="M360.142,351.395c-1.121.945-2.3,1.877-3.543,2.747-.059-1.49-1.952-2.766-3.242-1.368a6.864,6.864,0,0,1-3.431,2.07,1.924,1.924,0,0,0-1.186-2.134l4.664-20.886a1.717,1.717,0,0,0-3.124-1.317c-.167.284-.325.573-.478.863l1.909-7.072a1.717,1.717,0,0,0-3.124-1.317q-.255.408-.49.824.4-2.344.716-4.708l0-.014h0c.02-.152.043-.3.063-.454.2-1.541-1.742-2.067-2.783-1.3l0-.022a1.792,1.792,0,0,0-1.96-2.125q1.029-2.458,2.214-4.856a1.758,1.758,0,0,0-.82-2.376,110.278,110.278,0,0,1,14.446-13.594c1.7-1.4,9.466-7.439,7.3-7.2-7.691.855-19.718,5.674-24.282,11.465-4.656,5.906-13.673,37.781-14.754,41.8-.943,3.5-1.736,7.168-1.283,10.809.819,6.6,6.076,11.153,12.476,12.2,8.152,1.329,17.136-4.559,23.127-9.611C364.243,352.392,361.815,349.984,360.142,351.395Z" transform="translate(543.662 2255.994)" fill="#f0aa59"/>
      <path id="Path_34433" data-name="Path 34433" d="M497.045,331.95c-1.216-6.572-5.741-15.08-8.985-20.92-3.8-6.837-4.971-20.239-24.055-22.375-2.44-.273,4.505,5.618,6.419,7.191,5.912,4.862,11.864,18.963,11.6,19.457-2.415,4.592-1.215,10.406-1.581,15.41a56.444,56.444,0,0,1-1.71,10.382c-.045,0-.089,0-.135,0-2.951.282-5.757,3.848-7.359,6.042-.915,1.254.34,2.833,1.66,2.893.228.011.454.014.679.012a45.617,45.617,0,0,1-19.335-2.86c-2.022-.764-3.453,2.588-1.481,3.514a26.475,26.475,0,0,0,5.533,1.787c1.51.387,3.033.707,4.568.946.179.038.358.077.537.117,3.751.838,7.391,2.144,11.186,2.79,6.587,1.121,15.686,2.149,19.83-3.57C498.777,346.759,498.329,338.887,497.045,331.95Z" transform="translate(472.069 2255.138)" fill="#f0aa59"/>
      <path id="Path_34434" data-name="Path 34434" d="M515.234,863.517c-1.148-.931-2.885-1.529-4.094-2.378-1.87-1.313-2.284-3.221-2.439-5.462a4.454,4.454,0,0,1-1.161.047c-.124-1.221-.261-1.557-1.059-1.595-2.652-.125-3.728-.228-4.162,1.191a.437.437,0,0,1-.412.314c-.353,0-2.426-.3-2.242.611a1.12,1.12,0,0,1,.021.247q.174,2.848.348,5.7c.091,1.487.018,3.277,1.1,4.449,1.058,1.148,2.811,1.181,4.265,1.345a45.541,45.541,0,0,0,7.3.2.919.919,0,0,0,.238-.045,4.622,4.622,0,0,0,1.956-.431C517.209,866.521,516.993,864.942,515.234,863.517Z" transform="translate(444.676 1931.299)" fill="#b84646"/>
      <path id="Path_34435" data-name="Path 34435" d="M514.729,863.385a10.405,10.405,0,0,1-1.054-.633,5.471,5.471,0,0,1-.435-.342c-1.711-.7-2.173-3.363-2.312-5.082a2.551,2.551,0,0,1-.854.01s-.006,0-.009,0a43.99,43.99,0,0,0-4.7.074.419.419,0,0,0-.306.154,6.284,6.284,0,0,1-.188-.684c-.006.019-.014.035-.02.054a.437.437,0,0,1-.412.314c-.067,0-.2-.012-.361-.023.411,1.7,1.557,3.1,2.435,4.6a12.382,12.382,0,0,1,1.731,7.305.43.43,0,0,0,.8.216l.066-.139a.424.424,0,0,0,.006-.364,12.675,12.675,0,0,0-.886-5.538c-.1-.231-.2-.458-.32-.684,1.212,0,2.42-.037,3.629-.138a.421.421,0,0,0,.263-.123A3.238,3.238,0,0,0,514.729,863.385Zm-8.4-3.774a.414.414,0,0,0-.216.075,13.2,13.2,0,0,1-.773-1.427c.011,0,.018,0,.029,0a43.974,43.974,0,0,1,4.7-.074.4.4,0,0,0,.1-.017,12.914,12.914,0,0,0,.257,1.345.372.372,0,0,0-.064-.013Q508.341,859.506,506.327,859.611Zm1.255,2.159a.408.408,0,0,0-.136.026c-.271-.451-.561-.9-.849-1.342q1.88-.091,3.763-.1a.388.388,0,0,0,.276-.109,6.885,6.885,0,0,0,.629,1.394C510.039,861.739,508.812,861.784,507.582,861.77Z" transform="translate(442.141 1929.686)" fill="#1e2144"/>
      <path id="Path_34437" data-name="Path 34437" d="M376.176,319.93c-.235-.5-.972-.064-.738.432,1.732,3.662,2.317,7.168,1,11.071-1.023,3.03-2.69,5.816-3.5,8.923-.87,3.336-.707,6.807-.688,10.22a21.067,21.067,0,0,1-.017,2.353c-.244,2.2-1.09,2.687-2.7,3.671a30.461,30.461,0,0,1-5.119,2.475c-.509.193-.288,1.02.227.824a31.839,31.839,0,0,0,5.011-2.376c1.239-.736,2.761-1.524,3.23-2.992.541-1.692.22-3.775.2-5.527a34.87,34.87,0,0,1,.494-7.662c.823-3.845,3.077-7.181,4.073-10.969C378.621,326.7,377.767,323.3,376.176,319.93Z" transform="translate(522.298 2237.346)" fill="#1e2144"/>
      <path id="Path_34438" data-name="Path 34438" d="M380.345,402.984c-.681.9-5.576,7.7-6.257,8.607-.331.439.331.981.662.541l6.257-8.608C381.338,403.086,380.677,402.545,380.345,402.984Z" transform="translate(516.644 2189.744)" fill="#1e2144"/>
      <path id="Path_34439" data-name="Path 34439" d="M500.7,342.3c-2.646-1.988-2.934-5.33-3.111-8.382a22.3,22.3,0,0,0-1.4-7.186c-2.314-5.891-.952-11.306.987-17.1.175-.523-.65-.747-.824-.227a42.511,42.511,0,0,0-2.3,9.154,18.857,18.857,0,0,0,1.568,9.034c1.888,4.981-.173,11.817,4.649,15.439C500.707,343.368,501.134,342.626,500.7,342.3Z" transform="translate(447.93 2243.414)" fill="#1e2144"/>
      <path id="Path_34440" data-name="Path 34440" d="M493.649,388.157a.648.648,0,0,0,.383-.941c-.83-1.724-3.9-2.732-5.513-2.978-2.443-.372-4.846-.8-7.251.008a12.1,12.1,0,0,0-1.6.679,8.116,8.116,0,0,0-2.583.37,4.584,4.584,0,0,0-2.181,1.56,18.369,18.369,0,0,1-2.289,2.32,25.141,25.141,0,0,1-3.4,1.37,40.566,40.566,0,0,1,1.951,6.694c2.452-.476,4.813-1.262,7.24-1.9,3.615-.944,7.183-.814,10.88-.876,1.181-.02,2.731.593,2.833-1.3.043-.8.247-.487-.534-1.175a19.583,19.583,0,0,0,1.167-1.638c1.1-1.241-.582-2.32-2.345-3.051C491.4,387.246,492.657,388.347,493.649,388.157Z" transform="translate(462.104 2200.646)" fill="#ff697b"/>
      <path id="Path_34441" data-name="Path 34441" d="M379.891,395.689a54.666,54.666,0,0,0-6.316-2.39c-1.646-.5-3.157-1.016-4.825-.364a17,17,0,0,0-4.608,3.072c-1.48,1.26-3.169,2.531-3.946,4.361a.437.437,0,0,0,.264.626c1.271.473,2.991-1.821,3.759-2.562.382-.369.767-.743,1.16-1.108a19.834,19.834,0,0,0-2.04,3.665.435.435,0,0,0,.265.626c1.11.317,1.885-1.241,2.458-2.042-.327,1.048-.411,2.182.821,1.853a7.5,7.5,0,0,0,2.323-1.559q.281-.228.549-.468a32.018,32.018,0,0,1,4.886-.6,5.29,5.29,0,0,0,3.127-1.366,8.9,8.9,0,0,0,2.048-.62.359.359,0,0,0,.169-.5A.37.37,0,0,0,379.891,395.689Z" transform="translate(524.576 2195.582)" fill="#ff697b"/>
      <path id="Path_34442" data-name="Path 34442" d="M479.9,439.27a25.8,25.8,0,0,0-5.641-.665c-2.4,0-5.008.74-7.31-.157-3.253-1.268-4.624-5.14-8.32-5.65-.538-.074-.77.749-.227.824,3.719.513,5.125,4.649,8.554,5.763a13.792,13.792,0,0,0,5.334.161,25.182,25.182,0,0,1,7.383.549C480.21,440.213,480.439,439.389,479.9,439.27Z" transform="translate(468.478 2172.579)" fill="#1e2144"/>
      <path id="Path_34443" data-name="Path 34443" d="M524.427,415.129c-.186-.513-1.012-.291-.824.227a8.335,8.335,0,0,1-.154,6.268c-.216.5.52.936.738.432A9.209,9.209,0,0,0,524.427,415.129Z" transform="translate(431.069 2182.862)" fill="#1e2144"/>
      <path id="Path_34444" data-name="Path 34444" d="M427.515,393.687c-1.266-.629-3.707.513-4.87,1.005a.424.424,0,0,0-.144.1,4.932,4.932,0,0,0-.962-1.23c.025-.168.043-.33.059-.492a5.174,5.174,0,0,1-.825-.379c0,.1-.008.194-.017.294-1.853-1.067-3.448-.024-5.219.838a8.664,8.664,0,0,1-5.635.778,12.964,12.964,0,0,0-3.761-.343c-2.887.3-5.426,1.952-7.8,3.5-.461.3.073.968.531.67,2.144-1.395,4.435-2.9,7.021-3.266,2.133-.3,4.059.611,6.162.551,1.926-.056,3.4-1.036,5.1-1.788,3.862-1.7,5.163,1.932,5.629,5.006a.428.428,0,0,0,.846-.121,14.594,14.594,0,0,0-.789-3.3.431.431,0,0,0,.144-.029,11.226,11.226,0,0,1,2.449-.828,1.95,1.95,0,0,1,2.254.678c1.02,1.226,1.283,3.311,1.649,4.81.129.53.256,1.061.383,1.592.236.982.081,1.4-.954,1.862a15.392,15.392,0,0,1-3.7.844c-.329-1.039-.73-2.057-.935-2.97-.12-.533-.966-.417-.846.121.167.744.479,1.6.766,2.473.057.175.468,1.655.5,1.808.336,1.707.122,3.284-1.939,4.094-2.317.91-4.969.6-7.324,1.548s-3.706,3.034-5.849,4.267a8.534,8.534,0,0,1-8.631-.154c-.468-.28-.985.4-.513.684a9.492,9.492,0,0,0,7.331,1.13c3.589-.924,5.419-4.381,8.944-5.459,1.563-.478,3.618-.443,5.4-.878-.006.023.918-.18.944-.292a4.491,4.491,0,0,0,1.639-1.045c1.26-1.3,1.175-2.919.75-4.536,1.071-.225,2.141-.456,3.207-.7.622-.143,1.7-.205,2.132-.8.746-1.025-.358-3.359-.631-4.443C429.626,397.775,429.082,394.466,427.515,393.687Z" transform="translate(502.802 2195.638)" fill="#1e2144"/>
      <path id="Path_34445" data-name="Path 34445" d="M399.213,337.065a13.688,13.688,0,0,1-2.849,6.238c-.343.423.258,1.032.6.6a14.567,14.567,0,0,0,3.069-6.615C400.136,336.755,399.312,336.524,399.213,337.065Z" transform="translate(503.893 2227.583)" fill="#1e2144"/>
      <path id="Path_34446" data-name="Path 34446" d="M409.782,695.433c-.033-.546-.888-.55-.855,0q1.242,20.23,2.484,40.46c.034.547.888.55.855,0Q411.025,715.663,409.782,695.433Z" transform="translate(496.639 2022.389)" fill="#434c8f"/>
      <path id="Path_34447" data-name="Path 34447" d="M493.53,689.156c-.06-.541-.915-.546-.855,0q1.372,12.356,2.113,24.767c.033.547.887.55.854,0Q494.9,701.513,493.53,689.156Z" transform="translate(448.674 2025.982)" fill="#434c8f"/>
      <path id="Path_34448" data-name="Path 34448" d="M443.63,284.523c-.078-.542-.9-.312-.824.227a70.676,70.676,0,0,1,.3,17.82c-.5,4.548-.3,9.841-2.058,14.2l-9.181-1.742c.35-1.136.846-2.21,1.127-3.373a12.4,12.4,0,0,0-1.013-7.827c-2.91-6.6-9.412-11.491-8.088-19.425.09-.538-.734-.769-.824-.227-1.142,6.84,3.109,11.577,6.5,17,2.079,3.325,3.684,7.277,2.307,11.193a25.947,25.947,0,0,0-.749,2.532.783.783,0,0,0-.762.637l-2.556,13.468a.783.783,0,0,0,.623.916l10.214,1.938a.783.783,0,0,0,.916-.623l2.556-13.468a.781.781,0,0,0-.255-.733c1.674-4.252,1.489-9.258,2.007-13.7A72.654,72.654,0,0,0,443.63,284.523Z" transform="translate(488.649 2257.873)" fill="#fff"/>
      <path id="Path_34449" data-name="Path 34449" d="M395.836,478.13q-6.695-.32-13.386.011c-.547.027-.551.882,0,.855q6.694-.331,13.386-.011C396.386,479.011,396.385,478.156,395.836,478.13Z" transform="translate(512.039 2146.702)" fill="#1e2144"/>
      <path id="Path_34450" data-name="Path 34450" d="M476.1,478.055a78.424,78.424,0,0,0-12.494-.727.428.428,0,0,0,0,.855,76.975,76.975,0,0,1,12.267.7C476.415,478.953,476.647,478.13,476.1,478.055Z" transform="translate(465.556 2147.083)" fill="#1e2144"/>
    </g>
  </g>
</svg>
