<svg id="Group_22776" data-name="Group 22776" xmlns="http://www.w3.org/2000/svg" width="77.719" height="65.678" viewBox="0 0 77.719 65.678">
  <ellipse id="Ellipse_1407" data-name="Ellipse 1407" cx="1.919" cy="1.919" rx="1.919" ry="1.919" transform="translate(24.736)" fill="#19345e"/>
  <ellipse id="Ellipse_1417" data-name="Ellipse 1417" cx="1.919" cy="1.919" rx="1.919" ry="1.919" transform="translate(24.736 24.736)" fill="#19345e"/>
  <ellipse id="Ellipse_1410" data-name="Ellipse 1410" cx="1.919" cy="1.919" rx="1.919" ry="1.919" transform="translate(24.736 12.368)" fill="#19345e"/>
  <ellipse id="Ellipse_1418" data-name="Ellipse 1418" cx="1.919" cy="1.919" rx="1.919" ry="1.919" transform="translate(24.736 37.104)" fill="#19345e"/>
  <ellipse id="Ellipse_1408" data-name="Ellipse 1408" cx="1.919" cy="1.919" rx="1.919" ry="1.919" transform="translate(12.368)" fill="#19345e"/>
  <ellipse id="Ellipse_1414" data-name="Ellipse 1414" cx="1.919" cy="1.919" rx="1.919" ry="1.919" transform="translate(12.368 24.736)" fill="#19345e"/>
  <ellipse id="Ellipse_1411" data-name="Ellipse 1411" cx="1.919" cy="1.919" rx="1.919" ry="1.919" transform="translate(12.368 12.368)" fill="#19345e"/>
  <ellipse id="Ellipse_1415" data-name="Ellipse 1415" cx="1.919" cy="1.919" rx="1.919" ry="1.919" transform="translate(12.368 37.104)" fill="#19345e"/>
  <ellipse id="Ellipse_1409" data-name="Ellipse 1409" cx="1.919" cy="1.919" rx="1.919" ry="1.919" transform="translate(0)" fill="#19345e"/>
  <ellipse id="Ellipse_1416" data-name="Ellipse 1416" cx="1.919" cy="1.919" rx="1.919" ry="1.919" transform="translate(0 24.736)" fill="#19345e"/>
  <ellipse id="Ellipse_1412" data-name="Ellipse 1412" cx="1.919" cy="1.919" rx="1.919" ry="1.919" transform="translate(0 12.368)" fill="#19345e"/>
  <ellipse id="Ellipse_1413" data-name="Ellipse 1413" cx="1.919" cy="1.919" rx="1.919" ry="1.919" transform="translate(0 37.104)" fill="#19345e"/>
  <g id="Group_8162" data-name="Group 8162" transform="translate(0.1 49.471)">
    <ellipse id="Ellipse_1429" data-name="Ellipse 1429" cx="1.919" cy="1.919" rx="1.919" ry="1.919" transform="translate(61.413)" fill="#19345e"/>
    <ellipse id="Ellipse_1435" data-name="Ellipse 1435" cx="1.919" cy="1.919" rx="1.919" ry="1.919" transform="translate(24.736)" fill="#19345e"/>
    <ellipse id="Ellipse_1430" data-name="Ellipse 1430" cx="1.919" cy="1.919" rx="1.919" ry="1.919" transform="translate(61.413 12.368)" fill="#19345e"/>
    <ellipse id="Ellipse_1436" data-name="Ellipse 1436" cx="1.919" cy="1.919" rx="1.919" ry="1.919" transform="translate(24.736 12.368)" fill="#19345e"/>
    <ellipse id="Ellipse_1427" data-name="Ellipse 1427" cx="1.919" cy="1.919" rx="1.919" ry="1.919" transform="translate(49.045)" fill="#19345e"/>
    <ellipse id="Ellipse_1433" data-name="Ellipse 1433" cx="1.919" cy="1.919" rx="1.919" ry="1.919" transform="translate(12.368)" fill="#19345e"/>
    <ellipse id="Ellipse_1426" data-name="Ellipse 1426" cx="1.919" cy="1.919" rx="1.919" ry="1.919" transform="translate(49.045 12.368)" fill="#19345e"/>
    <ellipse id="Ellipse_1432" data-name="Ellipse 1432" cx="1.919" cy="1.919" rx="1.919" ry="1.919" transform="translate(12.368 12.368)" fill="#19345e"/>
    <ellipse id="Ellipse_1420" data-name="Ellipse 1420" cx="1.919" cy="1.919" rx="1.919" ry="1.919" transform="translate(73.781)" fill="#19345e"/>
    <ellipse id="Ellipse_1428" data-name="Ellipse 1428" cx="1.919" cy="1.919" rx="1.919" ry="1.919" transform="translate(36.677)" fill="#19345e"/>
    <ellipse id="Ellipse_1434" data-name="Ellipse 1434" cx="1.919" cy="1.919" rx="1.919" ry="1.919" transform="translate(0)" fill="#19345e"/>
    <ellipse id="Ellipse_1423" data-name="Ellipse 1423" cx="1.919" cy="1.919" rx="1.919" ry="1.919" transform="translate(73.781 12.368)" fill="#19345e"/>
    <ellipse id="Ellipse_1425" data-name="Ellipse 1425" cx="1.919" cy="1.919" rx="1.919" ry="1.919" transform="translate(36.677 12.368)" fill="#19345e"/>
    <ellipse id="Ellipse_1431" data-name="Ellipse 1431" cx="1.919" cy="1.919" rx="1.919" ry="1.919" transform="translate(0 12.368)" fill="#19345e"/>
  </g>
</svg>
