<svg xmlns="http://www.w3.org/2000/svg" xmlns:xlink="http://www.w3.org/1999/xlink" width="193.754" height="134.655" viewBox="0 0 193.754 134.655">
  <defs>
    <linearGradient id="linear-gradient" x1="0.24" y1="1.935" x2="0.694" y2="-0.569" gradientUnits="objectBoundingBox">
      <stop offset="0" stop-color="#f7f9ff"/>
      <stop offset="0.734" stop-color="#d7e8f7"/>
    </linearGradient>
  </defs>
  <g id="ic_ornament3" transform="translate(-497.263 -1038.127)">
    <ellipse id="Ellipse_7" data-name="Ellipse 7" cx="44.062" cy="2.04" rx="44.062" ry="2.04" transform="translate(560.501 1168.702)" fill="#f0e2d6"/>
    <path id="Path_13790" data-name="Path 13790" d="M416.612,595.13v77.62H577.237V595.13a7.786,7.786,0,0,0-7.786-7.786H424.4A7.786,7.786,0,0,0,416.612,595.13Zm7.422-1.283H571.2v72.834H424.034Z" transform="translate(107.188 450.867)" fill="#dedee2"/>
    <path id="Path_13791" data-name="Path 13791" d="M416.612,1029.434v5.476a7.786,7.786,0,0,0,7.786,7.786H569.451a7.786,7.786,0,0,0,7.786-7.786v-5.476Z" transform="translate(107.188 94.184)" fill="#dedee2"/>
    <rect id="Rectangle_7795" data-name="Rectangle 7795" width="147.168" height="72.834" transform="translate(531.223 1044.714)" fill="#dedee2"/>
    <path id="Path_22600" data-name="Path 22600" d="M370.859,735.027a29.22,29.22,0,0,0-.512-7.459c-.544-2.823-2.007-5.341-2.906-8.051-1.762-5.312-3.625-11.123-4.291-16.7-.438-3.672.548-7.753,1-11.392,1.125-9.05.416-18.671-5.626-25.858-1.639-1.949-10.665-11.483-13.255-6.528-.758,1.451.339,2.051,1.369,2.969a15.089,15.089,0,0,1,3.734,4.506,23.542,23.542,0,0,1,1.852,14.576c-.755,3.24-2.807,6.064-4.18,9.049a20.76,20.76,0,0,0-1.679,10.628,58.736,58.736,0,0,0,1.489,9.352c.82,2.823,2.152,5.553,2.742,8.45,1.582,7.769-1.113,15.834.988,23.5,1.028,3.748,2.733,7.417,6.9,7.179,2.616-.149,4.18.09,6.328-1.712A19.338,19.338,0,0,0,370.859,735.027Z" transform="translate(168.279 394.079)" fill="#dedee2"/>
    <path id="Path_22601" data-name="Path 22601" d="M284.5,845.5c-2.256,0-5.021-.993-6.237-2.769-1.633-2.382-1.32-5.007-1.017-7.546a17.356,17.356,0,0,0,.146-4.51,10.324,10.324,0,0,0-1.611-4.941c-.619-.824-1.285-1.639-1.929-2.426-.8-.981-1.632-2-2.389-3.049-2.213-3.08-3.893-8.189-2.659-12.661a23.484,23.484,0,0,1,1.136-2.72c1.1-2.4,2.6-5.687,2.487-7.692a8.434,8.434,0,0,0-.918-2.968,14.2,14.2,0,0,1-.809-2.1c-.394-1.452-.145-3.791,1.157-4.3l.033-.01c2.19-.478,3.91,1.6,4.741,2.886l.161.248c2.391,3.687,4.118,6.351,5.333,13.9a14.741,14.741,0,0,1,.064,3.235,11.189,11.189,0,0,0,.274,4.04,13.906,13.906,0,0,0,3.225,6q.277.276.57.564a20.566,20.566,0,0,1,4.082,4.949c2.26,4.51,5.676,11.326,2.441,16.981a10.941,10.941,0,0,1-6.764,4.7A6.05,6.05,0,0,1,284.5,845.5ZM272,788.224c-1.032.426-1.215,2.551-.882,3.78a13.856,13.856,0,0,0,.786,2.034,8.884,8.884,0,0,1,.955,3.12c.123,2.112-1.408,5.456-2.526,7.9a23.414,23.414,0,0,0-1.112,2.655c-1.019,3.693.047,8.749,2.593,12.292.748,1.042,1.574,2.051,2.372,3.027.647.791,1.315,1.608,1.94,2.439a10.659,10.659,0,0,1,1.694,5.139,17.7,17.7,0,0,1-.145,4.624c-.306,2.573-.6,5,.944,7.25,1.391,2.029,5.126,2.982,7.288,2.417a10.508,10.508,0,0,0,6.5-4.5c3.12-5.453-.1-11.88-2.453-16.572a20.258,20.258,0,0,0-4-4.834q-.294-.288-.572-.566a14.311,14.311,0,0,1-3.334-6.186,11.709,11.709,0,0,1-.291-4.188,14.362,14.362,0,0,0-.059-3.142c-1.2-7.462-2.906-10.094-5.268-13.737l-.161-.248C275.5,789.741,273.925,787.819,272,788.224Z" transform="translate(230.921 289.106)" fill="#dedee2"/>
    <path id="Path_22602" data-name="Path 22602" d="M9.332,53.424a8.324,8.324,0,0,1-.375-5.2,19.672,19.672,0,0,0-.544-9.214C7.761,37.544,1.19,30.9.539,26.907A20.711,20.711,0,0,1,2.68,15.164c1.547-3,1.957-5.309,1.608-6.517S1.85,3.144,2.68,1.46,6.151.769,6.151.769A42.967,42.967,0,0,1,9.307,4.963c.407.89,3.9,7.678,3.988,9.679s.383,4.212.342,4.5.945,7.489.945,7.489L21.133,34.9l1.246,18.256Z" transform="translate(501.69 1076.752)" fill="#fcf5ef"/>
    <path id="Path_13782" data-name="Path 13782" d="M370.859,735.027a29.22,29.22,0,0,0-.512-7.459c-.544-2.823-2.007-5.341-2.906-8.051-1.762-5.312-3.625-11.123-4.291-16.7-.438-3.672.548-7.753,1-11.392,1.125-9.05.416-18.671-5.626-25.858-1.639-1.949-10.665-11.483-13.255-6.528-.758,1.451.339,2.051,1.369,2.969a15.089,15.089,0,0,1,3.734,4.506,23.542,23.542,0,0,1,1.852,14.576c-.755,3.24-2.807,6.064-4.18,9.049a20.76,20.76,0,0,0-1.679,10.628,58.736,58.736,0,0,0,1.489,9.352c.82,2.823,2.152,5.553,2.742,8.45,1.582,7.769-1.113,15.834.988,23.5,1.028,3.748,2.733,7.417,6.9,7.179,2.616-.149,4.18.09,6.328-1.712A19.338,19.338,0,0,0,370.859,735.027Z" transform="translate(171.542 394.079)" fill="#3e7f95"/>
    <path id="Path_22603" data-name="Path 22603" d="M6308.877,1277.128l-8.355,28.347h9.734l4.4-30.762Z" transform="translate(-5717.157 -140.515)" fill="#dedee2"/>
    <path id="Path_13783" data-name="Path 13783" d="M284.5,845.5c-2.256,0-5.021-.993-6.237-2.769-1.633-2.382-1.32-5.007-1.017-7.546a17.356,17.356,0,0,0,.146-4.51,10.324,10.324,0,0,0-1.611-4.941c-.619-.824-1.285-1.639-1.929-2.426-.8-.981-1.632-2-2.389-3.049-2.213-3.08-3.893-8.189-2.659-12.661a23.484,23.484,0,0,1,1.136-2.72c1.1-2.4,2.6-5.687,2.487-7.692a8.434,8.434,0,0,0-.918-2.968,14.2,14.2,0,0,1-.809-2.1c-.394-1.452-.145-3.791,1.157-4.3l.033-.01c2.19-.478,3.91,1.6,4.741,2.886l.161.248c2.391,3.687,4.118,6.351,5.333,13.9a14.741,14.741,0,0,1,.064,3.235,11.189,11.189,0,0,0,.274,4.04,13.906,13.906,0,0,0,3.225,6q.277.276.57.564a20.566,20.566,0,0,1,4.082,4.949c2.26,4.51,5.676,11.326,2.441,16.981a10.941,10.941,0,0,1-6.764,4.7A6.05,6.05,0,0,1,284.5,845.5ZM272,788.224c-1.032.426-1.215,2.551-.882,3.78a13.856,13.856,0,0,0,.786,2.034,8.884,8.884,0,0,1,.955,3.12c.123,2.112-1.408,5.456-2.526,7.9a23.414,23.414,0,0,0-1.112,2.655c-1.019,3.693.047,8.749,2.593,12.292.748,1.042,1.574,2.051,2.372,3.027.647.791,1.315,1.608,1.94,2.439a10.659,10.659,0,0,1,1.694,5.139,17.7,17.7,0,0,1-.145,4.624c-.306,2.573-.6,5,.944,7.25,1.391,2.029,5.126,2.982,7.288,2.417a10.508,10.508,0,0,0,6.5-4.5c3.12-5.453-.1-11.88-2.453-16.572a20.258,20.258,0,0,0-4-4.834q-.294-.288-.572-.566a14.311,14.311,0,0,1-3.334-6.186,11.709,11.709,0,0,1-.291-4.188,14.362,14.362,0,0,0-.059-3.142c-1.2-7.462-2.906-10.094-5.268-13.737l-.161-.248C275.5,789.741,273.925,787.819,272,788.224Z" transform="translate(233.369 289.106)" fill="#3e7f95"/>
    <path id="Path_13784" data-name="Path 13784" d="M322.983,969.17a15.321,15.321,0,0,0,.071-5.64c-.674-2.916-2.9-5.318-3.415-8.266-.217-1.247.039-2.78,1.18-3.33a2.636,2.636,0,0,1,3.072,1.082,12.165,12.165,0,0,1,1.358,3.248,24.326,24.326,0,0,0,3.777,6.394,47.923,47.923,0,0,1,4.263,6.108,12.15,12.15,0,0,1,1.618,7.157,7.045,7.045,0,0,1-4.167,5.746,5.309,5.309,0,0,1-6.524-2.554C322.528,975.708,322.44,972.9,322.983,969.17Z" transform="translate(192.076 156.773)" fill="#22647b" fill-rule="evenodd"/>
    <path id="Path_13785" data-name="Path 13785" d="M337.457,1102.094H303.641l-4.335-41.62h42.487Z" transform="translate(208.424 69.056)" fill="#ff7973"/>
    <path id="Path_13786" data-name="Path 13786" d="M355.841,1077.518a22.5,22.5,0,0,0-5.278,5.292c-3.263,4.834-5.113,10.116-9.691,14.1-3.765,3.274-8.247,3.917-12.844,5.3-3.213.967-7.636,2.565-10.884,5.1l.889,8.538h33.816Z" transform="translate(194.033 55.305)" fill="#ef4a5e"/>
    <path id="Path_13787" data-name="Path 13787" d="M708.389,1163.093h30.517l4.905-18.952a11.948,11.948,0,0,1-1.855,1.1c-1.941.895-4.224.7-6.266.694a22.467,22.467,0,0,0-6.954,1.178c-6.664,2.038-12.571,9.849-19.282,11.87Z" transform="translate(-121.629 1.553)" fill="#2a4b84"/>
    <path id="Path_13788" data-name="Path 13788" d="M713.9,1121.053c6.711-2.021,12.618-9.832,19.282-11.87A22.464,22.464,0,0,1,740.14,1108c2.041.009,4.325.2,6.266-.694a11.969,11.969,0,0,0,1.855-1.1l2.348-9.081H720.092Z" transform="translate(-126.079 39.479)" fill="#153260"/>
    <path id="Path_13789" data-name="Path 13789" d="M588.745,695.3c-6.315-6.289-14.075-10.619-21.579-14.806a129.209,129.209,0,0,1-16.532-10.356,103.382,103.382,0,0,1-16.267-16.125l-1.427-1.733a154.9,154.9,0,0,0-13.966-15.5c-6.868-6.363-14.958-11.114-21.238-14.542l.207-.38c6.3,3.44,14.421,8.209,21.325,14.6A155.339,155.339,0,0,1,533.275,652l1.426,1.732a102.956,102.956,0,0,0,16.2,16.059,128.983,128.983,0,0,0,16.478,10.32c7.53,4.2,15.316,8.547,21.673,14.877Z" transform="translate(48.328 422.938)" fill="#231f20"/>
    <path id="Path_13790-2" data-name="Path 13790" d="M416.612,595.13v77.62H577.237V595.13a7.786,7.786,0,0,0-7.786-7.786H424.4A7.786,7.786,0,0,0,416.612,595.13Zm7.422-1.283H571.2v72.834H424.034Z" transform="translate(113.78 450.783)" fill="#231f20"/>
    <path id="Path_13791-2" data-name="Path 13791" d="M416.612,1029.434v5.476a7.786,7.786,0,0,0,7.786,7.786H569.451a7.786,7.786,0,0,0,7.786-7.786v-5.476Z" transform="translate(113.78 94.1)" fill="#17335f"/>
    <rect id="Rectangle_7795-2" data-name="Rectangle 7795" width="147.168" height="72.834" transform="translate(537.814 1044.63)" fill="#f0faff"/>
    <path id="Path_13792" data-name="Path 13792" d="M743.1,1172.589l-.278-.839a14.4,14.4,0,0,0,6.1-3.883c.812-.774,1.614-1.606,2.463-2.486,2.382-2.47,4.845-5.024,7.744-6.493a19.7,19.7,0,0,1,5.675-1.587,18,18,0,0,0,5.669-1.629l.455.77a18.906,18.906,0,0,1-5.917,1.714,18.784,18.784,0,0,0-5.446,1.511c-2.781,1.409-5.2,3.915-7.534,6.338-.855.886-1.663,1.724-2.487,2.509A15.088,15.088,0,0,1,743.1,1172.589Z" transform="translate(-149.41 -7.75)" fill="#133061"/>
    <path id="Path_13793" data-name="Path 13793" d="M684.953,1248.751H611.468l1.3-6.5h70.883Z" transform="translate(-43.433 -77.601)" fill="#133061"/>
    <path id="Path_13837" data-name="Path 13837" d="M859.779,621.006c3.572,3.776,6.841,7.773,10.18,11.9,8.679,10.739,18.538,19.6,30.928,25.856,10.5,5.3,20.337,11.229,27.868,20.367V653.066a119.613,119.613,0,0,0-15.815-9.291c-11.181-5.649-20.3-13.414-28.358-22.769Z" transform="translate(-243.772 423.624)" fill="#fff"/>
    <path id="Path_13838" data-name="Path 13838" d="M562.614,621.006a90.046,90.046,0,0,1,13.587,9.715c6.117,5.393,11.064,11.4,16.175,17.723,8.679,10.739,18.534,19.6,30.929,25.856,10.171,5.137,19.739,10.864,27.174,19.539h4.5c-.347-.468-.7-.928-1.075-1.379-7.535-9.165-17.389-15.1-27.9-20.406-12.39-6.256-22.249-15.113-30.928-25.856-5.111-6.321-10.058-12.325-16.171-17.723a83.211,83.211,0,0,0-9.971-7.47Z" transform="translate(-4.016 423.624)" fill="#fff"/>
    <path id="Path_13849" data-name="Path 13849" d="M245.683,825.826a9.612,9.612,0,0,0-.537,1.893,2.053,2.053,0,0,0,.586,1.8,1.986,1.986,0,0,0,2.709-.556,5.329,5.329,0,0,0,.8-2.944c.072-1.206.249-5.473-1.667-5.5C245.785,820.5,246.035,824.744,245.683,825.826Z" transform="translate(252.134 262.654)" fill="#3e7f95"/>
    <path id="Path_13850" data-name="Path 13850" d="M249.5,775.863a6.035,6.035,0,0,0,.816,2.7c.178.3.458.628.807.582.3-.039.492-.335.6-.615a3.21,3.21,0,0,0-.4-3.015,1.71,1.71,0,0,0-.875-.673.906.906,0,0,0-1,.323Z" transform="translate(248.642 299.534)" fill="#3e7f95"/>
    <path id="Path_13851" data-name="Path 13851" d="M1007.124,849.122l2.188-.214,2.092-9.358-2.915.1Z" transform="translate(-362.652 247.3)" fill-rule="evenodd" opacity="0.61" fill="url(#linear-gradient)"/>
    <g id="Group_16389" data-name="Group 16389" transform="translate(5464 6973.92)">
      <g id="Group_16343" data-name="Group 16343" transform="translate(-4913.462 -5916.611)">
        <path id="Path_34670" data-name="Path 34670" d="M431.768,620.189H412.624a1.775,1.775,0,0,1-1.773-1.773V599.271a1.775,1.775,0,0,1,1.773-1.773h19.144a1.776,1.776,0,0,1,1.774,1.773v19.144A1.776,1.776,0,0,1,431.768,620.189Zm-19.144-21.423a.506.506,0,0,0-.506.506v19.144a.506.506,0,0,0,.506.506h19.144a.506.506,0,0,0,.506-.506V599.271a.506.506,0,0,0-.506-.506Z" transform="translate(-410.851 -597.498)" fill="#91b6d6"/>
      </g>
      <g id="Group_16344" data-name="Group 16344" transform="translate(-4913.322 -5915.626)">
        <path id="Path_34671" data-name="Path 34671" d="M435,603.2,433.1,600.01a.772.772,0,0,0-1.107.124l-9.9,14.521a.479.479,0,0,1-.731.034l-6.66-7.109a.774.774,0,0,0-1.162.031l-2.179,1.475a.773.773,0,0,0,.1,1.087l10.226,8.708a.313.313,0,0,0,.436-.03l12.969-14.544A.772.772,0,0,0,435,603.2Z" transform="translate(-411.182 -599.831)" fill="#d98faf"/>
      </g>
      <g id="Group_16354" data-name="Group 16354" transform="translate(-4879.833 -5913.284)">
        <path id="Path_34681" data-name="Path 34681" d="M570.512,606.642H491.078a.634.634,0,0,1,0-1.268h79.434a.634.634,0,0,1,0,1.268Z" transform="translate(-490.444 -605.374)" fill="#6b799c"/>
      </g>
      <g id="Group_16355" data-name="Group 16355" transform="translate(-4879.833 -5906.557)">
        <path id="Path_34682" data-name="Path 34682" d="M555.618,622.563h-64.54a.634.634,0,0,1,0-1.268h64.54a.634.634,0,0,1,0,1.268Z" transform="translate(-490.444 -621.295)" fill="#6b799c"/>
      </g>
      <g id="Group_16356" data-name="Group 16356" transform="translate(-4879.833 -5899.5)">
        <path id="Path_34683" data-name="Path 34683" d="M535.759,639.262H491.078a.634.634,0,0,1,0-1.268h44.682a.634.634,0,0,1,0,1.268Z" transform="translate(-490.444 -637.994)" fill="#6b799c"/>
      </g>
    </g>
    <g id="Group_16390" data-name="Group 16390" transform="translate(5464 7004)">
      <g id="Group_16343-2" data-name="Group 16343" transform="translate(-4913.462 -5916.611)">
        <path id="Path_34670-2" data-name="Path 34670" d="M423.01,610.688H411.882a1.032,1.032,0,0,1-1.031-1.031V598.529a1.032,1.032,0,0,1,1.031-1.031H423.01a1.032,1.032,0,0,1,1.031,1.031v11.129A1.032,1.032,0,0,1,423.01,610.688Zm-11.128-12.454a.294.294,0,0,0-.294.294v11.129a.294.294,0,0,0,.294.294H423.01a.294.294,0,0,0,.294-.294V598.529a.294.294,0,0,0-.294-.294Z" transform="translate(-410.851 -597.498)" fill="#91b6d6"/>
      </g>
      <g id="Group_16344-2" data-name="Group 16344" transform="translate(-4913.381 -5916.039)">
        <path id="Path_34671-2" data-name="Path 34671" d="M425.03,601.792l-1.108-1.857a.449.449,0,0,0-.643.072l-5.753,8.441a.278.278,0,0,1-.425.02l-3.872-4.132a.45.45,0,0,0-.676.018l-1.267.857a.45.45,0,0,0,.056.632l5.944,5.062a.182.182,0,0,0,.254-.017l7.539-8.454A.449.449,0,0,0,425.03,601.792Z" transform="translate(-411.182 -599.831)" fill="#d98faf"/>
      </g>
      <g id="Group_16354-2" data-name="Group 16354" transform="translate(-4893.913 -5914.677)">
        <path id="Path_34681-2" data-name="Path 34681" d="M536.989,606.111H490.812a.368.368,0,1,1,0-.737h46.176a.368.368,0,0,1,0,.737Z" transform="translate(-490.444 -605.374)" fill="#6b799c"/>
      </g>
      <g id="Group_16355-2" data-name="Group 16355" transform="translate(-4893.913 -5910.767)">
        <path id="Path_34682-2" data-name="Path 34682" d="M528.331,622.032H490.812a.368.368,0,1,1,0-.737h37.518a.368.368,0,1,1,0,.737Z" transform="translate(-490.444 -621.295)" fill="#6b799c"/>
      </g>
      <g id="Group_16356-2" data-name="Group 16356" transform="translate(-4893.913 -5906.665)">
        <path id="Path_34683-2" data-name="Path 34683" d="M516.786,638.731H490.812a.368.368,0,0,1,0-.737h25.974a.368.368,0,1,1,0,.737Z" transform="translate(-490.444 -637.994)" fill="#6b799c"/>
      </g>
    </g>
  </g>
</svg>
