<svg xmlns="http://www.w3.org/2000/svg" xmlns:xlink="http://www.w3.org/1999/xlink" width="174.691" height="167.272" viewBox="0 0 174.691 167.272">
  <defs>
    <linearGradient id="linear-gradient" x1="0.002" y1="1.151" x2="0.63" y2="0.089" gradientUnits="objectBoundingBox">
      <stop offset="0" stop-color="#381c64"/>
      <stop offset="1" stop-color="#17122d"/>
    </linearGradient>
    <linearGradient id="linear-gradient-2" x1="0.292" y1="0.567" x2="0.955" y2="0.238" xlink:href="#linear-gradient"/>
    <linearGradient id="linear-gradient-3" x1="0.998" y1="2.457" x2="0.508" y2="0.048" xlink:href="#linear-gradient"/>
    <linearGradient id="linear-gradient-4" x1="0.676" y1="0.954" x2="0.525" y2="0.427" gradientUnits="objectBoundingBox">
      <stop offset="0" stop-color="#f6c854"/>
      <stop offset="1" stop-color="#e3aa4d"/>
    </linearGradient>
    <linearGradient id="linear-gradient-5" x1="0.468" y1="1.067" x2="0.554" y2="-0.041" xlink:href="#linear-gradient-4"/>
    <linearGradient id="linear-gradient-6" x1="0.406" y1="0.918" x2="0.594" y2="-0.008" xlink:href="#linear-gradient-4"/>
    <linearGradient id="linear-gradient-7" x1="0.489" y1="0.475" x2="0.598" y2="0.266" xlink:href="#linear-gradient-4"/>
    <linearGradient id="linear-gradient-8" x1="0.078" y1="0.397" x2="0.643" y2="0.514" xlink:href="#linear-gradient-4"/>
    <linearGradient id="linear-gradient-9" x1="0" y1="0.5" x2="1" y2="0.5" xlink:href="#linear-gradient"/>
    <linearGradient id="linear-gradient-10" x1="0.237" y1="0.091" x2="1.033" y2="1.008" xlink:href="#linear-gradient"/>
  </defs>
  <g id="ic_ornament_3" transform="translate(-144.135 -1004.694)">
    <path id="Path_13704" data-name="Path 13704" d="M1122.252,650.816c0-.007,0-.013,0-.02a.233.233,0,0,0-.009-.036.228.228,0,0,0-.009-.021.249.249,0,0,0-.017-.032l-.015-.021-.025-.029-.021-.02-.035-.027-.026-.018c-.014-.009-.03-.018-.046-.026l-.031-.016-.063-.026-.03-.012c-.034-.012-.071-.024-.11-.035a6.83,6.83,0,0,0-1.684-.313,4.484,4.484,0,0,0-.873.063q-.188.032-.39.082c-.067.017-.135.035-.2.056a6.935,6.935,0,0,0-.892.331c-.238.106-.489.232-.754.378a14.614,14.614,0,0,0-1.439.924c-3.336,2.4-4.448,5.119-6.043,6.234h0c-.075.052-.143.1-.209.153l-.036.028q-.093.072-.176.143l-.029.026a2.948,2.948,0,0,0-.29.29l-.02.023c-.039.047-.075.094-.109.141l-.017.024a1.908,1.908,0,0,0-.169.3l-.011.024c-.021.051-.041.1-.059.157l-.009.029c-.017.056-.034.112-.048.171v0c-.014.058-.026.118-.037.18l-.006.035c-.01.06-.02.123-.029.187,0,.016,0,.032-.006.048-.008.063-.016.128-.023.2,0,.016,0,.033,0,.049q-.008.086-.016.176l-.008.091c0,.018,0,.037,0,.055-.02.245-.041.516-.069.825-.034.371-.079.794-.148,1.282-.217,1.518.955,2.94.52,4.075s-5.487,15.763-5.632,17.527c-.125,1.526-1.886,5.653-2.358,6.738h-1.39c.171-1.917,1.221-13.632,1.609-15.567.422-2.109.592-5.3.882-5.882s3.523-2.015,3.632-3.094a4.876,4.876,0,0,0,.041-1.2c.045-.65.1-1.935-2.688-2.923a11.326,11.326,0,0,0-2.49-.652c-.007-.239-.015-.44-.023-.594-.121-2.14-.574-2.574-.522-3.257s3.119-2.034,3.678-3.23-.126-1.795-.035-2.154.886-3.592-.754-4.551c0,0-2.332-1.7-4.1-1.576a3.614,3.614,0,0,1-1.344-.191V637.4a10.522,10.522,0,0,0-.379-2.8c.04-.523.077-1.021.122-1.471a8.186,8.186,0,0,1,1.254-3.22c1.762.465,3.594.837,4.763-.128.75-.62-.532-4.252-1.369-4.415s-1.73.723-3.734,1.129c-1.791.363-3.748,2.607-4.144,3.08a10.479,10.479,0,0,0-7.031-2.7l-50.336.087,13.317,67.641a6.527,6.527,0,0,0,5.794,9.532h36.5a5.237,5.237,0,0,0,.833-.067,1.7,1.7,0,0,0,.467.067h10.737a1.514,1.514,0,0,0,1.51-1.518l0-.021c0-.023,0-.045,0-.068l-1.832-11.313v0h-2.115a45.92,45.92,0,0,0,2.521-6.586c.8-3.011,4.677-16.513,6.236-18.277s6.055-3.893,7.935-5.809,2.181-6.113,2.58-7.379a1.977,1.977,0,0,1,.169-.379,12.191,12.191,0,0,1,1.2-1.468l.008-.01.05-.067.011-.016.04-.059.012-.018c.012-.019.022-.037.033-.055l.01-.017c.01-.019.019-.038.027-.057l.006-.013a.472.472,0,0,0,.034-.13s0-.009,0-.014A.261.261,0,0,0,1122.252,650.816Zm-22.422,25.716c.177-1.016.275-4.35.313-7.675a3.966,3.966,0,0,1,.577,2.635c-.166,1.663-.876,7.589-1.479,12.561C1099.438,680.782,1099.666,677.469,1099.83,676.532Zm-2.4-26.086a8.562,8.562,0,0,1,1.485,6.1c-.18,1.758.489,4,.508,5,0,.076,0,.187,0,.322a23.027,23.027,0,0,0-2.4.329V650.86C1097.153,650.724,1097.289,650.586,1097.427,650.446ZM1094,629.323c-.122.108-.245.223-.369.342l-.088-.081A1.289,1.289,0,0,1,1094,629.323Zm3.9,61.892h-.215c-.064-.384-.31-1.866-.668-4.023v-8.076c.08,1.2.192,2.4.354,3.567a59.192,59.192,0,0,1,.624,7.181C1097.955,690.479,1097.923,690.945,1097.9,691.215Zm.3-9.718c-.762-3.078-1.027-11.974-.892-14.572.219-.04.445-.087.68-.142a12.456,12.456,0,0,1,1.255,1.016c-.04,1.35-.069,2.558-.067,3.193,0,.974-.363,6.7-.708,11.857C1098.4,682.356,1098.307,681.9,1098.207,681.5Z" transform="translate(-803.427 467.068)" fill="#dedee2"/>
    <rect id="Rectangle_7756" data-name="Rectangle 7756" width="25.313" height="14.836" transform="translate(189.083 1117.026)" fill="#e7e4f5"/>
    <path id="Path_13705" data-name="Path 13705" d="M1013.954,670.188H957.2l11.862-28.819a13.627,13.627,0,0,1,12.6-8.44l34.713-.658c7.983.087,9.389,4.683,8.682,9.1-1.012,6.329-4.321,24.273-4.321,24.273A7.337,7.337,0,0,1,1013.954,670.188Z" transform="translate(-741.932 461.674)" fill="#426eb7"/>
    <path id="Path_13706" data-name="Path 13706" d="M974.989,670.188H918.235l10.737-29.477a13.627,13.627,0,0,1,12.6-8.44h44.458a5.413,5.413,0,0,1,5.006,7.474l-9.265,25.9A7.336,7.336,0,0,1,974.989,670.188Z" transform="translate(-711.587 461.674)" fill="#17335f"/>
    <rect id="Rectangle_7759" data-name="Rectangle 7759" width="50.105" height="36.882" rx="16.712" transform="translate(200.338 1131.862)" fill="#20437b"/>
    <path id="Path_44068" data-name="Path 44068" d="M16.712,0H33.393A16.712,16.712,0,0,1,50.1,16.712V20.17A16.712,16.712,0,0,1,33.393,36.882H16.712A16.712,16.712,0,0,1,0,20.17V16.712A16.712,16.712,0,0,1,16.712,0Z" transform="translate(188.39 1131.862)" fill="#426eb7"/>
    <rect id="Rectangle_7761" data-name="Rectangle 7761" width="47.994" height="35.409" rx="16.007" transform="translate(188.39 1132.599)" fill="#17335f"/>
    <path id="Path_13707" data-name="Path 13707" d="M992.958,632.271a8.011,8.011,0,0,1,7.646,5.622c2.49,7.971,4.45,15.544,2.7,22.481-2.152,8.551-7.019,9.814-7.019,9.814H966.974l20.555-37.917Z" transform="translate(-749.543 461.674)" fill="#0d2346"/>
    <path id="Path_13708" data-name="Path 13708" d="M1152.088,790.778H1125.42l-.206-54.18h26.909a3.511,3.511,0,0,1,3.511,3.511l.206,46.917A3.752,3.752,0,0,1,1152.088,790.778Z" transform="translate(-872.775 380.428)" fill="#20437b"/>
    <path id="Path_13709" data-name="Path 13709" d="M1099.432,736.6h-7.65a3.7,3.7,0,0,0-3.7,3.7l.206,46.787a3.7,3.7,0,0,0,3.7,3.7h7.65a3.7,3.7,0,0,0,3.7-3.7l-.206-46.787A3.7,3.7,0,0,0,1099.432,736.6Z" transform="translate(-843.861 380.428)" fill="#426eb7"/>
    <path id="Path_13710" data-name="Path 13710" d="M1096.243,741.012H1089.5a3.256,3.256,0,0,0-3.256,3.256l.206,45.882a3.256,3.256,0,0,0,3.256,3.256h6.738a3.256,3.256,0,0,0,3.256-3.256l-.206-45.882A3.256,3.256,0,0,0,1096.243,741.012Z" transform="translate(-842.43 376.99)" fill="#17335f"/>
    <path id="Path_13711" data-name="Path 13711" d="M848.9,793.676c-15.507-1.049-15.619,11.009-17.02,21.035s-6.042,8.579-6.042,8.579L821.19,802.65s-4.558,8.391-6.852,7.192c-2.242-1.172,1.728-14.157,1.728-14.157l12.909-5.079Z" transform="translate(-630.142 338.369)" fill="#0b2247"/>
    <path id="Path_13712" data-name="Path 13712" d="M1162.706,548.934c-1.338.276-3.206.149-3.589-1.487s-.38-3.572,3.2-4.6c1.766-.509,3.3-3.568,3.114-5.9s-.5-2.384-.986-2.892c-.322-.335.4-.829,1.914-5.879,2.259-7.547-1.1-10.307-3.819-10.743s-5.861-1.433-6.461-3.854.359-3.78,0-5.365-1.765,1.019-2.274,1.585-2.379.453-2.464-.425-.057-4.105-1.7-1.953a5.806,5.806,0,0,0-1.074,2.85s0,.023-.007.06q-.015.122-.026.245c0,.021,0,.043-.005.064q-.011.126-.018.252c0,.024,0,.047,0,.071q-.007.137-.011.275c0,.013,0,.025,0,.038,0,.215,0,.431,0,.649,0,.021,0,.042,0,.063q0,.131.011.261c0,.025,0,.049,0,.074q.008.137.018.273c0,.016,0,.032,0,.047.016.217.037.435.061.652,0,.023.005.046.008.068q.014.127.03.254c0,.028.007.055.01.082.011.085.022.17.034.254,0,.022.006.043.009.065q.044.318.1.631c0,.027.009.053.013.08l.039.231.016.091c.013.076.026.152.04.227l.014.078c.018.1.036.2.054.3.474,2.569,2,4.731,2.951,7.092q.1.236.181.475c.029.081.057.167.083.258.006.021.012.044.017.066.02.071.039.143.057.219.006.023.01.048.016.072.017.077.035.156.05.237,0,.023.008.048.013.072.015.085.03.17.044.258.476,3.093-.1,8.571-.886,8.515-1.8-.127-1.449,1.645-.878,1.645h2.194c1.263,0,1.98-7.805,1.98-7.805s1.856,5.3,1.007,5.769-.679,2.076,0,2.036,3.2.053,4.785.053c2.66,0,5.74,4.8,1.393,6.664s-5.079,6.915-3.465,8.423a4.666,4.666,0,0,0,4.566.786C1163.789,550.229,1164.044,548.658,1162.706,548.934Zm-10.339-24.569v0Z" transform="translate(-890.907 559.473)" fill="#dedee2"/>
    <path id="Path_13714" data-name="Path 13714" d="M760.652,759.3c-9.91,0-15.86,2.208-19.426,2.787-2.478.4-3.067,3.28-3.768,4.571-1.252,2.306-9.812,34.4-13.1,36.4-3.24,1.969-5.179,3.61-2.793,4.35,1.971.612,4.1,1.137,5.929-.691a27.411,27.411,0,0,1,5.012-4.166c2.507-1.654.006-5.776.542-6.884s10.93-13.069,11.117-16.755c.245-4.849,5-9.014,21.772-9.606C781.491,768.762,760.652,759.3,760.652,759.3Z" transform="translate(-557.598 362.748)" fill="#381c64"/>
    <path id="Path_13716" data-name="Path 13716" d="M827.709,778.119c2.453-.086,14.51.018,16.846.018,3.186,0-13.616-5.221-17.5-7.527l-17.547,1.083c-10.276,3.773-10.123,16.66-9.39,23.455.085.785.182,1.466.288,2.057,2.724-3.626,5.435-7.614,5.53-9.48C806.182,782.876,810.94,778.712,827.709,778.119Z" transform="translate(-619.373 353.94)" fill="url(#linear-gradient)"/>
    <path id="Path_13717" data-name="Path 13717" d="M823.832,735.915c-12.978.294-11.183-.246-13.731,1.987-1.977,1.733-2.342,3.69-1.387,7.638s4.3,32.549,4.445,34.851-1.812,3.84-2.8,4.311a25.94,25.94,0,0,1-7.765,1.44c-3.027.056-.856,4.122,2.792,3.893s10.193.07,11.429.009c2.24-.109,3.22-2.7,2.377-4.755s-.625-8.235-.275-13.055c.352-4.839,1.543-9.978,1.94-14.743s-1.992-8.458-1.608-9.67,2.241.606,6.754.606c4.535,0,15.942,3.321,20.533,2.5s5.773-3.071,6.617-7.773l-5.051-7.484C842.937,735.716,834.719,735.669,823.832,735.915Z" transform="translate(-620.41 381.151)" fill="#381c64"/>
    <path id="Path_13719" data-name="Path 13719" d="M878.194,735.915c-3.225.073-5.538.095-7.232.12,2.026,2.922,6.022,12.014,6.236,12.078a52.336,52.336,0,0,0,16.334,2.781c2.387-.011,6.05.268,7.362.032,4.592-.824,5.773-3.071,6.617-7.773l-5.051-7.484C897.3,735.716,889.081,735.669,878.194,735.915Z" transform="translate(-674.772 381.151)" fill="url(#linear-gradient-2)"/>
    <path id="Path_13720" data-name="Path 13720" d="M868.736,737.36c5.852.039,10.821,3.4,13.836,3.736s2.512-3.7,2.512-3.7Z" transform="translate(-673.039 379.835)" fill="url(#linear-gradient-3)"/>
    <path id="Path_13722" data-name="Path 13722" d="M863.472,566.257c-6.268,1.625-8.567,3.413-12.579,7.474-4.559,4.615-16.811,13.931-19.359,14.781s-14.78,1.7-14.78,1.7a2.376,2.376,0,0,1,2.039,1.7c.34,1.529-.51,1.529-.51,1.529H836.63c2.378,0,13.374-8.605,13.374-8.605a6.589,6.589,0,0,0,2.3,5.4c8.174,7.477.734,10.915-7.341,10.963-7,.042-7.356.471-7.056,1.049.269.518.029.527-1.928,1.553,0,0,6.768.253,12.034,3.311s7.864,11.869,14.157,11.7c2.76-.075,7.967-1.388,9.244-4.179.223-.487-.922-1.883.792-2.389,5.715-1.684,1.346-12.009,5.714-34.194C879.824,568.382,868.059,565.068,863.472,566.257Z" transform="translate(-632.557 513.264)" fill="#f6c854"/>
    <path id="Path_13723" data-name="Path 13723" d="M973.756,665.232c9.735,4.526,9.045,5.525,11.557,6.556,6.386,2.62,11.56-20.752,11.56-20.752l-11.218,11.791Z" transform="translate(-754.825 447.061)" fill="url(#linear-gradient-4)"/>
    <path id="Path_13724" data-name="Path 13724" d="M820.474,626.309c3.767-.021,14.73-.2,16.315-1.537,1.918-1.621,13.981-13.045,13.981-13.045h0c-5.511,4.866-14.626,11.656-16.784,12.375-2.034.678-10.241,1.356-13.468,1.6l-.616.285A2.583,2.583,0,0,1,820.474,626.309Z" transform="translate(-635.009 477.673)" fill="#ffdc82"/>
    <path id="Path_13725" data-name="Path 13725" d="M874.732,629.7s-10.377,11.5-13.94,12.235-13.067,1.09-13.067,1.09,12.21.534,14.039.085c3.9-.958,12.968-9.046,12.968-9.046Z" transform="translate(-656.676 463.674)" fill="url(#linear-gradient-5)"/>
    <path id="Path_13727" data-name="Path 13727" d="M967.6,627.435s-.234,1.555-.564,3.344.808,5.086.808,5.086,14.3,3.186,16.809.817.39-9.892.39-9.892-2.439,6.429-10.384,5.364C966.821,631.1,967.456,629.2,967.6,627.435Z" transform="translate(-749.544 465.942)" fill="url(#linear-gradient-6)"/>
    <path id="Path_13728" data-name="Path 13728" d="M947.4,591.778c-6.286-1.555-7.966,18.656-11.6,21.243s-19.916,2.971-22.492,2.724c0,0,3.1,2.382,1.085,4.452,0,0,21.543,3.3,26.8-.338s10.209-12.967,9.363-20.4C949.931,593.951,949.917,592.4,947.4,591.778Z" transform="translate(-707.751 493.276)" fill="#f6c854"/>
    <path id="Path_13730" data-name="Path 13730" d="M1020.437,521.966s-4.276-2.836-6.977-11.932c1.263.727,1.134-.722,1.088-1.251-.29-3.333-3.077-4.767-2.759-1.043,1.292,5.426-.257,5.148-3.015,7.965,0,0,1.49.768-.154,3.068-1.471,2.057-4.563,5.2-4.6,7.017C1003.916,530.289,1020.437,521.966,1020.437,521.966Z" transform="translate(-778.39 560.372)" fill="#ff7973"/>
    <path id="Path_13731" data-name="Path 13731" d="M942.146,613.913c-2.885,6.427-4.2,14.886-6.344,16.412-3.633,2.587-19.916,2.971-22.492,2.724a6.159,6.159,0,0,1,.811.788c8.218.379,21.135-.255,22.972-2.977,3.073-4.553,5.053-16.948,5.053-16.948Z" transform="translate(-707.752 475.971)" fill="#ffdc82"/>
    <path id="Path_13732" data-name="Path 13732" d="M991.967,746.962c-8.055-.924-16.416-6.729-21.43-7.946a17.362,17.362,0,0,1,7.392,4.268c3.053,3.179,12.494,7.337,13.246,6.067.106-.179-.173-.822.167-1.417A9.883,9.883,0,0,1,991.967,746.962Z" transform="translate(-752.318 378.545)" fill="url(#linear-gradient-7)"/>
    <path id="Path_13733" data-name="Path 13733" d="M924.481,736.124c-9.27-7.584-16.326-6.535-16.326-6.535s.373.56.29.721a1.4,1.4,0,0,1-.552.454s-2.218.365.181.544C912.466,731.637,924.481,736.124,924.481,736.124Z" transform="translate(-702.806 385.924)" fill="url(#linear-gradient-8)"/>
    <rect id="Rectangle_7762" data-name="Rectangle 7762" width="28.88" height="1.468" rx="0.734" transform="translate(183.572 1115.765)" fill="#392d5e"/>
    <path id="Path_13736" data-name="Path 13736" d="M1134.443,534.559h-2.194c-.571,0-.92-1.773.878-1.646.9.064,1.527-7.148.608-9.7s-2.627-4.826-3.132-7.566-.958-6.081.684-8.233,1.614,1.076,1.7,1.953,1.954.991,2.463.425,1.915-3.17,2.274-1.585-.6,2.944,0,5.365,3.742,3.419,6.46,3.854,6.073,4.139,5.139,8.679-1.923,8.451-3.51,8.451-7.7-.039-8.382,0-.849-1.564,0-2.036-1.007-5.769-1.007-5.769S1135.706,534.558,1134.443,534.559Z" transform="translate(-876.609 559.473)" fill="#381c64"/>
    <path id="Path_13737" data-name="Path 13737" d="M1161.1,579.436c3.185,0,5.214.331,5.367-1.26s-5.831-5.03-3.414-8.641c.481-.718,2.463-1.381,1.823-1.995-2.2-2.115-6.155,1.6-3.409,6.242,1.6,2.707,3.03,4.275,2.378,4.771A9.829,9.829,0,0,1,1161.1,579.436Z" transform="translate(-900.283 512.559)" fill="url(#linear-gradient-9)"/>
    <path id="Path_13738" data-name="Path 13738" d="M1189,623.819c2.661,0,4.347,4.8,0,6.665s-3.859,6.9-2.245,8.409a4.666,4.666,0,0,0,4.566.786c.722-.255.977-1.826-.361-1.55s-3.207.149-3.589-1.486a3.82,3.82,0,0,1,2.506-4.756,5.4,5.4,0,0,0,3.44-5.734,4.277,4.277,0,0,0-2.315-3.419c-.453-.366-.007-1.425-.007-1.425Z" transform="translate(-919.793 470.213)" fill="#381c64"/>
    <path id="Path_13739" data-name="Path 13739" d="M1130.214,522.853a18.277,18.277,0,0,0,.39,5.384c.505,2.74,2.213,5.018,3.132,7.566a6.493,6.493,0,0,1,.281,1.192h0c-.917-5.737.612-7.386-.832-8.3A6.209,6.209,0,0,1,1130.214,522.853Z" transform="translate(-876.61 546.886)" fill="url(#linear-gradient-10)"/>
    <path id="Path_13740" data-name="Path 13740" d="M1143.165,538.318a.881.881,0,0,0,1.511.229c.275-.271-.237-.6-.665-.637S1143.03,537.992,1143.165,538.318Z" transform="translate(-886.739 535.165)" fill="#fff"/>
    <g id="Group_15845" data-name="Group 15845" transform="translate(255.634 1092.413)">
      <path id="Path_13741" data-name="Path 13741" d="M1242.047,637.53c-1.834,2.409-3.74,5.92-3.736,7.573s1.375,3.367,2.173,4.157.189,8.6.376,12.11,5.709,36.2,5.709,36.2l.969.009s-5.782-34.74-5.868-36.072-.208-11.514-.093-12.136,1.035,0,2.888-1.494,1.868-5.818,2.13-8.482,3.264-5.922,3.264-5.922S1245.906,632.464,1242.047,637.53Z" transform="translate(-1216.486 -631.61)" fill="#2d6b80"/>
      <path id="Path_13742" data-name="Path 13742" d="M1270.146,629.78c-2.439,2.016-7.774-1.8-9.321-.117,0,0,2.214-2.763,4.218-3.169s2.9-1.292,3.734-1.129S1270.9,629.16,1270.146,629.78Z" transform="translate(-1234.019 -625.346)" fill="#3e7f95"/>
      <path id="Path_13743" data-name="Path 13743" d="M1190.273,720.464c-1.951.3-3.658,2.595-.709,4.379s2.853,4.339,5.415,5.068,4.49,2.56,5.886,2.423a2.154,2.154,0,0,1,2.411.852,11.051,11.051,0,0,1,3.825,6.386c.58,3.649.036,10.8.906,17.121s.58,8.8.58,8.8h1.16s-.109-6.761-.906-9.985-1.052-12.833-.87-14.9-2.6-6.315-4.121-7.836-.991-1.637-.919-2.641-.145-2.793-3.505-4.556S1194.938,719.754,1190.273,720.464Z" transform="translate(-1177.287 -699.357)" fill="#2d6b80"/>
      <path id="Path_13744" data-name="Path 13744" d="M1277.411,729.055a8.606,8.606,0,0,1,1.785,6.517c-.18,1.758.488,4,.508,5s-.245,7.613-.237,9.445-1.3,20.49-1.3,20.49h.944s.65-12.94,1-14.949.391-13.087.27-15.227-.574-2.574-.522-3.257,3.119-2.034,3.678-3.23-.126-1.795-.035-2.154.886-3.592-.754-4.551-4.787.572-4.787.572Z" transform="translate(-1246.936 -704.374)" fill="#2d6b80"/>
      <path id="Path_13745" data-name="Path 13745" d="M1264.015,718.252c-2.03.146-3.607-2.031-4.974.178-.7,1.13-.649,5.175,1.14,5.711s3.933-5.008,7.938-4.313C1268.118,719.827,1265.787,718.125,1264.015,718.252Z" transform="translate(-1232.304 -697.061)" fill="#3e7f95"/>
      <path id="Path_13746" data-name="Path 13746" d="M1170.065,832.737a63.064,63.064,0,0,0-1.68-10.076c-1.16-3.893-5.838-7.907-6.321-9.732s-.169-4.014-4.738-5.717-8.057,1.536-12.618,2.969-5.8,4.268-4.641,6.458,3.914-1.946,7.687-2.372,9.355,1.155,11.047.2,2.352-1.1,2.542-.542,3.647,4.738,4.855,6.543a7.192,7.192,0,0,1,1.5,3.375c.109.791,1.668,8.89,1.668,8.89Z" transform="translate(-1139.658 -766.602)" fill="#3e7f95"/>
      <path id="Path_13747" data-name="Path 13747" d="M1270.026,798.967c3.243,2.183,5.526,3.39,5.225,6.4s-2.385,19.99-2.385,19.99h.78s1.21-13.725,1.632-15.834.591-5.3.881-5.882,3.523-2.015,3.632-3.095.344-2.114-1.831-3.071S1270.026,798.967,1270.026,798.967Z" transform="translate(-1241.184 -759.222)" fill="#2d6b80"/>
      <path id="Path_13748" data-name="Path 13748" d="M1299.833,750.236c.422-2.954-.06-3.528,1.536-4.643s2.707-3.832,6.043-6.234,4.895-1.886,6.236-1.521-.761,1.42-1.16,2.687-.7,5.463-2.58,7.379-6.376,4.044-7.936,5.808-5.439,15.266-6.237,18.277a47.64,47.64,0,0,1-2.647,6.853h-.843s2.33-5.241,2.475-7,5.2-16.391,5.632-17.527S1299.616,751.753,1299.833,750.236Z" transform="translate(-1258.489 -712.706)" fill="#2d6b80"/>
      <path id="Path_13749" data-name="Path 13749" d="M1227.843,762.467c1.219-4.115.131-5-1.355-6.731s-.046-7.268,1.355-6.477.7,1.744,2.246,4.339a13.121,13.121,0,0,1,1.419,6.22Z" transform="translate(-1206.789 -721.785)" fill="#3e7f95"/>
      <path id="Path_13750" data-name="Path 13750" d="M1234.372,769.14c1.418,3.112,1.556,4.127-.261,6.22s-3.533,4.546-2.373,5.944,4.965,2.61,5.716,5.013,1.972,17.147,1.972,17.147h.8s-1.4-12.732-1.354-13.847-.363-4.2-.459-5.4,2.49-5.21,1.5-7.146S1236.777,771.228,1234.372,769.14Z" transform="translate(-1211.072 -737.328)" fill="#2d6b80"/>
      <path id="Path_13751" data-name="Path 13751" d="M1266.279,794.5c-2.873,1.391-5.212.973-6.137,1.733s-1.45-.2-1.16-1.216.562-3.877,3.282-4.182,3-.868,6.218.274c2.786.988,2.733,2.274,2.688,2.923C1270.82,793.333,1267.883,793.722,1266.279,794.5Z" transform="translate(-1232.521 -753.903)" fill="#3e7f95"/>
      <path id="Path_13752" data-name="Path 13752" d="M1223.779,867.163s-3.481-7.542-4.254-9.225.191-3.694-.146-4.827-3.625-2.289-6.816-2.167-4.167,1.476-4.567,2.167.385.854.99.529,2.828-.649,5.729,1.257,3.239.953,3.747,2.737,2.916,6.054,3.657,7.551a6.336,6.336,0,0,1,.76,1.978Z" transform="translate(-1192.793 -801.027)" fill="#2d6b80"/>
      <path id="Path_13753" data-name="Path 13753" d="M1339.886,740.146c.622-1.1,2.2-1.98.991-2.308-1.341-.365-2.9-.882-6.236,1.521s-4.448,5.119-6.043,6.234c-1.332.931-1.217,1.486-1.387,3.361.925-.644,2.09-.489,4.573-2.818C1334.966,743.149,1336.832,740.573,1339.886,740.146Z" transform="translate(-1285.717 -712.706)" fill="#3e7f95"/>
    </g>
    <g id="Group_15846" data-name="Group 15846" transform="translate(279.643 1158.282)">
      <path id="Path_13754" data-name="Path 13754" d="M1257.722,923.082h2.584l1.832,11.316a1.6,1.6,0,0,1-1.6,1.607h-10.648a1.712,1.712,0,0,1-1.708-1.717l1.378-11.206Z" transform="translate(-1248.184 -923.082)" fill="#fff"/>
      <path id="Path_13755" data-name="Path 13755" d="M1266.862,923.082h1.924l1.833,11.406a1.514,1.514,0,0,1-1.51,1.518h-10.036c5.762-.237,4.016-3.928,4.568-5.809C1264.846,926.094,1267.409,927.4,1266.862,923.082Z" transform="translate(-1256.664 -923.082)" fill="#d0cae5"/>
    </g>
    <rect id="Rectangle_7763" data-name="Rectangle 7763" width="34.722" height="50.831" transform="translate(271.567 1004.694)" fill="#fff"/>
    <rect id="Rectangle_7764" data-name="Rectangle 7764" width="32.221" height="48.212" transform="translate(272.817 1005.798)" fill="#e7e4f5"/>
    <rect id="Rectangle_7765" data-name="Rectangle 7765" width="0.934" height="50.831" transform="translate(307.223 1055.524) rotate(180)" fill="#c1b8e2"/>
    <rect id="Rectangle_7766" data-name="Rectangle 7766" width="0.769" height="48.212" transform="translate(272.817 1005.798)" fill="#c1b8e2"/>
    <rect id="Rectangle_7767" data-name="Rectangle 7767" width="18.687" height="18.687" transform="translate(235.658 1024.31)" fill="#5e5185"/>
    <rect id="Rectangle_7768" data-name="Rectangle 7768" width="14.069" height="14.068" transform="translate(237.968 1026.619)" fill="#fff"/>
    <rect id="Rectangle_7769" data-name="Rectangle 7769" width="1.136" height="18.687" transform="translate(255.482 1042.997) rotate(180)" fill="#392d5e"/>
    <rect id="Rectangle_7770" data-name="Rectangle 7770" width="1.12" height="14.068" transform="translate(237.968 1026.619)" fill="#392d5e"/>
    <rect id="Rectangle_7771" data-name="Rectangle 7771" width="5.549" height="5.549" transform="translate(242.227 1030.878)" fill="#f6c854"/>
    <rect id="Rectangle_7772" data-name="Rectangle 7772" width="1.581" height="18.687" transform="translate(255.482 1024.31)" fill="#dedee2"/>
    <rect id="Rectangle_7773" data-name="Rectangle 7773" width="1.645" height="50.831" transform="translate(307.223 1004.694)" fill="#dedee2"/>
    <path id="Path_33149" data-name="Path 33149" d="M.951.117c.125-.244.474-.07.423.177-.1.439-.181.869-.258,1.294l.249.049a2.623,2.623,0,0,1,.409.1C4.609,2.007,6,4.965,8.529,5.911a12.557,12.557,0,0,1,3.181,1.2A4.592,4.592,0,0,1,13.5,9.789c.276,1.211-.184,2.64.539,3.725.79,1.181,2.477,1.422,3.632,2.108a7.141,7.141,0,0,1,3.346,5.212,6.836,6.836,0,0,1-2.224,5.812,7.278,7.278,0,0,1-6.5,1.641,13.322,13.322,0,0,1-9.809-9.219,17.992,17.992,0,0,1-.588-4.241A21.137,21.137,0,0,0,.8,9.067C-.122,6.229-.459,2.862.951.117Z" transform="matrix(0.998, -0.07, 0.07, 0.998, 234.904, 1065.253)" fill="#002b4d"/>
    <path id="Path_33139" data-name="Path 33139" d="M1.055,16.776C.244,15.691-.327,14.617.21,13.257a6.559,6.559,0,0,1,1.266-1.829A7.433,7.433,0,0,0,3.093,8.617c.49-1.634.588-3.376,1.294-4.943,1.722-3.823,6.351-4.353,9.888-3a.114.114,0,0,1,.075.137c2.015.795,3.444,3.237,4.088,5.117a19.872,19.872,0,0,1,.892,5.031,13.2,13.2,0,0,1-.272,5.433.236.236,0,0,1-.3.142,8.306,8.306,0,0,1-.6,1.283A5.629,5.629,0,0,1,17.1,19.269c-1.173,1.513-2.582,1.108-4.267.411-1.009-.418-2.01-.855-3.037-1.222-.256-.09-.514-.167-.774-.237.093,2.375,1.7,4.8-.3,6.13-2.1,1.394-7.8.28-7.315-2.662.151-.93.83-1.785.772-2.749A4.291,4.291,0,0,0,1.055,16.776Z" transform="translate(214.149 1058.816) rotate(-20)" fill="#002b4d"/>
    <path id="Path_33140" data-name="Path 33140" d="M.816,15.286A8.251,8.251,0,0,0,4.476,19c1.829.263,6.081-1.657,7.32-2.672a7.072,7.072,0,0,0,1.743-3.37L14.934,7.03s-2.091-3.37-3.892-4.009S4.186,0,4.186,0A14.606,14.606,0,0,0,.351,6.042c-.016.07-.035.139-.046.209C.247,6.493.2,6.744.165,7A20.287,20.287,0,0,0,.816,15.286Z" transform="translate(219.392 1059.01) rotate(-20)" fill="#ff7973"/>
    <path id="Path_33142" data-name="Path 33142" d="M.017,4.077A15.68,15.68,0,0,0,3.662,2.587C4.783,1.839,5.377.281,4.878.094S4.41-.031,2.54.56A5.633,5.633,0,0,1,0,.991C.01,1.8.025,3.06.017,4.077Z" transform="translate(229.699 1074.412) rotate(-20)" fill="#d94921"/>
    <path id="Path_33143" data-name="Path 33143" d="M.055.289C.2-.158.724-.058.768.391c.026.261.036.744-.236.893a.351.351,0,0,1-.488-.245A1.447,1.447,0,0,1,.055.289Z" transform="translate(230.439 1063.618) rotate(-20)"/>
    <path id="Path_33144" data-name="Path 33144" d="M.05.262C.178-.143.655-.052.7.354c.023.236.033.674-.214.809A.318.318,0,0,1,.039.941,1.311,1.311,0,0,1,.05.262Z" transform="translate(223.551 1066.191) rotate(-20)"/>
    <path id="Path_33145" data-name="Path 33145" d="M.307.15A1.329,1.329,0,0,1,.578.116C1.126.1,1.683.051,2.23.064a5.487,5.487,0,0,1,1.3-.028c.521.11.455.39.125.778a2.635,2.635,0,0,1-.851.643C1.9,1.9.377,1.684.02.563-.06.31.114.2.307.15Z" transform="translate(227.389 1070.588) rotate(-20)" fill="#fff"/>
    <path id="Path_33146" data-name="Path 33146" d="M.011.4C.145.023.749,0,1.066,0c.6-.007,1.6.093,1.936.684C3.186,1,2.631.907,2.485.9c-.4-.026-.8-.061-1.194-.076A2.674,2.674,0,0,1,.224.7C.023.607-.025.5.011.4Z" transform="translate(228.934 1062.123) rotate(-20)" fill="#002b4d"/>
    <path id="Path_33147" data-name="Path 33147" d="M0,.91C.351.887,1.119.835,1.47.821A2.657,2.657,0,0,0,2.537.7c.2-.1.249-.2.214-.3C2.616.021,2.011,0,1.7,0A7.176,7.176,0,0,0,.14.162C.081.4.037.655,0,.91Z" transform="translate(221.482 1064.753) rotate(-20)" fill="#002b4d"/>
    <path id="Path_33148" data-name="Path 33148" d="M.234,1.143a.08.08,0,0,1,.132-.007A.9.9,0,0,1,.747.888c.446-.158.981.122,1.433.137A2.719,2.719,0,0,0,2.8.967,9.01,9.01,0,0,1,7.787.049,9.031,9.031,0,0,1,14,3.686a8.076,8.076,0,0,1,1.139,7.648c-1.076,2.679-3.762,3.623-5.549,5.7a.282.282,0,0,1-.46-.077,4.712,4.712,0,0,1-.191-.779c.2-1.459.739-3.07-.274-4.827C7.831,9.89,6.176,9.261,4.8,8.44A12.309,12.309,0,0,1,1.309,5.4C.428,4.253-.425,2.6.234,1.143Z" transform="translate(222.626 1055.961) rotate(-20)" fill="#002b4d"/>
    <path id="Path_33150" data-name="Path 33150" d="M.02.6C.652-.639,2.347.276,2.709,1.247,3.159,2.457,2.277,4.434.885,4.56a.25.25,0,0,1-.215-.374c.327-.548.866-.832,1.167-1.349a.355.355,0,0,1-.177-.2,5.417,5.417,0,0,0-.407-.955A5.627,5.627,0,0,0,.506.953.4.4,0,0,1,.376.808L.213.849A.173.173,0,0,1,.02.6Z" transform="translate(232.638 1062.588) rotate(-20)" fill="#ff7973"/>
    <path id="Path_33151" data-name="Path 33151" d="M.43,1.7c.1-.17.258-.324.366-.478C1.011.917,1.228.607,1.44.3A.083.083,0,0,1,1.5.262c.044-.073.088-.146.128-.22s.2-.026.163.069a8.294,8.294,0,0,1-.643,1.334c-.031.049-.065.1-.1.162a2.751,2.751,0,0,1-.23.457A2.165,2.165,0,0,0,.654,3.54,2.11,2.11,0,0,0,1.369,4.6c.259.213.522.32.683.619a.17.17,0,0,1-.1.245C.991,5.843.141,4.369.022,3.6A2.918,2.918,0,0,1,.43,1.7Z" transform="translate(234.831 1064.265) rotate(-20)" fill="#002b4d"/>
    <path id="Path_33161" data-name="Path 33161" d="M.111.849C.413.561,1.248.427,1.458.288s.511-.429.748-.209C2.986.8.625,2.494.03,1.2A.285.285,0,0,1,.111.849Z" transform="translate(236.453 1067.393) rotate(-20)" fill="#d42e00"/>
    <path id="Path_33162" data-name="Path 33162" d="M.748.178A.25.25,0,0,1,1.229.31C.967,1.378-.025,2.844.791,3.869c.2.249-.153.6-.352.353C-.565,2.961.422,1.5.748.178Z" transform="translate(225.729 1065.617) rotate(-20)" fill="#d94921"/>
    <ellipse id="Ellipse_6" data-name="Ellipse 6" cx="32.638" cy="2.04" rx="32.638" ry="2.04" transform="translate(144.135 1167.886)" fill="#f0e2d6"/>
    <path id="Path_13715" data-name="Path 13715" d="M721.562,938.671c1.971.612,4.1,1.137,5.929-.691a27.416,27.416,0,0,1,5.012-4.166c2.033-1.34.774-4.3.51-5.967h0c-1.944.9-1.75,2.026-3.055,4.889s-6,3.465-5.6,1.584C721.116,936.29,719.177,937.931,721.562,938.671Z" transform="translate(-557.598 231.489)" fill="#563476"/>
    <path id="Path_13726" data-name="Path 13726" d="M878.843,694.192c-3.234-.67-4.413-1.9-6.635-1.783s-3.875,4.8-3.385,6.431,2.107,1.2,3.5-.493,1.975-.493,2.812.19c1.907,1.557,2.6-.263,4.55.089C884.318,699.462,878.843,694.192,878.843,694.192Z" transform="translate(-673.039 414.847)" fill="#ff7f76"/>
    <path id="Path_13734" data-name="Path 13734" d="M819,957.429h0c-3.536-.057-8.859,2.457-12.308.953a25.776,25.776,0,0,1-4.111.46c-3.027.055-.856,4.122,2.792,3.893s10.193.07,11.429.01c2.24-.109,3.22-2.7,2.377-4.755A4.267,4.267,0,0,1,819,957.429Z" transform="translate(-620.402 208.453)" fill="#563476"/>
    <path id="Path_13735" data-name="Path 13735" d="M807.286,672.633h-18.92a1.858,1.858,0,0,1-1.735-1.194l-5.657-14.794a.714.714,0,0,1,.667-.969h18.92a1.857,1.857,0,0,1,1.735,1.194l5.657,14.794A.714.714,0,0,1,807.286,672.633Z" transform="translate(-604.656 443.447)" fill="url(#linear-gradient-9)"/>
  </g>
</svg>
