<svg xmlns="http://www.w3.org/2000/svg" width="186.359" height="187.141" viewBox="0 0 186.359 187.141">
  <g id="_03182020_alterra_bills_image_mulai_transaksi-07" data-name="03182020_alterra bills_image mulai transaksi-07" transform="translate(-59.12 12.337)" style="isolation: isolate">
    <g id="Layer_1" data-name="Layer 1" transform="translate(59.12 -12.337)">
      <circle id="Ellipse_2260" data-name="Ellipse 2260" cx="58.934" cy="58.934" r="58.934" transform="translate(19.668 83.345) rotate(-45)" fill="#cbcfff" opacity="0.6"/>
      <path id="Path_44513" data-name="Path 44513" d="M528.468,207.27c-11.843,5.718-46.521,4.6-41.058,20.18-16.026-.851-20.731,3.935-19.137,14.871-.17-1.174-5.877-.106-6.683.294a12.807,12.807,0,0,0-3.649,3.715c-2.328,3.373-2.462,7.091-2.883,10.752a70.149,70.149,0,0,1-2.9,12.984c9.733-9.495,46.54-11.011,39.46-21.76,5.73.265,16.285,1.176,20.669-2.4,5.62-4.589-1.487-8.78-6.821-10.714,22.054-3.061,19.36-9.957,15.929-17.739l3.728-3.57A16.014,16.014,0,0,0,528.468,207.27Z" transform="translate(-370.768 -161.793)" fill="#4d7e93"/>
      <path id="Path_44514" data-name="Path 44514" d="M599.357,168c1.29-6.554,5.384-14.082,9.569-19.727,2.825-3.812,10.847-13.365,16.606-11.845,6.457,1.7,1.615,14.123-.957,17.851-3.773,5.469-8.9,9.047-14.473,12.632-5.281,3.394-10.062,7.687-15.223,10.884Z" transform="translate(-483.933 -105.493)" fill="#1a345f"/>
      <path id="Path_44515" data-name="Path 44515" d="M598.466,287.266c2.439-3.239,6.672-6.27,10.447-8.244,2.551-1.336,9.462-4.432,12.206-2.071,3.077,2.64-2.856,8.136-5.245,9.493-3.508,1.988-7.248,2.586-11.249,3.069-3.783.456-7.532,1.537-11.195,1.918Z" transform="translate(-482.783 -216.361)" fill="#1a345f"/>
      <path id="Path_44516" data-name="Path 44516" d="M462.77,149.481c-2.967-7.053-9.153-10.888-4.709-19.422,1.777-3.413,5.5-5.341,7.635-8.306,2.665-3.7,1.23-4.556,1.406-8.664.371-8.845,7.625-10.124,12.928-16.48,3.7-4.432,3.957-9.94,8.646-14.568,4.763-4.7,12.655-8.613,15.237-14.44-1.06,10.588,4.092,27.374-7.73,35.467,5.415,3.707,5.281,10.174,1.472,14.968-1.82,2.278-6.567,3.814-7.85,6.275-1.752,3.363.9,3.688.644,6.73-.8,9.654-38.35,20.644-31.062,30.924Z" transform="translate(-374.213 -51.046)" fill="#fa7071"/>
      <g id="Group_22896" data-name="Group 22896" transform="translate(85.886 16.545)" opacity="0.6">
        <path id="Path_44517" data-name="Path 44517" d="M516.485,87.945a35.757,35.757,0,0,0,8.6-2.926c0-.294.012-.586.017-.878a33.4,33.4,0,0,1-8.283,2.955c.52-1.292,1.035-2.574,1.524-3.843.443-1.127.884-2.251,1.334-3.373.414-1.035.915-2.106,1.392-3.129.414-.87.828-1.768,1.185-2.64.23-.551.52-1.185.828-1.853a40.568,40.568,0,0,0,1.75-4.191c.017-.17.027-.338.039-.505a13.746,13.746,0,0,1-2.154,3.313c-.178.4-.358.791-.526,1.162-.313.677-.6,1.313-.843,1.876-.356.861-.768,1.752-1.17,2.615-.478,1.035-.975,2.1-1.4,3.164-.449,1.122-.893,2.245-1.334,3.375-1.1,2.808-2.247,5.707-3.537,8.55-2.881-1.849-3.419-6.484-3.346-10.489q-.482.429-.926.87c-.012.01-.021.025-.035.035.033,4.067.791,8.565,3.953,10.354-.147.309-.286.621-.435.94-1.323,2.744-2.791,5.459-4.328,8.136a21.6,21.6,0,0,1-4.645-10.309c-.226.5-.458,1-.7,1.5a22.839,22.839,0,0,0,4.86,9.652q-2,3.451-4.057,6.815l-.079.029.033.046c-.046.068-.087.139-.128.207l-1.141,1.889a21.092,21.092,0,0,0-1.978-2.636,20.427,20.427,0,0,1-1.947-2.589,14.911,14.911,0,0,1-1.789-5.836c-.288.24-.576.47-.864.7a14.733,14.733,0,0,0,1.779,5.5,21.916,21.916,0,0,0,2,2.667,18.064,18.064,0,0,1,2.143,2.928l.265-.1c-1.719,2.862-3.444,5.784-5.047,8.722-.081.153-.164.311-.249.462a15,15,0,0,0-2.671-3.506,16.925,16.925,0,0,1-1.638-1.938,26.316,26.316,0,0,1-3.651-7.65,10.652,10.652,0,0,0-.6,1.408,30.685,30.685,0,0,0,3.388,6.616,17.2,17.2,0,0,0,1.706,2.038c1.261,1.363,2.812,3.046,2.785,4.278-2.549,4.676-5.26,9.59-8.02,14.378a71.822,71.822,0,0,0-4.852,11.067c-.108.284-.207.574-.321.861.12.255.236.516.348.781l-.791,2.92c.592-1.466,1.145-2.943,1.684-4.39a70.976,70.976,0,0,1,4.8-10.975c2.779-4.811,5.5-9.749,8.058-14.444h.037v-.081c.288-.526.576-1.052.857-1.576.563-1.035,1.149-2.071,1.74-3.106a38,38,0,0,1,6.2-.487c1.657-.043,3.367-.087,4.908-.275a33.032,33.032,0,0,0,9.5-2.825c.114-.319.207-.64.292-.967a33.9,33.9,0,0,1-9.884,3.042c-1.483.184-3.164.228-4.788.265a45.1,45.1,0,0,0-5.726.391c1.414-2.448,2.872-4.871,4.309-7.248a.207.207,0,0,1,.023-.037,13.5,13.5,0,0,1,3.442-.491,20.709,20.709,0,0,0,2.883-.29c2.278-.48,6.005-1.271,8.7-2.963-.143-.222-.3-.435-.458-.648-2.156,1.392-5.268,2.212-8.432,2.881a19.9,19.9,0,0,1-2.692.286,21.651,21.651,0,0,0-2.868.3c2.152-3.564,4.332-7.2,6.324-10.917.338.031.692.048,1.064.054A29.294,29.294,0,0,0,523.031,95.9c.141-.327.28-.663.414-1a27.238,27.238,0,0,1-11.205,2.162q.932-1.739,1.777-3.5C514.905,91.7,515.715,89.821,516.485,87.945Z" transform="translate(-481.06 -67.56)" fill="#fff"/>
        <path id="Path_44518" data-name="Path 44518" d="M474.456,485.4c.242-.524.474-1.06.7-1.595a16.076,16.076,0,0,0-1.3,1.45Z" transform="translate(-473.86 -397.612)" fill="#fff"/>
      </g>
      <path id="Path_44519" data-name="Path 44519" d="M202.973,25.011a24.581,24.581,0,1,1-32.541-12.218,24.581,24.581,0,0,1,32.541,12.218Z" transform="translate(-135.942 -5.842)" fill="#da97b8" opacity="0.3"/>
      <path id="Path_44520" data-name="Path 44520" d="M221.058,246.785A57.268,57.268,0,1,1,145.251,218.3,57.266,57.266,0,0,1,221.058,246.785Z" transform="translate(-100.753 -166.47)" fill="#cae1fc"/>
      <path id="Path_44521" data-name="Path 44521" d="M124.051,215.563c-2.317-1.45-4.8-2.781-5.753-5.612-1.323-3.922,1.2-4.349,2.841-7.706-5.881-2.278-11.073-2.485-15.219-8.457-4.086-5.877-.735-10.354,5.86-9.694.9.089-5.272-4.3-6.326-5.045a17.483,17.483,0,0,1-5.395-6.9c-2.118-4.676-1.7-11.015,4.535-11.719,5.4-.621,8.186,5.163,10.509,9.2a32.343,32.343,0,0,1,2.866,6.192c2.692-2.437,3.52-6.7,7.662-3.9,2.887,1.951,3.953,7.267,2.794,10.369,4.235-.491,6.5-1.679,10.128.88a26.637,26.637,0,0,1,6.4,7.275c3.742,6.024,10.64,28.741,12.011,36.2C156.958,226.65,128.9,218.59,124.051,215.563Z" transform="translate(-90.669 -124.619)" fill="#7ab6f6"/>
      <path id="Path_44522" data-name="Path 44522" d="M156.62,222.8l-.054-.033a59.14,59.14,0,0,1-5.5-3.864,7.289,7.289,0,0,0,.323-1.272c.277-1.348.729-2.669,1.077-4,.261-1,.478-2.007.675-3.017-.186-.6-.377-1.195-.567-1.793q-.207,1.369-.514,2.736c-.3,1.381-.683,2.746-1.064,4.106a24.768,24.768,0,0,1-.621,2.692c-1.489-1.17-2.957-2.359-4.427-3.5s-2.941-2.35-4.372-3.572a10.574,10.574,0,0,0,1.023-2.8,15.216,15.216,0,0,0,.841-3.193c.075-1.677.6-3.38.839-5.045a28.458,28.458,0,0,0,.238-4.142c-.012-2.34-.052-4.678-.207-7.012-.236-.325-.483-.65-.735-.973.162,2.2.182,4.407.184,6.608a44.168,44.168,0,0,1-.951,9.234c-.456,2.185-.7,4.808-1.864,6.8q-2.62-2.272-5.119-4.664c.663-2.058,1.45-4.057,2.056-6.148a36.378,36.378,0,0,0,.953-8.606,53.575,53.575,0,0,0-.267-8.008c-.238-.147-.472-.275-.7-.391a51.768,51.768,0,0,1,.244,7.72,48.044,48.044,0,0,1-.975,9.091,50.836,50.836,0,0,1-1.938,5.732q-2.568-2.485-5.032-5.071c.841-1.406.963-3.4,1.158-4.949a91.874,91.874,0,0,0,.621-9.694c.021-1.112-.01-2.218-.062-3.324l-.7.116c.041,1.069.066,2.137.052,3.208-.037,2.671-.234,5.339-.536,7.993-.207,1.82-.149,4.33-1.071,6.084l-.9-.946c-1.369-1.464-2.738-2.947-4.075-4.454a16.8,16.8,0,0,0,.872-5.873c.023-2.746.487-5.481.505-8.234a49.493,49.493,0,0,0-.553-8.321,4.444,4.444,0,0,0-.917-.35,50.6,50.6,0,0,1,.808,8.671c0,2.332-.277,4.661-.474,6.983a34.561,34.561,0,0,1-.8,6.473c-.93-1.064-1.845-2.141-2.715-3.247-1.321-1.673-2.485-3.469-3.759-5.177-.511-.69-1.089-1.344-1.657-2,.054-.031.28-6.115.306-9.05,0-.957.068-1.976.114-3.009-.207-.381-.414-.752-.621-1.1-.1-.18-.207-.367-.315-.555.043,1.365.145,2.736.139,4.028a86.683,86.683,0,0,0,.037,9.308,17.505,17.505,0,0,1-2.04-2.692c-.725-1.242-1.412-2.5-2.11-3.752.88-3,.621-6.525.632-9.621v-2.518q-.35-.433-.727-.828c.035,1.323-.017,2.653-.01,3.991a60.858,60.858,0,0,1-.321,8.24A47.661,47.661,0,0,0,108,171a.663.663,0,0,1-.075-.151c.085-2.226.089-4.456.135-6.685.019-.895.1-1.851.137-2.806a6.421,6.421,0,0,0-.874-.253c0,1.035.056,2.083.035,3.059-.041,1.938-.1,3.885-.072,5.825-.855-1.243-1.657-2.526-2.5-3.775a35.12,35.12,0,0,1-2.557-4.189c-.133.087-.257.182-.379.277.4.866.907,1.7,1.365,2.485,1.085,1.864,2.326,3.684,3.541,5.469.282.414.553.828.828,1.242A59.153,59.153,0,0,0,99.74,169.5a1.421,1.421,0,0,0,.027.232c1.686.578,8.256,2.628,8.339,2.566,1.255,1.928,2.439,3.879,3.572,5.885a25.66,25.66,0,0,0-3.67-.565c-1.6-.12-3.15-.572-4.748-.729l.207.251c1.288.242,2.551.6,3.852.8.853.126,1.717.168,2.57.294a7.759,7.759,0,0,0,1.98.292c.3.532.6,1.062.888,1.6a23.356,23.356,0,0,0,3.131,4.067c1.53,1.8,2.8,3.835,4.183,5.751.414.582.861,1.145,1.309,1.7a8.337,8.337,0,0,1-2.978-.265c-1.642-.354-3.3-.632-4.929-1.035a30.213,30.213,0,0,1-8.089-3.073c-.06.106-.116.207-.17.325a29.655,29.655,0,0,0,9.383,3.634c.754.182,6.1,1.822,7.178.909.7.845,1.419,1.667,2.15,2.485a.292.292,0,0,0,.145.162c.7.779,1.406,1.553,2.106,2.334a52.536,52.536,0,0,1-11.3-.656,42.644,42.644,0,0,1-8.795-2.858c.153.255.315.514.5.775.077.11.155.207.232.309,6.092,3.011,13.315,3.324,19.965,3.274a.39.39,0,0,0,.124-.027c.3.344.609.685.907,1.035.462.543.955,1.054,1.45,1.559a.414.414,0,0,0,.414.425c.7.694,1.414,1.375,2.1,2.085,1.187,1.242,2.317,2.485,3.533,3.69a29.523,29.523,0,0,0-3.175.75,63.43,63.43,0,0,1-6.517.928,42.477,42.477,0,0,1-6.328-.052c-.228-.019-.458-.043-.688-.068a3.831,3.831,0,0,0,0,.536c.207.039.414.075.621.1a35.447,35.447,0,0,0,5.78.22,36.893,36.893,0,0,0,5.539-.621,21.612,21.612,0,0,0,2.754-.532,6.4,6.4,0,0,1,2.429-.592.317.317,0,0,0,.207-.075l.116.112c1.4,1.3,2.841,2.574,4.3,3.831-1.572.257-3.015,1.243-4.473,1.843a22.3,22.3,0,0,1-7.064,1.5c-2.092.13-4.214.147-6.31.133q.592.4,1.207.785c1.479.01,2.968-.056,4.421-.077a23.655,23.655,0,0,0,6.08-.872,23.339,23.339,0,0,0,2.611-.938c1.168-.487,2.458-1.392,3.727-1.541a.456.456,0,0,0,.391-.323q2.348,2,4.763,3.885c-.659.532-1.278,1.129-1.959,1.644a26.068,26.068,0,0,1-4.131,2.359c-.75.379-1.657.839-2.605,1.243l1.008.331c.224-.087.443-.174.656-.253a22.96,22.96,0,0,0,5.475-2.965,8.172,8.172,0,0,0,2.21-1.839c1.209.946,2.417,1.905,3.632,2.856a.432.432,0,0,0,.644.5c1.621,1.243,3.266,2.475,4.97,3.591.414.275.847.538,1.276.8Q156.767,223.38,156.62,222.8Z" transform="translate(-91.328 -125.192)" fill="#fff" opacity="0.6"/>
      <path id="Path_44523" data-name="Path 44523" d="M240.659,115.922c-21.843-9.134-29.487-58.505-29.559-59l.652-.1c.075.493,7.662,49.493,29.161,58.495Z" transform="translate(-179.628 -42.499)" fill="#1a345f"/>
      <path id="Path_44524" data-name="Path 44524" d="M315.11,265.651c0,.219.692-11.93,6.213-11.9s-6.2,12.121-6.2,12.121Z" transform="translate(-262.099 -198.648)" fill="#1a345f"/>
      <path id="Path_44525" data-name="Path 44525" d="M290.76,237.021s3.038-14.218,7.519-12.166S290.76,237.021,290.76,237.021Z" transform="translate(-242.791 -175.575)" fill="#1a345f"/>
      <path id="Path_44526" data-name="Path 44526" d="M271.59,200.386s4.3-15.424,9.861-12.541C285.665,190.026,271.59,200.386,271.59,200.386Z" transform="translate(-227.591 -146.106)" fill="#1a345f"/>
      <path id="Path_44527" data-name="Path 44527" d="M245.88,139.712s2.8-14.871,7.308-11.938S245.88,139.712,245.88,139.712Z" transform="translate(-207.205 -98.455)" fill="#1a345f"/>
      <path id="Path_44528" data-name="Path 44528" d="M253.23,171.092s6.351-13.92,9.909-9.892C265.531,163.92,253.23,171.092,253.23,171.092Z" transform="translate(-213.033 -124.683)" fill="#1a345f"/>
      <path id="Path_44529" data-name="Path 44529" d="M232.69,92.759s3.411-16.215,7.938-12.839S232.69,92.759,232.69,92.759Z" transform="translate(-196.747 -60.448)" fill="#1a345f"/>
      <path id="Path_44530" data-name="Path 44530" d="M222.5,53.342s1.284-13.937,4.057-10.282S222.5,53.342,222.5,53.342Z" transform="translate(-188.667 -31.104)" fill="#1a345f"/>
      <path id="Path_44531" data-name="Path 44531" d="M198.859,32.147s-7.231-11.441-3.061-12.021S198.859,32.147,198.859,32.147Z" transform="translate(-166.467 -13.388)" fill="#1a345f"/>
      <path id="Path_44532" data-name="Path 44532" d="M182.078,68.983s-13.071-1.754-10.124-5.825S182.078,68.983,182.078,68.983Z" transform="translate(-148.244 -46.745)" fill="#1a345f"/>
      <path id="Path_44533" data-name="Path 44533" d="M173.976,100.161s-15.272-1.677-14.357-7.006S173.976,100.161,173.976,100.161Z" transform="translate(-138.776 -70.251)" fill="#1a345f"/>
      <path id="Path_44534" data-name="Path 44534" d="M172.861,135.222s-20.116-1.516-17.884-7.1S172.861,135.222,172.861,135.222Z" transform="translate(-134.99 -97.906)" fill="#1a345f"/>
      <path id="Path_44535" data-name="Path 44535" d="M171.265,176.3s-22.228,1.2-21.561-4.995S171.265,176.3,171.265,176.3Z" transform="translate(-130.934 -131.796)" fill="#1a345f"/>
      <path id="Path_44536" data-name="Path 44536" d="M196.452,253.187s-20.657-4.359-21.33,1.4S196.452,253.187,196.452,253.187Z" transform="translate(-151.088 -196.948)" fill="#1a345f"/>
      <path id="Path_44537" data-name="Path 44537" d="M187.016,213.315s-17.474-6.5-18.706-.849S187.016,213.315,187.016,213.315Z" transform="translate(-145.655 -164.084)" fill="#1a345f"/>
      <path id="Path_44538" data-name="Path 44538" d="M225.942,278.345s-18.134-1.58-16.177,4.088,16.656-3,16.656-3Z" transform="translate(-178.451 -217.989)" fill="#1a345f"/>
      <path id="Path_44539" data-name="Path 44539" d="M546.051,103.966c3.123-7.807,7.583-13.9,11.019-8.9s-13.16,30.785-13.16,30.785S542.928,111.769,546.051,103.966Z" transform="translate(-443.402 -71.384)" fill="#ecb49f"/>
      <path id="Path_44540" data-name="Path 44540" d="M288.925,509.226h23.417c-.576-3.015.429-27.911,5.136-35.138,5.492-8.435,12.127-19.88,14.643-31.127s-40.5-22.491-52.164,3.814a55.119,55.119,0,0,0,1.835,48.4Z" transform="translate(-230.459 -338.917)" fill="#ecb49f"/>
      <path id="Path_44541" data-name="Path 44541" d="M304.61,452.24s16.453,13.028,7.231,38.377C311.841,490.617,324.287,464.615,304.61,452.24Z" transform="translate(-253.773 -356.034)" fill="#da905e" style="mix-blend-mode: multiply;isolation: isolate"/>
      <path id="Path_44542" data-name="Path 44542" d="M337.666,172.073a1.922,1.922,0,0,1-1.907,1.932H280.447a1.922,1.922,0,0,1-1.907-1.932V78.722a1.922,1.922,0,0,1,1.907-1.932h55.312a1.922,1.922,0,0,1,1.907,1.932Z" transform="translate(-233.102 -58.333)" fill="#1a345f"/>
      <path id="Path_44543" data-name="Path 44543" d="M337.666,94.066V78.742a1.922,1.922,0,0,0-1.907-1.932H280.447a1.922,1.922,0,0,0-1.907,1.932v75.2Z" transform="translate(-233.102 -58.349)" fill="#fff" opacity="0.2"/>
      <path id="Path_44544" data-name="Path 44544" d="M347.561,180.528a1.615,1.615,0,0,1-1.682,1.539H297.112a1.615,1.615,0,0,1-1.682-1.539V106.1a1.616,1.616,0,0,1,1.682-1.541H345.88a1.616,1.616,0,0,1,1.682,1.541Z" transform="translate(-246.494 -80.353)" fill="#fff"/>
      <rect id="Rectangle_9225" data-name="Rectangle 9225" width="30.199" height="3.974" transform="translate(59.677 62.76)" fill="#cbcfff" opacity="0.6"/>
      <rect id="Rectangle_9226" data-name="Rectangle 9226" width="30.199" height="2.234" transform="translate(59.677 70.385)" fill="#cbcfff" opacity="0.6"/>
      <path id="Path_44545" data-name="Path 44545" d="M238.147,412.34l11.443-.414-3.141-14.272V368.248c9.054-15.974-3-26.484-4.827-29.5s-.153-14.055.609-21.419c.69-6.647-1.3-10.309-5.177-9.907,0,0-2.288-.4-3.2,7.631s-3.2,14.591-6.005,19.12c-1.762,2.854-7.648,16.022-2.386,28.673S238.147,412.34,238.147,412.34Z" transform="translate(-189.319 -241.184)" fill="#ecb49f"/>
      <path id="Path_44546" data-name="Path 44546" d="M534.664,253.31s9.426,4.8,6.834,12.355-9.9,16.016-13.433,15.324-1.356-4.779.764-8.668a91.409,91.409,0,0,1,4.891-7.8Z" transform="translate(-429.469 -198.299)" fill="#ecb49f"/>
      <path id="Path_44547" data-name="Path 44547" d="M549.22,253.31l-.942,11.211s-1.878,2.655-3.727,5.763c3.048-1.1,7.509-6.643,10.085-12.408A17.558,17.558,0,0,0,549.22,253.31Z" transform="translate(-444.026 -198.299)" fill="#da905e" style="mix-blend-mode: multiply;isolation: isolate"/>
      <path id="Path_44548" data-name="Path 44548" d="M534.37,197.33s9.151,4.8,6.627,12.355-9.609,16.016-13.046,15.324-1.319-4.779.741-8.668,4.751-7.8,4.751-7.8Z" transform="translate(-429.421 -153.911)" fill="#ecb49f"/>
      <path id="Path_44549" data-name="Path 44549" d="M275.929,314.22a8.458,8.458,0,0,1,2.288,6.405c-.458,3.659-4.117,2.748-4.117,2.748S274.558,315.593,275.929,314.22Z" transform="translate(-229.581 -246.596)" fill="#f4d7b6" style="mix-blend-mode: multiply;isolation: isolate"/>
      <path id="Path_44550" data-name="Path 44550" d="M408.059,494.6a4.659,4.659,0,1,1-4.659-4.659A4.659,4.659,0,0,1,408.059,494.6Z" transform="translate(-328.41 -385.927)" fill="#596a83"/>
      <path id="Path_44551" data-name="Path 44551" d="M411.222,498.881a3.541,3.541,0,1,1-3.541-3.541A3.541,3.541,0,0,1,411.222,498.881Z" transform="translate(-332.692 -390.209)" fill="#2e3054"/>
      <path id="Path_44552" data-name="Path 44552" d="M345.88,104.55H297.112a1.616,1.616,0,0,0-1.682,1.541v7.538h52.131v-7.536A1.617,1.617,0,0,0,345.88,104.55Z" transform="translate(-246.494 -80.345)" fill="#cbcfff" opacity="0.6"/>
      <rect id="Rectangle_9227" data-name="Rectangle 9227" width="29.671" height="10.721" rx="5.36" transform="translate(59.528 84.537)" fill="#7ab6f6"/>
      <path id="Path_44553" data-name="Path 44553" d="M388.686,408.288a1.8,1.8,0,0,1,.57,1.468,1.725,1.725,0,0,1-.582,1.45,2.872,2.872,0,0,1-1.785.462h-.967v1.6H385V407.81h1.876A2.78,2.78,0,0,1,388.686,408.288Zm-.652,2.253a1.211,1.211,0,0,0,.277-.859.892.892,0,0,0-.352-.8,2.031,2.031,0,0,0-1.1-.234h-.936v2.187h1.069A1.431,1.431,0,0,0,388.034,410.541Z" transform="translate(-317.516 -320.805)" fill="#f5f6f2"/>
      <path id="Path_44554" data-name="Path 44554" d="M407.24,412.028l-.547,1.242h-.984l2.4-5.461h.984l2.406,5.461h-.984l-.547-1.242Zm2.359-.851-.992-2.249-.992,2.249Z" transform="translate(-333.937 -320.805)" fill="#f5f6f2"/>
      <path id="Path_44555" data-name="Path 44555" d="M434.438,413.239H433.5v-2.156l-2.031-3.313h1.006l1.493,2.485,1.491-2.485h1.009l-2.031,3.313Z" transform="translate(-354.363 -320.773)" fill="#f5f6f2"/>
      <rect id="Rectangle_9228" data-name="Rectangle 9228" width="6.498" height="0.895" transform="translate(52.077 26.22)" fill="#fff" opacity="0.5"/>
      <rect id="Rectangle_9229" data-name="Rectangle 9229" width="6.498" height="0.895" transform="translate(52.077 28.457)" fill="#fff" opacity="0.5"/>
      <rect id="Rectangle_9230" data-name="Rectangle 9230" width="6.498" height="0.895" transform="translate(52.077 30.695)" fill="#fff" opacity="0.5"/>
      <path id="Path_44556" data-name="Path 44556" d="M521.432,110.216a.706.706,0,1,1-.706-.706.706.706,0,0,1,.706.706Z" transform="translate(-424.575 -84.277)" fill="#fff" opacity="0.5"/>
      <path id="Path_44557" data-name="Path 44557" d="M521.432,121.806a.7.7,0,1,1-.206-.5A.706.706,0,0,1,521.432,121.806Z" transform="translate(-424.575 -93.467)" fill="#fff" opacity="0.5"/>
      <path id="Path_44558" data-name="Path 44558" d="M521.432,133.406a.706.706,0,1,1-.706-.706.706.706,0,0,1,.706.706Z" transform="translate(-424.575 -102.665)" fill="#fff" opacity="0.5"/>
      <ellipse id="Ellipse_2261" data-name="Ellipse 2261" cx="16.409" cy="2.626" rx="16.409" ry="2.626" transform="translate(48.828 167.867)" fill="#ecb49f"/>
      <path id="Path_44559" data-name="Path 44559" d="M612.81,388.15s18.662,2.083,24.162,19.832l-3.638,8.076S616.185,394.431,612.81,388.15Z" transform="translate(-498.15 -305.216)" fill="#e7a588"/>
      <path id="Path_44560" data-name="Path 44560" d="M634.77,396.23s11.713,4.715,15.347,25.656l-4.672,2.092S636.888,402.513,634.77,396.23Z" transform="translate(-515.563 -311.623)" fill="#f4d7b6" style="mix-blend-mode: multiply;isolation: isolate"/>
      <path id="Path_44561" data-name="Path 44561" d="M569.22,374.105s14.51-2.868,26.211,22.87l-7.333,4.717S572.593,380.386,569.22,374.105Z" transform="translate(-463.587 -294.004)" fill="#e7a588"/>
      <path id="Path_44562" data-name="Path 44562" d="M582,376.62s11.713,4.717,15.345,25.656l-4.67,2.092S584.1,382.911,582,376.62Z" transform="translate(-473.72 -296.074)" fill="#f4d7b6" style="mix-blend-mode: multiply;isolation: isolate"/>
      <path id="Path_44563" data-name="Path 44563" d="M526.63,353.7s14.237-.685,26.339,27.022l-9.281,2.617S530.117,360.467,526.63,353.7Z" transform="translate(-429.817 -277.902)" fill="#e7a588"/>
      <path id="Path_44564" data-name="Path 44564" d="M514.65,351s14.314,5.5,18.892,29.526l-5.676,2.365S517.268,358.219,514.65,351Z" transform="translate(-420.317 -275.759)" fill="#f4d7b6" style="mix-blend-mode: multiply;isolation: isolate"/>
      <path id="Path_44565" data-name="Path 44565" d="M480.294,405.168c3.233,1.657,13.243,3.742,16.567,10.044l3.63,12.87s2.1,2.825,14.535,3.955,23.815-3.955,23.815-3.955l-12.709-23.63c.126-20.166-15.185-56.625-15.185-56.625-1.168-3.727-25.347-.721-24.672,2.725-1.39-3.137-1.493-3.407-2.936-6.231-4.239-9.174-14.738-24.2-14.738-24.2-4.388-7.064-6.484-8.72-9.468-7.434s1.361,7.523,2.526,11.249c0,0,15.324,27.749,18.223,44.6s0,13.481-3.288,13.581-4.581-4.2-11.127-12.752c-7.662-10.845-11.6-5.237-11.6-5.237C467.653,397,470.594,400.186,480.294,405.168Z" transform="translate(-372.124 -245.061)" fill="#e7a588"/>
      <path id="Path_44566" data-name="Path 44566" d="M455.9,567.23s5.086.847,6.78,5.651l-3.39,1.694Z" transform="translate(-373.733 -447.211)" fill="#f4d7b6" style="mix-blend-mode: multiply;isolation: isolate"/>
      <path id="Path_44567" data-name="Path 44567" d="M207.14,119.07H252.96a3.578,3.578,0,0,1,3.578,3.578v24.821a3.58,3.58,0,0,1-3.58,3.58H207.138a3.578,3.578,0,0,1-3.578-3.578V122.65A3.58,3.58,0,0,1,207.14,119.07Z" transform="translate(-173.649 -91.858)" fill="#fa7071"/>
      <rect id="Rectangle_9231" data-name="Rectangle 9231" width="41.883" height="3.67" transform="translate(33.968 44.767)" fill="#fff" opacity="0.6"/>
      <rect id="Rectangle_9232" data-name="Rectangle 9232" width="27.923" height="1.605" transform="translate(47.929 51.348)" fill="#fff" opacity="0.6"/>
      <rect id="Rectangle_9233" data-name="Rectangle 9233" width="8.95" height="1.605" transform="translate(33.968 51.348)" fill="#fff" opacity="0.6"/>
      <rect id="Rectangle_9234" data-name="Rectangle 9234" width="9.306" height="7.517" transform="translate(35.043 34.193)" fill="#fff" opacity="0.6"/>
      <path id="Path_44568" data-name="Path 44568" d="M375.58,147.745a4.475,4.475,0,1,1-4.475-4.475A4.475,4.475,0,0,1,375.58,147.745Z" transform="translate(-302.95 -111.046)" fill="#7ab6f6"/>
      <path id="Path_44569" data-name="Path 44569" d="M404.96,147.745a4.475,4.475,0,1,1-4.475-4.475A4.475,4.475,0,0,1,404.96,147.745Z" transform="translate(-326.246 -111.046)" fill="#fff"/>
      <path id="Path_44570" data-name="Path 44570" d="M124.631,354.9c-2.261,3.313-2.514,3.686-12.526,6.088s-11.766,8.145-11.766,8.145L98.06,358.225s1.76-5.745,11.769-8.145,10.267-2.767,12.531-6.08Z" transform="translate(-89.996 -270.209)" fill="#4d7e93"/>
      <path id="Path_44571" data-name="Path 44571" d="M147.738,380.984a4.251,4.251,0,1,1-5.1-3.8A4.518,4.518,0,0,1,147.738,380.984Z" transform="translate(-122.743 -296.457)" fill="#fff"/>
      <path id="Path_44572" data-name="Path 44572" d="M82.922,488.574c-3.357.828-3.727.915-11.557-3.293s-12.245-1.545-12.245-1.545l4.782-8.283s4.421-2.665,12.245,1.543,8.2,4.123,11.559,3.295Z" transform="translate(-59.12 -373.78)" fill="#4d7e93"/>
      <path id="Path_44573" data-name="Path 44573" d="M118.057,492.569a3.667,3.667,0,1,1-1.112-5.361A3.885,3.885,0,0,1,118.057,492.569Z" transform="translate(-100.37 -383.41)" fill="#fff"/>
      <path id="Path_44574" data-name="Path 44574" d="M861.733,854.19c-.128.391-.035.665.358.714Z" transform="translate(-695.483 -674.747)" fill="#e6edff"/>
    </g>
  </g>
</svg>
