<svg xmlns="http://www.w3.org/2000/svg" xmlns:xlink="http://www.w3.org/1999/xlink" viewBox="0 0 940.83 895.36"><defs><style>.cls-1,.cls-37,.cls-43,.cls-44{fill:none;}.cls-2,.cls-21,.cls-22,.cls-28{fill:#93a890;}.cls-3{fill:#8fa38b;}.cls-4{fill:#7b8c78;}.cls-5{fill:#91a68d;}.cls-6{isolation:isolate;}.cls-7{fill:#9dba99;}.cls-8{fill:#fab685;}.cls-14,.cls-9{fill:#fff;}.cls-9{opacity:0.32;}.cls-10{fill:#e2e6f2;}.cls-11,.cls-38{fill:#292f4a;}.cls-12{fill:#56867c;}.cls-13{fill:#e38c4d;}.cls-15{fill:#5d5d5d;}.cls-15,.cls-28,.cls-36{opacity:0.37;}.cls-15,.cls-21,.cls-22,.cls-28,.cls-36{mix-blend-mode:multiply;}.cls-16{fill:#cdcecf;}.cls-17{fill:#7d7d7d;}.cls-18{fill:#f2f2f2;}.cls-19{fill:#9aa5d6;}.cls-20{clip-path:url(#clip-path);}.cls-22{opacity:0.62;}.cls-23{clip-path:url(#clip-path-2);}.cls-24{clip-path:url(#clip-path-3);}.cls-25{clip-path:url(#clip-path-4);}.cls-26{clip-path:url(#clip-path-5);}.cls-27{clip-path:url(#clip-path-6);}.cls-29{clip-path:url(#clip-path-7);}.cls-30{fill:#6e7d6a;}.cls-31{clip-path:url(#clip-path-8);}.cls-32{clip-path:url(#clip-path-9);}.cls-33{clip-path:url(#clip-path-10);}.cls-34,.cls-35,.cls-36,.cls-42{fill:#ca664f;}.cls-35{opacity:0.41;}.cls-35,.cls-37,.cls-38,.cls-40{mix-blend-mode:screen;}.cls-37,.cls-43{stroke:#ca664f;}.cls-37{stroke-linecap:round;stroke-width:1.67px;}.cls-37,.cls-43,.cls-44{stroke-miterlimit:10;}.cls-39,.cls-40{fill:#a67d67;}.cls-41{fill:#749eb5;}.cls-42{font-size:19.94px;font-family:Multicolore, Multicolore ;}.cls-43{stroke-width:0.31px;}.cls-44{stroke:#382822;stroke-width:0.26px;}</style><clipPath id="clip-path"><path class="cls-1" d="M670.15,449S579.89,347,536.3,367.12C496.18,385.61,638.56,454,661.54,464.85c1.58-1.4,3.21-2.74,4.82-4Z"/></clipPath><clipPath id="clip-path-2"><path class="cls-2" d="M666.64,452.8S558.73,233.57,617.73,258.36s75.36,187.7,75.36,187.7Z"/></clipPath><clipPath id="clip-path-3"><path class="cls-2" d="M658.46,468.33S499.17,293.25,565.77,300.21,676.85,458.46,676.85,458.46Z"/></clipPath><clipPath id="clip-path-4"><path class="cls-2" d="M680.91,449.52s37.56-204.24,68.27-151.15c17,40.59-58.77,154.54-58.77,154.54Z"/></clipPath><clipPath id="clip-path-5"><path class="cls-1" d="M703.48,464.85s36.43-109.53,71.43-74.53-53.63,85.23-53.63,85.23Z"/></clipPath><clipPath id="clip-path-6"><path class="cls-3" d="M450.18,520.33s-7.63-242.39,26.93-207.83-6.58,232.44-6.58,232.44Z"/></clipPath><clipPath id="clip-path-7"><path class="cls-1" d="M432.29,538.49S371.25,286.3,415.72,302s34,233.66,34,233.66Z"/></clipPath><clipPath id="clip-path-8"><path class="cls-4" d="M411.73,551.65s-95.55-209.43-48.84-202,67,195.35,67,195.35Z"/></clipPath><clipPath id="clip-path-9"><path class="cls-5" d="M392.28,572.58S296.23,495,335,481.31,412,568.18,412,568.18Z"/></clipPath><clipPath id="clip-path-10"><path class="cls-5" d="M448.83,572.61s40.64-165.25,75.57-141.37-54.2,148.53-54.2,148.53Z"/></clipPath></defs><title>03192020_alterra bills_image</title><g class="cls-6"><g id="Layer_1" data-name="Layer 1"><path class="cls-7" d="M645.26,225.65s-23.93-34.5-12.72-33.92,12.85,33,12.85,33-10.69-57.79-.07-54-.06,54-.06,54Z"/><path class="cls-8" d="M700,573c-143,86.34-284.49,99.08-332.61,99.08-8.84,26.56.46,102.24-21.34,118.14-14,10.22-48.86,9.86-66,12.87-38.68,6.77-77.78,12.78-117,15-19.54,1.1-20.29,20.47-37.74,8.26-35.57-24.9-11-154.32.88-186.61,13.74-37.4,8.25-44.56,5.43-85.37-3.39-49,40.85-104.36,64.37-146.11,23.21-41.18,17.86-87.25,6.79-126.42-1.83-6.45-3.81-12.71-5.84-18.73h0c-12.51-37.06-27.05-65-19.87-71.62l1.11-1c74.18-65.65,113.84,140.27,131,232.41C375,424,439.42,410,491.93,371.08,554.35,324.83,700.08,145.52,731,161.33,761,176.7,644.79,351.2,588.16,391.82c34.19-6.49,241.2-223.42,266.43-219.42,53.22,8.43-143.35,249.14-215.48,280.1,57-19.11,252.69-190.14,279.92-169.65,33,24.84-155.49,196-228.49,226,50,0,189.05-126.88,229.65-126.88C982.7,381.93,795.21,545.4,700,573Z"/><path class="cls-9" d="M196.84,263.09h0c-12.51-37.06-27.05-65-19.87-71.62l1.11-1C186.8,208.61,210.59,254.18,196.84,263.09Z"/><polygon class="cls-10" points="364.33 722.14 357.13 891.36 27.45 891.36 48.58 698.18 364.33 722.14"/><polygon class="cls-11" points="367.37 794.63 364.28 891.36 2.77 891.36 16.77 766.14 367.37 794.63"/><circle class="cls-11" cx="81.46" cy="739.79" r="16.47" transform="translate(-499.25 274.28) rotate(-45)"/><path class="cls-12" d="M274.23,581.3s-44.83-16.78-37.72-27.46C253.12,528.92,274.23,581.3,274.23,581.3Z"/><path class="cls-12" d="M273.93,581.21s-22.48-54.73,0-54.73S273.93,581.21,273.93,581.21Z"/><path class="cls-13" d="M250.78,484.26a.84.84,0,0,1-.4-1.57l1-.55c28.18-15.51,48.54-26.73,56.94-59.47a.84.84,0,1,1,1.62.42c-8.58,33.44-29.21,44.79-57.75,60.51l-1,.55A.87.87,0,0,1,250.78,484.26Z"/><path class="cls-13" d="M232.38,668.23a.82.82,0,0,1-.83-.8c-.71-32.74,9.23-58.69,29.54-77.12,22.77-20.67,58.52-31.67,106.26-32.71a.84.84,0,0,1,0,1.67c-47.33,1-82.72,11.88-105.18,32.27-19.94,18.1-29.69,43.61-29,75.85a.82.82,0,0,1-.82.84Z"/><path class="cls-13" d="M856.43,454a.83.83,0,0,1-.37-.08c-17-8.45-17.17-21.85-17.17-22.41a.83.83,0,1,1,1.66,0h0c0,.13.24,12.95,16.25,20.92a.83.83,0,0,1,.38,1.11A.84.84,0,0,1,856.43,454Zm-15.88-22.61h0Z"/><path class="cls-13" d="M829,369.11a.8.8,0,0,1-.51-.17c-8.57-6.69-11.8-21.09-11.87-29.13a.85.85,0,0,1,.83-.86h0a.86.86,0,0,1,.84.85c.07,7.71,3.12,21.49,11.22,27.81a.85.85,0,0,1,.15,1.18A.84.84,0,0,1,829,369.11Z"/><path class="cls-13" d="M788.81,259.42a.75.75,0,0,1-.26,0c-16.67-5.62-18.77-17.55-19-18.89a.83.83,0,0,1,1.65-.23c.17,1.24,2.12,12.24,17.84,17.54a.83.83,0,0,1-.27,1.62Z"/><path class="cls-13" d="M674.45,241.13a.72.72,0,0,1-.29-.06c-12.88-4.84-19.81-17-21.67-22.83a.82.82,0,0,1,.53-1.05.83.83,0,0,1,1.05.54c2.07,6.41,9.28,17.5,20.67,21.78a.84.84,0,0,1-.29,1.62Z"/><path class="cls-11" d="M365.93,411.15c0,16.67-16,30.18-35.78,30.18-25.78,0-35-28.34-38-44.25,0-16.67,18.19-16.12,38-16.12S365.93,411.15,365.93,411.15Z"/><polygon class="cls-8" points="546.69 315.74 527.1 325.53 535.72 298.05 553.43 293.29 546.69 315.74"/><path class="cls-14" d="M578.41,261.46c-9.65,13.7-14.92,24.34-25,31.83,0,0-5,17.34-6.75,22.45,1.51,3,6.9,4,10.73,3.78a5.62,5.62,0,0,0,4.69-2.87L590,265c1.14-2.12-1.11-4.29-3.91-5.46A6.66,6.66,0,0,0,578.41,261.46Z"/><path class="cls-11" d="M316.81,387.24l100.35-69.7,6.59-5.05,4.87-.16,107.1-14.28-8.62,28.73c-15.88,8.32-62.6,19.71-81.41,19.36-12.4,27.55-85.47,90.76-97.94,90.7S316.81,387.24,316.81,387.24Z"/><path class="cls-15" d="M316.81,387.24l100.35-69.7,6.59-5.05,4.87-.16,107.1-14.28-8.62,28.73c-15.88,8.32-62.6,19.71-81.41,19.36-12.4,27.55-85.47,90.76-97.94,90.7S316.81,387.24,316.81,387.24Z"/><polygon class="cls-8" points="558.76 321.15 539.17 330.94 547.8 303.46 565.51 298.7 558.76 321.15"/><path class="cls-13" d="M547.8,304.29a.83.83,0,0,1-.22-1.64l16.75-4.48a.83.83,0,0,1,.43,1.61L548,304.26Z"/><path class="cls-13" d="M539.17,331.77a.83.83,0,0,1-.37-1.57l19.59-9.79a.82.82,0,0,1,1.11.37.83.83,0,0,1-.37,1.12l-19.59,9.79A.77.77,0,0,1,539.17,331.77Z"/><path class="cls-14" d="M590.48,266.87c-9.64,13.7-14.91,24.35-25,31.83,0,0-5,17.34-6.75,22.45,1.51,3,6.9,4,10.73,3.78a5.65,5.65,0,0,0,4.7-2.87l27.88-51.7c1.14-2.12-1.11-4.29-3.9-5.46A6.67,6.67,0,0,0,590.48,266.87Z"/><path class="cls-16" d="M565.51,299.53a.83.83,0,0,1-.5-1.5c7.37-5.48,12.1-12.65,18.09-21.71,2.08-3.16,4.23-6.42,6.7-9.93a.84.84,0,0,1,1.16-.2.82.82,0,0,1,.2,1.16c-2.45,3.49-4.6,6.74-6.67,9.88-6.08,9.21-10.88,16.48-18.49,22.14A.8.8,0,0,1,565.51,299.53Z"/><path class="cls-11" d="M328.88,392.65,429.23,323l6.59-5.05,4.87-.16L547.8,303.46l-8.63,28.73c-15.87,8.32-62.59,19.71-81.41,19.36-12.39,27.55-104.13,95.14-132.86,89.78C288.7,435.5,328.88,392.65,328.88,392.65Z"/><path class="cls-10" d="M335.11,247.11s18.67,119.05,18.67,129.55-48.4,57.48-51.13,50.37c-10.92-5.64-50.88-164.09-10.46-192.65C318.77,215.6,335.11,247.11,335.11,247.11Z"/><path class="cls-8" d="M290.65,176.3c-4.83,20.54,5.58,35,22.47,39.22,9.49,3.56,19.3,1.45,25.94-5.49,5.7-5.95,4.06-18.88,5.81-30.91,8.72-23.5-2.78-32.11-19.52-36.05S295.49,155.77,290.65,176.3Z"/><polygon class="cls-8" points="330.15 239.38 292.19 234.38 302.25 201.52 328.94 205.04 330.15 239.38"/><path class="cls-10" d="M293.44,218.71c1.41,2.48,33.72,11.1,40.35,10.65l3.78,17.75s-52.93-2.92-54.43-8.12S292,216.23,293.44,218.71Z"/><path class="cls-16" d="M335.12,247.8h-.05c-9.19-.57-39.89-2.7-49.45-6.18a.83.83,0,0,1,.57-1.56c9.35,3.39,39.85,5.51,49,6.08a.84.84,0,0,1-.05,1.67Z"/><path class="cls-11" d="M278.39,201.14a5.79,5.79,0,0,0,3.46,4.38,26.13,26.13,0,0,0,6.94,1.79l36.77,6c-1.94-5.3-6-11.09-7.91-16.39-.25-.7-28.44-7.73-28.44-7.73S277.57,197.34,278.39,201.14Z"/><path class="cls-11" d="M289.3,188.87c-1.22-1.43-1-5.69-1.19-7.42a96.2,96.2,0,0,1-.4-13.79c.62-13.13,9.91-20.87,21.19-25.61,8.32-3.49,18.33-3.35,26,1.42,3.34,2.09,13.64,10.31,14.32,14.2,1,5.89-10.56,6.19-12.25,11.92-.94,3.15-1.13,6.58-2.78,9.43-2,3.52-5.85,5.48-9.25,7.67s-6.93,5.83-7.21,9.88Z"/><path class="cls-11" d="M326.88,188a14.9,14.9,0,0,0-1.11,4.67A24.27,24.27,0,0,0,327,202.5c1.06,3.15,3.62,5.79,3.57,9.21,0,1.51-.15,3.24.94,4.29a4.77,4.77,0,0,0,1.84,1c3.48,1.21,11.33,1,11.22.07-.48-4.45-1.26-9.05-5-12.28-2.37-2.05-4.75-4.28-6-7.22a12.11,12.11,0,0,1-.73-4.52,51.21,51.21,0,0,0-1.28-6.22c-.14-.73-.35-1.57-1-1.88s-1.72.26-2.3.94A8.94,8.94,0,0,0,326.88,188Z"/><path class="cls-14" d="M342.91,201.08a12.33,12.33,0,0,1-4.4-7.2,14.38,14.38,0,0,0,5,1.89,17.74,17.74,0,0,1-.69,5.45l.23-1Z"/><path class="cls-8" d="M347.71,191.68c.5,1.1-3.37.49-4.31.29-1.65-.33-1.95-8.86-.24-8.78C344.54,183.25,345.5,186.88,347.71,191.68Z"/><path class="cls-11" d="M308,128.92c-4.78-2.77-11.11-1.86-15.52,1.49a14,14,0,0,0-2.11,2c-2.25,2.57-3.66,6.21-2.56,9.44C293.39,158.21,322.45,137.3,308,128.92Z"/><path class="cls-17" d="M356.94,311.91h139.6a2.26,2.26,0,0,0,2.26-2.26h0a2.27,2.27,0,0,0-2.26-2.26H356.94a2.27,2.27,0,0,0-2.26,2.26h0A2.26,2.26,0,0,0,356.94,311.91Z"/><path class="cls-11" d="M402.65,307.11h94.42c5,0,10.11-4.92,11.52-11l16.29-70c1.44-6.15-1.41-11.22-6.43-11.25l-94.85-1.13c-5,0-10.88,5.58-12.25,11.74l-15.6,70.07C394.4,301.58,397.67,307.08,402.65,307.11Z"/><path class="cls-18" d="M402.15,300.46a6.34,6.34,0,0,1,.15-2.07l15.75-69.84a11.72,11.72,0,0,1,3.32-5.55,6.91,6.91,0,0,1,3.83-2.17l93.44,1a8.59,8.59,0,0,1-.19,1.31L502.3,293.43c-1,4.28-4.55,7.11-6.47,7.11Z"/><path class="cls-11" d="M472.75,311.73c.33-.34.68-2.93,0-3.89,0,0,0-.11,0-.11H355.83a2.08,2.08,0,0,0,0,4.16H472.74S472.7,311.78,472.75,311.73Z"/><path class="cls-15" d="M472.75,311.73c.33-.34.68-2.93,0-3.89,0,0,0-.11,0-.11H355.83a2.08,2.08,0,0,0,0,4.16H472.74S472.7,311.78,472.75,311.73Z"/><path class="cls-16" d="M465.84,312.73H427.12a.84.84,0,0,1-.83-.84.83.83,0,0,1,.83-.83h38.72a.83.83,0,0,1,.83.83A.84.84,0,0,1,465.84,312.73Z"/><path class="cls-11" d="M499.55,307.73H473c.69,1.25.41,3.75-.05,4.16h26.59a2.08,2.08,0,0,0,0-4.16Z"/><path class="cls-16" d="M501.56,310.64a.83.83,0,0,1-.83-.83,1.22,1.22,0,0,0-1.18-1.25.83.83,0,1,1,0-1.66,2.89,2.89,0,0,1,2.85,2.91A.84.84,0,0,1,501.56,310.64Z"/><path class="cls-16" d="M499.55,312.73a.84.84,0,0,1-.83-.84.83.83,0,0,1,.83-.83,1.25,1.25,0,0,0,1.23-1.25.83.83,0,1,1,1.66,0A2.9,2.9,0,0,1,499.55,312.73Z"/><path class="cls-16" d="M499.56,312.73H472.92a.85.85,0,0,1-.84-.84.84.84,0,0,1,.84-.83h26.64a.83.83,0,0,1,.83.83A.84.84,0,0,1,499.56,312.73Z"/><path class="cls-16" d="M472.75,311.94a.15.15,0,0,0,.1,0,.21.21,0,0,0,.1,0v0h-.22A0,0,0,0,0,472.75,311.94Z"/><path class="cls-16" d="M473,307.73H473a.14.14,0,0,0-.2,0l0,0h0v.08c.7,1,.35,3.54,0,3.88-.05.05-.05.2,0,.2H473C473.42,311.48,473.7,309,473,307.73Z"/><path class="cls-16" d="M472.71,307.73h0v0Z"/><rect class="cls-19" x="443.1" y="253.7" width="0.83" height="62.18" transform="translate(140.94 716.38) rotate(-87.67)"/><rect class="cls-19" x="456.99" y="232.8" width="0.83" height="84.8" transform="translate(166.31 722.66) rotate(-87.99)"/><rect class="cls-19" x="453.8" y="228.71" width="0.83" height="73.47" transform="translate(175.32 711.52) rotate(-88.29)"/><rect class="cls-19" x="461.87" y="213.42" width="0.83" height="84.5" transform="translate(195.38 711.57) rotate(-88.6)"/><rect class="cls-19" x="452.11" y="215.61" width="0.83" height="59.91" transform="translate(198.37 693.33) rotate(-88.91)"/><rect class="cls-19" x="446.61" y="214.07" width="0.83" height="44.06" transform="translate(204.71 679.78) rotate(-89.2)"/><polygon class="cls-19" points="505.25 252.09 489.7 252.09 494.7 231.27 510.24 231.27 505.25 252.09"/><path class="cls-8" d="M453.27,305.63c-1.95-5.13-20.08-16.19-30-12.41s-16.46,11-14.51,16.16c7.78,13.59,11.61,3.11,21.58-.67S455.23,310.77,453.27,305.63Z"/><path class="cls-10" d="M317.59,259.6c8.09,5.72,38.27,68.66,38.27,68.66L411,298.52l12.42,21.21s-49.48,33.27-62.2,35.94-12.73,2.67-17.76-1.48c-17.95-14.81-58-50.36-57.11-72.64C287.41,252.83,309.5,253.88,317.59,259.6Z"/><path class="cls-16" d="M350.2,358.35c-3,0-4.44-1.16-7.3-3.52-9.71-8-23.79-20.34-35.7-33.6-14.78-16.47-22.09-29.83-21.71-39.71.57-15.18,6.9-21.43,12.1-24a21.14,21.14,0,0,1,20.48,1.4c3.87,2.73,12.7,17.61,26.27,44.24a.83.83,0,0,1-1.48.76c-13.07-25.64-22.21-41.14-25.75-43.64A19.68,19.68,0,0,0,298.33,259c-4.8,2.37-10.64,8.21-11.18,22.57-.83,22,39.45,57.65,56.81,72,3.17,2.62,4.12,3.4,7.57,3.07a.83.83,0,1,1,.16,1.66C351.15,358.32,350.65,358.35,350.2,358.35Z"/><g class="cls-20"><path class="cls-2" d="M670.15,449S579.89,347,536.3,367.12C496.18,385.61,638.56,454,661.54,464.85c1.58-1.4,3.21-2.74,4.82-4Z"/><path class="cls-21" d="M682.61,469.93l-1.06-1.79a.69.69,0,0,0-.33.71c-.51-1.52-9.52-10-81.9-55.42-39.79-25-79.74-49.23-80.14-49.47l1.08-1.78c.41.25,41.12,24.95,81.3,50.2,81.76,51.38,81.74,54.87,81.73,56.36A1.36,1.36,0,0,1,682.61,469.93Z"/><path class="cls-22" d="M604.93,389.18c-3.54,1-7.08,2.19-10.62,3.35-6.38,2.22-13.84,6.14-19.71,2.79-.77-.19-2.29.89-2.78.64l-.32-1.37c-4.54.69-9.45,1.48-13.68,3.56a51.73,51.73,0,0,1-8.35,3.06c33.28,26,97.31,56.7,112.07,63.64,1.58-1.4,3.2-2.74,4.81-4l3.8-11.91S639.28,414.12,604.93,389.18Z"/></g><path class="cls-2" d="M666.64,452.8S558.73,233.57,617.73,258.36s75.36,187.7,75.36,187.7Z"/><g class="cls-23"><path class="cls-21" d="M683.85,459.86l-2,.38c-4.4-23.31-21.36-75.24-41.33-126.67-22.46-57.83-42.25-98.26-52.93-108.12l1.41-1.54c15.72,14.51,42.62,81,53.46,108.91C662.43,384.36,679.46,436.54,683.85,459.86Z"/></g><path class="cls-2" d="M658.46,468.33S499.17,293.25,565.77,300.21,676.85,458.46,676.85,458.46Z"/><g class="cls-24"><path class="cls-21" d="M683.53,489.08c-4.63-14.69-32.81-58.05-75.39-116-38.88-52.93-70-91-73.57-92.12a.66.66,0,0,0,.32,0l-.63-2c1.06-.33,2.82-.89,25.45,27.29,13.75,17.1,31.5,40.33,48.72,63.72,16.3,22.14,70,96.12,77.08,118.49Z"/><path class="cls-22" d="M594.15,378.62a73.73,73.73,0,0,1-9.54-.43c31.85,44,73.85,90.14,73.85,90.14l18.39-9.87s-13.35-45.41-36.37-87.61C624.56,372.08,610.14,377.6,594.15,378.62Z"/></g><path class="cls-2" d="M680.91,449.52s37.56-204.24,68.27-151.15c17,40.59-58.77,154.54-58.77,154.54Z"/><g class="cls-25"><path class="cls-21" d="M683.11,467.58l-1.85-.95c13.86-27,68.21-202,68.76-203.77l2,.62C751.46,265.24,697.05,440.42,683.11,467.58Z"/></g><g class="cls-26"><path class="cls-2" d="M703.48,464.85s36.43-109.53,71.43-74.53-53.63,85.23-53.63,85.23Z"/><path class="cls-21" d="M698.92,490.13,697.17,489c9.43-14.59,31.79-44.26,54.65-70.51,12.09-13.88,22.45-24.67,30.8-32.06,10.14-9,16.87-12.53,20.59-10.85l-.86,1.9c-5.41-2.45-23.71,13.38-49,42.37C730.6,446,708.31,475.6,698.92,490.13Z"/></g><path class="cls-3" d="M450.18,520.33s-7.63-242.39,26.93-207.83-6.58,232.44-6.58,232.44Z"/><g class="cls-27"><rect class="cls-21" x="306.07" y="431.28" width="322.23" height="2.08" transform="translate(-7.52 856.36) rotate(-84.55)"/><path class="cls-28" d="M478.33,411.24c-3.33-1.06-5.5-3.54-8.33-5.66-.71-.36-2,.35-2.75,0a25,25,0,0,0-11.28-6,3.34,3.34,0,0,1-2.81-3.89,18.2,18.2,0,0,0-2.12,0c-3,58.33-.87,124.7-.87,124.7l20.35,24.61s13-63.17,18.17-124.36a96.82,96.82,0,0,0-10.36-7.93Z"/></g><g class="cls-29"><path class="cls-30" d="M432.29,538.49S371.25,286.3,415.72,302s34,233.66,34,233.66Z"/><path class="cls-21" d="M450,608.61l-2-.56c2.86-10.13-6.25-94.56-16.73-172.73C425.58,393,419.7,353.8,414.7,324.86c-8-46.14-11.18-51.45-12-52l0,0,.69-2c1.27.45,4.24,1.5,13,52,5,28.79,10.91,68.11,16.63,110.71C443.41,510.24,453.07,597.64,450,608.61Z"/></g><path class="cls-4" d="M411.73,551.65s-95.55-209.43-48.84-202,67,195.35,67,195.35Z"/><g class="cls-31"><path class="cls-21" d="M436.28,602.4v-2.08c-.41,0-.37.08-.4.13.18-.25.87-2.12-1.85-14.43-1.78-8-4.79-19.38-8.9-33.66-6.93-24.09-17.16-56.9-30.37-97.54-22.49-69.21-46.19-138-46.43-138.71l2-.68c.23.69,23.94,69.53,46.44,138.76C442.41,594.74,438.8,600,437.57,601.66A1.69,1.69,0,0,1,436.28,602.4Z"/><path class="cls-28" d="M429.87,545s-7.84-72.7-25-129.45c-13.91-9.32-31.54-11.34-48.69-11.37,15.6,59.88,55.56,147.48,55.56,147.48Z"/></g><path class="cls-5" d="M392.28,572.58S296.23,495,335,481.31,412,568.18,412,568.18Z"/><g class="cls-32"><path class="cls-21" d="M424.8,596.54c-12-32.93-114.72-142.09-115.75-143.19l1.51-1.42c4.24,4.49,104.07,110.56,116.2,143.89Z"/></g><path class="cls-5" d="M448.83,572.61s40.64-165.25,75.57-141.37-54.2,148.53-54.2,148.53Z"/><g class="cls-33"><path class="cls-21" d="M450.76,593.72H440.45v-2.08h10.31c.74-.13,4.31-2.72,18.41-30.73,8.19-16.26,18.79-38.81,31.53-67,21.7-48,42.32-96.48,42.53-97l1.92.81c-.21.49-21,49.41-42.86,97.69C457.88,593.72,452.71,593.72,450.76,593.72Z"/></g><path class="cls-8" d="M480.4,451.72c-7.77-2.4-16.94-5.87-24.91-7.51-10.36-2.13-24.8-1.13-37.13-.23-3.2.23-16.54,3.88-19.81,5.76a55.73,55.73,0,0,0-9.17,6.13c-7,6.16-10.44,15.35-13.14,24.27-5.13,17-1.07,35.26-2.68,52.94-.67,6,9.91,1.7,10.08.1,1.44-14.18,5.58-26.37,10.56-39.73a7.56,7.56,0,0,1,1.68-3c2.28-2.13,5.93-.82,8.79.42a74.88,74.88,0,0,0,63.4-2.35c3.62-1.88,8-4.08,11.49-1.94,1.48.92,7.71,48.93,4.49,41.87-.17-.37,26.34,17.6,20.65-12.08-3.7-19.38-4.65-30.17-9-44.45C493.47,464.74,487.91,454,480.4,451.72Z"/><path class="cls-8" d="M459.13,786.4c-1.36,11.68-.06,22.38,4.82,33.07,1.51,3.29,4.67,6.79,5.25,10.36s6.93,21.57,3.65,23.1c-10.34-4.77-24.59-29.08-26-40.37s2.35-23,0-34.14a576.83,576.83,0,0,1-13.06-121.16c-.33-7.29,14.79-14.57,22-15.34,13.66-1.45,10-42.67,10.7-32.81C467.86,629.12,469.54,697.6,459.13,786.4Z"/><path class="cls-11" d="M446.62,804.57c-6.57,10.53,3.77,22.08,9.34,33.17,1.76,3.5,11.52,21.46,18.43,17.31,8.25-5.35-7.13-34.35-11.74-42.78-4.64-8.82-11.95-2.72-13,.65C448.5,811,447.6,808,446.62,804.57Z"/><path class="cls-8" d="M519.55,746.84c4,11,12.51,25.69,21.67,35.32,2.82,2.26,18.14,15.84,14,24.17-11.38.37-29.31-24.56-35.65-34-2.52-5.73-7.8-12.4-21.52-27.57-42.12-52.51-54.88-80.1-58.44-86.46s7.77-11.6,13.91-15.53C465.06,635.33,483,671.54,519.55,746.84Z"/><path class="cls-11" d="M519.21,771.58c-3.17,12,10.11,20,18.7,28.95,2.71,2.83,17.33,17.12,22.71,11.12,6.31-7.54-16.93-30.73-23.82-37.43-7-7.06-12.22.92-12.22,4.44C522.9,777.17,521.15,774.56,519.21,771.58Z"/><path class="cls-14" d="M399.72,556.22c8.47-11.74,11.76-40.35,11.33-44.13-4.55-4-10.36-11-11.83-19.46-2.62-15.06,10.54-31.62,3.53-45.2,2.9-1.77,5.18-1.41,8.27-1.88,1.76,7.85,4.23,13.78,7.12,21.29s7.2,15.62,14.93,17.94c7.9,2.37,16.38-2.47,21.44-9,7.1-9.11,10.2-19.17,6.74-30.19,0,0,10.26,2.6,10.73,3.36s.53,3,.66,3.79c2.13,13.11,6.23,23,5.2,36.19-.52,6.59-6.33,17.63-12.86,19.78.69,5-1,42.66.33,48.45C438.49,581.5,407.81,562.86,399.72,556.22Z"/><path class="cls-34" d="M342.31,716.56c23.17-37.06,20.18-84.66,35.88-125.46,2-5.12,14.3-20,21.53-34.88-.26,2.13,46.19,21.21,65.59,1,1.51,4.7,12.66,61.66,16.15,77.78,3.71,17.11,3.71,17.11,13,36.85,5.07,10.73,11.63,31.91,12.58,43.74-9.16-2-30.89,2.44-40.06.47-1.77-.38-3.66-.76-5.36-.12-1.54.57-2.66,1.87-3.95,2.87-7.79,6-18.78.15-28.59-.61-11.41-.88-22.47,5.64-33.87,4.6-5.91-.54-11.49-3.09-17.39-3.7-11.48-1.19-23.45,5-34.29,1-.81-.29-1.69-.75-1.87-1.59A2.83,2.83,0,0,1,342.31,716.56Z"/><path class="cls-34" d="M380.59,586.78c-.35-.47,11.9-15.67,19.13-30.56-.26,2.13,46.19,21.21,65.59,1,1.51,4.7,12.66,61.66,16.15,77.78,3.71,17.11,3.71,17.11,13,36.85,5.07,10.73,11.63,31.91,12.58,43.74-3.3-.71,3.65-2-3.3-.71-15.07-24.7-22.66-62.73-43.17-75.48C440.34,626.78,389.2,598.37,380.59,586.78Z"/><path class="cls-35" d="M380.59,586.78c-.35-.47,11.9-15.67,19.13-30.56-.26,2.13,46.19,21.21,65.59,1,1.51,4.7,12.66,61.66,16.15,77.78,3.71,17.11,3.71,17.11,13,36.85,5.07,10.73,11.63,31.91,12.58,43.74-3.3-.71,3.65-2-3.3-.71-15.07-24.7-22.66-62.73-43.17-75.48C440.34,626.78,389.2,598.37,380.59,586.78Z"/><path class="cls-8" d="M421.07,560c5.55,3.55,9.89,5.88,11.33,5.82,4.33-.19,27.89,4,34.44,3.39,1.2-.11,3.18-1,3.59-.54,1.28,1.33-.16,2.57-1.6,3.21-4.14,1.85-34.81.37-39.31-.67q-6-1.38-11.08-2.84c.58-1.77,1.07-3.59,1.63-5.38C420.37,562,420.67,561,421.07,560Z"/><path class="cls-14" d="M367,527.35c.1-2.63,9-55.28,13.49-54.19,2,.49-4.21,43.92-3.3,45.51,2.55,4.51,6.62,3.45,6.07,8.62-.52,4.87,23,23.21,37.82,32.74-.4,1-.7,2-1,3-.56,1.79-1.05,3.61-1.63,5.38-29.75-8.47-38.3-18.28-46.1-21.62C365.23,543.73,366.92,528.93,367,527.35Z"/><path class="cls-34" d="M418,348.11c-.55,3.6,1.69,9,4.81,10.92a15.22,15.22,0,0,0,10.57,1.54c4.11-.75,8.14-2.82,10.42-6.32s2.39-8.53-.37-11.65c-1.91-2.16-8.81-7.12-11.68-7.25C425,335.05,419.17,340.33,418,348.11Z"/><polygon id="Neck" class="cls-8" points="421.72 445.03 451.83 445.03 447.61 417.44 425.94 417.44 421.72 445.03"/><path class="cls-14" d="M485.23,444.76c-8.2-2.53-18-10.15-26.27-7.92-15.49,4.16-25.24,3-39.15-.24-3.3-.78-17.44,4.09-20.89,6.08a59.12,59.12,0,0,0-9.68,6.46c-7.38,6.5-11,16.18-13.85,25.59-5.41,17.92-1.13,37.19-2.82,55.82-.71,6.35,16.76,13.9,16.13,12.33-8.75-22,8.26-52.76,10.19-53.32,3.16-.92,3.46-4.81,6.48-3.51a79,79,0,0,0,66.86-2.47c3.81-2,2.12-1.18,5.77,1.09,1.56,1,14.48,48.45,11.07,41-.18-.39,27.78,18.56,21.79-12.73-3.91-20.44-4.91-31.82-9.52-46.87C499,458.49,493.15,447.2,485.23,444.76Z"/><path class="cls-8" d="M415.79,438.2c0,2.1,6.77,7.34,16.37,9.45,2.28.5,9.36,25.5,10,25.5,2,0,4.67-25,6.71-25.1,9.77-.67,14.42-8,14.42-9.85,0-2.19-10.63-4-23.73-4a109.94,109.94,0,0,0-16.32,1.08C418.63,436,415.79,437.06,415.79,438.2Z"/><path class="cls-8" d="M417.62,396.49c.92,4.29.43,8-1.08,8.36s-3.49-2.9-4.4-7.19-.43-8,1.09-8.35S416.71,392.2,417.62,396.49Z"/><ellipse class="cls-8" cx="458.27" cy="394.75" rx="7.94" ry="2.8" transform="translate(18.64 810.16) rotate(-84.12)"/><path class="cls-13" d="M414.47,393.2c.91,16.89,11.17,32.52,24.06,32,11.77-.45,20.62-18,19.74-34.38-.92-17.18-10.52-24.42-23.24-23.74S413.57,376.31,414.47,393.2Z"/><path class="cls-8" d="M414.43,392.45c.91,16.88,11.17,32.51,24.06,32,11.77-.44,20.62-18,19.74-34.37C457.3,372.91,447.71,359.3,435,360S413.53,375.56,414.43,392.45Z"/><path class="cls-34" d="M414.37,390.65c-5.59-10.06-3.42-26.87,12.38-28C420.62,369.77,417.29,383.19,414.37,390.65Z"/><path class="cls-34" d="M460.69,391.49c10.43-24.43-24.36-49.64-41.42-26.76C429.93,378.85,454.68,387,460.69,391.49Z"/><path class="cls-35" d="M460.69,391.49c10.43-24.43-24.36-49.64-41.42-26.76C429.93,378.85,454.68,387,460.69,391.49Z"/><path class="cls-35" d="M419.3,364.78c-8.89,5-9.48,17.69-4.93,25.87,2.22-5.66,4.67-14.76,8.41-21.93A37.61,37.61,0,0,1,419.3,364.78Z"/><path class="cls-14" d="M442.26,411.22a7.81,7.81,0,0,1-4.71,2.5,6.35,6.35,0,0,1-4.3-1.62,18.55,18.55,0,0,1-3.06-3.54c5,1.86,10.09.59,15.14-.32C444.21,409.13,443.29,410.23,442.26,411.22Z"/><path class="cls-34" d="M437.38,441a24.87,24.87,0,0,1-14.58-5.25.61.61,0,0,1-.07-.88.63.63,0,0,1,.88-.07,24.17,24.17,0,0,0,8.74,4.34c6.89,1.77,13.3,0,19-5.39a.63.63,0,0,1,.89,0,.62.62,0,0,1,0,.88C447.1,439.49,441.93,441,437.38,441Z"/><path class="cls-14" d="M441,440.36c0,.38-1.16.73-2.61.78s-2.63-.22-2.65-.6,1.15-.73,2.61-.78S441,440,441,440.36Z"/><path class="cls-36" d="M393.92,697.73a.84.84,0,0,1-.59-1.42c2.53-2.53.79-9.27-1.22-17.07-3.1-12-6.95-27,1.14-37.94a.82.82,0,0,1,1.16-.17.83.83,0,0,1,.18,1.16c-7.62,10.32-3.88,24.86-.87,36.54,2.23,8.63,4,15.46.79,18.65A.83.83,0,0,1,393.92,697.73Z"/><path class="cls-34" d="M462.44,386.13l.05.42c0,.26.06.64.11,1.13.09,1,.21,2.34.29,4a91.14,91.14,0,0,1-.09,12.08c0,.54-.09,1.09-.16,1.64s-.12,1.09-.2,1.62c-.14,1.08-.33,2.13-.54,3.15-.11.5-.23,1-.35,1.48s-.26,1-.4,1.41-.29.9-.45,1.32-.32.82-.5,1.2-.34.74-.52,1.07-.36.65-.54.94l-.54.78c-.16.24-.36.43-.51.62a6.7,6.7,0,0,1-.78.8l-.28.27-.3-.29.22-.31a6.78,6.78,0,0,0,.58-.87c.11-.2.25-.41.36-.66l.35-.8c.11-.3.21-.62.33-.95s.19-.69.29-1.06.16-.78.24-1.18.12-.84.18-1.28.09-.9.13-1.36,0-.94.06-1.42c0-1,0-2-.06-3,0-.51-.05-1-.1-1.54s-.09-1-.14-1.55a86.24,86.24,0,0,0-2.06-11.26c-.37-1.52-.72-2.77-1-3.63l-.3-1-.1-.33Z"/><path class="cls-35" d="M462.44,386.13l.05.42c0,.26.06.64.11,1.13.09,1,.21,2.34.29,4a91.14,91.14,0,0,1-.09,12.08c0,.54-.09,1.09-.16,1.64s-.12,1.09-.2,1.62c-.14,1.08-.33,2.13-.54,3.15-.11.5-.23,1-.35,1.48s-.26,1-.4,1.41-.29.9-.45,1.32-.32.82-.5,1.2-.34.74-.52,1.07-.36.65-.54.94l-.54.78c-.16.24-.36.43-.51.62a6.7,6.7,0,0,1-.78.8l-.28.27-.3-.29.22-.31a6.78,6.78,0,0,0,.58-.87c.11-.2.25-.41.36-.66l.35-.8c.11-.3.21-.62.33-.95s.19-.69.29-1.06.16-.78.24-1.18.12-.84.18-1.28.09-.9.13-1.36,0-.94.06-1.42c0-1,0-2-.06-3,0-.51-.05-1-.1-1.54s-.09-1-.14-1.55a86.24,86.24,0,0,0-2.06-11.26c-.37-1.52-.72-2.77-1-3.63l-.3-1-.1-.33Z"/><path class="cls-34" d="M417.61,381.52l-.11.41-.32,1.2c-.26,1-.63,2.53-1,4.33s-.83,3.92-1.23,6.2c-.2,1.14-.39,2.32-.56,3.52s-.32,2.42-.46,3.64-.23,2.46-.29,3.66c0,.61-.07,1.21-.08,1.8s0,1.18,0,1.75,0,1.14,0,1.69.07,1.09.11,1.62a26.6,26.6,0,0,0,.42,2.92c.08.45.21.87.31,1.27s.25.77.36,1.12a8.7,8.7,0,0,0,.39,1c.07.14.12.29.2.42l.21.36c.13.22.24.44.36.6l.32.42c.17.23,9.77,7.9.27.35s-7.6-36.8-4.36-45.05Z"/><path class="cls-35" d="M417.61,381.52l-.11.41-.32,1.2c-.26,1-.63,2.53-1,4.33s-.83,3.92-1.23,6.2c-.2,1.14-.39,2.32-.56,3.52s-.32,2.42-.46,3.64-.23,2.46-.29,3.66c0,.61-.07,1.21-.08,1.8s0,1.18,0,1.75,0,1.14,0,1.69.07,1.09.11,1.62a26.6,26.6,0,0,0,.42,2.92c.08.45.21.87.31,1.27s.25.77.36,1.12a8.7,8.7,0,0,0,.39,1c.07.14.12.29.2.42l.21.36c.13.22.24.44.36.6l.32.42c.17.23,9.77,7.9.27.35s-7.6-36.8-4.36-45.05Z"/><path class="cls-37" d="M431.68,364.78S447.51,381,455.74,381"/><path class="cls-37" d="M425.13,341.14c-6,3.1-7.47,12.95,0,14.61"/><path class="cls-37" d="M416.05,373.62c-1.68,1.33-5.06,8.5-3.18,12.51"/><path class="cls-17" d="M404.85,572.58H544.44a2.27,2.27,0,0,0,2.27-2.26h0a2.27,2.27,0,0,0-2.27-2.26H404.85a2.26,2.26,0,0,0-2.26,2.26h0A2.26,2.26,0,0,0,404.85,572.58Z"/><path class="cls-11" d="M403.74,572.58H547.46a2.05,2.05,0,0,0,2-2.05h0a2.06,2.06,0,0,0-2-2.06H403.74a2.07,2.07,0,0,0-2.06,2.06h0A2.06,2.06,0,0,0,403.74,572.58Z"/><path class="cls-11" d="M450.51,567.77h94.38c5,0,11.2-4.78,13.79-10.67l29-65.82c2.48-5.62.56-10.17-4.36-10.15H491.69c-4.8,0-11.59,5.1-14.23,10.64l-31,64.9C443.69,562.48,445.6,567.75,450.51,567.77Z"/><path class="cls-38" d="M539.88,498c4.39-2.75,8.5-6,12.66-9,1.13-.82,2.17-1.72,3.26-2.61.66-.54,1.6-1.53,2.47-1.58-8.7,0-17.4-.09-26.09-.09H495.81c-1.29,0-2.59.09-3.88.09-4.71,0-9.36,4.55-11.29,8.59q-7,14.66-14,29.32l-1.41,3a7.93,7.93,0,0,1-.61,1.24c6.34-3.39,12.35-7.33,19-10.06,7-2.86,14.33-4.69,21.62-6.66,9.51-2.57,19.44-4.69,28.44-8.79A53.61,53.61,0,0,0,539.88,498Z"/><path class="cls-14" d="M512.43,523.15c-1.14,3.81.64,6.88,4,6.89s7-3,8.18-6.86-.57-7-3.94-7S513.58,519.32,512.43,523.15Z"/><path class="cls-17" d="M448.73,572.65a.18.18,0,0,0,.1,0,4.93,4.93,0,0,0,0-4.22.14.14,0,0,0-.2,0,.13.13,0,0,0,0,.19c.7,1,.35,3.52,0,3.86a.15.15,0,0,0,0,.2A.21.21,0,0,0,448.73,572.65Z"/><path class="cls-39" d="M661.64,329.86c10.35-2.12,26.92-1.81,39.25-.9,3.2.23,16.54,3.88,19.81,5.76a55.73,55.73,0,0,1,9.17,6.13c7,6.16,10.44,15.34,13.14,24.27,5.13,17,5.33,15.73,6.93,33.4.67,6-16.57,6.2-16.73,4.6-1.45-14.18-3.18-11.34-8.16-24.7a7.45,7.45,0,0,0-1.68-3c-2.28-2.13-5.93-.82-8.79.41a74.88,74.88,0,0,1-63.4-2.34c-3.62-1.89-8-4.09-11.49-1.94-1.48.92-24.87,59.46-19.18,29.79,3.7-19.38.39-28.47,4.77-42.74C627.48,351.43,653.66,331.5,661.64,329.86Z"/><polygon id="Neck-2" data-name="Neck" class="cls-39" points="698.73 329.07 675.11 330.29 674.52 304.12 693.09 304.12 698.73 329.07"/><path class="cls-11" d="M664.47,322.32c2.68-.36,8.42,1.42,10.49-.75,2.35-2.46.71-7.83.15-10.72-1-5.14-3.42-16.28-8.22-19.83-7.56-5.56-4.6,11.16-4.75,14.33-.18,3.74-1.45,17,2.33,17C664.8,322.27,664.4,322.32,664.47,322.32Z"/><path class="cls-39" d="M695.4,280.44c.42,4.14,1.94,7.37,3.41,7.23s2.3-3.63,1.88-7.77-1.94-7.37-3.4-7.22S695,276.3,695.4,280.44Z"/><path class="cls-39" d="M697.11,276.7c4.08,15.51-.66,32.6-12.44,35.89C671.3,321,659.3,302.3,659.3,288.69c-5.94-15.39,0-26.52,11.69-29.59S693,261.19,697.11,276.7Z"/><path class="cls-40" d="M697.11,276.7c4.08,15.51-.66,32.6-12.44,35.89C671.3,321,659.3,302.3,659.3,288.69c-5.94-15.39,0-26.52,11.69-29.59S693,261.19,697.11,276.7Z"/><path class="cls-39" d="M697.11,275.86c4.08,15.51-.66,32.6-12.44,35.89-13.37,8.42-25.37-9.73-25.37-23.34-7.85-14.53,0-27.09,11.69-30.16S693,260.34,697.11,275.86Z"/><path class="cls-14" d="M670,302.64a7.41,7.41,0,0,0,4.94,1.09,6,6,0,0,0,3.52-2.56,17.76,17.76,0,0,0,1.9-4c-4.12,3-9.07,3.08-13.91,3.54C667.67,301.23,668.78,302,670,302.64Z"/><path class="cls-39" d="M661.25,671.38c1.36,11.68.06,22.37-4.82,33.07-1.5,3.29-4.66,6.78-5.25,10.35s-6.93,21.58-3.65,23.1c10.34-4.77,24.59-29.07,26-40.37s-2.35-23,0-34.13a577,577,0,0,0,13.06-121.17c.33-7.28-14.79-14.56-22-15.33C651,525.45,650.84,582.57,661.25,671.38Z"/><path class="cls-11" d="M649.78,722.84c-.12,1.44-1,4-.23,5.19,1.5,2.23,5,2.27,7.24.76s3.5-4.07,4.58-6.54c3.89-8.85,10.65-20.16,12.51-29.64,6.37,10.65-3.44,23.53-9.2,34.52-1.82,3.47-11.24,17-18.75,17-6.75-8,9.72-43.15,14.47-51.49C661.19,698.45,650.22,717.87,649.78,722.84Z"/><path class="cls-39" d="M599.7,631.81c-4,11.06-12.51,25.69-21.67,35.32-2.82,2.27-18.14,15.85-14,24.18,11.38.37,29.31-24.56,35.65-34,2.52-5.74,7.8-12.41,21.52-27.58,42.12-52.5,54.88-80.09,58.44-86.45s-7.77-11.6-13.91-15.54C654.19,520.31,636.27,556.52,599.7,631.81Z"/><path class="cls-11" d="M568.22,677.26c-.93,1.11-2.11,3.54-1.67,4.92.83,2.57,4.19,3.57,6.76,2.74s4.48-2.94,6.21-5c6.18-7.43,15.36-15.44,20.52-23.35,3.17,12-10.11,20-18.7,29-2.71,2.83-15.49,13.2-22.71,11.12C554.37,687,582.5,659,589.38,652.29,588.52,658.12,571.54,673.29,568.22,677.26Z"/><path class="cls-11" d="M675.93,452.14a87.43,87.43,0,0,1-23.55-2.9c-6.07,14.94-13.91,39.25-6.07,58.1,16.28,42.67,3.62,84.23,5.43,126.35l29.72,2.69c6-36.11,10.83-74,7.37-104.78-2-17.48,1.39-40.15-.92-57.61C686.61,464.13,687.15,456.2,675.93,452.14Z"/><path class="cls-15" d="M675.93,452.14a87.43,87.43,0,0,1-23.55-2.9c-6.07,14.94-13.91,39.25-6.07,58.1,16.28,42.67,3.62,84.23,5.43,126.35l29.72,2.69c6-36.11,10.83-74,7.37-104.78-2-17.48,1.39-40.15-.92-57.61C686.61,464.13,687.15,456.2,675.93,452.14Z"/><path class="cls-11" d="M741,478.72c4.22,14.41-.69,26.62-7.39,33.33-8.58,8.58-43.53,24.59-50.44,30-11.84,9.31-35,57.1-52,80.2-6.32-3.51-18.13-9.72-24.45-13.23,32.88-49,30.66-86.47,45.84-94.13,2.22-1.12,32.91-31.27,30.47-40-1.64-5.91-17.5-23.22-17.5-23.22a182.12,182.12,0,0,0,53.23-8.21S738.47,472.46,741,478.72Z"/><path class="cls-41" d="M607.53,606c-1.14.59-4.63,5.7-3.4,6.44,6.74,4,23.8,15.56,24.85,15.42s5.48-5.55,3.29-7.14S608.68,605.38,607.53,606Z"/><path class="cls-41" d="M651.8,631.68c-.74,1.05-1.48,7.2,0,7.28,7.84.47,28.29,2.84,29.16,2.23s2.3-7.44-.37-7.84S652.54,630.61,651.8,631.68Z"/><path class="cls-14" d="M710.4,331.12c-3.32-1.2-10.59,4.29-14.3,5.33-10.55,2.95-22.26,3-30.75-3.38a20.64,20.64,0,0,1-3.71-3.21s-13.7,4-17.52,6.18a44.27,44.27,0,0,0-16.52,16.61c-4.46,8.09-4.6,17.64-5.25,26.62-.78,10.76-1.35,21.52-2,32.28-.08,1.26-.68,16.91-1.26,17,10.41-.93,9-2,19,1.06-.12-6.86,5.42-44.3,7.41-50.86-.32,3.9,3.72,13.41,7.11,19.38,1,19.85,2.49,48.47-.19,51.15-.34,2.53,33.47,10.72,66.34-5.81-5.87-17.77-1.73-47.8,1.23-66.29,4.21,6.37,16.92,40.2,19.65,48.11,10.41-2.28,10.64,1.23,21.27,1.92C755.05,409.84,757.33,329.57,710.4,331.12Z"/><polygon class="cls-14" points="697.26 392.7 679.49 392.7 677.01 358.97 699.74 358.97 697.26 392.7"/><polygon class="cls-11" points="683.77 355.92 681.07 355.92 681.07 353.28 683.1 353.28 683.77 355.92"/><path class="cls-11" d="M700.09,360.78H676.66a.42.42,0,0,1-.38-.49l.21-2.17a.5.5,0,0,1,.46-.46H699.8a.5.5,0,0,1,.46.46l.21,2.17A.42.42,0,0,1,700.09,360.78Z"/><path class="cls-11" d="M698.14,357.83H678.61a.31.31,0,0,1-.32-.38l.31-1.83a.44.44,0,0,1,.43-.35h18.7a.44.44,0,0,1,.42.35l.31,1.83A.31.31,0,0,1,698.14,357.83Z"/><polygon class="cls-11" points="698.12 381.01 699.02 368.82 677.73 368.82 678.63 381.01 698.12 381.01"/><path class="cls-14" d="M682.75,372.11l-.25,0c-.15,0-.3.18-.43.45a1.17,1.17,0,0,0-.15.67.74.74,0,0,0,.64.68,9.84,9.84,0,0,1,2-2.91,4.94,4.94,0,0,1,2.66-1.51c.74-.13,1.15.05,1.23.53a2.08,2.08,0,0,1-.34,1.31,5.24,5.24,0,0,1-1.2,1.45,3.31,3.31,0,0,1-1.52.78.66.66,0,0,1-.71-.24,4.7,4.7,0,0,1-1.77.73l-.15,0a4.75,4.75,0,0,0-.46,2.54,1.19,1.19,0,0,0,.48.85,1.5,1.5,0,0,0,1.09.16,3.85,3.85,0,0,0,2-1,3.73,3.73,0,0,0,.3-.32l.1-.12a.15.15,0,0,1,.08,0s.06,0,.07.06a.16.16,0,0,1-.06.14,4.29,4.29,0,0,1-2.65,1.53,1.63,1.63,0,0,1-1.2-.16,1.33,1.33,0,0,1-.54-.93,4.93,4.93,0,0,1,.49-2.66.86.86,0,0,1-.81-.74,1.25,1.25,0,0,1,.26-.94,1.07,1.07,0,0,1,.67-.55q.2,0,.21.09C682.83,372.05,682.81,372.1,682.75,372.11Zm3.13-.15a.76.76,0,0,1-.24.58,3.66,3.66,0,0,1-.76.67.53.53,0,0,0,.57.16,2.85,2.85,0,0,0,1.31-.68,5.14,5.14,0,0,0,1.12-1.27,1.79,1.79,0,0,0,.34-1.16c-.08-.45-.51-.61-1.3-.48a4.24,4.24,0,0,0-2.31,1.4,9.6,9.6,0,0,0-1.78,2.73h.08a4.36,4.36,0,0,0,1.7-.71l0-.08a1,1,0,0,1,.33-.81,1.4,1.4,0,0,1,.71-.51C685.77,371.77,685.86,371.82,685.88,372ZM684.82,373h0a3.33,3.33,0,0,0,.57-.54c.13-.17.2-.29.18-.37s-.05-.12-.11-.11a.83.83,0,0,0-.45.38A.85.85,0,0,0,684.82,373Z"/><path class="cls-14" d="M686.53,376.74a1.4,1.4,0,0,1,.26-1,1.18,1.18,0,0,1,.75-.62.3.3,0,0,1,.26-.25.41.41,0,0,1,.35.07.47.47,0,0,1,.18.32,1,1,0,0,1,0,.33,1.51,1.51,0,0,0,.6-.25,1.57,1.57,0,0,0,.38-.29l.06,0s0,.05-.06.11a1.54,1.54,0,0,1-.38.28,1.88,1.88,0,0,1-.62.25,1.79,1.79,0,0,1-.41.87,1.22,1.22,0,0,1-.74.46C686.8,377.17,686.58,377.05,686.53,376.74Zm1.62-.93a.54.54,0,0,1-.6-.48.83.83,0,0,0-.55.49,1.31,1.31,0,0,0-.16.78c0,.26.19.37.44.32a1,1,0,0,0,.54-.37A1.38,1.38,0,0,0,688.15,375.81Zm-.39-.63c0,.29.18.44.4.46,0,0,0-.11,0-.21a.43.43,0,0,0-.13-.26.19.19,0,0,0-.18-.08C687.77,375.1,687.75,375.13,687.76,375.18Z"/><path class="cls-14" d="M693.05,371.21a.34.34,0,0,1-.16.31c-.17,0-.26,0-.27-.07s0-.09.06-.16a.3.3,0,0,0,.06-.14s-.1,0-.27,0a1.3,1.3,0,0,0-.59.35,4.33,4.33,0,0,0-.72.9,25,25,0,0,0-1.4,2.49l.62-.11c.08,0,.12,0,.13,0s0,.1-.16.14l-.69.11c-.8,1.56-1.34,2.57-1.61,3a.78.78,0,0,1,.35.46,1.68,1.68,0,0,1,.58-.26.93.93,0,0,1,.47,0c.16,0,.24.12.26.22s0,.07,0,.08h0s0,0-.07,0a.57.57,0,0,0-.11-.1.63.63,0,0,0-.48-.07,1.57,1.57,0,0,0-.6.25,1.06,1.06,0,0,1-.1.64.55.55,0,0,1-.36.32q-.21,0-.24-.15a.59.59,0,0,1,.13-.42,1.86,1.86,0,0,1,.42-.42.72.72,0,0,0-.29-.43c-.81,1.33-1.53,2-2.15,2.15-.35.06-.55,0-.59-.3a1.59,1.59,0,0,1,.52-1.21,2.43,2.43,0,0,1,1.46-.85,1.34,1.34,0,0,1,.67,0c.23-.39.74-1.36,1.52-2.9l-.58.09c-.05,0-.09,0-.09,0s0-.11.15-.13l.61-.1a23.62,23.62,0,0,1,1.65-2.85,2.46,2.46,0,0,1,1.41-1.13C692.85,370.9,693,371,693.05,371.21Zm-7.18,9q.82-.13,2-2.07a1.54,1.54,0,0,0-.68,0,1.89,1.89,0,0,0-1.19.77,1.55,1.55,0,0,0-.43,1.08C685.56,380.16,685.67,380.23,685.87,380.2Zm2.08-.81a.38.38,0,0,0,.28-.23.63.63,0,0,0,.07-.4v0c-.28.21-.41.41-.37.61C687.92,379.38,687.94,379.39,688,379.39Z"/><path class="cls-14" d="M694.34,371a.31.31,0,0,1-.15.31c-.17,0-.26,0-.28-.07a.32.32,0,0,1,.06-.16c0-.06.07-.11.06-.14s-.09,0-.26,0a1.28,1.28,0,0,0-.6.35,4.51,4.51,0,0,0-.71.89q-.63,1-1.41,2.49l.63-.1c.08,0,.12,0,.13,0s0,.1-.16.13l-.7.12c-.79,1.56-1.33,2.57-1.6,3a.76.76,0,0,1,.34.46,1.65,1.65,0,0,1,.58-.26,1,1,0,0,1,.48,0,.32.32,0,0,1,.26.22s0,.07,0,.08h0s0,0-.06,0l-.11-.09a.65.65,0,0,0-.48-.07,1.68,1.68,0,0,0-.61.25,1,1,0,0,1-.1.64.56.56,0,0,1-.35.32q-.21,0-.24-.15a.62.62,0,0,1,.12-.42,1.91,1.91,0,0,1,.43-.42.77.77,0,0,0-.29-.43c-.81,1.32-1.53,2-2.16,2.15-.35.05-.54,0-.59-.3a1.6,1.6,0,0,1,.53-1.21,2.41,2.41,0,0,1,1.45-.85,1.39,1.39,0,0,1,.68,0c.23-.4.73-1.36,1.51-2.9l-.57.09c-.06,0-.09,0-.1,0s0-.11.15-.13l.61-.1a23.46,23.46,0,0,1,1.66-2.85,2.43,2.43,0,0,1,1.41-1.13C694.14,370.68,694.3,370.77,694.34,371Zm-7.17,9c.55-.1,1.2-.78,2-2.07a1.54,1.54,0,0,0-.68,0,1.86,1.86,0,0,0-1.19.77,1.51,1.51,0,0,0-.43,1.08C686.85,379.94,687,380,687.17,380Zm2.08-.81a.42.42,0,0,0,.28-.24.59.59,0,0,0,.06-.39v0c-.28.21-.41.41-.37.61C689.22,379.16,689.23,379.17,689.25,379.17Z"/><path class="cls-14" d="M692.79,374.59c.08.42-.29.86-1.11,1.31.08.16.24.21.47.17a1.61,1.61,0,0,0,1-.71l.06-.06s0,0,0,.07a.52.52,0,0,1-.14.25,2.2,2.2,0,0,1-.44.39,1.52,1.52,0,0,1-.61.25c-.44.08-.68-.06-.74-.41a1.32,1.32,0,0,1,.25-.94,1.19,1.19,0,0,1,.79-.58C692.63,374.29,692.76,374.38,692.79,374.59Zm-1.17,1.14,0,.07q1-.63.93-1.08c0-.15-.13-.22-.31-.19s-.34.18-.48.45A1.19,1.19,0,0,0,691.62,375.73Z"/><path class="cls-14" d="M694.61,374.29c.07.41-.3.85-1.12,1.3.08.16.24.21.47.17a1.57,1.57,0,0,0,1-.71s0-.05.06-.05,0,0,.05.06a.52.52,0,0,1-.14.25,1.93,1.93,0,0,1-.44.39,1.52,1.52,0,0,1-.61.25c-.44.08-.68-.06-.74-.41a1.28,1.28,0,0,1,.25-.93,1.18,1.18,0,0,1,.79-.59A.3.3,0,0,1,694.61,374.29Zm-1.18,1.13,0,.08c.67-.43,1-.79.93-1.09s-.13-.21-.31-.18a.74.74,0,0,0-.48.44A1.19,1.19,0,0,0,693.43,375.42Z"/><path class="cls-39" d="M760.52,425.54c1.19,4-.72,9.11-4.52,10.81-7.24,3.24-31.67-10.34-39.83-17.93s-11-11-19.37-18.39c-1.38-1.23-9.61-2.94-11.39-3.43-11.28-3.12-9.74-15.8-8.2-16.62,1.62-4.15,20.57,3,23.81,4.67s5.15,5,7.73,7.61C725.15,408.66,760.71,418.42,760.52,425.54Z"/><path class="cls-40" d="M733.46,409.51a.85.85,0,0,1-.38-.09c-1.87-1-3.56-1.86-5.15-2.73a.83.83,0,0,1,.8-1.46c1.58.86,3.25,1.75,5.11,2.71a.83.83,0,0,1-.38,1.57Z"/><path class="cls-40" d="M720.68,402.31a.88.88,0,0,1-.44-.12c-1.65-1-2.26-1.45-3.75-2.49a.83.83,0,0,1,1-1.37c1.46,1,2.07,1.45,3.68,2.44a.83.83,0,0,1-.44,1.54Z"/><path class="cls-40" d="M753.25,437.67c-5.14,0-12.65-3.25-17.19-5.48-8-3.91-16.2-9.2-20.46-13.16a.82.82,0,0,1,0-1.17.84.84,0,0,1,1.18-.05C724,424.55,744.4,436,753.22,436a5.89,5.89,0,0,0,2.44-.43c3.29-1.47,5.18-6,4.06-9.81a.84.84,0,0,1,.56-1,.83.83,0,0,1,1,.56c1.38,4.58-.9,10-5,11.81A7.55,7.55,0,0,1,753.25,437.67Z"/><path class="cls-39" d="M638.05,429.57c-1.09,4-5.42,7.36-9.54,6.8-7.86-1.07-21.44-25.5-24.37-36.25s-3.56-15.17-6.74-25.85c-.53-1.77-10.86-8.29-15.52-11.34-11.83-7.77-13.53-21.9-11.79-21.79,12.14,9.08,40.72,29.28,41.55,32.83C616.92,396.57,642,423.62,638.05,429.57Z"/><path class="cls-40" d="M629.43,437.26a7,7,0,0,1-1-.07c-5.06-.69-11.34-9.62-14.63-14.88-4.71-7.53-8.91-16.36-10.44-22-1.24-4.58-2.06-8-2.86-11.25-1.05-4.35-2.05-8.45-3.87-14.58-.54-1.36-9.42-7.14-13.21-9.61l-2-1.28c-10.77-7.07-13.56-19.34-12.57-22.3a1.27,1.27,0,0,1,1.28-1,.83.83,0,0,1,.78.88.84.84,0,0,1-.51.72c-.54,1.75,1.57,13.51,11.93,20.32l2,1.28c8.85,5.75,13.43,9,13.89,10.52,1.84,6.17,2.84,10.3,3.9,14.66.79,3.27,1.61,6.66,2.85,11.21,2.88,10.58,16.46,34.66,23.68,35.64,3.58.49,7.6-2.41,8.63-6.19l0-.13.08-.11c1.59-2.42-3.59-10.75-9.08-19.55-6.54-10.5-14.68-23.56-17.45-35.4,0,0-.12-.43-1.22-1.57a.83.83,0,1,1,1.2-1.15,5.84,5.84,0,0,1,1.64,2.34c2.71,11.57,10.76,24.5,17.24,34.89s11.13,17.86,9.13,21.23A10.3,10.3,0,0,1,629.43,437.26Z"/><path class="cls-11" d="M655,279.12c-.11.77.34,3.22,1.51,3.22.5-4.5,3.39-7.86,5.69-11.45,1.42-2.22,8.84-8.31,5.9-11.33-.4,2.41.2-1.77-.22.66,0-.9,0-.91-.18,0,.19-2.45-.24,1.74-.08-.71-.51.54-.61.59-.3.17s.26-.31-.23.29c.19-.19.33-.69.35-.65.16.28-1-.15-1-.48,1.68.08,4.56-4.34,5.41-5.52-7.81,1.15-11.52,0-15.61,7.67-3,5.66-3.84,12.14-1.24,18.15C654.83,280.26,654.61,278.24,655,279.12Z"/><path class="cls-11" d="M666.77,263.64c4.7,3.65,10,4.77,14.71,7.9a72.86,72.86,0,0,1,9.37,7.9c5.69,5.55,5.14,19,2.68,25.74-1.37,3.75-2.08,6.06-.87,10.16a12.19,12.19,0,0,0,2,4.61c2.59,2.84,2.75,1.05,5.89,1.56,3.64.59,7.53,2.51,11.21-.07,3.05-2.14,5.93-8.27,7.18-11.67,2.16-5.91,1.39-11,2.07-16.95.71-6.29-1.44-9.32-2.76-15.27-1.14-5.18-.81-10.06-4.76-13.95-2.08-2-4.12-2.92-5.73-5.56-.89-1.45-1.43-3.8-2.51-5.08-6.49-7.76-14.29-6.4-23.25-5.1-4.78.69-8.32,1.13-12.3,4.37-4.4,3.58-6,8.68-3,11.41C669.07,265.43,667.17,264,666.77,263.64Z"/><path class="cls-11" d="M671,268c2.75,1.82,6,2.78,9.07,3.86a109.28,109.28,0,0,1,27.65,14.34c-1.34-1-2.46-3.24-3.56-4.52-1.3-1.5-2.66-3-4.08-4.33a70,70,0,0,0-19.87-13.57c-3.12-1.42-7.88-4-11.37-4C663.17,259.85,669,266.75,671,268Z"/><path class="cls-16" d="M710,290a.51.51,0,0,0,.31-.11.48.48,0,0,0,.06-.67,49.25,49.25,0,0,0-22.52-15.29c-1.51-.49-3.06-.91-4.56-1.32a62.79,62.79,0,0,1-6.87-2.16c-3-1.18-6.9-3.38-8.92-7.13a.47.47,0,0,0-.65-.19.48.48,0,0,0-.19.65c1.71,3.16,5,5.78,9.4,7.56a64.65,64.65,0,0,0,7,2.19c1.49.41,3,.83,4.51,1.31.71.23,1.42.48,2.12.75l1.08.39c3.26-.29,4.51,1.79,7.12,3.56a5.8,5.8,0,0,0,.83.63l.88.57.86.6c5.23.17,7.31,4.34,9.2,8.49A.48.48,0,0,0,710,290Z"/><path class="cls-11" d="M555,325.81l55.69,43.51a1.56,1.56,0,0,1,.15,2.2h0a1.57,1.57,0,0,1-2.17.39l-55.7-43.5a1.57,1.57,0,0,1-.15-2.21h0A1.58,1.58,0,0,1,555,325.81Z"/><path class="cls-13" d="M785.83,499.17a.82.82,0,0,1-.43-.12c-13.33-8-11.6-20.92-11.58-21.05a.83.83,0,0,1,1.64.24h0c-.07.49-1.55,11.95,10.8,19.38a.84.84,0,0,1-.43,1.55Z"/><path class="cls-12" d="M600.06,552.36c2-9.56,4.16-22.13,2.49-23.79-2.74-2.74-5.86,11.76-5.86,11.76l.52,12.65Z"/><path class="cls-12" d="M598.23,552.76l.38-7.08s-.14-9.5-5.05-17.11c-4.63-2.22-1.67,13.47,1.05,25Z"/><path class="cls-34" d="M203.34,175.46s3.77-16.11-2.94-15.78c-7.41.35-10.23,7.87-9.54,10.5s9,6.49,9,6.49Z"/><path class="cls-34" d="M199.85,176.73s-2.39-21.73-11.21-15c-1.74,2.49.34,6.71-2,7.56-5.78,2.08-12.32-7.19-19.08,2.24-2.94,11,22.16,10.85,22.16,10.85Z"/><path class="cls-35" d="M199.85,176.73s-2.39-21.73-11.21-15c-1.74,2.49.34,6.71-2,7.56-5.78,2.08-12.32-7.19-19.08,2.24-2.94,11,22.16,10.85,22.16,10.85Z"/><path class="cls-11" d="M207.88,174.13l-.3.06-.84.19c-.72.17-1.73.45-2.92.83s-2.55.88-4,1.46c-.72.29-1.46.6-2.2.93s-1.49.68-2.23,1-1.48.72-2.2,1.11-1.42.76-2.1,1.14c-1.35.76-2.58,1.53-3.62,2.23s-1.88,1.31-2.46,1.77c-.29.22-.51.42-.67.55l-.23.2.3-.06c.2-.05.49-.1.84-.19.72-.17,1.74-.44,2.92-.83s2.56-.87,4-1.46c.72-.29,1.46-.6,2.2-.93s1.49-.68,2.24-1,1.47-.73,2.19-1.11,1.42-.76,2.1-1.14c1.35-.77,2.58-1.53,3.62-2.23s1.88-1.32,2.46-1.77c.29-.22.51-.42.67-.55Z"/><path class="cls-11" d="M206.52,175.49l.12-.05a.71.71,0,0,0,.34-.94c-.43-.91-4.33-8.95-8.21-9.12-1.27-.06-2.35.67-3.21,2.15-1.43,2.44-1.72,4.15-.91,5.23,1.11,1.46,3.7.83,4,.75a.71.71,0,0,0-.36-1.37c-.63.17-2.08.32-2.5-.24-.19-.26-.48-1.12,1-3.66.87-1.49,1.66-1.46,1.92-1.45,2.29.1,5.51,5.15,7,8.31A.71.71,0,0,0,206.52,175.49Z"/><path class="cls-11" d="M206.3,174.68a.71.71,0,0,0,.52-.61c.31-2.94,1.32-7.92,2.7-8.74a1.42,1.42,0,0,1,1.8.3,3.24,3.24,0,0,1,.21,4,.71.71,0,1,0,1.22.71,4.61,4.61,0,0,0-.43-5.7,2.84,2.84,0,0,0-3.53-.52c-2.38,1.43-3.23,8.43-3.38,9.81a.71.71,0,0,0,.63.78A.76.76,0,0,0,206.3,174.68Z"/><path class="cls-11" d="M204.32,175a2,2,0,1,0,1.49-2.19A1.88,1.88,0,0,0,204.32,175Z"/><path class="cls-34" d="M781.32,129.78c-1-.51-5.6,3.09-6.32,3.67-2.78,2.23-5.17,5.81-2.18,8.71,3.25,3.16,7.94-.74,9.59.46,4.22,3.07-3.82,16.27,10.68,12.35,9.11-3.16-2.94-20.77-2.94-20.77Z"/><path class="cls-34" d="M782.32,128.79c-.94-.64,0-6.39.14-7.3.6-3.52,2.57-7.34,6.56-6.13,4.35,1.31,3.21,7.3,5.05,8.16,4.73,2.21,12.39-11.22,16,3.35,1.65,9.51-19.59,7.5-19.59,7.5Z"/><path class="cls-35" d="M781.32,129.78c-1-.51-5.6,3.09-6.32,3.67-2.78,2.23-5.17,5.81-2.18,8.71,3.25,3.16,7.94-.74,9.59.46,4.22,3.07-3.82,16.27,10.68,12.35,9.11-3.16-2.94-20.77-2.94-20.77Z"/><path class="cls-35" d="M782.32,128.79c-.94-.64,0-6.39.14-7.3.6-3.52,2.57-7.34,6.56-6.13,4.35,1.31,3.21,7.3,5.05,8.16,4.73,2.21,12.39-11.22,16,3.35,1.65,9.51-19.59,7.5-19.59,7.5Z"/><path class="cls-11" d="M777.3,126.54l.19.18c.12.11.29.29.53.5.46.42,1.14,1,2,1.66s1.83,1.38,2.93,2.11c.54.37,1.11.74,1.7,1.1s1.19.72,1.8,1.08,1.21.69,1.83,1,1.21.63,1.8.93c1.18.58,2.31,1.08,3.29,1.48s1.83.7,2.43.88c.29.11.54.17.7.22l.25.06-.18-.18c-.13-.12-.3-.3-.54-.5-.46-.43-1.14-1-2-1.66s-1.84-1.38-2.93-2.11c-.55-.37-1.12-.74-1.71-1.1s-1.19-.72-1.79-1.08-1.22-.69-1.83-1l-1.81-.92c-1.18-.59-2.31-1.09-3.29-1.49s-1.83-.69-2.43-.88c-.29-.11-.54-.17-.7-.22Z"/><path class="cls-11" d="M778.35,127a.36.36,0,0,0,0-.11.6.6,0,0,0-.52-.67c-.86-.1-8.4-.93-10.28,1.79a3,3,0,0,0,.09,3.28c1.12,2.13,2.21,3.12,3.36,3,1.55-.14,2.27-2.29,2.34-2.53A.6.6,0,0,0,773,131a.59.59,0,0,0-.75.4c-.17.53-.71,1.63-1.31,1.69-.27,0-1-.16-2.18-2.38-.68-1.3-.3-1.86-.17-2,1.11-1.6,6.19-1.63,9.14-1.27A.62.62,0,0,0,778.35,127Z"/><path class="cls-11" d="M777.67,126.81a.62.62,0,0,0-.2-.66c-2-1.55-5.11-4.52-5.08-5.89a1.2,1.2,0,0,1,1-1.16,2.72,2.72,0,0,1,3,1.65.6.6,0,0,0,1.07-.56,3.94,3.94,0,0,0-4.31-2.27,2.42,2.42,0,0,0-2,2.31c-.05,2.36,4.6,6.14,5.53,6.87a.61.61,0,0,0,.85-.1A.87.87,0,0,0,777.67,126.81Z"/><path class="cls-11" d="M779.62,128.62a1.71,1.71,0,1,0-2.25,0A1.59,1.59,0,0,0,779.62,128.62Z"/><path class="cls-34" d="M542.61,169.5a86.4,86.4,0,0,0,26.9,4.26c47.38,0,85.92-38.23,85.92-85.22S616.89,3.32,569.51,3.32a85.87,85.87,0,0,0-49,15.24c-5.53,3.81.39,12.37,5.91,8.56a75.53,75.53,0,0,1,43.13-13.39c41.64,0,75.52,33.56,75.52,74.81s-33.88,74.82-75.52,74.82A76,76,0,0,1,544.1,159a5.18,5.18,0,0,0-3.83.14l-25.85,11.38V141.75a5.18,5.18,0,0,0-1.33-3.48,74.28,74.28,0,0,1-5.15-93.06c3.92-5.45-4.53-11.53-8.45-6.08A84.68,84.68,0,0,0,504,143.7v34.82a5.26,5.26,0,0,0,7.31,4.76l31.29-13.78Zm0,0"/><path class="cls-34" d="M565.83,94.31a3.7,3.7,0,0,1-3.75,3.75H537.9a3.79,3.79,0,0,1-2.73-6.55L555.38,73.2a8.84,8.84,0,0,0-11.2-13.65c-1.51,1.09-2.76,3.06-4.69,3.39a3.79,3.79,0,0,1-4.18-2.51c-.95-2.72,1.38-4.36,3.13-5.94a16.15,16.15,0,0,1,11-4.24,16.46,16.46,0,0,1,12.16,5.4,16.11,16.11,0,0,1,4.23,11,16.43,16.43,0,0,1-5.39,12.15L547.53,90.48h14.55a3.76,3.76,0,0,1,3.75,3.83Zm0,0"/><path class="cls-34" d="M604.29,85.36a3.76,3.76,0,0,1-3.83,3.76h-.68v5.19a3.76,3.76,0,0,1-7.51,0V89.12H570.89A3.77,3.77,0,0,1,567.81,83c.87-1.09,25-31.14,25.27-31.42a6.93,6.93,0,0,1,.82-.72A3.79,3.79,0,0,1,599.78,54V81.6h.68a3.81,3.81,0,0,1,3.83,3.76Zm-12-20.63L578.67,81.6h13.6Zm0,0"/><text class="cls-42" transform="translate(533.96 122.53)">hours</text><ellipse class="cls-11" cx="427.53" cy="391.07" rx="1.26" ry="2.08"/><ellipse class="cls-11" cx="444.68" cy="391.07" rx="1.26" ry="2.08"/><path class="cls-43" d="M436.79,391.51c.34,2-.54,4-1.4,5.87l-2,4.26a.62.62,0,0,0-.08.35.59.59,0,0,0,.24.3,20.2,20.2,0,0,0,4.18,2.58"/><ellipse class="cls-11" cx="661.69" cy="287.09" rx="1.26" ry="2.08"/><ellipse class="cls-11" cx="676.19" cy="282.34" rx="1.26" ry="2.08"/><path class="cls-44" d="M668.77,286.24l.11,2.38a8.12,8.12,0,0,1-.2,2.76,5,5,0,0,1-1.51,2.1,14.62,14.62,0,0,1,4.92,1.82"/><ellipse class="cls-11" cx="339.78" cy="178.53" rx="1.26" ry="2.08"/></g></g></svg>