<?xml version="1.0" encoding="utf-8"?>
<!-- Generator: Adobe Illustrator 24.0.0, SVG Export Plug-In . SVG Version: 6.00 Build 0)  -->
<svg version="1.1" id="Layer_1" xmlns="http://www.w3.org/2000/svg" xmlns:xlink="http://www.w3.org/1999/xlink" x="0px" y="0px"
	 viewBox="0 0 940.83 895.36" style="enable-background:new 0 0 940.83 895.36;" xml:space="preserve">
<style type="text/css">
	.st0{fill:#F47522;}
	.st1{fill:#1A345F;}
	.st2{fill:#9DBA99;}
	.st3{fill:#FAB685;}
	.st4{opacity:0.32;fill:#FFFFFF;}
	.st5{fill:#E2E6F2;}
	.st6{fill:#292F4A;}
	.st7{fill:#56867C;}
	.st8{fill:#E38C4D;}
	.st9{fill:#FFFFFF;}
	.st10{opacity:0.37;fill:#5D5D5D;}
	.st11{fill:#CDCECF;}
	.st12{fill:#7D7D7D;}
	.st13{fill:#F2F2F2;}
	.st14{fill:#9AA5D6;}
	.st15{clip-path:url(#SVGID_2_);fill:#93A890;}
	.st16{opacity:0.62;clip-path:url(#SVGID_2_);fill:#93A890;}
	.st17{clip-path:url(#XMLID_9_);fill:#93A890;}
	.st18{clip-path:url(#XMLID_10_);fill:#93A890;}
	.st19{opacity:0.62;clip-path:url(#XMLID_10_);fill:#93A890;}
	.st20{clip-path:url(#XMLID_11_);fill:#93A890;}
	.st21{clip-path:url(#SVGID_4_);fill:#93A890;}
	.st22{clip-path:url(#XMLID_12_);fill:#93A890;}
	.st23{opacity:0.37;clip-path:url(#XMLID_12_);fill:#93A890;}
	.st24{clip-path:url(#SVGID_6_);fill:#6E7D6A;}
	.st25{clip-path:url(#SVGID_6_);fill:#93A890;}
	.st26{clip-path:url(#XMLID_13_);fill:#93A890;}
	.st27{opacity:0.37;clip-path:url(#XMLID_13_);fill:#93A890;}
	.st28{clip-path:url(#XMLID_14_);fill:#93A890;}
	.st29{clip-path:url(#XMLID_15_);fill:#93A890;}
	.st30{fill:#CA664F;}
	.st31{opacity:0.41;fill:#CA664F;}
	.st32{opacity:0.37;fill:#CA664F;}
	.st33{fill:none;stroke:#CA664F;stroke-width:1.3371;stroke-linecap:round;stroke-miterlimit:10;}
	.st34{fill:#A67D67;}
	.st35{fill:#749EB5;}
	.st36{font-family:'Multicolore';}
	.st37{font-size:16.0117px;}
	.st38{fill:#1A345F;stroke:#1A345F;stroke-width:2;stroke-miterlimit:10;}
	.st39{fill:none;}
</style>
<g>
	<g>
		<path class="st2" d="M645.76,265.53c0,0-19.21-27.7-10.21-27.24s10.32,26.53,10.32,26.53s-8.59-46.41-0.05-43.37
			c8.53,3.04-0.05,43.37-0.05,43.37V265.53z"/>
		<g>
			<path class="st3" d="M689.7,544.44C574.91,613.77,461.25,624,422.61,624c-7.1,21.33,0.37,82.1-17.14,94.87
				c-11.25,8.21-39.23,7.92-53.03,10.33c-31.06,5.44-62.46,10.27-93.98,12.05c-15.69,0.89-16.3,16.44-30.31,6.64
				c-28.56-20-8.81-123.92,0.71-149.85c11.03-30.03,6.62-35.78,4.36-68.55c-2.72-39.32,32.81-83.81,51.69-117.33
				c18.64-33.07,14.34-70.07,5.45-101.52c-1.46-5.18-3.06-10.21-4.69-15.04l0,0c-10.05-29.76-21.72-52.21-15.95-57.51
				c0.3-0.27,0.6-0.54,0.89-0.8c59.57-52.72,91.41,112.64,105.23,186.62c52.9,0.9,104.62-10.36,146.79-41.6
				c50.13-37.14,167.15-181.12,191.96-168.43c24.14,12.34-69.21,152.47-114.69,185.08c27.46-5.2,193.68-179.4,213.95-176.19
				c42.74,6.77-115.11,200.06-173.03,224.92c45.8-15.34,202.91-152.69,224.78-136.23c26.5,19.95-124.86,157.42-183.48,181.44
				c40.11,0,151.81-101.88,184.41-101.88C916.73,391.03,766.17,522.3,689.7,544.44z"/>
			<path class="st4" d="M285.68,295.6L285.68,295.6c-10.05-29.76-21.72-52.22-15.96-57.51c0.3-0.27,0.6-0.54,0.89-0.8
				C277.62,251.85,296.73,288.45,285.68,295.6z"/>
			<polygon class="st5" points="420.18,664.22 414.39,800.1 149.66,800.1 166.62,644.98 			"/>
			<polygon class="st6" points="422.62,722.43 420.14,800.1 129.84,800.1 141.08,699.55 			"/>
			
				<ellipse transform="matrix(0.7071 -0.7071 0.7071 0.7071 -423.1609 335.1893)" class="st6" cx="193.03" cy="678.4" rx="13.22" ry="13.22"/>
		</g>
		<g>
			<path class="st7" d="M347.82,551.12c0,0-36-13.48-30.29-22.05C330.88,509.06,347.82,551.12,347.82,551.12z"/>
			<path class="st7" d="M347.59,551.06c0,0-18.05-43.96,0-43.96S347.59,551.06,347.59,551.06z"/>
		</g>
		<path class="st8" d="M329,473.2c-0.24,0-0.46-0.13-0.59-0.35c-0.18-0.32-0.06-0.73,0.26-0.91l0.8-0.44
			c22.63-12.46,38.98-21.46,45.72-47.75c0.09-0.36,0.46-0.57,0.81-0.48c0.36,0.09,0.57,0.46,0.48,0.81
			c-6.89,26.85-23.45,35.97-46.37,48.59l-0.8,0.44C329.22,473.17,329.11,473.2,329,473.2z"/>
		<path class="st8" d="M314.22,620.93c-0.36,0-0.66-0.28-0.67-0.65c-0.57-26.29,7.41-47.12,23.72-61.93
			c18.28-16.6,46.99-25.43,85.33-26.26c0.38-0.01,0.68,0.29,0.68,0.66c0.01,0.37-0.28,0.68-0.65,0.68
			c-38.01,0.82-66.43,9.54-84.46,25.92c-16.01,14.53-23.84,35.02-23.28,60.91c0.01,0.37-0.28,0.67-0.65,0.67
			C314.23,620.93,314.23,620.93,314.22,620.93z"/>
		<path class="st8" d="M815.34,448.89c-0.1,0-0.2-0.02-0.3-0.07c-13.63-6.78-13.79-17.54-13.79-17.99c0-0.37,0.3-0.67,0.67-0.67
			c0.37,0,0.67,0.3,0.67,0.67l0,0c0,0.1,0.19,10.4,13.05,16.8c0.33,0.16,0.47,0.57,0.3,0.9
			C815.82,448.75,815.58,448.89,815.34,448.89z M802.59,430.73L802.59,430.73L802.59,430.73z"/>
		<path class="st8" d="M793.33,380.74c-0.14,0-0.29-0.05-0.41-0.14c-6.88-5.37-9.47-16.93-9.53-23.39c0-0.37,0.29-0.69,0.66-0.69
			c0,0,0,0,0.01,0c0.37,0,0.66,0.31,0.67,0.68c0.06,6.19,2.51,17.26,9.01,22.34c0.29,0.23,0.34,0.65,0.12,0.94
			C793.72,380.64,793.52,380.74,793.33,380.74z"/>
		<path class="st8" d="M761.04,292.66c-0.07,0-0.14-0.01-0.21-0.04c-13.39-4.51-15.07-14.09-15.22-15.17
			c-0.05-0.37,0.21-0.7,0.57-0.75c0.37-0.05,0.7,0.21,0.75,0.57c0.14,0.99,1.7,9.83,14.32,14.08c0.35,0.12,0.54,0.5,0.42,0.85
			C761.58,292.48,761.32,292.66,761.04,292.66z"/>
		<path class="st8" d="M669.2,277.96c-0.08,0-0.16-0.01-0.24-0.04c-10.34-3.89-15.9-13.69-17.4-18.34
			c-0.11-0.35,0.08-0.73,0.43-0.84c0.35-0.11,0.73,0.08,0.84,0.43c1.66,5.15,7.45,14.05,16.6,17.49c0.35,0.13,0.52,0.52,0.39,0.86
			C669.73,277.8,669.47,277.96,669.2,277.96z"/>
		<g>
			<g>
				<g>
					<path class="st6" d="M421.46,414.49c0,13.39-12.87,24.24-28.74,24.24c-20.7,0-28.1-22.76-30.48-35.54
						c0-13.39,14.61-12.94,30.48-12.94C408.6,390.25,421.46,414.49,421.46,414.49z"/>
					<g>
						<polygon class="st3" points="566.61,337.88 550.88,345.74 557.81,323.67 572.03,319.85 						"/>
						<path class="st9" d="M592.09,294.29c-7.75,11-11.98,19.55-20.06,25.56c0,0-4.02,13.93-5.42,18.03
							c1.21,2.43,5.54,3.21,8.61,3.03c1.63-0.09,3.05-0.95,3.77-2.3l22.39-41.51c0.92-1.71-0.89-3.45-3.13-4.39
							C596.11,291.81,593.33,292.53,592.09,294.29z"/>
						<path class="st6" d="M382.02,395.29l80.58-55.97l5.29-4.05l3.91-0.13l86.01-11.47l-6.93,23.07
							c-12.75,6.68-50.27,15.83-65.37,15.55c-9.96,22.13-68.63,72.88-78.65,72.84S382.02,395.29,382.02,395.29z"/>
						<path class="st10" d="M382.02,395.29l80.58-55.97l5.29-4.05l3.91-0.13l86.01-11.47l-6.93,23.07
							c-12.75,6.68-50.27,15.83-65.37,15.55c-9.96,22.13-68.63,72.88-78.65,72.84S382.02,395.29,382.02,395.29z"/>
					</g>
					<g>
						<polygon class="st3" points="576.3,342.22 560.58,350.08 567.5,328.01 581.72,324.19 						"/>
						<path class="st8" d="M567.5,328.68c-0.3,0-0.57-0.2-0.65-0.5c-0.1-0.36,0.12-0.72,0.47-0.82l13.45-3.6
							c0.36-0.1,0.72,0.12,0.82,0.47c0.1,0.36-0.12,0.72-0.47,0.82l-13.45,3.6C567.62,328.68,567.56,328.68,567.5,328.68z"/>
						<path class="st8" d="M560.58,350.75c-0.25,0-0.48-0.14-0.6-0.37c-0.17-0.33-0.03-0.73,0.3-0.9l15.73-7.86
							c0.33-0.17,0.73-0.03,0.9,0.3c0.17,0.33,0.03,0.73-0.3,0.9l-15.73,7.86C560.78,350.73,560.68,350.75,560.58,350.75z"/>
						<path class="st9" d="M601.78,298.64c-7.75,11-11.98,19.55-20.06,25.56c0,0-4.02,13.93-5.42,18.03
							c1.21,2.43,5.54,3.21,8.61,3.03c1.63-0.09,3.05-0.95,3.77-2.3l22.39-41.51c0.92-1.71-0.89-3.45-3.13-4.39
							C605.8,296.15,603.02,296.87,601.78,298.64z"/>
						<path class="st11" d="M581.72,324.86c-0.2,0-0.41-0.09-0.54-0.27c-0.22-0.3-0.16-0.72,0.14-0.94
							c5.92-4.4,9.72-10.15,14.52-17.44c1.67-2.53,3.4-5.15,5.39-7.97c0.21-0.3,0.63-0.37,0.93-0.16c0.3,0.21,0.37,0.63,0.16,0.93
							c-1.97,2.8-3.7,5.41-5.36,7.94c-4.88,7.39-8.73,13.23-14.84,17.77C582,324.82,581.86,324.86,581.72,324.86z"/>
						<path class="st6" d="M391.71,399.64l80.58-55.97l5.29-4.05l3.91-0.13l86.01-11.47l-6.93,23.07
							c-12.75,6.68-50.27,15.83-65.37,15.55c-9.96,22.13-83.62,76.4-106.69,72.09C359.45,434.04,391.71,399.64,391.71,399.64z"/>
					</g>
					<path class="st5" d="M396.71,282.77c0,0,14.99,95.6,14.99,104.03c0,8.43-38.87,46.16-41.05,40.45
						c-8.77-4.53-40.86-131.76-8.4-154.7C383.59,257.46,396.71,282.77,396.71,282.77z"/>
				</g>
				<path class="st3" d="M361.01,225.91c-3.88,16.49,4.48,28.1,18.04,31.5c7.62,2.85,15.5,1.16,20.83-4.41
					c4.58-4.78,3.26-15.17,4.66-24.83c7-18.87-2.23-25.78-15.67-28.94C375.44,196.06,364.9,209.42,361.01,225.91z"/>
				<polygon class="st3" points="392.73,276.56 362.25,272.54 370.33,246.16 391.76,248.99 				"/>
				<path class="st5" d="M363.26,259.96c1.13,1.99,27.07,8.91,32.4,8.55l3.03,14.25c0,0-42.5-2.34-43.71-6.52
					C353.77,272.06,362.13,257.97,363.26,259.96z"/>
				<path class="st11" d="M396.72,283.32c-0.01,0-0.03,0-0.04,0c-7.37-0.46-32.03-2.17-39.7-4.96c-0.35-0.13-0.53-0.51-0.4-0.86
					c0.13-0.35,0.51-0.53,0.86-0.4c7.51,2.73,32,4.43,39.33,4.89c0.37,0.02,0.65,0.34,0.63,0.71
					C397.36,283.04,397.07,283.32,396.72,283.32z"/>
				<g>
					<path class="st6" d="M351.17,245.85c0.26,1.2,0.78,2.54,2.78,3.52c1.55,0.76,3.62,1.12,5.58,1.44
						c9.84,1.62,19.69,3.23,29.53,4.85c-1.56-4.25-4.8-8.9-6.35-13.16c-0.21-0.56-22.84-6.21-22.84-6.21S350.51,242.8,351.17,245.85
						z"/>
					<path class="st6" d="M359.93,236c-0.98-1.15-0.82-4.57-0.95-5.96c-0.36-3.68-0.49-7.38-0.32-11.08
						c0.49-10.54,7.96-16.76,17.02-20.56c6.68-2.8,14.72-2.69,20.85,1.14c2.68,1.68,10.95,8.28,11.5,11.4
						c0.83,4.73-8.48,4.97-9.84,9.57c-0.75,2.53-0.91,5.29-2.23,7.58c-1.63,2.82-4.7,4.4-7.44,6.16c-2.74,1.76-5.56,4.68-5.79,7.93
						L359.93,236z"/>
					<path class="st6" d="M390.11,235.3c-0.52,1.17-0.78,2.47-0.89,3.76c-0.23,2.66,0.1,5.36,0.95,7.89
						c0.85,2.53,2.91,4.65,2.87,7.39c-0.02,1.21-0.12,2.61,0.75,3.45c0.4,0.39,0.95,0.59,1.48,0.77c2.79,0.97,9.1,0.83,9.01,0.05
						c-0.39-3.57-1.02-7.27-4.01-9.86c-1.9-1.65-3.81-3.44-4.82-5.79c-0.55-1.28-0.51-2.31-0.59-3.63c-0.1-1.68-0.72-3.35-1.03-4.99
						c-0.11-0.59-0.28-1.26-0.83-1.51c-0.65-0.3-1.39,0.2-1.84,0.75C390.73,234.1,390.38,234.68,390.11,235.3z"/>
					<path class="st9" d="M402.97,245.81c-1.81-1.43-3.08-3.52-3.53-5.78c1.16,0.74,2.68,1.28,4.04,1.52
						c0.12,1.48-0.21,2.93-0.55,4.37c0.06-0.26,0.13-0.51,0.19-0.77L402.97,245.81z"/>
					<path class="st3" d="M406.83,238.25c0.41,0.88-2.7,0.39-3.46,0.24c-1.32-0.27-1.56-7.12-0.19-7.06
						C404.28,231.49,405.06,234.4,406.83,238.25z"/>
					<path class="st6" d="M374.93,187.86c-3.84-2.22-8.92-1.5-12.46,1.19c-0.62,0.47-1.18,0.99-1.69,1.57
						c-1.81,2.06-2.94,4.98-2.06,7.58C363.21,211.38,386.54,194.59,374.93,187.86z"/>
				</g>
				<g>
					<path class="st12" d="M414.25,334.81h112.1c1,0,1.82-0.82,1.82-1.82l0,0c0-1-0.82-1.82-1.82-1.82h-112.1
						c-1,0-1.82,0.82-1.82,1.82l0,0C412.43,333.99,413.25,334.81,414.25,334.81z"/>
					<path class="st6" d="M450.95,330.94l75.82,0c4,0.02,8.12-3.95,9.25-8.83l13.08-56.24c1.15-4.94-1.13-9.01-5.16-9.03
						l-76.17-0.91c-4.03-0.02-8.73,4.48-9.83,9.43l-12.53,56.27C444.32,326.51,446.95,330.92,450.95,330.94z"/>
					<path class="st13" d="M450.55,325.61c-0.05-0.4-0.04-0.97,0.12-1.66l12.65-56.08c0.34-1.52,1.34-3.19,2.66-4.45
						c1.49-1.42,2.72-1.74,3.08-1.74l75.03,0.83c-0.01,0.29-0.06,0.64-0.15,1.05l-12.97,56.41c-0.79,3.44-3.65,5.71-5.2,5.71
						L450.55,325.61z"/>
					<g>
						<path class="st6" d="M507.24,334.66c0.27-0.27,0.55-2.35-0.01-3.12c-0.01-0.02-0.02-0.09-0.02-0.09h-93.85
							c-0.91,0-1.65,0.76-1.65,1.67s0.74,1.67,1.65,1.67h93.87C507.2,334.79,507.2,334.69,507.24,334.66z"/>
						<path class="st10" d="M507.24,334.66c0.27-0.27,0.55-2.35-0.01-3.12c-0.01-0.02-0.02-0.09-0.02-0.09h-93.85
							c-0.91,0-1.65,0.76-1.65,1.67s0.74,1.67,1.65,1.67h93.87C507.2,334.79,507.2,334.69,507.24,334.66z"/>
						<path class="st11" d="M501.69,335.46H470.6c-0.37,0-0.67-0.3-0.67-0.67c0-0.37,0.3-0.67,0.67-0.67h31.09
							c0.37,0,0.67,0.3,0.67,0.67C502.36,335.16,502.06,335.46,501.69,335.46z"/>
						<path class="st6" d="M528.76,331.45h-21.31c0.56,1,0.33,3.01-0.04,3.34h21.35c0.91,0,1.65-0.76,1.65-1.67
							S529.67,331.45,528.76,331.45z"/>
						<path class="st11" d="M530.38,333.79c-0.37,0-0.67-0.3-0.67-0.67c0-0.55-0.42-1-0.94-1c-0.37,0-0.67-0.3-0.67-0.67
							c0-0.37,0.3-0.67,0.67-0.67c1.26,0,2.28,1.05,2.28,2.34C531.04,333.49,530.74,333.79,530.38,333.79z"/>
						<path class="st11" d="M528.76,335.46c-0.37,0-0.67-0.3-0.67-0.67c0-0.37,0.3-0.67,0.67-0.67c0.53,0,0.98-0.46,0.98-1
							c0-0.37,0.3-0.67,0.67-0.67s0.67,0.3,0.67,0.67C531.08,334.41,530.04,335.46,528.76,335.46z"/>
						<path class="st11" d="M528.77,335.46h-21.39c-0.37,0-0.67-0.3-0.67-0.67c0-0.37,0.3-0.67,0.67-0.67h21.39
							c0.37,0,0.67,0.3,0.67,0.67C529.43,335.16,529.13,335.46,528.77,335.46z"/>
						<g>
							<path class="st11" d="M507.24,334.82c0.02,0.02,0.05,0.03,0.08,0.03c0.03,0,0.06-0.01,0.08-0.03c0,0,0.01-0.01,0.01-0.02
								h-0.18C507.23,334.81,507.23,334.82,507.24,334.82z"/>
							<path class="st11" d="M507.45,331.45h-0.04c0,0,0-0.01-0.01-0.01c-0.04-0.05-0.11-0.06-0.16-0.02
								c-0.01,0.01-0.02,0.02-0.03,0.03h-0.01c0,0,0.01,0.06,0.01,0.07c0.56,0.77,0.28,2.84,0.01,3.11
								c-0.04,0.04-0.04,0.16-0.01,0.16h0.18C507.78,334.45,508,332.45,507.45,331.45z"/>
							<path class="st11" d="M507.21,331.45L507.21,331.45c0,0,0,0.02,0,0.01C507.21,331.44,507.21,331.45,507.21,331.45z"/>
						</g>
						<g>
							<g>
								
									<rect x="483.43" y="288.06" transform="matrix(0.0406 -0.9992 0.9992 0.0406 151.3457 783.6769)" class="st14" width="0.67" height="49.93"/>
								
									<rect x="494.58" y="271.28" transform="matrix(0.0351 -0.9994 0.9994 0.0351 172.4025 789.2173)" class="st14" width="0.67" height="68.1"/>
								
									<rect x="492.02" y="267.99" transform="matrix(0.0299 -0.9996 0.9996 0.0299 180.2917 780.7346)" class="st14" width="0.67" height="59"/>
								
									<rect x="498.5" y="255.72" transform="matrix(0.0245 -0.9997 0.9997 0.0245 197.0766 781.2444)" class="st14" width="0.67" height="67.85"/>
								
									<rect x="490.67" y="257.47" transform="matrix(0.0191 -0.9998 0.9998 0.0191 200.155 767.0655)" class="st14" width="0.67" height="48.1"/>
								
									<rect x="486.25" y="256.23" transform="matrix(0.014 -0.9999 0.9999 0.014 205.8914 756.6302)" class="st14" width="0.67" height="35.38"/>
							</g>
							<polygon class="st14" points="533.33,286.76 520.85,286.76 524.87,270.05 537.35,270.05 							"/>
						</g>
					</g>
				</g>
				<path class="st3" d="M491.6,329.76c-1.57-4.13-16.13-13-24.13-9.97c-8,3.04-13.22,8.84-11.65,12.97
					c6.24,10.92,9.32,2.5,17.32-0.54C481.14,329.19,493.17,333.89,491.6,329.76z"/>
				<path class="st5" d="M382.65,292.79c6.5,4.59,30.73,55.14,30.73,55.14l44.26-23.88l9.97,17.03c0,0-39.73,26.71-49.95,28.85
					c-10.22,2.14-10.22,2.14-14.26-1.19c-14.42-11.89-46.54-40.43-45.86-58.33C358.41,287.36,376.15,288.2,382.65,292.79z"/>
				<path class="st11" d="M408.83,372.09c-2.43,0-3.56-0.93-5.86-2.82c-7.8-6.43-19.11-16.33-28.67-26.98
					c-11.87-13.23-17.74-23.96-17.44-31.89c0.46-12.19,5.54-17.21,9.72-19.27c5.74-2.84,12.62-1.58,16.45,1.12
					c3.1,2.19,10.2,14.15,21.1,35.53c0.17,0.33,0.04,0.73-0.29,0.9c-0.33,0.17-0.73,0.04-0.9-0.29
					c-10.49-20.59-17.84-33.04-20.68-35.05c-3.42-2.42-9.87-3.59-15.08-1.02c-3.85,1.9-8.54,6.59-8.98,18.12
					c-0.67,17.66,31.68,46.3,45.62,57.79c2.54,2.1,3.31,2.73,6.08,2.46c0.37-0.04,0.69,0.23,0.73,0.6c0.04,0.37-0.23,0.69-0.6,0.73
					C409.59,372.07,409.2,372.09,408.83,372.09z"/>
			</g>
		</g>
		<g>
			<g>
				<g>
					<defs>
						<path id="SVGID_1_" d="M665.76,444.88c0,0-72.48-81.89-107.49-65.75c-32.21,14.85,82.12,69.8,100.57,78.48
							c1.27-1.12,2.57-2.2,3.86-3.17L665.76,444.88z"/>
					</defs>
					<clipPath id="SVGID_2_">
						<use xlink:href="#SVGID_1_"  style="overflow:visible;"/>
					</clipPath>
					<path class="st15" d="M665.76,444.88c0,0-72.48-81.89-107.49-65.75c-32.21,14.85,82.12,69.8,100.57,78.48
						c1.27-1.12,2.57-2.2,3.86-3.17L665.76,444.88z"/>
					<path class="st15" d="M675.76,461.69l-0.85-1.44c-0.25,0.15-0.3,0.45-0.26,0.57c-0.41-1.22-7.65-8-65.77-44.5
						c-31.95-20.07-64.03-39.53-64.35-39.73l0.87-1.43c0.33,0.2,33.01,20.04,65.28,40.31c65.66,41.26,65.64,44.06,65.63,45.26
						C676.3,461.14,676.1,461.49,675.76,461.69z"/>
					<path class="st16" d="M613.38,396.85c-2.84,0.84-5.68,1.77-8.52,2.69c-5.13,1.78-11.12,4.93-15.83,2.24
						c-0.62-0.15-1.84,0.72-2.23,0.52c-0.06-0.28-0.26-1.11-0.26-1.11c-3.65,0.56-7.58,1.19-10.99,2.86
						c-2.23,1.06-4.46,1.84-6.7,2.46c26.72,20.87,78.14,45.53,89.99,51.11c1.27-1.12,2.57-2.2,3.87-3.17l3.05-9.56
						C665.76,444.88,640.97,416.87,613.38,396.85z"/>
				</g>
			</g>
			<g>
				<defs>
					<path id="XMLID_3_" d="M662.93,447.93c0,0-86.65-176.04-39.27-156.14c47.37,19.9,60.52,150.73,60.52,150.73L662.93,447.93z"/>
				</defs>
				<use xlink:href="#XMLID_3_"  style="overflow:visible;fill:#93A890;"/>
				<clipPath id="XMLID_9_">
					<use xlink:href="#XMLID_3_"  style="overflow:visible;"/>
				</clipPath>
				<path class="st17" d="M676.76,453.61l-1.64,0.31c-3.53-18.72-17.15-60.42-33.19-101.72c-18.03-46.44-33.92-78.9-42.5-86.82
					l1.13-1.24c12.62,11.65,34.22,65.05,42.92,87.46C659.55,392.98,673.23,434.88,676.76,453.61z"/>
			</g>
			<g>
				<defs>
					<path id="XMLID_2_" d="M656.37,460.41c0,0-127.92-140.59-74.43-135c53.49,5.59,89.19,127.08,89.19,127.08L656.37,460.41z"/>
				</defs>
				<use xlink:href="#XMLID_2_"  style="overflow:visible;fill:#93A890;"/>
				<clipPath id="XMLID_10_">
					<use xlink:href="#XMLID_2_"  style="overflow:visible;"/>
				</clipPath>
				<path class="st18" d="M676.49,477.07c-3.72-11.79-26.35-46.62-60.53-93.15c-31.22-42.5-56.2-73.1-59.08-73.97
					c0,0,0.11,0.03,0.26-0.02l-0.5-1.59c0.85-0.27,2.26-0.71,20.44,21.91c11.04,13.74,25.29,32.39,39.12,51.17
					c13.09,17.78,56.23,77.19,61.9,95.15L676.49,477.07z"/>
				<path class="st19" d="M604.72,388.37c-2.69-0.01-5.37-0.03-7.66-0.35c25.58,35.31,59.3,72.39,59.3,72.39l14.76-7.93
					c0,0-10.72-36.46-29.2-70.35C629.15,383.12,617.56,387.55,604.72,388.37z"/>
			</g>
			<g>
				<defs>
					<path id="XMLID_4_" d="M674.39,445.3c0,0,30.16-164,54.82-121.38c13.61,32.6-47.19,124.1-47.19,124.1L674.39,445.3z"/>
				</defs>
				<use xlink:href="#XMLID_4_"  style="overflow:visible;fill:#93A890;"/>
				<clipPath id="XMLID_11_">
					<use xlink:href="#XMLID_4_"  style="overflow:visible;"/>
				</clipPath>
				<path class="st20" d="M676.16,459.8l-1.49-0.76c11.13-21.68,54.77-162.21,55.21-163.63l1.6,0.5
					C731.04,297.33,687.35,438,676.16,459.8z"/>
			</g>
			<g>
				<defs>
					<path id="SVGID_3_" d="M692.52,457.61c0,0,29.26-87.95,57.36-59.85c28.1,28.1-43.07,68.44-43.07,68.44L692.52,457.61z"/>
				</defs>
				<clipPath id="SVGID_4_">
					<use xlink:href="#SVGID_3_"  style="overflow:visible;"/>
				</clipPath>
				<path class="st21" d="M692.52,457.61c0,0,29.26-87.95,57.36-59.85c28.1,28.1-43.07,68.44-43.07,68.44L692.52,457.61z"/>
				<path class="st21" d="M688.86,477.91l-1.4-0.91c7.57-11.71,25.53-35.54,43.88-56.62c9.71-11.15,18.03-19.81,24.73-25.74
					c8.14-7.21,13.55-10.06,16.53-8.71l-0.69,1.52c-4.34-1.97-19.04,10.75-39.31,34.03C714.29,442.51,696.4,466.25,688.86,477.91z"
					/>
			</g>
		</g>
		<g>
			<g>
				<defs>
					<path id="XMLID_5_" d="M489.11,502.17c0,0-6.12-194.64,21.63-166.89c27.75,27.75-5.29,186.65-5.29,186.65L489.11,502.17z"/>
				</defs>
				<use xlink:href="#XMLID_5_"  style="overflow:visible;fill:#8FA38B;"/>
				<clipPath id="XMLID_12_">
					<use xlink:href="#XMLID_5_"  style="overflow:visible;"/>
				</clipPath>
				
					<rect x="373.39" y="430.65" transform="matrix(0.0949 -0.9955 0.9955 0.0949 25.507 891.0354)" class="st22" width="258.76" height="1.67"/>
				<path class="st23" d="M511.72,414.56c-2.67-0.85-4.41-2.84-6.69-4.55c-0.57-0.28-1.64,0.28-2.21,0
					c-2.56-2.56-5.93-3.98-9.06-4.83c-1.14-0.28-2.54-1.14-2.26-3.13c-0.52-0.05-1.09-0.05-1.7-0.03
					c-2.38,46.84-0.7,100.14-0.7,100.14l16.34,19.76c0,0,10.41-50.73,14.58-99.86c-2.55-2.24-5.31-4.37-8.32-6.36
					C511.72,415.42,511.72,414.85,511.72,414.56z"/>
			</g>
			<g>
				<defs>
					<path id="SVGID_5_" d="M474.75,516.75c0,0-49.01-202.51-13.31-189.88c35.71,12.63,27.27,187.64,27.27,187.64L474.75,516.75z"/>
				</defs>
				<clipPath id="SVGID_6_">
					<use xlink:href="#SVGID_5_"  style="overflow:visible;"/>
				</clipPath>
				<path class="st24" d="M474.75,516.75c0,0-49.01-202.51-13.31-189.88c35.71,12.63,27.27,187.64,27.27,187.64L474.75,516.75z"/>
				<path class="st25" d="M488.95,573.06l-1.61-0.45c2.29-8.14-5.02-75.93-13.43-138.7c-4.55-33.96-9.27-65.46-13.28-88.7
					c-6.4-37.05-8.98-41.31-9.62-41.73c0,0,0.01,0.01,0.04,0.02l0.55-1.58c1.02,0.36,3.4,1.2,10.46,41.78
					c4.02,23.12,8.76,54.69,13.36,88.9C483.68,494.06,491.43,564.25,488.95,573.06z"/>
			</g>
			<g>
				<defs>
					<path id="XMLID_6_" d="M458.24,527.31c0,0-76.73-168.17-39.22-162.21s53.79,156.86,53.79,156.86L458.24,527.31z"/>
				</defs>
				<use xlink:href="#XMLID_6_"  style="overflow:visible;fill:#7B8C78;"/>
				<clipPath id="XMLID_13_">
					<use xlink:href="#XMLID_6_"  style="overflow:visible;"/>
				</clipPath>
				<path class="st26" d="M477.95,568.07v-1.67c-0.33,0-0.3,0.07-0.32,0.11c0.14-0.2,0.7-1.71-1.48-11.59
					c-1.43-6.46-3.85-15.56-7.15-27.03c-5.57-19.34-13.78-45.69-24.38-78.33c-18.06-55.57-37.1-110.83-37.29-111.38l1.58-0.54
					c0.19,0.55,19.23,55.84,37.29,111.43c36.68,112.86,33.77,117.04,32.79,118.42C478.72,567.86,478.29,568.07,477.95,568.07z"/>
				<path class="st27" d="M472.81,521.97c0,0-6.3-58.38-20.08-103.95c-11.18-7.49-25.33-9.11-39.1-9.13
					c12.53,48.08,44.62,118.42,44.62,118.42L472.81,521.97z"/>
			</g>
			<g>
				<defs>
					<path id="XMLID_7_" d="M442.62,544.12c0,0-77.13-62.27-45.98-73.29c31.15-11.02,61.78,69.76,61.78,69.76L442.62,544.12z"/>
				</defs>
				<use xlink:href="#XMLID_7_"  style="overflow:visible;fill:#91A68D;"/>
				<clipPath id="XMLID_14_">
					<use xlink:href="#XMLID_7_"  style="overflow:visible;"/>
				</clipPath>
				<path class="st28" d="M468.74,563.36c-9.62-26.44-92.12-114.09-92.95-114.98l1.22-1.15c3.41,3.61,83.57,88.79,93.31,115.55
					L468.74,563.36z"/>
			</g>
			<g>
				<defs>
					<path id="XMLID_8_" d="M488.03,544.14c0,0,32.63-132.69,60.68-113.52s-43.53,119.27-43.53,119.27L488.03,544.14z"/>
				</defs>
				<use xlink:href="#XMLID_8_"  style="overflow:visible;fill:#91A68D;"/>
				<clipPath id="XMLID_15_">
					<use xlink:href="#XMLID_8_"  style="overflow:visible;"/>
				</clipPath>
				<path class="st29" d="M489.58,561.1h-8.28v-1.67h8.28c0.59-0.1,3.47-2.18,14.79-24.67c6.57-13.06,15.09-31.16,25.32-53.81
					c17.42-38.57,33.98-77.47,34.15-77.86l1.54,0.65c-0.17,0.39-16.89,39.67-34.41,78.44C495.3,561.1,491.14,561.1,489.58,561.1z"/>
			</g>
		</g>
		<g>
			<g>
				<path class="st3" d="M513.38,447.07c-6.24-1.93-13.6-4.71-20-6.03c-8.32-1.71-19.92-0.91-29.82-0.19
					c-2.57,0.19-13.28,3.12-15.9,4.63c-2.56,1.48-5.15,2.97-7.37,4.92c-5.62,4.94-8.38,12.32-10.55,19.49
					c-4.12,13.64-0.86,28.32-2.15,42.51c-0.54,4.83,7.96,1.37,8.09,0.08c1.16-11.39,4.48-21.18,8.48-31.91
					c0.32-0.87,0.68-1.77,1.36-2.4c1.83-1.71,4.76-0.66,7.06,0.34c16.12,6.96,35.35,6.25,50.91-1.88c2.9-1.52,6.44-3.28,9.22-1.56
					c1.19,0.74,6.2,39.29,3.61,33.62c-0.14-0.3,21.15,14.13,16.59-9.7c-2.97-15.56-3.74-24.23-7.25-35.69
					C523.88,457.53,519.41,448.93,513.38,447.07z"/>
				<g>
					<path class="st3" d="M496.31,715.82c-1.1,9.38-0.05,17.97,3.87,26.56c1.21,2.64,3.74,5.45,4.21,8.31
						c0.47,2.87,5.57,17.32,2.94,18.55c-8.3-3.83-19.75-23.35-20.9-32.42s1.88-18.47-0.04-27.41
						c-11.34-52.85-10.22-91.45-10.49-97.3c-0.26-5.85,11.88-11.69,17.7-12.31c10.97-1.16,8.04-34.27,8.59-26.35
						C503.31,589.53,504.66,644.51,496.31,715.82z"/>
					<g>
						<path class="st9" d="M486.25,730.41c-5.27,8.46,3.03,17.73,7.5,26.64c1.41,2.81,9.25,17.24,14.8,13.9
							c6.63-4.29-5.73-27.58-9.42-34.35c-3.73-7.08-9.6-2.18-10.43,0.52C487.77,735.57,487.04,733.15,486.25,730.41z"/>
					</g>
				</g>
				<g>
					<path class="st3" d="M544.82,684.05c3.22,8.88,10.05,20.63,17.4,28.36c2.26,1.82,14.56,12.73,11.22,19.41
						c-9.14,0.3-23.54-19.72-28.63-27.32c-2.02-4.61-6.26-9.96-17.28-22.14c-33.82-42.16-44.07-64.32-46.93-69.43
						c-2.86-5.11,6.24-9.31,11.17-12.47C501.06,594.51,515.45,623.59,544.82,684.05z"/>
					<g>
						<path class="st9" d="M544.55,703.92c-2.55,9.63,8.12,16.05,15.01,23.25c2.18,2.27,13.92,13.75,18.24,8.93
							c5.07-6.05-13.6-24.67-19.12-30.05c-5.65-5.67-9.81,0.74-9.81,3.57C547.51,708.41,546.11,706.31,544.55,703.92z"/>
					</g>
				</g>
				<g>
					<path class="st9" d="M448.59,530.98c6.81-9.42,9.45-32.4,9.1-35.44c-3.65-3.18-8.32-8.8-9.5-15.63
						c-2.1-12.09,8.47-25.39,2.84-36.29c2.33-1.42,4.16-1.13,6.64-1.51c1.42,6.31,3.4,11.06,5.72,17.1
						c2.33,6.05,5.78,12.55,11.99,14.41c6.34,1.9,13.15-1.98,17.22-7.2c5.7-7.32,8.19-15.39,5.41-24.24c0,0,8.24,2.09,8.61,2.69
						c0.32,0.52,0.43,2.44,0.53,3.04c1.71,10.53,5,18.43,4.17,29.07c-0.41,5.29-5.08,14.15-10.33,15.88c0.56,4-0.83,34.26,0.27,38.9
						C479.73,551.29,455.09,536.32,448.59,530.98z"/>
					<path class="st30" d="M402.5,659.74c18.6-29.77,16.2-67.99,28.81-100.74c1.58-4.12,11.49-16.06,17.29-28.01
						c-0.21,1.71,37.09,17.04,52.68,0.78c1.21,3.78,10.17,49.51,12.97,62.46c2.97,13.74,2.97,13.74,10.46,29.59
						c4.07,8.62,9.34,25.63,10.1,35.13c-7.36-1.58-24.81,1.96-32.17,0.37c-1.42-0.31-2.94-0.61-4.31-0.1
						c-1.23,0.46-2.13,1.51-3.17,2.31c-6.26,4.83-15.08,0.12-22.95-0.49c-9.17-0.71-18.05,4.53-27.2,3.69
						c-4.75-0.43-9.23-2.48-13.96-2.97c-9.22-0.96-18.83,3.99-27.53,0.82c-0.65-0.23-1.36-0.61-1.5-1.28
						C401.88,660.76,402.2,660.22,402.5,659.74z"/>
					<path class="st30" d="M433.23,555.52c-0.28-0.37,9.56-12.59,15.36-24.54c-0.21,1.71,37.09,17.04,52.68,0.78
						c1.21,3.78,10.17,49.51,12.97,62.46c2.97,13.74,2.97,13.74,10.46,29.59c4.07,8.62,9.34,25.63,10.1,35.13
						c-2.65-0.57,2.93-1.58-2.65-0.57c-12.1-19.83-18.19-50.37-34.67-60.61C481.21,587.65,440.14,564.83,433.23,555.52z"/>
					<path class="st31" d="M433.23,555.52c-0.28-0.37,9.56-12.59,15.36-24.54c-0.21,1.71,37.09,17.04,52.68,0.78
						c1.21,3.78,10.17,49.51,12.97,62.46c2.97,13.74,2.97,13.74,10.46,29.59c4.07,8.62,9.34,25.63,10.1,35.13
						c-2.65-0.57,2.93-1.58-2.65-0.57c-12.1-19.83-18.19-50.37-34.67-60.61C481.21,587.65,440.14,564.83,433.23,555.52z"/>
				</g>
				<path class="st3" d="M465.74,534.04c4.45,2.85,7.94,4.72,9.1,4.67c3.48-0.15,22.39,3.2,27.65,2.73
					c0.97-0.09,2.55-0.78,2.88-0.44c1.03,1.07-0.13,2.07-1.28,2.58c-3.33,1.48-27.96,0.3-31.57-0.54c-3.2-0.74-6.16-1.51-8.9-2.28
					c0.46-1.42,0.86-2.88,1.31-4.32C465.18,535.64,465.42,534.84,465.74,534.04z"/>
				<path class="st9" d="M422.31,507.8c0.09-2.12,7.23-44.39,10.83-43.51c1.61,0.39-3.37,35.26-2.65,36.54
					c2.05,3.62,5.32,2.77,4.87,6.93c-0.42,3.91,18.44,18.64,30.37,26.29c-0.32,0.8-0.56,1.6-0.8,2.4c-0.45,1.44-0.85,2.9-1.31,4.32
					c-23.89-6.8-30.75-14.67-37.02-17.36C420.9,520.95,422.26,509.07,422.31,507.8z"/>
				<g>
					<path class="st30" d="M463.25,363.87c-0.44,2.89,1.36,7.26,3.86,8.77c2.5,1.51,5.61,1.75,8.49,1.23
						c3.3-0.6,6.53-2.27,8.36-5.07c1.83-2.81,1.92-6.85-0.3-9.36c-1.53-1.73-7.07-5.71-9.37-5.82
						C468.91,353.39,464.21,357.62,463.25,363.87z"/>
					<polygon id="Neck_3_" class="st3" points="466.26,441.7 490.44,441.7 487.05,419.55 469.65,419.55 					"/>
					<path class="st9" d="M517.26,441.48c-6.58-2.03-14.44-8.15-21.1-6.36c-12.44,3.34-20.27,2.43-31.44-0.2
						c-2.65-0.62-14.01,3.29-16.77,4.88c-2.7,1.56-5.43,3.13-7.77,5.19c-5.93,5.21-8.84,12.99-11.12,20.55
						c-4.35,14.39-0.91,29.86-2.27,44.83c-0.57,5.1,13.46,11.16,12.96,9.9c-7.03-17.67,6.63-42.36,8.18-42.82
						c2.53-0.74,2.78-3.86,5.2-2.82c17,7.34,37.28,6.59,53.69-1.99c3.06-1.6,1.7-0.95,4.63,0.87c1.26,0.78,11.62,38.91,8.89,32.94
						c-0.14-0.31,22.31,14.9,17.49-10.23c-3.13-16.41-3.94-25.55-7.64-37.63C528.33,452.51,523.62,443.44,517.26,441.48z"/>
					<path class="st3" d="M461.5,436.21c0,1.68,5.44,5.89,13.15,7.59c1.83,0.4,7.52,20.47,8,20.47c1.59,0,3.75-20.04,5.39-20.15
						c7.84-0.54,11.58-6.41,11.58-7.91c0-1.76-8.53-3.19-19.06-3.19c-5.07,0-9.69,0.33-13.1,0.87
						C463.78,434.48,461.5,435.3,461.5,436.21z"/>
					<g>
						<g>
							<path class="st3" d="M462.97,402.72c0.73,3.45,0.34,6.45-0.87,6.71c-1.22,0.26-2.8-2.32-3.53-5.77
								c-0.73-3.45-0.34-6.45,0.87-6.71S462.24,399.28,462.97,402.72z"/>
							
								<ellipse transform="matrix(0.1025 -0.9947 0.9947 0.1025 45.6138 853.1996)" class="st3" cx="495.61" cy="401.32" rx="6.38" ry="2.25"/>
							<path class="st8" d="M460.44,400.08c0.73,13.56,8.97,26.11,19.32,25.72c9.46-0.36,16.56-14.42,15.85-27.61
								c-0.74-13.8-8.44-19.61-18.66-19.07C466.74,379.67,459.71,386.52,460.44,400.08z"/>
							<path class="st3" d="M460.41,399.47c0.73,13.56,8.97,26.11,19.32,25.72c9.46-0.36,16.56-14.42,15.85-27.61
								c-0.74-13.8-8.44-24.73-18.66-24.18C466.71,373.95,459.68,385.91,460.41,399.47z"/>
						</g>
						<path class="st30" d="M460.36,398.03c-4.49-8.08-2.75-21.58,9.95-22.48C465.38,381.27,462.71,392.04,460.36,398.03z"/>
						<path class="st30" d="M497.56,398.7c8.37-19.61-19.57-39.86-33.27-21.49C472.85,388.55,492.73,395.11,497.56,398.7z"/>
						<path class="st31" d="M497.56,398.7c8.37-19.61-19.57-39.86-33.27-21.49C472.85,388.55,492.73,395.11,497.56,398.7z"/>
						<g>
							<path class="st31" d="M464.32,377.25c-7.14,4.04-7.61,14.2-3.96,20.78c1.79-4.55,3.76-11.86,6.76-17.62
								C466.09,379.41,465.15,378.35,464.32,377.25z"/>
						</g>
						<path class="st9" d="M482.76,414.54c-1.05,1.01-2.33,1.93-3.79,2.01c-1.26,0.07-2.48-0.49-3.45-1.29
							c-0.97-0.8-1.72-1.83-2.46-2.85c4.04,1.49,8.1,0.47,12.15-0.25C484.32,412.87,483.58,413.75,482.76,414.54z"/>
					</g>
				</g>
				<g>
					<path class="st30" d="M478.84,438.5c-6.66,0-11.64-4.15-11.71-4.22c-0.21-0.18-0.23-0.5-0.06-0.71
						c0.18-0.21,0.5-0.24,0.71-0.06c0.03,0.02,2.86,2.41,7.02,3.48c5.53,1.43,10.68-0.03,15.3-4.33c0.2-0.19,0.52-0.18,0.71,0.03
						c0.19,0.2,0.18,0.52-0.03,0.71C486.64,437.25,482.49,438.5,478.84,438.5z"/>
					<path class="st9" d="M481.76,437.95c0.01,0.31-0.92,0.59-2.09,0.63c-1.16,0.04-2.12-0.17-2.13-0.48
						c-0.01-0.31,0.92-0.59,2.09-0.63C480.79,437.42,481.75,437.64,481.76,437.95z"/>
					<path class="st32" d="M443.94,644.62c-0.17,0-0.34-0.07-0.47-0.2c-0.26-0.26-0.26-0.68,0-0.95c2.03-2.03,0.63-7.44-0.98-13.7
						c-2.49-9.66-5.58-21.67,0.91-30.47c0.22-0.3,0.64-0.36,0.93-0.14c0.3,0.22,0.36,0.64,0.14,0.93
						c-6.12,8.28-3.11,19.96-0.69,29.34c1.79,6.94,3.2,12.41,0.63,14.98C444.28,644.55,444.11,644.62,443.94,644.62z"/>
					<path class="st30" d="M498.96,394.4c0,0,0.01,0.12,0.04,0.34c0.02,0.21,0.05,0.52,0.09,0.91c0.07,0.78,0.16,1.88,0.24,3.2
						c0.14,2.64,0.22,6.17-0.08,9.7c-0.04,0.44-0.07,0.88-0.13,1.32c-0.04,0.44-0.1,0.87-0.16,1.31c-0.12,0.86-0.27,1.71-0.44,2.52
						c-0.09,0.41-0.19,0.81-0.28,1.19c-0.11,0.39-0.21,0.77-0.32,1.13c-0.13,0.36-0.23,0.72-0.36,1.06
						c-0.14,0.34-0.25,0.66-0.4,0.97c-0.15,0.3-0.27,0.6-0.42,0.86c-0.15,0.27-0.29,0.52-0.43,0.75c-0.15,0.22-0.3,0.43-0.43,0.63
						c-0.13,0.19-0.29,0.35-0.41,0.5c-0.24,0.31-0.48,0.5-0.63,0.64c-0.15,0.14-0.23,0.22-0.23,0.22l-0.24-0.24
						c0,0,0.06-0.09,0.18-0.24c0.11-0.16,0.3-0.38,0.46-0.7c0.09-0.16,0.2-0.33,0.29-0.53c0.09-0.2,0.18-0.41,0.29-0.64
						c0.09-0.24,0.17-0.49,0.26-0.76c0.09-0.27,0.15-0.56,0.23-0.86c0.08-0.3,0.13-0.62,0.19-0.95c0.06-0.33,0.1-0.68,0.15-1.02
						c0.04-0.35,0.07-0.72,0.1-1.09c0.01-0.38,0.04-0.76,0.05-1.15c0.01-0.78,0-1.58-0.04-2.4c-0.02-0.41-0.04-0.82-0.08-1.24
						c-0.03-0.41-0.07-0.83-0.12-1.24c-0.35-3.32-1.05-6.61-1.65-9.04c-0.3-1.22-0.58-2.22-0.78-2.91c-0.1-0.34-0.18-0.61-0.24-0.8
						c-0.06-0.17-0.08-0.27-0.08-0.27L498.96,394.4z"/>
					<path class="st31" d="M498.96,394.4c0,0,0.01,0.12,0.04,0.34c0.02,0.21,0.05,0.52,0.09,0.91c0.07,0.78,0.16,1.88,0.24,3.2
						c0.14,2.64,0.22,6.17-0.08,9.7c-0.04,0.44-0.07,0.88-0.13,1.32c-0.04,0.44-0.1,0.87-0.16,1.31c-0.12,0.86-0.27,1.71-0.44,2.52
						c-0.09,0.41-0.19,0.81-0.28,1.19c-0.11,0.39-0.21,0.77-0.32,1.13c-0.13,0.36-0.23,0.72-0.36,1.06
						c-0.14,0.34-0.25,0.66-0.4,0.97c-0.15,0.3-0.27,0.6-0.42,0.86c-0.15,0.27-0.29,0.52-0.43,0.75c-0.15,0.22-0.3,0.43-0.43,0.63
						c-0.13,0.19-0.29,0.35-0.41,0.5c-0.24,0.31-0.48,0.5-0.63,0.64c-0.15,0.14-0.23,0.22-0.23,0.22l-0.24-0.24
						c0,0,0.06-0.09,0.18-0.24c0.11-0.16,0.3-0.38,0.46-0.7c0.09-0.16,0.2-0.33,0.29-0.53c0.09-0.2,0.18-0.41,0.29-0.64
						c0.09-0.24,0.17-0.49,0.26-0.76c0.09-0.27,0.15-0.56,0.23-0.86c0.08-0.3,0.13-0.62,0.19-0.95c0.06-0.33,0.1-0.68,0.15-1.02
						c0.04-0.35,0.07-0.72,0.1-1.09c0.01-0.38,0.04-0.76,0.05-1.15c0.01-0.78,0-1.58-0.04-2.4c-0.02-0.41-0.04-0.82-0.08-1.24
						c-0.03-0.41-0.07-0.83-0.12-1.24c-0.35-3.32-1.05-6.61-1.65-9.04c-0.3-1.22-0.58-2.22-0.78-2.91c-0.1-0.34-0.18-0.61-0.24-0.8
						c-0.06-0.17-0.08-0.27-0.08-0.27L498.96,394.4z"/>
					<path class="st30" d="M462.96,390.7c0,0-0.03,0.11-0.09,0.33c-0.06,0.22-0.14,0.55-0.25,0.96c-0.21,0.83-0.51,2.03-0.83,3.48
						c-0.32,1.45-0.67,3.15-0.99,4.98c-0.16,0.91-0.31,1.86-0.45,2.83c-0.14,0.96-0.26,1.95-0.37,2.93
						c-0.1,0.98-0.18,1.97-0.24,2.94c-0.02,0.48-0.05,0.97-0.06,1.44c-0.01,0.48-0.02,0.95-0.01,1.41c0,0.46,0.01,0.92,0.04,1.36
						c0.01,0.45,0.05,0.87,0.09,1.3c0.07,0.84,0.19,1.63,0.34,2.35c0.07,0.36,0.17,0.7,0.25,1.02c0.08,0.33,0.2,0.62,0.29,0.9
						c0.08,0.29,0.22,0.53,0.32,0.77c0.05,0.12,0.1,0.23,0.16,0.34c0.06,0.1,0.11,0.2,0.17,0.29c0.11,0.18,0.19,0.36,0.29,0.49
						c0.1,0.13,0.19,0.24,0.25,0.33c0.14,0.18,7.85,6.34,0.21,0.28c-7.63-6.06-6.1-29.55-3.5-36.17L462.96,390.7z"/>
					<path class="st31" d="M462.96,390.7c0,0-0.03,0.11-0.09,0.33c-0.06,0.22-0.14,0.55-0.25,0.96c-0.21,0.83-0.51,2.03-0.83,3.48
						c-0.32,1.45-0.67,3.15-0.99,4.98c-0.16,0.91-0.31,1.86-0.45,2.83c-0.14,0.96-0.26,1.95-0.37,2.93
						c-0.1,0.98-0.18,1.97-0.24,2.94c-0.02,0.48-0.05,0.97-0.06,1.44c-0.01,0.48-0.02,0.95-0.01,1.41c0,0.46,0.01,0.92,0.04,1.36
						c0.01,0.45,0.05,0.87,0.09,1.3c0.07,0.84,0.19,1.63,0.34,2.35c0.07,0.36,0.17,0.7,0.25,1.02c0.08,0.33,0.2,0.62,0.29,0.9
						c0.08,0.29,0.22,0.53,0.32,0.77c0.05,0.12,0.1,0.23,0.16,0.34c0.06,0.1,0.11,0.2,0.17,0.29c0.11,0.18,0.19,0.36,0.29,0.49
						c0.1,0.13,0.19,0.24,0.25,0.33c0.14,0.18,7.85,6.34,0.21,0.28c-7.63-6.06-6.1-29.55-3.5-36.17L462.96,390.7z"/>
				</g>
				<g>
					<path class="st33" d="M474.26,377.25c0,0,12.71,13,19.32,13"/>
					<path class="st33" d="M469,358.27c-4.79,2.49-6,10.4,0,11.73"/>
					<path class="st33" d="M461.71,384.35c-1.35,1.07-4.07,6.83-2.56,10.05"/>
				</g>
			</g>
			<g>
				<g>
					<path class="st12" d="M452.71,544.12h112.1c1,0,1.82-0.82,1.82-1.82l0,0c0-1-0.82-1.82-1.82-1.82h-112.1
						c-1,0-1.82,0.82-1.82,1.82l0,0C450.9,543.31,451.71,544.12,452.71,544.12z"/>
					<path class="st6" d="M451.82,544.12h115.41c0.91,0,1.65-0.74,1.65-1.65l0,0c0-0.91-0.74-1.65-1.65-1.65H451.82
						c-0.91,0-1.65,0.74-1.65,1.65l0,0C450.17,543.38,450.91,544.12,451.82,544.12z"/>
				</g>
				<path class="st6" d="M489.38,540.26l75.79,0c4.04,0.02,8.99-3.84,11.07-8.57l23.32-52.86c1.99-4.51,0.45-8.17-3.5-8.14l-73.61,0
					c-3.85,0.02-9.31,4.09-11.43,8.54l-24.89,52.12C483.9,536.01,485.44,540.24,489.38,540.26z"/>
				<path class="st6" d="M561.15,484.19c3.52-2.21,6.82-4.82,10.16-7.24c0.92-0.66,1.75-1.38,2.62-2.1
					c0.53-0.44,1.28-1.23,1.98-1.27c-6.98,0.01-13.97-0.08-20.95-0.08c-9.73,0-19.47,0-29.2,0c-1.04,0-2.08,0.07-3.12,0.08
					c-3.78,0.03-7.51,3.65-9.06,6.89c-3.75,7.85-7.5,15.7-11.25,23.55c-0.38,0.79-0.75,1.58-1.13,2.37
					c-0.15,0.32-0.29,0.7-0.49,0.99c5.09-2.72,9.91-5.88,15.28-8.07c5.63-2.3,11.51-3.77,17.37-5.35c7.64-2.06,15.6-3.76,22.83-7.06
					C557.9,486.12,559.54,485.2,561.15,484.19z"/>
				<path class="st9" d="M539.1,504.43c-0.92,3.06,0.51,5.53,3.18,5.54c2.68,0.01,5.62-2.45,6.57-5.51c0.96-3.08-0.45-5.6-3.17-5.61
					C542.98,498.84,540.03,501.35,539.1,504.43z"/>
				<path class="st12" d="M487.95,544.18c0.03,0,0.06-0.01,0.08-0.03c0.39-0.39,0.63-2.54,0.01-3.39c-0.04-0.05-0.11-0.06-0.16-0.02
					c-0.05,0.04-0.06,0.11-0.02,0.16c0.56,0.77,0.28,2.82,0.01,3.09c-0.04,0.04-0.04,0.12,0,0.16
					C487.89,544.16,487.92,544.18,487.95,544.18z"/>
			</g>
		</g>
		<g>
			<path class="st34" d="M658.92,349.22c8.32-1.71,21.62-1.45,31.52-0.73c2.57,0.19,13.28,3.12,15.9,4.63
				c2.56,1.48,5.15,2.97,7.37,4.92c5.62,4.94,8.38,12.32,10.55,19.49c4.12,13.64,4.28,12.63,5.57,26.82
				c0.54,4.83-13.31,4.98-13.44,3.7c-1.16-11.39-2.55-9.11-6.55-19.83c-0.32-0.87-0.68-1.77-1.36-2.4
				c-1.83-1.71-4.76-0.66-7.06,0.34c-16.12,6.96-35.35,6.25-50.91-1.88c-2.9-1.52-6.44-3.28-9.22-1.56
				c-1.19,0.74-19.97,47.75-15.41,23.92c2.97-15.56,0.32-22.86,3.83-34.32C631.49,366.53,652.51,350.53,658.92,349.22z"/>
			<polygon id="Neck_2_" class="st34" points="688.7,348.58 669.74,349.56 669.26,328.55 684.17,328.55 			"/>
			<g>
				<path class="st6" d="M661.19,343.16c2.15-0.29,6.76,1.15,8.42-0.6c1.89-1.98,0.57-6.29,0.12-8.61
					c-0.8-4.13-2.74-13.07-6.6-15.92c-6.07-4.47-3.69,8.96-3.81,11.51C659.18,332.54,658.16,343.15,661.19,343.16
					C661.46,343.12,661.13,343.16,661.19,343.16z"/>
				<g>
					<path class="st34" d="M686.03,309.53c0.34,3.32,1.56,5.92,2.73,5.8s1.85-2.91,1.52-6.23c-0.34-3.32-1.56-5.92-2.73-5.8
						C686.37,303.41,685.7,306.21,686.03,309.53z"/>
					<path class="st34" d="M687.4,306.53c3.27,12.46-0.53,26.18-9.99,28.82c-10.74,6.76-20.37-8.27-20.37-19.2
						c-4.77-12.36,0-21.3,9.38-23.76S684.13,294.07,687.4,306.53z"/>
					<path class="st34" d="M687.4,306.53c3.27,12.46-0.53,26.18-9.99,28.82c-10.74,6.76-20.37-8.27-20.37-19.2
						c-4.77-12.36,0-21.3,9.38-23.76S684.13,294.07,687.4,306.53z"/>
					<path class="st34" d="M687.4,305.85c3.27,12.46-0.53,26.18-9.99,28.82c-10.74,6.76-20.37-7.82-20.37-18.74
						c-6.31-11.67,0-21.75,9.38-24.21C675.81,289.25,684.13,293.39,687.4,305.85z"/>
				</g>
				<path class="st9" d="M665.61,327.36c1.22,0.66,2.62,1.17,3.97,0.88c1.17-0.25,2.14-1.08,2.82-2.06
					c0.68-0.98,1.11-2.11,1.53-3.22c-3.32,2.39-7.28,2.48-11.17,2.84C663.76,326.22,664.66,326.84,665.61,327.36z"/>
			</g>
			<g>
				<path class="st34" d="M658.6,623.46c1.1,9.38,0.05,17.97-3.87,26.56c-1.21,2.64-3.74,5.45-4.21,8.31s-5.57,17.32-2.94,18.55
					c8.3-3.83,19.75-23.35,20.9-32.42s-1.88-18.47,0.04-27.41c11.34-52.85,10.22-91.45,10.49-97.3c0.26-5.85-11.88-11.69-17.7-12.31
					C650.34,506.28,650.25,552.15,658.6,623.46z"/>
				<path class="st6" d="M649.4,664.78c-0.1,1.16-0.84,3.2-0.19,4.16c1.21,1.8,4.02,1.82,5.82,0.61s2.81-3.27,3.68-5.25
					c3.12-7.11,8.55-16.19,10.04-23.8c5.12,8.55-2.76,18.9-7.39,27.72c-1.46,2.79-9.02,13.63-15.05,13.63
					c-5.42-6.45,7.8-34.65,11.62-41.35C658.56,645.19,649.75,660.79,649.4,664.78z"/>
			</g>
			<g>
				<path class="st34" d="M609.18,591.69c-3.22,8.88-10.05,20.63-17.4,28.36c-2.26,1.82-14.56,12.73-11.22,19.41
					c9.14,0.3,23.54-19.72,28.63-27.32c2.02-4.61,6.26-9.96,17.28-22.14c33.82-42.16,44.07-64.32,46.93-69.43
					c2.86-5.11-6.24-9.31-11.17-12.47C652.94,502.15,638.55,531.22,609.18,591.69z"/>
				<path class="st6" d="M583.9,628.18c-0.74,0.89-1.69,2.84-1.34,3.95c0.67,2.06,3.36,2.87,5.42,2.2c2.06-0.67,3.6-2.36,4.99-4.03
					c4.96-5.97,12.34-12.4,16.48-18.75c2.55,9.63-8.12,16.05-15.01,23.25c-2.18,2.27-12.44,10.6-18.24,8.93
					c-3.43-7.7,19.17-30.22,24.69-35.6C600.2,612.81,586.57,624.99,583.9,628.18z"/>
			</g>
			<g>
				<path class="st6" d="M670.4,447.41c-10.54,0.15-18.91-2.33-18.91-2.33c-4.87,12-11.17,31.52-4.87,46.66
					c13.07,34.27,2.9,67.64,4.36,101.46c7.96,0.72,15.91,1.44,23.87,2.16c4.82-28.99,8.7-59.39,5.91-84.14
					c-1.58-14.03,1.11-32.24-0.74-46.26C678.97,457.04,679.41,450.67,670.4,447.41z"/>
				<path class="st10" d="M670.4,447.41c-10.54,0.15-18.91-2.33-18.91-2.33c-4.87,12-11.17,31.52-4.87,46.66
					c13.07,34.27,2.9,67.64,4.36,101.46c7.96,0.72,15.91,1.44,23.87,2.16c4.82-28.99,8.7-59.39,5.91-84.14
					c-1.58-14.03,1.11-32.24-0.74-46.26C678.97,457.04,679.41,450.67,670.4,447.41z"/>
				<path class="st6" d="M722.63,468.75c3.39,11.57-0.55,21.38-5.93,26.76c-6.89,6.89-34.95,19.74-40.51,24.11
					c-9.51,7.47-28.08,45.85-41.77,64.4c-5.07-2.82-14.56-7.81-19.63-10.62c26.4-39.37,24.62-69.44,36.81-75.59
					c1.78-0.9,26.43-25.11,24.47-32.16c-1.32-4.75-14.05-18.64-14.05-18.64c23.74-0.04,42.74-6.59,42.74-6.59
					S720.62,463.72,722.63,468.75z"/>
				<path class="st35" d="M615.47,570.94c-0.91,0.48-3.72,4.58-2.73,5.17c5.42,3.24,19.12,12.5,19.96,12.38
					c0.83-0.11,4.4-4.45,2.64-5.73C633.63,581.53,616.39,570.46,615.47,570.94z"/>
				<path class="st35" d="M651.02,591.58c-0.59,0.84-1.19,5.78-0.04,5.85c6.3,0.38,22.72,2.28,23.42,1.79
					c0.68-0.48,1.85-5.98-0.3-6.3C672.01,592.61,651.61,590.72,651.02,591.58z"/>
			</g>
			<path class="st9" d="M698.08,350.22c-2.67-0.96-8.51,3.45-11.49,4.28c-8.47,2.37-17.87,2.41-24.69-2.71
				c-1.62-1.04-2.98-2.58-2.98-2.58s-11,3.18-14.06,4.96c-5.43,3.15-10.21,7.78-13.27,13.34c-3.58,6.5-3.69,14.16-4.21,21.38
				c-0.63,8.64-1.09,17.28-1.63,25.92c-0.06,1.01-0.55,13.57-1.01,13.61c8.36-0.75,7.22-1.6,15.25,0.85
				c-0.1-5.5,4.35-35.57,5.95-40.84c-0.26,3.13,2.98,10.77,5.71,15.57c0.82,15.94,2,38.92-0.15,41.07
				c-0.27,2.04,26.87,8.61,53.27-4.66c-4.72-14.27-1.39-38.39,0.99-53.23c3.38,5.11,13.58,32.28,15.78,38.63
				c8.36-1.83,8.54,0.98,17.08,1.54C733.93,413.44,735.76,348.99,698.08,350.22z"/>
			<g>
				<polygon class="st9" points="687.52,399.67 673.25,399.67 671.26,372.59 689.51,372.59 				"/>
				<polygon class="st6" points="676.69,370.14 674.52,370.14 674.52,368.02 676.15,368.02 				"/>
				<path class="st6" d="M689.79,374.04h-18.81c-0.19,0-0.32-0.18-0.3-0.39l0.17-1.74c0.02-0.21,0.19-0.38,0.37-0.38h18.35
					c0.18,0,0.35,0.17,0.37,0.38l0.17,1.74C690.12,373.87,689.98,374.04,689.79,374.04z"/>
				<path class="st6" d="M688.23,371.68h-15.69c-0.17,0-0.28-0.14-0.26-0.3l0.25-1.47c0.03-0.15,0.18-0.28,0.34-0.28h15.02
					c0.16,0,0.32,0.13,0.34,0.28l0.25,1.47C688.51,371.54,688.4,371.68,688.23,371.68z"/>
				<polygon class="st6" points="688.21,390.29 688.93,380.5 671.84,380.5 672.56,390.29 				"/>
				<g>
					<path class="st9" d="M675.87,383.14l-0.2,0.02c-0.12,0.02-0.24,0.14-0.35,0.36c-0.11,0.22-0.15,0.4-0.12,0.54
						c0.05,0.31,0.23,0.49,0.52,0.54c0.39-0.87,0.92-1.65,1.6-2.33c0.68-0.68,1.39-1.09,2.13-1.21c0.6-0.1,0.93,0.04,0.99,0.43
						c0.05,0.28-0.04,0.63-0.28,1.05c-0.23,0.42-0.55,0.81-0.96,1.16c-0.41,0.35-0.82,0.56-1.22,0.63
						c-0.26,0.05-0.45-0.02-0.57-0.19c-0.49,0.31-0.96,0.51-1.42,0.59l-0.12,0.02c-0.34,0.82-0.46,1.5-0.37,2.04
						c0.05,0.31,0.18,0.53,0.39,0.68c0.21,0.15,0.5,0.19,0.87,0.12c0.62-0.11,1.16-0.38,1.63-0.83c0.11-0.11,0.19-0.19,0.24-0.26
						l0.08-0.1c0.01-0.01,0.04-0.02,0.07-0.03c0.03-0.01,0.05,0.01,0.06,0.05c0.01,0.04-0.01,0.08-0.05,0.12
						c-0.56,0.67-1.27,1.08-2.13,1.23c-0.41,0.07-0.73,0.03-0.96-0.13c-0.23-0.16-0.38-0.41-0.43-0.74c-0.1-0.57,0.03-1.28,0.4-2.13
						c-0.38-0.06-0.6-0.26-0.65-0.6c-0.04-0.24,0.03-0.49,0.21-0.76c0.18-0.26,0.36-0.41,0.54-0.44c0.1-0.02,0.16,0.01,0.17,0.07
						C675.93,383.1,675.92,383.13,675.87,383.14z M678.39,383.02c0.02,0.12-0.04,0.28-0.19,0.46c-0.15,0.18-0.35,0.36-0.61,0.54
						c0.09,0.12,0.24,0.17,0.46,0.13c0.33-0.06,0.68-0.24,1.05-0.54c0.37-0.3,0.67-0.65,0.89-1.02c0.23-0.38,0.32-0.69,0.28-0.93
						c-0.06-0.36-0.41-0.49-1.05-0.38c-0.63,0.11-1.25,0.48-1.85,1.12c-0.6,0.64-1.08,1.37-1.43,2.19l0.07-0.01
						c0.46-0.08,0.91-0.27,1.36-0.57l-0.01-0.07c-0.03-0.19,0.06-0.41,0.27-0.65c0.21-0.24,0.4-0.38,0.57-0.41
						C678.3,382.87,678.37,382.91,678.39,383.02z M677.53,383.89L677.53,383.89c0.19-0.14,0.35-0.28,0.46-0.42
						c0.11-0.14,0.16-0.24,0.15-0.3c-0.01-0.06-0.04-0.09-0.09-0.08c-0.11,0.02-0.23,0.12-0.36,0.3
						C677.56,383.56,677.51,383.73,677.53,383.89z"/>
					<path class="st9" d="M678.9,386.86c-0.04-0.22,0.03-0.48,0.21-0.77c0.18-0.29,0.38-0.46,0.61-0.5c0.03-0.11,0.1-0.18,0.21-0.2
						c0.11-0.02,0.21,0,0.28,0.06c0.08,0.06,0.12,0.14,0.14,0.25c0.02,0.11,0.02,0.2,0.01,0.27c0.15-0.03,0.31-0.09,0.49-0.2
						c0.17-0.11,0.27-0.19,0.3-0.23l0.05,0.04c0,0.01-0.01,0.04-0.05,0.09c-0.03,0.05-0.14,0.12-0.31,0.22
						c-0.17,0.1-0.33,0.17-0.49,0.21c-0.04,0.25-0.15,0.48-0.33,0.69c-0.18,0.21-0.38,0.34-0.6,0.37
						C679.12,387.2,678.94,387.11,678.9,386.86z M680.21,386.11c-0.26,0.02-0.42-0.11-0.48-0.38c-0.18,0.04-0.32,0.17-0.44,0.4
						c-0.12,0.23-0.16,0.44-0.13,0.62c0.04,0.21,0.15,0.29,0.36,0.26c0.13-0.02,0.28-0.12,0.43-0.3
						C680.09,386.53,680.18,386.33,680.21,386.11z M679.89,385.61c0.04,0.23,0.15,0.35,0.33,0.37c0-0.03-0.01-0.09-0.02-0.17
						c-0.01-0.09-0.05-0.16-0.1-0.21c-0.05-0.05-0.1-0.07-0.15-0.07C679.9,385.54,679.88,385.57,679.89,385.61z"/>
					<path class="st9" d="M684.14,382.42c0.02,0.09-0.03,0.17-0.13,0.25c-0.13,0.02-0.21,0-0.22-0.06
						c-0.01-0.03,0.01-0.08,0.05-0.12c0.04-0.05,0.05-0.09,0.05-0.12c0-0.03-0.08-0.03-0.21-0.01c-0.14,0.02-0.3,0.12-0.48,0.28
						c-0.18,0.16-0.37,0.4-0.57,0.72c-0.34,0.52-0.72,1.19-1.13,2l0.51-0.09c0.06-0.01,0.1,0,0.1,0.03
						c0.01,0.04-0.03,0.08-0.13,0.11l-0.56,0.1c-0.64,1.25-1.07,2.06-1.29,2.42c0.14,0.08,0.23,0.2,0.28,0.37
						c0.18-0.12,0.33-0.19,0.46-0.21s0.26-0.02,0.38,0.02c0.12,0.04,0.19,0.1,0.21,0.18c0.01,0.03,0,0.05-0.01,0.06l-0.02,0
						c-0.01,0-0.03-0.01-0.05-0.03c-0.02-0.02-0.05-0.05-0.09-0.08c-0.09-0.07-0.21-0.08-0.39-0.06c-0.17,0.03-0.33,0.09-0.49,0.2
						c0.03,0.19,0,0.36-0.08,0.52c-0.08,0.15-0.18,0.24-0.29,0.26c-0.11,0.02-0.18-0.02-0.19-0.12c-0.02-0.1,0.02-0.21,0.1-0.33
						c0.09-0.12,0.2-0.24,0.34-0.34c-0.05-0.16-0.13-0.27-0.23-0.34c-0.65,1.06-1.23,1.64-1.73,1.72c-0.28,0.05-0.44-0.03-0.47-0.24
						c-0.05-0.27,0.09-0.59,0.42-0.97c0.33-0.38,0.72-0.61,1.17-0.68c0.21-0.04,0.39-0.03,0.54,0.02c0.19-0.32,0.59-1.1,1.22-2.33
						l-0.46,0.08c-0.05,0.01-0.07,0-0.08-0.04c-0.01-0.05,0.03-0.08,0.12-0.1l0.49-0.08c0.5-0.98,0.95-1.75,1.33-2.29
						c0.38-0.54,0.76-0.84,1.13-0.91C683.98,382.17,684.11,382.24,684.14,382.42z M678.38,389.64c0.44-0.08,0.96-0.63,1.57-1.66
						c-0.14-0.04-0.32-0.04-0.54,0c-0.37,0.06-0.69,0.27-0.95,0.62c-0.27,0.35-0.38,0.64-0.34,0.87
						C678.12,389.61,678.22,389.67,678.38,389.64z M680.05,388.99c0.1-0.02,0.17-0.09,0.22-0.19c0.05-0.1,0.07-0.21,0.05-0.32
						l0-0.02c-0.23,0.17-0.33,0.33-0.3,0.49C680.02,388.98,680.03,388.99,680.05,388.99z"/>
					<path class="st9" d="M685.18,382.25c0.02,0.09-0.03,0.17-0.13,0.25c-0.13,0.02-0.21,0-0.22-0.06
						c-0.01-0.03,0.01-0.08,0.05-0.12c0.04-0.05,0.05-0.09,0.05-0.12c0-0.03-0.08-0.03-0.21-0.01c-0.14,0.02-0.3,0.12-0.48,0.28
						c-0.18,0.16-0.37,0.4-0.57,0.72c-0.34,0.52-0.72,1.19-1.13,2l0.51-0.09c0.06-0.01,0.1,0,0.1,0.03
						c0.01,0.04-0.03,0.08-0.13,0.11l-0.56,0.1c-0.64,1.25-1.07,2.06-1.29,2.42c0.14,0.08,0.23,0.2,0.28,0.37
						c0.18-0.12,0.33-0.19,0.46-0.21c0.13-0.02,0.26-0.02,0.38,0.02c0.12,0.04,0.19,0.1,0.21,0.18c0.01,0.03,0,0.05-0.01,0.06
						l-0.02,0c-0.01,0-0.03-0.01-0.05-0.03c-0.02-0.02-0.05-0.05-0.09-0.08c-0.09-0.07-0.21-0.08-0.39-0.06
						c-0.17,0.03-0.33,0.09-0.49,0.2c0.03,0.19,0,0.36-0.08,0.52c-0.08,0.15-0.18,0.24-0.29,0.26c-0.11,0.02-0.18-0.02-0.19-0.12
						c-0.02-0.1,0.02-0.21,0.1-0.33c0.09-0.12,0.2-0.24,0.34-0.34c-0.05-0.16-0.13-0.27-0.23-0.34c-0.65,1.06-1.23,1.64-1.73,1.72
						c-0.28,0.05-0.44-0.03-0.47-0.24c-0.05-0.27,0.09-0.59,0.42-0.97c0.33-0.38,0.72-0.61,1.17-0.68c0.21-0.04,0.39-0.03,0.54,0.02
						c0.19-0.32,0.59-1.1,1.22-2.33l-0.46,0.08c-0.05,0.01-0.07,0-0.08-0.04c-0.01-0.05,0.03-0.08,0.12-0.1l0.49-0.08
						c0.5-0.98,0.95-1.75,1.33-2.29c0.38-0.54,0.76-0.84,1.13-0.91C685.02,382,685.15,382.07,685.18,382.25z M679.42,389.46
						c0.44-0.08,0.96-0.63,1.57-1.66c-0.14-0.04-0.32-0.04-0.54,0c-0.37,0.06-0.69,0.27-0.95,0.62c-0.27,0.35-0.38,0.64-0.34,0.87
						C679.16,389.43,679.26,389.49,679.42,389.46z M681.09,388.81c0.1-0.02,0.17-0.09,0.22-0.19c0.05-0.1,0.07-0.21,0.05-0.32
						l0-0.02c-0.23,0.17-0.33,0.33-0.3,0.49C681.07,388.81,681.08,388.82,681.09,388.81z"/>
					<path class="st9" d="M683.94,385.14c0.06,0.34-0.24,0.69-0.89,1.05c0.06,0.12,0.19,0.17,0.37,0.13
						c0.32-0.05,0.59-0.25,0.83-0.57c0.01-0.03,0.03-0.04,0.04-0.04c0.02,0,0.03,0.01,0.04,0.05c0.01,0.04-0.03,0.1-0.11,0.2
						s-0.2,0.2-0.35,0.31c-0.16,0.11-0.32,0.18-0.49,0.2c-0.35,0.06-0.55-0.05-0.6-0.33c-0.04-0.23,0.03-0.48,0.2-0.75
						c0.17-0.27,0.39-0.43,0.64-0.47C683.8,384.89,683.91,384.96,683.94,385.14z M683,386.05l0.01,0.06
						c0.54-0.34,0.79-0.63,0.75-0.87c-0.02-0.12-0.1-0.17-0.25-0.15c-0.14,0.02-0.27,0.14-0.39,0.36
						C683.01,385.67,682.96,385.87,683,386.05z"/>
					<path class="st9" d="M685.39,384.89c0.06,0.34-0.24,0.69-0.89,1.05c0.06,0.12,0.19,0.17,0.38,0.13
						c0.32-0.05,0.59-0.25,0.83-0.57c0.01-0.02,0.03-0.04,0.04-0.04c0.02,0,0.03,0.01,0.04,0.05c0.01,0.04-0.03,0.1-0.11,0.2
						c-0.08,0.1-0.2,0.2-0.35,0.31c-0.16,0.11-0.32,0.18-0.49,0.2c-0.35,0.06-0.55-0.05-0.6-0.33c-0.04-0.23,0.03-0.48,0.2-0.75
						c0.17-0.27,0.39-0.43,0.64-0.47C685.25,384.65,685.36,384.72,685.39,384.89z M684.45,385.8l0.01,0.06
						c0.54-0.34,0.79-0.63,0.75-0.87c-0.02-0.12-0.1-0.17-0.25-0.15c-0.14,0.02-0.27,0.14-0.39,0.36
						C684.46,385.42,684.42,385.62,684.45,385.8z"/>
				</g>
			</g>
			<path class="st34" d="M738.32,426.05c0.96,3.2-0.58,7.32-3.63,8.68c-5.81,2.6-25.43-8.31-31.98-14.4
				c-6.55-6.09-8.85-8.84-15.55-14.77c-1.11-0.98-7.72-2.36-9.15-2.75c-9.06-2.51-7.82-12.68-6.58-13.35
				c1.3-3.33,16.52,2.44,19.12,3.75c2.61,1.32,4.13,4.04,6.2,6.11C709.92,412.49,738.47,420.33,738.32,426.05z"/>
			<path class="st34" d="M716.59,413.17c-0.1,0-0.21-0.02-0.31-0.07c-1.5-0.77-2.86-1.49-4.14-2.19c-0.32-0.18-0.44-0.58-0.27-0.91
				c0.18-0.32,0.58-0.44,0.91-0.27c1.27,0.69,2.61,1.41,4.11,2.17c0.33,0.17,0.46,0.57,0.29,0.9
				C717.07,413.04,716.83,413.17,716.59,413.17z"/>
			<path class="st34" d="M706.33,407.4c-0.12,0-0.24-0.03-0.35-0.1c-1.33-0.82-1.82-1.17-3.01-2c-0.3-0.21-0.38-0.63-0.17-0.93
				c0.21-0.3,0.63-0.38,0.93-0.16c1.17,0.82,1.66,1.16,2.95,1.96c0.31,0.19,0.41,0.61,0.22,0.92
				C706.77,407.28,706.55,407.4,706.33,407.4z"/>
			<path class="st34" d="M732.49,435.79c-4.13,0-10.16-2.61-13.81-4.4c-6.41-3.14-13.01-7.39-16.43-10.57
				c-0.27-0.25-0.29-0.67-0.03-0.94c0.25-0.27,0.68-0.29,0.94-0.03c5.82,5.41,22.22,14.62,29.3,14.62c0.77,0,1.43-0.11,1.95-0.34
				c2.64-1.18,4.16-4.86,3.26-7.88c-0.11-0.35,0.09-0.73,0.45-0.83c0.35-0.11,0.73,0.09,0.83,0.45c1.1,3.68-0.73,8.02-4,9.48
				C734.27,435.65,733.43,435.79,732.49,435.79z"/>
			<path class="st34" d="M639.98,429.28c-0.87,3.23-4.35,5.91-7.66,5.46c-6.31-0.86-17.22-20.48-19.57-29.11
				c-2.35-8.63-2.86-12.18-5.41-20.75c-0.42-1.42-8.72-6.66-12.46-9.11c-9.5-6.24-10.87-17.58-9.47-17.49
				c9.75,7.29,32.7,23.51,33.37,26.37C623.01,402.78,643.12,424.5,639.98,429.28z"/>
			<path class="st34" d="M633.05,435.46c-0.28,0-0.55-0.02-0.83-0.06c-4.06-0.55-9.1-7.72-11.75-11.95
				c-3.79-6.05-7.15-13.14-8.38-17.65c-1-3.67-1.66-6.4-2.3-9.03c-0.85-3.49-1.64-6.79-3.11-11.7c-0.43-1.09-7.56-5.73-10.61-7.72
				c-0.58-0.38-1.11-0.72-1.58-1.03c-8.65-5.68-10.89-15.53-10.09-17.91c0.27-0.79,0.85-0.82,1.03-0.81
				c0.37,0.02,0.65,0.34,0.62,0.71c-0.02,0.26-0.18,0.48-0.41,0.57c-0.44,1.41,1.26,10.85,9.58,16.32c0.46,0.3,0.99,0.65,1.57,1.02
				c7.11,4.62,10.79,7.2,11.16,8.45c1.48,4.95,2.28,8.26,3.13,11.77c0.64,2.63,1.29,5.34,2.29,9c2.31,8.5,13.21,27.83,19.02,28.62
				c2.87,0.39,6.1-1.93,6.93-4.97l0.03-0.1l0.06-0.09c1.28-1.94-2.88-8.63-7.29-15.7c-5.25-8.43-11.79-18.92-14.01-28.42
				c-0.01-0.03-0.1-0.35-0.98-1.26c-0.26-0.27-0.25-0.69,0.02-0.95c0.27-0.26,0.69-0.25,0.95,0.02c0.8,0.83,1.21,1.42,1.32,1.88
				c2.17,9.29,8.64,19.67,13.84,28.02c5.18,8.31,8.94,14.34,7.33,17.05C639.63,432.92,636.32,435.46,633.05,435.46z"/>
			<g>
				<path class="st6" d="M653.58,308.47c-0.09,0.62,0.27,2.58,1.21,2.58c0.4-3.61,2.73-6.31,4.57-9.19c1.14-1.78,7.1-6.67,4.74-9.1
					c-0.32,1.94,0.15-1.42-0.18,0.53c0.04-0.72-0.01-0.73-0.14-0.02c0.15-1.97-0.2,1.4-0.06-0.57c-0.41,0.43-0.5,0.47-0.25,0.13
					c0.27-0.33,0.21-0.25-0.19,0.24c0.15-0.16,0.27-0.55,0.28-0.53c0.13,0.23-0.79-0.12-0.8-0.39c1.35,0.07,3.66-3.48,4.34-4.43
					c-6.27,0.92-9.24,0.02-12.53,6.16C652.14,298.44,651.49,303.65,653.58,308.47C653.45,309.38,653.27,307.77,653.58,308.47z"/>
				<path class="st6" d="M663.04,296.04c3.77,2.93,8.02,3.83,11.81,6.34c2.39,1.58,5.44,4.3,7.53,6.34
					c4.56,4.46,4.13,15.24,2.15,20.67c-1.1,3.01-1.67,4.87-0.69,8.16c0.36,1.2,0.76,2.73,1.64,3.7c2.08,2.29,2.2,0.85,4.73,1.26
					c2.92,0.47,6.04,2.01,9-0.06c2.45-1.72,4.77-6.64,5.76-9.37c1.74-4.74,1.12-8.8,1.66-13.61c0.57-5.06-1.16-7.49-2.21-12.27
					c-0.92-4.15-0.65-8.07-3.83-11.19c-1.66-1.64-3.3-2.35-4.6-4.47c-0.71-1.16-1.15-3.05-2.01-4.08
					c-5.22-6.23-11.48-5.13-18.67-4.09c-3.84,0.56-6.68,0.91-9.87,3.51C661.89,289.75,660.63,293.85,663.04,296.04
					C664.89,297.47,663.36,296.33,663.04,296.04z"/>
				<path class="st6" d="M666.41,299.57c2.21,1.46,4.78,2.24,7.28,3.11c7.9,2.75,15.4,6.64,22.2,11.51
					c-1.08-0.77-1.98-2.6-2.86-3.63c-1.04-1.21-2.13-2.37-3.27-3.48c-2.32-2.26-4.83-4.31-7.51-6.14c-2.67-1.82-5.5-3.42-8.45-4.76
					c-2.51-1.14-6.33-3.23-9.14-3.21C660.15,293,664.85,298.54,666.41,299.57z"/>
				<path class="st11" d="M697.71,317.2c0.09,0,0.17-0.03,0.24-0.09c0.16-0.14,0.19-0.38,0.05-0.54c-2.35-2.83-5.1-5.32-8.18-7.41
					c-3.08-2.09-6.41-3.73-9.91-4.86c-1.21-0.39-2.46-0.73-3.66-1.06c-1.84-0.5-3.73-1.02-5.52-1.73c-2.37-0.95-5.54-2.72-7.16-5.72
					c-0.1-0.19-0.33-0.26-0.52-0.16c-0.19,0.1-0.26,0.33-0.16,0.52c1.37,2.54,3.98,4.64,7.55,6.07c1.83,0.73,3.74,1.26,5.6,1.76
					c1.2,0.33,2.43,0.66,3.63,1.05c0.57,0.19,1.14,0.39,1.7,0.6c0.28,0.11,0.57,0.21,0.87,0.31c2.62-0.23,3.62,1.44,5.72,2.86
					c0.19,0.18,0.42,0.34,0.67,0.5c0.24,0.15,0.47,0.31,0.7,0.46c0.23,0.16,0.46,0.32,0.69,0.48c4.2,0.14,5.87,3.48,7.38,6.81
					C697.5,317.15,697.6,317.2,697.71,317.2z"/>
			</g>
			<path class="st6" d="M573.26,345.97l44.73,34.93c0.51,0.4,0.57,1.2,0.12,1.77l0,0c-0.45,0.57-1.23,0.71-1.75,0.31l-44.73-34.93
				c-0.51-0.4-0.57-1.2-0.12-1.77l0,0C571.96,345.71,572.75,345.57,573.26,345.97z"/>
		</g>
		<path class="st8" d="M758.64,485.17c-0.12,0-0.24-0.03-0.34-0.1c-10.7-6.44-9.32-16.8-9.3-16.9c0.05-0.37,0.4-0.62,0.76-0.56
			c0.36,0.05,0.62,0.39,0.56,0.76l0,0c-0.06,0.39-1.25,9.59,8.67,15.56c0.32,0.19,0.42,0.6,0.23,0.92
			C759.09,485.05,758.87,485.17,758.64,485.17z"/>
		<path class="st7" d="M609.47,527.88c1.58-7.67,3.34-17.77,2-19.1c-2.2-2.2-4.7,9.45-4.7,9.45l0.41,10.15L609.47,527.88z"/>
		<path class="st7" d="M608,528.2l0.31-5.68c0,0-0.12-7.63-4.06-13.74c-3.72-1.78-1.33,10.82,0.84,20.06L608,528.2z"/>
		<g>
			<path class="st30" d="M290.9,225.23c0,0,3.03-12.93-2.36-12.67c-5.95,0.29-8.21,6.33-7.66,8.43c0.55,2.1,7.21,5.21,7.21,5.21
				L290.9,225.23z"/>
			<path class="st30" d="M288.09,226.25c0,0-1.91-17.45-9-12.02c-1.4,2,0.27,5.39-1.61,6.07c-4.64,1.67-9.89-5.77-15.32,1.8
				c-2.36,8.81,17.8,8.72,17.8,8.72L288.09,226.25z"/>
			<path class="st31" d="M288.09,226.25c0,0-1.91-17.45-9-12.02c-1.4,2,0.27,5.39-1.61,6.07c-4.64,1.67-9.89-5.77-15.32,1.8
				c-2.36,8.81,17.8,8.72,17.8,8.72L288.09,226.25z"/>
			<path class="st6" d="M294.55,224.17c0,0-0.08,0.02-0.24,0.05c-0.16,0.04-0.39,0.08-0.67,0.15c-0.58,0.14-1.39,0.36-2.35,0.67
				c-0.95,0.31-2.05,0.7-3.2,1.17c-0.58,0.23-1.17,0.48-1.76,0.75c-0.6,0.26-1.2,0.55-1.79,0.83c-0.59,0.29-1.19,0.58-1.77,0.89
				c-0.58,0.3-1.14,0.61-1.68,0.92c-1.08,0.61-2.07,1.23-2.91,1.79c-0.83,0.56-1.51,1.06-1.98,1.43c-0.24,0.18-0.41,0.34-0.54,0.43
				c-0.12,0.11-0.19,0.16-0.19,0.16s0.08-0.02,0.24-0.05c0.16-0.04,0.39-0.08,0.67-0.15c0.58-0.14,1.39-0.36,2.35-0.66
				c0.96-0.31,2.05-0.7,3.2-1.17c0.58-0.23,1.17-0.48,1.76-0.75c0.6-0.26,1.19-0.55,1.79-0.83c0.59-0.29,1.19-0.59,1.76-0.89
				c0.58-0.3,1.14-0.61,1.68-0.92c1.08-0.61,2.07-1.23,2.91-1.79c0.83-0.56,1.51-1.06,1.98-1.43c0.24-0.18,0.41-0.33,0.54-0.43
				C294.48,224.22,294.55,224.17,294.55,224.17z"/>
			<path class="st6" d="M293.45,225.25c0.03-0.01,0.07-0.02,0.1-0.04c0.28-0.13,0.41-0.47,0.27-0.76c-0.35-0.74-3.47-7.19-6.59-7.32
				c-1.02-0.04-1.88,0.54-2.58,1.72c-1.15,1.96-1.38,3.34-0.73,4.2c0.89,1.17,2.97,0.67,3.2,0.61c0.3-0.08,0.48-0.39,0.4-0.69
				c-0.08-0.3-0.39-0.48-0.69-0.4c-0.51,0.13-1.66,0.26-2.01-0.2c-0.15-0.2-0.38-0.9,0.81-2.94c0.7-1.2,1.34-1.17,1.54-1.16
				c1.84,0.08,4.42,4.14,5.62,6.67C292.91,225.2,293.19,225.32,293.45,225.25z"/>
			<path class="st6" d="M293.27,224.61c0.22-0.06,0.4-0.25,0.42-0.49c0.25-2.36,1.06-6.36,2.17-7.02c0.47-0.28,1.01-0.19,1.45,0.25
				c0.64,0.63,0.94,1.87,0.17,3.2c-0.16,0.27-0.07,0.62,0.2,0.78c0.27,0.16,0.62,0.07,0.78-0.2c1.08-1.86,0.61-3.64-0.35-4.58
				c-0.81-0.8-1.92-0.96-2.83-0.41c-1.91,1.15-2.6,6.76-2.71,7.88c-0.03,0.31,0.19,0.59,0.51,0.62
				C293.14,224.63,293.21,224.62,293.27,224.61z"/>
			<path class="st6" d="M291.69,224.87c0.2,0.75,1.05,1.17,1.9,0.94c0.85-0.22,1.39-1.01,1.19-1.76c-0.2-0.75-1.05-1.17-1.9-0.94
				C292.03,223.34,291.49,224.12,291.69,224.87z"/>
		</g>
		<g>
			<path class="st30" d="M755.02,188.55c-0.82-0.41-4.49,2.48-5.07,2.94c-2.24,1.79-4.15,4.67-1.75,7c2.62,2.54,6.38-0.59,7.7,0.37
				c3.39,2.47-3.06,13.07,8.57,9.92c7.32-2.54-2.36-16.68-2.36-16.68S755.03,188.56,755.02,188.55z"/>
			<path class="st30" d="M755.82,187.76c-0.75-0.52-0.01-5.13,0.11-5.86c0.48-2.82,2.07-5.89,5.27-4.92
				c3.49,1.05,2.58,5.87,4.06,6.56c3.8,1.77,9.95-9.02,12.84,2.69c1.33,7.64-15.73,6.02-15.73,6.02S755.83,187.77,755.82,187.76z"/>
			<path class="st31" d="M755.02,188.55c-0.82-0.41-4.49,2.48-5.07,2.94c-2.24,1.79-4.15,4.67-1.75,7c2.62,2.54,6.38-0.59,7.7,0.37
				c3.39,2.47-3.06,13.07,8.57,9.92c7.32-2.54-2.36-16.68-2.36-16.68S755.03,188.56,755.02,188.55z"/>
			<path class="st31" d="M755.82,187.76c-0.75-0.52-0.01-5.13,0.11-5.86c0.48-2.82,2.07-5.89,5.27-4.92
				c3.49,1.05,2.58,5.87,4.06,6.56c3.8,1.77,9.95-9.02,12.84,2.69c1.33,7.64-15.73,6.02-15.73,6.02S755.83,187.77,755.82,187.76z"/>
			<path class="st6" d="M751.8,185.95c0,0,0.05,0.05,0.15,0.15c0.1,0.09,0.24,0.24,0.43,0.4c0.37,0.34,0.91,0.81,1.59,1.33
				c0.67,0.52,1.47,1.11,2.35,1.7c0.44,0.29,0.9,0.59,1.37,0.88c0.47,0.3,0.96,0.58,1.44,0.87c0.49,0.28,0.98,0.56,1.47,0.82
				c0.49,0.27,0.97,0.51,1.45,0.75c0.95,0.47,1.85,0.87,2.64,1.19c0.79,0.32,1.47,0.56,1.95,0.71c0.24,0.08,0.43,0.13,0.56,0.17
				c0.13,0.04,0.2,0.05,0.2,0.05s-0.05-0.05-0.15-0.15c-0.1-0.09-0.24-0.24-0.43-0.4c-0.37-0.34-0.91-0.81-1.59-1.33
				c-0.67-0.53-1.47-1.11-2.35-1.7c-0.44-0.29-0.9-0.59-1.37-0.88c-0.47-0.3-0.96-0.58-1.44-0.87c-0.49-0.28-0.98-0.56-1.47-0.82
				c-0.49-0.26-0.97-0.51-1.45-0.75c-0.95-0.47-1.85-0.87-2.64-1.19c-0.79-0.32-1.47-0.56-1.95-0.71c-0.24-0.08-0.43-0.13-0.56-0.17
				C751.87,185.96,751.8,185.95,751.8,185.95z"/>
			<path class="st6" d="M752.64,186.33c0.01-0.03,0.02-0.06,0.02-0.09c0.03-0.26-0.16-0.51-0.42-0.54
				c-0.69-0.08-6.74-0.75-8.25,1.43c-0.49,0.71-0.47,1.6,0.08,2.63c0.9,1.71,1.78,2.51,2.69,2.42c1.25-0.11,1.82-1.83,1.88-2.03
				c0.08-0.25-0.06-0.53-0.32-0.61c-0.25-0.08-0.53,0.06-0.61,0.32c-0.13,0.42-0.57,1.31-1.05,1.36c-0.22,0.02-0.82-0.13-1.75-1.91
				c-0.55-1.04-0.24-1.49-0.14-1.64c0.89-1.29,4.98-1.31,7.34-1.02C752.35,186.69,752.57,186.54,752.64,186.33z"/>
			<path class="st6" d="M752.09,186.16c0.06-0.19,0-0.4-0.16-0.52c-1.59-1.25-4.1-3.64-4.07-4.74c0.01-0.46,0.32-0.81,0.83-0.93
				c0.75-0.18,1.77,0.17,2.38,1.33c0.12,0.24,0.42,0.33,0.65,0.2c0.24-0.12,0.33-0.42,0.2-0.65c-0.85-1.62-2.34-2.08-3.45-1.82
				c-0.94,0.22-1.56,0.95-1.58,1.85c-0.04,1.9,3.69,4.93,4.44,5.52c0.21,0.16,0.51,0.13,0.68-0.08
				C752.05,186.27,752.07,186.22,752.09,186.16z"/>
			<path class="st6" d="M753.65,187.62c0.43-0.49,0.32-1.29-0.24-1.79s-1.37-0.49-1.8,0s-0.32,1.29,0.24,1.79
				C752.42,188.11,753.22,188.11,753.65,187.62z"/>
		</g>
	</g>
</g>
<path class="st30" d="M563.33,220.44c6.96,2.27,14.22,3.43,21.6,3.43c38.05,0,69-30.7,69-68.43c0-37.73-30.95-68.44-69-68.44
	c-14.17,0-27.79,4.23-39.38,12.24c-4.44,3.06,0.31,9.94,4.75,6.88c10.18-7.04,22.16-10.76,34.63-10.76
	c33.44,0,60.64,26.95,60.64,60.08s-27.2,60.08-60.64,60.08c-7,0-13.86-1.17-20.4-3.49c-1-0.35-2.1-0.31-3.08,0.12l-20.75,9.14
	v-23.12c0-1.03-0.38-2.03-1.07-2.79c-9.89-11-15.34-25.18-15.34-39.93c0-12.57,3.87-24.6,11.21-34.8c3.14-4.38-3.64-9.26-6.79-4.88
	c-8.36,11.63-12.78,25.35-12.78,39.68c0,16.27,5.81,31.93,16.41,44.29v27.96c0,2.96,3.15,5.02,5.86,3.82L563.33,220.44
	L563.33,220.44z M563.33,220.44"/>
<g>
	<path class="st30" d="M581.99,160.06c0,1.7-1.32,3.02-3.02,3.02h-19.42c-0.87,0.01-1.78-0.3-2.36-0.99
		c-1.15-1.26-1.04-3.13,0.16-4.28l16.23-14.7c2.75-2.46,3.04-6.8,0.78-9.69c-2.32-2.98-6.76-3.47-9.78-1.28
		c-1.21,0.88-2.22,2.46-3.77,2.73c-1.45,0.25-2.88-0.64-3.36-2.01c-0.76-2.19,1.11-3.5,2.52-4.77c2.47-2.3,5.71-3.4,8.83-3.4
		c3.56,0,7.18,1.48,9.76,4.33c2.3,2.47,3.4,5.7,3.4,8.83c0,3.56-1.48,7.18-4.33,9.76l-10.37,9.38h11.68
		C580.67,156.99,581.99,158.36,581.99,160.06L581.99,160.06z M581.99,160.06"/>
	<path class="st30" d="M612.86,152.88c0,1.7-1.37,3.02-3.07,3.02h-0.55v4.17c0,1.7-1.32,3.02-3.02,3.02c-1.7,0-3.02-1.32-3.02-3.02
		v-4.17h-17.17c-2.55,0.09-4.04-2.89-2.47-4.88c0.7-0.87,20.06-25.01,20.29-25.23c0.19-0.19,0.44-0.43,0.66-0.58
		c1.98-1.28,4.72,0.06,4.72,2.5v22.16h0.55C611.49,149.86,612.86,151.23,612.86,152.88L612.86,152.88z M603.21,136.32l-10.91,13.55
		h10.91V136.32z M603.21,136.32"/>
	<text transform="matrix(1 0 0 1 556.3899 182.7311)" class="st30 st36 st37">hours</text>
</g>
</svg>
