<svg xmlns="http://www.w3.org/2000/svg" width="117.496" height="58.5" viewBox="0 0 117.496 58.5">
  <g id="Group_22856" data-name="Group 22856" transform="translate(-66.503 -5572.791)">
    <g id="Component_1" data-name="Component 1" transform="translate(66.503 5572.791)">
      <g id="Group_19939" data-name="Group 19939" transform="translate(-474.884 -237.381)">
        <g id="Group_19930" data-name="Group 19930" transform="translate(474.884 258.951)">
          <g id="Group_19929" data-name="Group 19929" transform="translate(0 0)">
            <path id="Path_37119" data-name="Path 37119" d="M484.421,284.689a4.74,4.74,0,0,1,1.848,2.146v-2.745h4.619v15.162H486.27v-2.745a4.74,4.74,0,0,1-1.848,2.146,5.485,5.485,0,0,1-2.988.788,6.14,6.14,0,0,1-3.356-.938,6.407,6.407,0,0,1-2.337-2.7,10.423,10.423,0,0,1,0-8.274,6.427,6.427,0,0,1,2.337-2.69,6.144,6.144,0,0,1,3.356-.937A5.489,5.489,0,0,1,484.421,284.689Zm-3.9,4.266a4.509,4.509,0,0,0,0,5.434,3.41,3.41,0,0,0,4.809-.027,4.347,4.347,0,0,0,0-5.394,3.164,3.164,0,0,0-2.4-.992A3.13,3.13,0,0,0,480.522,288.955Z" transform="translate(-474.884 -279.146)" fill="#fff"/>
            <path id="Path_37120" data-name="Path 37120" d="M513.719,275.5v20.107h-4.647V275.5Z" transform="translate(-489.726 -275.498)" fill="#fff"/>
            <path id="Path_37121" data-name="Path 37121" d="M530.879,292.549v3.995h-2.093a6.019,6.019,0,0,1-4.144-1.318q-1.481-1.317-1.481-4.361v-5.57h-2.038v-3.913h2.038v-3.722h4.646v3.722h3.043v3.913h-3.043v5.651a1.7,1.7,0,0,0,.367,1.25,1.75,1.75,0,0,0,1.236.353Z" transform="translate(-494.958 -276.436)" fill="#fff"/>
            <path id="Path_37122" data-name="Path 37122" d="M556.873,292.514H546.357a3.515,3.515,0,0,0,.869,2.459,2.8,2.8,0,0,0,2.011.747,2.745,2.745,0,0,0,1.712-.516,2.412,2.412,0,0,0,.9-1.332h4.919a6.43,6.43,0,0,1-1.3,2.867,6.948,6.948,0,0,1-2.554,1.983,8.721,8.721,0,0,1-7.4-.217,6.692,6.692,0,0,1-2.7-2.7,9.294,9.294,0,0,1-.014-8.274,6.609,6.609,0,0,1,2.7-2.69,8.924,8.924,0,0,1,7.934-.014,6.53,6.53,0,0,1,2.649,2.6,7.722,7.722,0,0,1,.938,3.845A6.405,6.405,0,0,1,556.873,292.514Zm-5.367-4.2a2.951,2.951,0,0,0-2.051-.747,3.039,3.039,0,0,0-2.119.761,3.183,3.183,0,0,0-.951,2.228h5.924A2.8,2.8,0,0,0,551.506,288.317Z" transform="translate(-503.942 -279.146)" fill="#fff"/>
            <path id="Path_37123" data-name="Path 37123" d="M580.062,284.764a5.723,5.723,0,0,1,2.975-.815v4.972h-1.332a4.594,4.594,0,0,0-2.867.788,3.167,3.167,0,0,0-1.019,2.663v6.9h-4.646V284.112h4.646v2.853A6.594,6.594,0,0,1,580.062,284.764Z" transform="translate(-517.554 -279.167)" fill="#fff"/>
            <path id="Path_37124" data-name="Path 37124" d="M601.189,284.764a5.722,5.722,0,0,1,2.975-.815v4.972h-1.332a4.593,4.593,0,0,0-2.867.788,3.166,3.166,0,0,0-1.019,2.663v6.9H594.3V284.112h4.646v2.853A6.6,6.6,0,0,1,601.189,284.764Z" transform="translate(-526.725 -279.167)" fill="#fff"/>
            <path id="Path_37125" data-name="Path 37125" d="M623.573,284.689a4.737,4.737,0,0,1,1.848,2.146v-2.745h4.619v15.162h-4.619v-2.745a4.737,4.737,0,0,1-1.848,2.146,5.484,5.484,0,0,1-2.988.788,6.14,6.14,0,0,1-3.356-.938,6.406,6.406,0,0,1-2.336-2.7,10.423,10.423,0,0,1,0-8.274,6.427,6.427,0,0,1,2.336-2.69,6.145,6.145,0,0,1,3.356-.937A5.489,5.489,0,0,1,623.573,284.689Zm-3.9,4.266a4.509,4.509,0,0,0,0,5.434,3.41,3.41,0,0,0,4.809-.027,4.348,4.348,0,0,0,0-5.394,3.163,3.163,0,0,0-2.405-.992A3.13,3.13,0,0,0,619.674,288.955Z" transform="translate(-535.292 -279.146)" fill="#fff"/>
          </g>
        </g>
        <circle id="Ellipse_1831" data-name="Ellipse 1831" cx="12.697" cy="12.697" r="12.697" transform="translate(566.986 237.381)" fill="#fff"/>
      </g>
    </g>
    <path id="Path_44464" data-name="Path 44464" d="M8.228-3.247c0,1.6-1.156,2.584-3.094,2.584H2.159V-5.848H5.083C7.038-5.848,8.228-4.828,8.228-3.247ZM7.939-8.908c0,1.479-.969,2.4-2.788,2.4H2.159v-4.743H5.066C7.055-11.254,7.939-10.285,7.939-8.908ZM8.993-3.2A2.994,2.994,0,0,0,6.545-6.171a2.764,2.764,0,0,0,2.176-2.8c0-1.632-1.105-2.958-3.6-2.958H1.394V0H5.185C7.718,0,8.993-1.411,8.993-3.2ZM11.237,0H12V-9.231h-.765Zm.391-11.288a.629.629,0,0,0,.646-.663.639.639,0,0,0-.646-.663.639.639,0,0,0-.646.663A.629.629,0,0,0,11.628-11.288ZM14.807,0h.765V-12.58h-.765Zm3.57,0h.765V-12.58h-.765Zm9.69-2.38c-.034-3.23-5.644-1.717-5.644-4.573,0-.952.935-1.751,2.278-1.751a2.249,2.249,0,0,1,2.55,2.074h.765c-.1-1.717-1.377-2.72-3.3-2.72-1.8,0-3.06,1.105-3.06,2.4,0,3.5,5.661,2.023,5.661,4.573,0,1-.85,1.853-2.3,1.853-1.751,0-2.72-.782-2.839-1.955H21.4c.17,1.7,1.6,2.618,3.621,2.618C26.792.136,28.067-.935,28.067-2.38Z" transform="translate(67 5631.155)" fill="#fff"/>
  </g>
</svg>
