<svg xmlns="http://www.w3.org/2000/svg" width="119.969" height="64.299" viewBox="0 0 119.969 64.299">
  <g id="Group_19973" data-name="Group 19973" transform="translate(-2305.031 942)">
    <g id="Group_16233" data-name="Group 16233" transform="translate(2305.031 -919.976)">
      <g id="Group_16232" data-name="Group 16232" transform="translate(0 0)">
        <path id="Path_27779" data-name="Path 27779" d="M1415.7,266.943a4.838,4.838,0,0,1,1.887,2.192v-2.8h4.716v15.481h-4.716v-2.8a4.835,4.835,0,0,1-1.887,2.192,5.6,5.6,0,0,1-3.052.8,6.268,6.268,0,0,1-3.427-.957,6.543,6.543,0,0,1-2.386-2.76,10.646,10.646,0,0,1,0-8.448,6.567,6.567,0,0,1,2.386-2.747,6.273,6.273,0,0,1,3.427-.957A5.608,5.608,0,0,1,1415.7,266.943Zm-3.981,4.356a4.606,4.606,0,0,0,0,5.549,3.483,3.483,0,0,0,4.911-.028,4.44,4.44,0,0,0,0-5.507,3.231,3.231,0,0,0-2.456-1.013A3.2,3.2,0,0,0,1411.721,271.3Z" transform="translate(-1405.964 -261.283)" fill="#19345e"/>
        <path id="Path_27780" data-name="Path 27780" d="M1538.449,234.742v20.53H1533.7v-20.53Z" transform="translate(-1513.951 -234.742)" fill="#19345e"/>
        <path id="Path_27781" data-name="Path 27781" d="M1588.7,258.018V262.1h-2.136a6.146,6.146,0,0,1-4.231-1.346q-1.512-1.346-1.512-4.453V250.61h-2.08v-4h2.08v-3.8h4.745v3.8h3.107v4h-3.107v5.771a1.738,1.738,0,0,0,.374,1.276,1.788,1.788,0,0,0,1.262.361Z" transform="translate(-1552.019 -241.566)" fill="#19345e"/>
        <path id="Path_27782" data-name="Path 27782" d="M1671.429,274.933h-10.737a3.588,3.588,0,0,0,.888,2.511,2.862,2.862,0,0,0,2.053.763,2.8,2.8,0,0,0,1.748-.527,2.463,2.463,0,0,0,.915-1.359h5.022a6.567,6.567,0,0,1-1.332,2.927,7.1,7.1,0,0,1-2.608,2.025,8.907,8.907,0,0,1-7.56-.222,6.834,6.834,0,0,1-2.76-2.76,9.49,9.49,0,0,1-.014-8.448,6.752,6.752,0,0,1,2.761-2.747,9.112,9.112,0,0,1,8.1-.014,6.668,6.668,0,0,1,2.7,2.65,7.888,7.888,0,0,1,.957,3.926A6.548,6.548,0,0,1,1671.429,274.933Zm-5.48-4.286a3.014,3.014,0,0,0-2.095-.763,3.106,3.106,0,0,0-2.164.776,3.251,3.251,0,0,0-.971,2.275h6.048A2.854,2.854,0,0,0,1665.95,270.646Z" transform="translate(-1617.384 -261.283)" fill="#19345e"/>
        <path id="Path_27783" data-name="Path 27783" d="M1780.245,267.149a5.841,5.841,0,0,1,3.038-.832v5.077h-1.359a4.69,4.69,0,0,0-2.927.8,3.233,3.233,0,0,0-1.04,2.719v7.047h-4.744V266.483h4.744V269.4A6.73,6.73,0,0,1,1780.245,267.149Z" transform="translate(-1716.421 -261.434)" fill="#19345e"/>
        <path id="Path_27784" data-name="Path 27784" d="M1859.186,267.149a5.843,5.843,0,0,1,3.038-.832v5.077h-1.359a4.691,4.691,0,0,0-2.927.8,3.233,3.233,0,0,0-1.04,2.719v7.047h-4.744V266.483h4.744V269.4A6.733,6.733,0,0,1,1859.186,267.149Z" transform="translate(-1783.155 -261.434)" fill="#19345e"/>
        <path id="Path_27785" data-name="Path 27785" d="M1935.629,266.943a4.841,4.841,0,0,1,1.887,2.192v-2.8h4.716v15.481h-4.716v-2.8a4.838,4.838,0,0,1-1.887,2.192,5.6,5.6,0,0,1-3.052.8,6.267,6.267,0,0,1-3.426-.957,6.543,6.543,0,0,1-2.386-2.76,10.647,10.647,0,0,1,0-8.448,6.567,6.567,0,0,1,2.386-2.747,6.272,6.272,0,0,1,3.426-.957A5.61,5.61,0,0,1,1935.629,266.943Zm-3.981,4.356a4.606,4.606,0,0,0,0,5.549,3.483,3.483,0,0,0,4.911-.028,4.439,4.439,0,0,0,0-5.507,3.23,3.23,0,0,0-2.455-1.013A3.2,3.2,0,0,0,1931.648,271.3Z" transform="translate(-1845.49 -261.283)" fill="#19345e"/>
      </g>
    </g>
    <circle id="Ellipse_1575" data-name="Ellipse 1575" cx="12.964" cy="12.964" r="12.964" transform="translate(2399.071 -942)" fill="#f47522"/>
    <path id="Path_44463" data-name="Path 44463" d="M8.712-3.438C8.712-1.746,7.488-.7,5.436-.7H2.286v-5.49h3.1C7.452-6.192,8.712-5.112,8.712-3.438ZM8.406-9.432c0,1.566-1.026,2.538-2.952,2.538H2.286v-5.022H5.364C7.47-11.916,8.406-10.89,8.406-9.432ZM9.522-3.384A3.17,3.17,0,0,0,6.93-6.534a2.926,2.926,0,0,0,2.3-2.97c0-1.728-1.17-3.132-3.816-3.132H1.476V0H5.49C8.172,0,9.522-1.494,9.522-3.384ZM11.9,0h.81V-9.774H11.9Zm.414-11.952a.666.666,0,0,0,.684-.7.677.677,0,0,0-.684-.7.677.677,0,0,0-.684.7A.666.666,0,0,0,12.312-11.952ZM15.678,0h.81V-13.32h-.81Zm3.78,0h.81V-13.32h-.81Zm10.26-2.52c-.036-3.42-5.976-1.818-5.976-4.842,0-1.008.99-1.854,2.412-1.854,1.728,0,2.628.972,2.7,2.2h.81c-.108-1.818-1.458-2.88-3.492-2.88-1.908,0-3.24,1.17-3.24,2.538,0,3.708,5.994,2.142,5.994,4.842,0,1.062-.9,1.962-2.43,1.962-1.854,0-2.88-.828-3.006-2.07h-.828C22.842-.828,24.354.144,26.5.144,28.368.144,29.718-.99,29.718-2.52Z" transform="translate(2305 -877.845)" fill="#19345e"/>
  </g>
</svg>
