<svg xmlns="http://www.w3.org/2000/svg" xmlns:xlink="http://www.w3.org/1999/xlink" width="35" height="42" viewBox="0 0 35 42">
  <defs>
    <clipPath id="clip-path">
      <rect id="Rectangle_9215" data-name="Rectangle 9215" width="35" height="42" transform="translate(-2.854 -3.853)" fill="#95a6bc"/>
    </clipPath>
  </defs>
  <g id="Group_22859" data-name="Group 22859" transform="translate(-230 -4302)">
    <g id="Group_22852" data-name="Group 22852" transform="translate(232.854 4305.853)" clip-path="url(#clip-path)">
      <path id="Path_44451" data-name="Path 44451" d="M325.048,488.322l.965,2.154a.506.506,0,0,0,.923-.414l-.965-2.153a.506.506,0,1,0-.923.414Zm0,0" transform="translate(-303.766 -461.632)" fill="#95a6bc"/>
      <path id="Path_44452" data-name="Path 44452" d="M129.357,234.693a2.84,2.84,0,0,0,0-5,4.4,4.4,0,0,1-1.092-1.395,4.553,4.553,0,0,1,.055-1.85,2.769,2.769,0,0,0-2.879-3.941,4.521,4.521,0,0,1-1.756-.51,4.476,4.476,0,0,1-1.01-1.5c-.47-.916-.957-1.865-1.892-2.169a3.74,3.74,0,0,0-2.728.629,4.6,4.6,0,0,1-1.775.633,4.6,4.6,0,0,1-1.775-.633,3.739,3.739,0,0,0-2.728-.629c-.935.3-1.422,1.253-1.892,2.17a2.669,2.669,0,0,1-2.766,2.006,2.769,2.769,0,0,0-2.879,3.941,4.55,4.55,0,0,1,.055,1.85A4.406,4.406,0,0,1,103.2,229.7a2.839,2.839,0,0,0,0,5,4.4,4.4,0,0,1,1.092,1.395,4.549,4.549,0,0,1-.055,1.849,2.769,2.769,0,0,0,2.879,3.942c.162.026.325.053.485.082L104.31,249.3a.506.506,0,0,0,.6.694l3.393-.933,1.561,3.153a.506.506,0,0,0,.454.282h.01a.506.506,0,0,0,.452-.3l2.85-6.358c.294-.123.588-.27.879-.416a4.6,4.6,0,0,1,1.774-.632,4.6,4.6,0,0,1,1.775.633c.291.146.584.292.879.415l2.85,6.36a.506.506,0,0,0,.452.3h.01a.505.505,0,0,0,.453-.282l1.561-3.153,3.393.933a.506.506,0,0,0,.6-.694l-3.293-7.343c.16-.029.323-.056.485-.082a2.769,2.769,0,0,0,2.879-3.941,4.551,4.551,0,0,1-.055-1.85,4.386,4.386,0,0,1,1.092-1.4Zm-19.068,16.114-1.27-2.565a.506.506,0,0,0-.588-.263l-2.76.759,2.918-6.507a1.552,1.552,0,0,1,.284.157,4.469,4.469,0,0,1,1.01,1.5c.471.918.957,1.867,1.892,2.17a1.865,1.865,0,0,0,.606.088Zm16.6-2.069-2.76-.759a.5.5,0,0,0-.588.263l-1.27,2.565-2.091-4.663h.021a1.88,1.88,0,0,0,.584-.091c.935-.3,1.422-1.252,1.892-2.17a4.469,4.469,0,0,1,1.01-1.5,1.533,1.533,0,0,1,.284-.156Zm.416-12.961a5.175,5.175,0,0,0,.017,2.313,3.2,3.2,0,0,1-.071,2.074c-.326.448-1.162.584-1.97.716a3.585,3.585,0,0,0-3.5,2.543c-.376.735-.766,1.5-1.3,1.67-.5.163-1.243-.21-1.961-.571a3.728,3.728,0,0,0-4.46,0c-.719.36-1.46.734-1.962.571-.538-.173-.928-.935-1.3-1.669a3.586,3.586,0,0,0-3.5-2.543c-.809-.131-1.645-.268-1.971-.716a3.2,3.2,0,0,1-.071-2.074,5.18,5.18,0,0,0,.017-2.313,5.013,5.013,0,0,0-1.339-1.8c-.588-.592-1.2-1.2-1.2-1.786s.609-1.195,1.2-1.785a5.018,5.018,0,0,0,1.338-1.8,5.175,5.175,0,0,0-.017-2.313,3.2,3.2,0,0,1,.071-2.074c.326-.448,1.162-.584,1.97-.716a3.585,3.585,0,0,0,3.5-2.543c.376-.735.766-1.495,1.3-1.669.5-.163,1.243.21,1.961.57a3.727,3.727,0,0,0,4.46,0c.717-.361,1.46-.733,1.961-.57.538.173.927.935,1.3,1.669a3.585,3.585,0,0,0,3.5,2.543c.809.132,1.645.268,1.97.716a3.2,3.2,0,0,1,.071,2.075,5.175,5.175,0,0,0-.017,2.313,5.02,5.02,0,0,0,1.338,1.8c.589.591,1.2,1.2,1.2,1.785s-.609,1.195-1.2,1.786a5,5,0,0,0-1.339,1.8Zm0,0" transform="translate(-101.989 -218.224)" fill="#95a6bc"/>
    </g>
    <path id="Path_44453" data-name="Path 44453" d="M159.146,259.273a10,10,0,1,0,10,10,10,10,0,0,0-10-10Zm0,18.983a8.986,8.986,0,1,1,8.986-8.986,8.986,8.986,0,0,1-8.986,8.986Zm0,0" transform="translate(87.996 4050.552)" fill="#95a6bc"/>
    <path id="Path_44454" data-name="Path 44454" d="M202.692,308.082l-3.493-.507-1.561-3.165a.506.506,0,0,0-.907,0l-1.563,3.165-3.493.507a.506.506,0,0,0-.28.863l2.527,2.464-.6,3.48a.506.506,0,0,0,.734.533l3.124-1.643,3.124,1.642a.506.506,0,0,0,.734-.532l-.6-3.48,2.527-2.464a.506.506,0,0,0-.28-.863Zm-3.144,2.788a.507.507,0,0,0-.145.447l.468,2.731-2.452-1.29a.507.507,0,0,0-.471,0l-2.454,1.289.468-2.73a.507.507,0,0,0-.145-.448l-1.984-1.934,2.742-.4a.507.507,0,0,0,.381-.277l1.226-2.484,1.226,2.484a.508.508,0,0,0,.381.277l2.742.4Zm0,0" transform="translate(49.959 4010.02)" fill="#95a6bc"/>
  </g>
</svg>
