<svg xmlns="http://www.w3.org/2000/svg" width="62" height="62" viewBox="0 0 62 62">
  <g id="Group_22196" data-name="Group 22196" transform="translate(-37 -1131)">
    <g id="Group_22195" data-name="Group 22195" transform="translate(-241 236)">
      <g id="Group_22190" data-name="Group 22190" transform="translate(183)">
        <circle id="Ellipse_2246" data-name="Ellipse 2246" cx="31" cy="31" r="31" transform="translate(95 895)" fill="#009e6a"/>
      </g>
    </g>
    <g id="dollar_3_" data-name="dollar (3)" transform="translate(52.5 1145)">
      <path id="Path_44066" data-name="Path 44066" d="M159.374,17.748A8.874,8.874,0,1,0,150.5,8.874,8.884,8.884,0,0,0,159.374,17.748Zm0-7.888a2.951,2.951,0,0,1-.986-5.734V2.958a.986.986,0,0,1,1.972,0V4.125A2.953,2.953,0,0,1,162.332,6.9a.986.986,0,1,1-1.972,0,.986.986,0,1,0-.986.986,2.951,2.951,0,0,1,.986,5.734V14.79a.986.986,0,0,1-1.972,0V13.622a2.953,2.953,0,0,1-1.972-2.776.986.986,0,1,1,1.972,0,.986.986,0,1,0,.986-.986Zm0,0" transform="translate(-140.14)" fill="#fff"/>
      <path id="Path_44067" data-name="Path 44067" d="M29.843,301.032a1.947,1.947,0,0,0-2.781.04l-2.9,3.116c-1.891,2.032-2.519,3.214-4.259,3.214H13.219a.986.986,0,0,1,0-1.972h5.028a1.972,1.972,0,1,0,0-3.944H15.585l-.375-.158a6.912,6.912,0,0,0-9.406-.276l-2.741,2.406H1.486a.976.976,0,0,0-.986.986v7.888a.986.986,0,0,0,.986.986H19.234a6.9,6.9,0,0,0,5.521-2.761l5.265-7.02A1.921,1.921,0,0,0,29.843,301.032Zm0,0" transform="translate(0 -279.663)" fill="#fff"/>
    </g>
  </g>
</svg>
