<svg id="Layer_1" data-name="Layer 1" xmlns="http://www.w3.org/2000/svg" viewBox="0 0 300 300"><defs><style>.cls-1{fill:#f47522;}.cls-2{fill:#1a345f;}</style></defs><title>03182020_alterra bills_icon</title><circle class="cls-1" cx="183.8" cy="115.96" r="83.79"/><path class="cls-2" d="M195.64,100.24A325.78,325.78,0,0,1,117.26,67a4.14,4.14,0,0,0-4.19,0A317.12,317.12,0,0,1,34.7,100.24a4.11,4.11,0,0,0-3,4V146.3c0,43.34,20,72,36.77,88.47,18,17.69,39.09,27.48,46.73,27.48s28.67-9.79,46.73-27.48c16.77-16.44,36.77-45.13,36.77-88.47V104.21A4.11,4.11,0,0,0,195.64,100.24Zm-5.21,46.06c0,40.48-18.65,67.25-34.3,82.58-17.76,17.4-36.74,25.13-41,25.13s-23.21-7.73-41-25.13c-15.64-15.33-34.3-42.1-34.3-82.58v-39a324.69,324.69,0,0,0,75.27-32,334.64,334.64,0,0,0,75.26,32Z"/><path class="cls-2" d="M78.65,106.87a4.12,4.12,0,0,0-5.34-2.32c-7.36,2.9-14.91,5.57-22.45,7.93A4.13,4.13,0,0,0,48,116.41v15.91a4.12,4.12,0,1,0,8.24,0V119.43c6.76-2.19,13.51-4.61,20.11-7.21A4.12,4.12,0,0,0,78.65,106.87Z"/><path class="cls-2" d="M86.48,107.66a4.22,4.22,0,0,0,1.65-.35l.08,0a4.12,4.12,0,1,0-3.33-7.54l-.07,0a4.12,4.12,0,0,0,1.67,7.89Z"/><path class="cls-2" d="M164.25,199.25a4.13,4.13,0,0,0-5.71,1.19,100,100,0,0,1-11.83,14.79,106,106,0,0,1-11.82,10.51,4.12,4.12,0,1,0,5,6.55A113,113,0,0,0,152.63,221a108.27,108.27,0,0,0,12.81-16A4.11,4.11,0,0,0,164.25,199.25Z"/><path class="cls-2" d="M125.32,232.2l-.23.14a4.12,4.12,0,0,0,2.07,7.68,4,4,0,0,0,2.05-.55l.28-.16a4.12,4.12,0,0,0-4.17-7.11Z"/><path class="cls-2" d="M87.09,155.93a13.39,13.39,0,0,0-18.94,18.94l24.32,24.32a13.4,13.4,0,0,0,18.94,0l50.78-50.77a13.4,13.4,0,0,0-18.94-18.95l-41.31,41.31Zm62-20.63a5.15,5.15,0,0,1,7.29,0,5.16,5.16,0,0,1,0,7.29l-50.77,50.78a5.17,5.17,0,0,1-7.3,0L74,169.05a5.16,5.16,0,0,1,3.65-8.81,5.11,5.11,0,0,1,3.64,1.51L99,179.52a4.13,4.13,0,0,0,5.82,0Z"/></svg>