<svg id="Layer_1" data-name="Layer 1" xmlns="http://www.w3.org/2000/svg" viewBox="0 0 300 300"><defs><style>.cls-1{fill:#f47522;}.cls-2{fill:#1a345f;}</style></defs><title>03172020_alterra bills_icon</title><circle class="cls-1" cx="183.8" cy="115.96" r="83.79"/><path class="cls-2" d="M168.7,79.51v-19a4.13,4.13,0,1,0-8.26,0v19a4.13,4.13,0,0,0,8.26,0Z"/><path class="cls-2" d="M69.58,185.23a4.13,4.13,0,1,0,4.13,4.13A4.13,4.13,0,0,0,69.58,185.23Z"/><path class="cls-2" d="M205.87,160.45H175c4.78-12.22,6.71-26.61,6.34-39.42-.07-2.45-.17-3.86-.29-4.75a16.52,16.52,0,0,0-33,.4v4.13c0,26.12-33.54,40.79-58.86,47.09a12.4,12.4,0,0,0-11.35-7.45H36.54a4.13,4.13,0,0,0-4.13,4.13V263.7a4.13,4.13,0,0,0,4.13,4.13h41.3a12.38,12.38,0,0,0,11.31-7.35L95,262c14.42,3.77,22.36,5.84,41.68,5.84h44.42a16.5,16.5,0,0,0,13.72-25.7,16.56,16.56,0,0,0,8.29-24.79,16.51,16.51,0,0,0,8.23-24.77,16.52,16.52,0,0,0-5.46-32.12ZM82,255.44a4.14,4.14,0,0,1-4.13,4.13H40.67V168.71H77.84A4.14,4.14,0,0,1,82,172.84Zm123.9-70.21H185.22a4.13,4.13,0,0,0,0,8.26h12.39a8.26,8.26,0,0,1,0,16.52H177a4.13,4.13,0,1,0,0,8.26h12.39a8.26,8.26,0,1,1,0,16.52H168.7a4.13,4.13,0,1,0,0,8.26h12.39a8.26,8.26,0,0,1,0,16.52H136.67c-18.25,0-25.39-1.86-39.59-5.57-2.08-.54-4.37-1.14-6.85-1.77V176.16c29.88-7.12,66.08-24.5,66.08-55.35v-4.13a8.26,8.26,0,0,1,16.52,0v0c0,1.79,2.24,23.82-6.75,43.77h-13.9a4.13,4.13,0,0,0,0,8.26h53.69a8.26,8.26,0,0,1,0,16.52Z"/><path class="cls-2" d="M69.58,201.75a4.13,4.13,0,0,0-4.13,4.13v33a4.13,4.13,0,1,0,8.26,0v-33A4.13,4.13,0,0,0,69.58,201.75Z"/><path class="cls-2" d="M110.88,112.55a4.13,4.13,0,0,0,4.13,4.13h16.52a4.13,4.13,0,0,0,0-8.26H115A4.13,4.13,0,0,0,110.88,112.55Z"/><path class="cls-2" d="M193.48,112.55a4.13,4.13,0,0,0,4.13,4.13h16.52a4.13,4.13,0,0,0,0-8.26H197.61A4.13,4.13,0,0,0,193.48,112.55Z"/><path class="cls-2" d="M196.69,74.58,185,86.26a4.13,4.13,0,0,0,5.84,5.84l11.68-11.68a4.13,4.13,0,1,0-5.84-5.84Z"/><path class="cls-2" d="M144.12,92.1a4.12,4.12,0,0,0,0-5.84L132.44,74.58a4.13,4.13,0,1,0-5.84,5.84L138.28,92.1A4.12,4.12,0,0,0,144.12,92.1Z"/></svg>