<svg id="Layer_1" data-name="Layer 1" xmlns="http://www.w3.org/2000/svg" viewBox="0 0 300 300"><defs><style>.cls-1{fill:#f47522;}.cls-2{fill:#1a345f;}</style></defs><title>03182020_alterra bills_icon</title><circle class="cls-1" cx="189.9" cy="115.34" r="83.79"/><path class="cls-2" d="M202.62,124.66a3.46,3.46,0,0,0,2.42-1l10.25-10.26a3.42,3.42,0,0,0,1-2.42,3.39,3.39,0,0,0-1-2.42L205,98.3a3.46,3.46,0,0,0-2.42-1,3.42,3.42,0,0,0-2.42,1l-10.26,10.26a3.42,3.42,0,0,0-1,2.42,3.46,3.46,0,0,0,1,2.42l10.26,10.26a3.42,3.42,0,0,0,2.42,1Zm0-19.11L208,111l-5.42,5.42L197.19,111Zm0,0"/><path class="cls-2" d="M56.56,82.62a3.43,3.43,0,0,0,4.84,0L71.66,72.36a3.43,3.43,0,0,0,0-4.84L61.4,57.26a3.43,3.43,0,0,0-4.84,0L46.3,67.52a3.43,3.43,0,0,0,0,4.84ZM59,64.52l5.42,5.42L59,75.36l-5.42-5.42Zm0,0"/><path class="cls-2" d="M151.32,138.34H96.6a10.27,10.27,0,1,0,9.67,6.84h28.54a10.26,10.26,0,1,0,19.2-.36,10.26,10.26,0,0,0,1.32-19.34l6.17-30.85,2.75-11h7.59a3.42,3.42,0,0,0,0-6.84H161.58a3.42,3.42,0,0,0-3.32,2.59l-2.77,11.09H89.76a3.41,3.41,0,0,0-3.35,4.09l6.84,34.2a3.41,3.41,0,0,0,3.35,2.75h54.72a3.42,3.42,0,1,1,0,6.84Zm.61-30.78h-8.8l1-10.26H154Zm-31.39,6.84v10.26h-7.17l-1-10.26Zm-8.88-6.84-1-10.26h9.9v10.26Zm15.72,6.84h8.19l-1,10.26h-7.16Zm0-6.84V97.3h9.9l-1,10.26ZM103.76,97.3l1,10.26H96l-2-10.26Zm-6.41,17.1h8.12l1,10.26H99.4Zm44.07,10.26,1-10.26h8.13l-2.06,10.26ZM100,148.6a3.42,3.42,0,1,1-3.42-3.42A3.42,3.42,0,0,1,100,148.6ZM144.48,152a3.42,3.42,0,1,1,3.42-3.42,3.44,3.44,0,0,1-3.42,3.42Zm0,0"/><path class="cls-2" d="M215.55,184.08,201.87,167a3.42,3.42,0,0,0-2.67-1.28H48.72A3.42,3.42,0,0,0,46.05,167l-13.6,17a3.52,3.52,0,0,0-.81,2.6,3.42,3.42,0,0,0,3.4,3.06H45.3v46a3.42,3.42,0,0,0,3.42,3.42h0a3.42,3.42,0,0,0,3.42-3.42v-46h65a3.43,3.43,0,0,0,2.67-1.29l7.59-9.48v75.75H55.56a3.42,3.42,0,0,1-3.42-3.42v-.84a3.42,3.42,0,0,0-3.42-3.42h0a3.42,3.42,0,0,0-3.42,3.42V258a3.42,3.42,0,0,0,3.42,3.41H199.2a3.42,3.42,0,0,0,3.42-3.41v-68.4h10.15a3.51,3.51,0,0,0,2.52-1A3.41,3.41,0,0,0,215.55,184.08ZM115.48,182.8H42.16l8.2-10.26h73.32Zm80.3,71.82H134.22V178.87l7.59,9.48a3.43,3.43,0,0,0,2.67,1.29h51.3ZM146.12,182.8l-8.21-10.26h59.64l8.21,10.26Z"/></svg>