<svg xmlns="http://www.w3.org/2000/svg" width="314.538" height="202" viewBox="0 0 314.538 202">
  <g id="text-quotes-" transform="translate(0 -8.264)">
    <path id="Path_44425" data-name="Path 44425" d="M98.124,8.264c-40.159,0-71.868,32.56-71.868,72.719S59.238,153.7,99.4,153.7c.4,0,1.008-.054,1.409-.061A92.118,92.118,0,0,1,43.155,173.9a18.134,18.134,0,0,0-18.125,18.18c0,10.036,6.462,18.18,16.5,18.18,71.283-.007,127.606-58,127.606-129.281v-.048C169.141,40.8,138.269,8.264,98.124,8.264Z" transform="translate(145.397 0)" fill="#e3f1ff"/>
    <path id="Path_44426" data-name="Path 44426" d="M73.2,8.264c-40.159,0-71.923,32.56-71.923,72.719S34.228,153.7,74.394,153.7c.4,0,.994-.054,1.4-.061A92.137,92.137,0,0,1,18.132,173.9,18.14,18.14,0,0,0,0,192.084c0,10.036,6.564,18.18,16.607,18.18,71.283-.007,127.708-58,127.708-129.281v-.048C144.315,40.8,113.341,8.264,73.2,8.264Z" transform="translate(0 0)" fill="#e3f1ff"/>
  </g>
</svg>
